<?xml version="1.0" encoding="UTF-8"?>
<svg id="Layer_2" data-name="Layer 2" xmlns="http://www.w3.org/2000/svg" viewBox="0 0 199.81 182.99">
  <defs>
    <style>
      .cls-1 {
        fill: #fff;
      }
    </style>
  </defs>
  <g id="Options">
    <g>
      <path class="cls-1" d="m0,79.6c.35-1.58.66-3.17,1.07-4.73,3.79-14.56,16.54-24.76,31.56-24.96,13-.17,26.01-.05,39.01-.05,41.87,0,83.74.01,125.62-.05,1.99,0,2.59.44,2.56,2.52-.14,7.86.03,15.73-.09,23.6-.57,38.99-28.4,72.57-66.6,80.44-34.44,7.09-70.1-8.47-88.13-38.53-.66-1.09-1.33-1.48-2.6-1.5-5.51-.08-11.04.48-16.51-.79-13.31-3.08-23.52-14.09-25.51-27.63-.06-.44-.24-.87-.36-1.3,0-2.34,0-4.68,0-7.02Zm116.6-13.17c-15.08,0-30.16,0-45.24,0-6.57,0-13.13,0-19.7,0-.94,0-1.75-.12-1.74,1.33.04,5.91-.1,11.83.88,17.7,4.62,27.7,25.89,49.42,53.62,54.76,31.69,6.1,63.78-12.36,74.76-42.89,3.34-9.28,4.14-18.83,3.97-28.58-.03-1.88-.5-2.36-2.38-2.36-21.39.07-42.77.04-64.16.04Zm-83.33,7.65c0-1.7-.05-3.91.02-6.12.04-1.21-.33-1.54-1.57-1.42-11.24,1.04-18.35,13.12-13.56,23.35,3.43,7.33,9.59,10.14,17.45,9.94,1.65-.04,1.78-.44,1.33-1.87-2.4-7.6-3.54-15.41-3.67-23.88Z"/>
      <path class="cls-1" d="m39.8,182.99c-5.27-2.12-6.53-4.04-6.53-9.91,0-1.69.08-3.38-.03-5.07-.09-1.42.48-1.88,1.8-1.71.26.03.52,0,.78,0,53.81,0,107.62,0,161.43,0,2.9,0,2.48-.28,2.51,2.47.02,1.36-.08,2.74.02,4.09.35,4.9-1.38,8.47-6.26,10.11H39.8Z"/>
      <path class="cls-1" d="m93.11,41.38c-1.2-.02-2.65-.38-3.39-1.92-.75-1.55-.37-3.01.67-4.36,2.59-3.36,2.5-6.52-.27-9.9-.99-1.2-2.12-2.3-3.05-3.55-4.64-6.21-4.53-14.27.14-19.84,1.11-1.32,2.46-1.83,4.1-1.8,1.37.02,2.39.76,2.95,1.91.55,1.12.3,2.26-.51,3.27-.65.81-1.3,1.64-1.77,2.55-1.9,3.68-1.02,7.01,2.38,9.33,7.73,5.26,9.2,15.17,3.35,22.31-1.14,1.39-2.52,1.96-4.61,1.99Z"/>
      <path class="cls-1" d="m118.05,41.38c-1.15-.01-2.61-.37-3.36-1.91-.75-1.55-.38-3.01.65-4.36,2.6-3.37,2.51-6.52-.25-9.9-.99-1.21-2.11-2.3-3.05-3.55-4.64-6.21-4.54-14.27.12-19.84,1.11-1.32,2.46-1.84,4.1-1.81,1.37.02,2.39.75,2.96,1.9.55,1.12.35,2.29-.51,3.26-.74.83-1.39,1.72-1.87,2.72-1.74,3.64-.86,6.9,2.48,9.17,7.74,5.26,9.21,15.16,3.37,22.31-1.13,1.39-2.51,1.97-4.65,2Z"/>
      <path class="cls-1" d="m143.38,41.38c-1.57-.03-3.01-.41-3.74-1.96-.7-1.48-.37-2.9.59-4.2,2.7-3.62,2.6-6.75-.32-10.2-.97-1.14-2.03-2.2-2.92-3.4-4.7-6.33-4.48-14.75.47-20.12,1.48-1.61,4.04-1.99,5.64-.84,1.58,1.14,1.84,2.83.7,4.42-.61.84-1.31,1.63-1.79,2.53-2,3.73-1.13,7.11,2.35,9.48,7.65,5.21,9.13,15.01,3.4,22.18-1.16,1.45-2.57,2.11-4.37,2.11Z"/>
    </g>
  </g>
</svg>