<?xml version="1.0" encoding="UTF-8"?>
<svg id="Layer_2" data-name="Layer 2" xmlns="http://www.w3.org/2000/svg" viewBox="0 0 193.31 179.51">
  <defs>
    <style>
      .cls-1 {
        fill: #fff;
      }
    </style>
  </defs>
  <g id="Options">
    <path class="cls-1" d="m111.27,56.06c-26.56-2.45-51.13,1.15-73.32,15.62-9.45,6.16-17.12,14.07-21.28,24.78-4.02,10.33-3.94,20.64,1.22,30.65,5.22,10.12,17.36,13.3,26.83,6.95,5.19-3.48,10.75-5.62,17-6.11,17.36-1.38,33.43,12.73,34.19,30.13.09,2.08.08,4.17.09,6.25,0,.82.12,1.38,1.16,1.35,26.81-.7,51.56-6.93,70.77-27.19,8.02-8.46,12.3-18.71,11.5-30.58-.76-11.3-6.02-20.51-13.97-28.33-1.23-1.21-2.58-2.29-3.81-3.5-2.67-2.65-2.81-6.8-.36-9.54,2.39-2.67,6.53-3.18,9.34-.81,14.34,12.09,23.05,27.06,22.61,46.3-.31,13.9-5.99,25.73-15.21,35.9-12.4,13.68-28.16,21.74-45.67,26.74-14.16,4.05-28.66,5.13-43.31,4.77-4.05-.1-6.76-3.02-6.84-7.34-.07-4.02.02-8.05-.04-12.07-.1-7.35-3.48-12.84-9.95-16.18-6.45-3.33-13.02-3.12-18.96,1.17-15.61,11.28-40.28,7.1-49.18-14.77-6.87-16.88-4.92-33.09,4.62-48.39,8.57-13.76,21.11-22.99,35.68-29.51,23.97-10.73,49.03-13.25,74.8-8.83,3.74.64,6.26.05,9.12-2.58,13.58-12.52,27.39-24.78,41.17-37.08,4.7-4.19,10.1-4.93,15.83-2.41,5.03,2.21,8.21,7.5,7.99,12.98-.16,3.95-2.06,7.06-4.7,9.87-11.23,11.93-22.41,23.91-33.6,35.88-7.51,8.03-15,16.08-22.55,24.08-.95,1.01-1.42,1.99-1.3,3.42,1.28,15.48-11.06,27.19-24.77,29.27-2.14.33-4.28.41-6.44.41-9.92,0-19.84,0-29.75,0-4.36,0-7.25-2.14-7.87-5.8-.58-3.43,1.37-6.36,5.24-7.86,4-1.55,5.61-3.96,5.74-8.65.09-3.15-.11-6.31.47-9.45,2.17-11.66,12.35-21.39,24.17-23,.71-.1,1.42-.25,2.13-.31,1.5-.11,3-.15,4.5-.26.18-.01.36-.23.52-.37,1.9-1.72,3.8-3.44,6.2-5.6Zm-15.84,47.5c2.87-.17,6.32.31,9.74-.4,6.78-1.42,12.1-6.86,12.25-12.66.25-9.89-6.94-14.62-15.72-14.41-7.91.19-14.99,6.77-14.64,15.25.15,3.65.12,7.33-1,10.88-.33,1.05-.04,1.39,1.06,1.37,2.58-.06,5.17-.02,8.31-.02ZM177.83,15.55c-.11-.13-.22-.25-.34-.38-19.27,17.31-38.54,34.61-57.9,52,1.34,1.2,2.73,2.23,3.86,3.51,1.1,1.25,1.72,1.26,2.9,0,12.71-13.69,25.49-27.31,38.25-40.96,4.41-4.72,8.82-9.44,13.23-14.16Z"/>
  </g>
</svg>