<?xml version="1.0" encoding="UTF-8"?>
<svg id="Layer_2" data-name="Layer 2" xmlns="http://www.w3.org/2000/svg" viewBox="0 0 203.3 140.47">
  <defs>
    <style>
      .cls-1 {
        fill: #fff;
      }
    </style>
  </defs>
  <g id="Options">
    <g>
      <path class="cls-1" d="m194.18,34.82c0,3.37,0,6.74,0,10.11,0,3.77-1.77,6.44-5.19,7.93-4.59,2-9.23,3.89-13.83,5.86-1.23.53-2.39.46-3.64.09-9.69-2.82-19.4-5.58-29.08-8.4-1.11-.32-2.08-.32-3.17.11-13.46,5.32-26.92,10.63-40.41,15.86-1.32.51-1.53,1.24-1.52,2.46.04,5.8-.03,11.6.04,17.4.04,2.95-1.2,4.87-3.92,6.02-6.34,2.68-12.65,5.42-18.97,8.17-2.75,1.2-5.38,1.13-8.17-.05-20.02-8.49-40.07-16.91-60.11-25.35C1.36,72.98,0,70.95,0,65.7c0-4.94,0-9.87,0-14.81,0-5.46,1.39-7.47,6.49-9.22,31.44-10.81,62.87-21.62,94.32-32.4,8.58-2.94,17.21-5.74,25.79-8.7,2.03-.7,3.94-.73,5.96-.13,18.24,5.35,36.49,10.65,54.73,16.01,5.12,1.5,6.88,3.94,6.89,9.22,0,3.06,0,6.11,0,9.17Zm-104.5,43.38h.14c0-2.12-.06-4.23.02-6.34.05-1.46-.36-1.77-1.75-1.2-4.33,1.79-8.75,3.4-13.06,5.24-2.87,1.23-5.62,1.1-8.42-.01-4.87-1.93-9.73-3.89-14.59-5.83-14.08-5.63-28.17-11.25-42.25-16.87q-2.56-1.02-2.56,1.84c0,3.6.05,7.21-.03,10.81-.03,1.42.32,2.2,1.77,2.79,20.03,8.22,40.04,16.51,60.03,24.83,1.2.5,2.2.45,3.35-.06,3.49-1.57,7.03-3.05,10.53-4.6,2.28-1.01,5.43-1.49,6.57-3.26,1.14-1.77.25-4.84.25-7.33Zm-3.79-14.93c-1.28-.55-2.04-.91-2.81-1.21-14.13-5.54-28.25-11.08-42.38-16.6-3.42-1.34-6.86-3.62-10.3-3.64-3.62-.02-7.27,2.1-10.88,3.38-1.46.51-3.07.75-4.47,1.92,16.6,6.69,33.05,13.14,49.34,20.01,4.45,1.88,8.28,2.25,12.54-.1,2.69-1.48,5.68-2.41,8.98-3.76Zm-44.71-25.63c4.75,1.88,8.98,3.5,13.17,5.21,13.52,5.52,27.37,10.23,40.66,16.32.42.19.75.1,1.1-.04,4.61-1.8,9.22-3.61,13.8-5.4-.25-.87-.82-.81-1.22-.96-17.52-6.47-35.05-12.93-52.58-19.38-.74-.27-1.46-.51-2.27-.22-4.04,1.44-8.09,2.86-12.67,4.47Zm95.23,5.88c-.55-.29-.72-.41-.91-.48-18.26-6.02-36.52-12.02-54.78-18.05-.61-.2-1.2-.41-1.83-.19-4.05,1.38-8.1,2.78-12.31,4.23.35.24.46.35.59.4,17.67,6.52,35.34,13.04,53.01,19.56.6.22,1.2.42,1.83.18,4.71-1.84,9.41-3.69,14.4-5.66Zm24.95-9.59c-.91-.33-1.41-.55-1.93-.7-16.31-4.99-32.67-9.83-48.9-15.06-4.49-1.44-8.55-1.81-12.81.26-1.82.88-3.95,1.05-5.91,2.32,18.48,6.15,36.66,12.2,54.85,18.25.53.17,1.03.42,1.59.2,4.26-1.71,8.52-3.43,13.12-5.28Zm24.92-9.78c-.98-.32-1.28-.42-1.58-.51-17.86-5.24-35.72-10.47-53.59-15.7-.52-.15-1.14-.36-1.6-.22-4.2,1.31-8.38,2.69-12.95,4.18.65.38.83.52,1.02.58,17.94,5.51,35.89,11.01,53.84,16.51.51.16.99.43,1.58.21,4.21-1.62,8.44-3.21,13.28-5.05Zm-33.49,20.99l.09.55c6.38,1.84,12.76,3.66,19.13,5.53.77.23,1.39.01,2.03-.25,3.62-1.47,7.22-3.03,10.88-4.42,1.2-.46,1.47-1.12,1.44-2.28-.1-3.29-.17-6.59-.11-9.88.04-1.9-.33-2.57-2.35-1.67-3.14,1.4-6.39,2.56-9.59,3.83-7.17,2.86-14.34,5.72-21.52,8.58Z"/>
      <path class="cls-1" d="m95.05,140.47c-6.44,0-12.12-4.4-13.6-10.55-1.57-6.51,1.42-13.05,7.32-16,5.91-2.96,12.92-1.52,17.11,3.85,1.31,1.67,2.26,1.69,4.02.99,23.13-9.13,46.3-18.18,69.45-27.27,1.88-.74,3.64-1.09,5.11.72,1.95,2.41,1.09,4.97-2.13,6.24-7.86,3.08-15.74,6.12-23.61,9.19-15.74,6.13-31.47,12.28-47.24,18.36-1.61.62-2.41,1.42-2.74,3.22-1.24,6.67-6.96,11.26-13.68,11.26Zm.08-7.53c3.5-.02,6.45-2.93,6.47-6.39.01-3.53-3.07-6.62-6.58-6.59-3.43.03-6.45,3.03-6.48,6.44-.04,3.5,3.04,6.56,6.6,6.54Z"/>
      <path class="cls-1" d="m112.89,109.87c-6.26,0-11.81-4.14-13.52-10.08-1.76-6.14.73-12.57,6.16-15.89,5.42-3.32,12.42-2.76,16.86,1.84,1.79,1.85,3.07,1.74,5.16.91,23.22-9.13,46.49-18.16,69.73-27.24,1.7-.67,3.26-1.1,4.75.4,2.08,2.1,1.56,4.76-1.36,5.98-4.91,2.05-9.87,3.96-14.83,5.9-18.93,7.44-37.86,14.88-56.81,22.26-1.53.6-2.06,1.36-2.23,3.01-.78,7.61-6.61,12.91-13.93,12.91Zm-6.23-13.68c.05,3.49,3.03,6.44,6.49,6.42,3.57-.02,6.51-3.11,6.41-6.73-.09-3.49-3.09-6.33-6.6-6.26-3.51.07-6.35,3.04-6.3,6.57Z"/>
    </g>
  </g>
</svg>