<?xml version="1.0" encoding="UTF-8"?>
<svg id="Layer_2" data-name="Layer 2" xmlns="http://www.w3.org/2000/svg" viewBox="0 0 1924 924">
  <defs>
    <style>
      .cls-1 {
        fill: #fff;
      }
    </style>
  </defs>
  <g id="Export_Q" data-name="Export Q">
    <rect width="1924" height="924"/>
    <g>
      <path class="cls-1" d="m168.38,122.49l-14.54,50.18h-7.34l-11.66-40.39-12.1,40.39-7.27.07-14.04-50.26h6.98l10.94,42.55,12.1-42.55h7.34l11.52,42.41,11.02-42.41h7.06Z"/>
      <path class="cls-1" d="m203.23,134.41c2.4,1.27,4.28,3.18,5.65,5.72,1.37,2.54,2.05,5.64,2.05,9.29v23.26h-6.48v-22.32c0-3.94-.98-6.95-2.95-9.04-1.97-2.09-4.66-3.13-8.06-3.13s-6.2,1.08-8.24,3.24c-2.04,2.16-3.06,5.3-3.06,9.43v21.82h-6.55v-53.28h6.55v19.44c1.3-2.02,3.08-3.58,5.36-4.68,2.28-1.1,4.83-1.66,7.67-1.66,2.98,0,5.66.64,8.06,1.91Z"/>
      <path class="cls-1" d="m221.66,142.18c1.63-3.05,3.88-5.41,6.73-7.09,2.86-1.68,6.04-2.52,9.54-2.52s6.46.74,9,2.23c2.54,1.49,4.44,3.36,5.69,5.62v-7.2h6.62v39.46h-6.62v-7.34c-1.3,2.3-3.23,4.21-5.8,5.72-2.57,1.51-5.56,2.27-8.96,2.27s-6.67-.86-9.5-2.59-5.06-4.15-6.7-7.27c-1.63-3.12-2.45-6.67-2.45-10.66s.82-7.57,2.45-10.62Zm29.16,2.92c-1.2-2.21-2.82-3.9-4.86-5.08-2.04-1.18-4.28-1.76-6.73-1.76s-4.68.58-6.7,1.73c-2.02,1.15-3.62,2.83-4.82,5.04-1.2,2.21-1.8,4.8-1.8,7.78s.6,5.65,1.8,7.88c1.2,2.23,2.81,3.94,4.82,5.11,2.02,1.18,4.25,1.76,6.7,1.76s4.69-.59,6.73-1.76c2.04-1.18,3.66-2.88,4.86-5.11,1.2-2.23,1.8-4.84,1.8-7.81s-.6-5.57-1.8-7.78Z"/>
      <path class="cls-1" d="m278.32,138.62v23.26c0,1.92.41,3.28,1.22,4.07.82.79,2.23,1.19,4.25,1.19h4.82v5.54h-5.9c-3.65,0-6.38-.84-8.21-2.52-1.83-1.68-2.74-4.44-2.74-8.28v-23.26h-5.11v-5.4h5.11v-9.94h6.55v9.94h10.3v5.4h-10.3Z"/>
      <path class="cls-1" d="m315.98,125.52c-.86-.86-1.3-1.92-1.3-3.17s.43-2.3,1.3-3.17c.86-.86,1.92-1.3,3.17-1.3s2.22.43,3.06,1.3c.84.86,1.26,1.92,1.26,3.17s-.42,2.3-1.26,3.17c-.84.86-1.86,1.3-3.06,1.3s-2.3-.43-3.17-1.3Zm6.34,7.7v39.46h-6.55v-39.46h6.55Z"/>
      <path class="cls-1" d="m339.31,171.78c-2.4-1.03-4.3-2.47-5.69-4.32-1.39-1.85-2.16-3.97-2.3-6.37h6.77c.19,1.97,1.12,3.58,2.77,4.82,1.66,1.25,3.83,1.87,6.52,1.87,2.5,0,4.46-.55,5.9-1.66,1.44-1.1,2.16-2.5,2.16-4.18s-.77-3.01-2.3-3.85c-1.54-.84-3.91-1.67-7.13-2.48-2.93-.77-5.32-1.55-7.16-2.34s-3.43-1.97-4.75-3.53c-1.32-1.56-1.98-3.61-1.98-6.16,0-2.02.6-3.86,1.8-5.54,1.2-1.68,2.9-3.01,5.11-4,2.21-.98,4.73-1.48,7.56-1.48,4.37,0,7.9,1.1,10.58,3.31,2.69,2.21,4.13,5.23,4.32,9.07h-6.55c-.14-2.06-.97-3.72-2.48-4.97-1.51-1.25-3.54-1.87-6.08-1.87-2.35,0-4.22.5-5.62,1.51-1.39,1.01-2.09,2.33-2.09,3.96,0,1.3.42,2.36,1.26,3.2.84.84,1.9,1.51,3.17,2.02,1.27.5,3.04,1.07,5.29,1.69,2.83.77,5.13,1.52,6.91,2.27,1.77.75,3.3,1.86,4.57,3.35,1.27,1.49,1.93,3.43,1.98,5.83,0,2.16-.6,4.1-1.8,5.83-1.2,1.73-2.89,3.08-5.08,4.07-2.19.98-4.69,1.48-7.52,1.48-3.02,0-5.74-.52-8.14-1.55Z"/>
      <path class="cls-1" d="m398.27,138.62v23.26c0,1.92.41,3.28,1.22,4.07.82.79,2.23,1.19,4.25,1.19h4.82v5.54h-5.9c-3.65,0-6.38-.84-8.21-2.52-1.82-1.68-2.74-4.44-2.74-8.28v-23.26h-5.11v-5.4h5.11v-9.94h6.55v9.94h10.3v5.4h-10.3Z"/>
      <path class="cls-1" d="m444.14,134.41c2.4,1.27,4.29,3.18,5.65,5.72,1.37,2.54,2.05,5.64,2.05,9.29v23.26h-6.48v-22.32c0-3.94-.98-6.95-2.95-9.04-1.97-2.09-4.66-3.13-8.06-3.13s-6.21,1.08-8.24,3.24c-2.04,2.16-3.06,5.3-3.06,9.43v21.82h-6.55v-53.28h6.55v19.44c1.3-2.02,3.08-3.58,5.36-4.68,2.28-1.1,4.83-1.66,7.67-1.66,2.98,0,5.66.64,8.06,1.91Z"/>
      <path class="cls-1" d="m498.35,155.4h-31.54c.24,3.89,1.57,6.92,4,9.11,2.42,2.18,5.36,3.28,8.82,3.28,2.83,0,5.2-.66,7.09-1.98,1.9-1.32,3.23-3.08,4-5.29h7.06c-1.06,3.79-3.17,6.88-6.34,9.25s-7.1,3.56-11.81,3.56c-3.74,0-7.09-.84-10.04-2.52-2.95-1.68-5.27-4.07-6.95-7.16-1.68-3.1-2.52-6.68-2.52-10.76s.82-7.66,2.45-10.73c1.63-3.07,3.92-5.44,6.88-7.09,2.95-1.66,6.35-2.48,10.19-2.48s7.06.82,9.94,2.45c2.88,1.63,5.1,3.88,6.66,6.73,1.56,2.86,2.34,6.08,2.34,9.68,0,1.25-.07,2.57-.22,3.96Zm-8.21-11.77c-1.1-1.8-2.6-3.17-4.5-4.1-1.9-.94-4-1.4-6.3-1.4-3.31,0-6.13,1.06-8.46,3.17-2.33,2.11-3.66,5.04-4,8.78h24.91c0-2.5-.55-4.64-1.66-6.44Z"/>
      <path class="cls-1" d="m526.65,125.52c-.86-.86-1.3-1.92-1.3-3.17s.43-2.3,1.3-3.17c.86-.86,1.92-1.3,3.17-1.3s2.22.43,3.06,1.3c.84.86,1.26,1.92,1.26,3.17s-.42,2.3-1.26,3.17c-.84.86-1.86,1.3-3.06,1.3s-2.3-.43-3.17-1.3Zm6.34,7.7v39.46h-6.55v-39.46h6.55Z"/>
      <path class="cls-1" d="m575.03,136.86c2.98,2.9,4.46,7.09,4.46,12.56v23.26h-6.48v-22.32c0-3.94-.98-6.95-2.95-9.04-1.97-2.09-4.66-3.13-8.06-3.13s-6.21,1.08-8.24,3.24c-2.04,2.16-3.06,5.3-3.06,9.43v21.82h-6.55v-39.46h6.55v5.62c1.3-2.02,3.06-3.58,5.29-4.68,2.23-1.1,4.69-1.66,7.38-1.66,4.8,0,8.69,1.45,11.66,4.36Z"/>
      <path class="cls-1" d="m602.57,134.84c2.57-1.51,5.55-2.27,8.96-2.27s6.68.84,9.54,2.52c2.85,1.68,5.1,4.04,6.73,7.09,1.63,3.05,2.45,6.59,2.45,10.62s-.82,7.54-2.45,10.66c-1.63,3.12-3.88,5.54-6.73,7.27-2.86,1.73-6.04,2.59-9.54,2.59s-6.32-.76-8.89-2.27c-2.57-1.51-4.52-3.4-5.87-5.65v25.99h-6.55v-58.18h6.55v7.27c1.3-2.26,3.23-4.14,5.8-5.65Zm19.19,10.19c-1.2-2.21-2.82-3.89-4.86-5.04s-4.28-1.73-6.73-1.73-4.62.59-6.66,1.76c-2.04,1.18-3.67,2.88-4.9,5.11-1.22,2.23-1.84,4.81-1.84,7.74s.61,5.58,1.84,7.81c1.22,2.23,2.86,3.94,4.9,5.11,2.04,1.18,4.26,1.76,6.66,1.76s4.69-.59,6.73-1.76c2.04-1.18,3.66-2.88,4.86-5.11,1.2-2.23,1.8-4.86,1.8-7.88s-.6-5.57-1.8-7.78Z"/>
      <path class="cls-1" d="m673.89,133.22v39.46h-6.55v-5.83c-1.25,2.02-2.99,3.59-5.22,4.72-2.23,1.13-4.69,1.69-7.38,1.69-3.07,0-5.83-.64-8.28-1.91-2.45-1.27-4.38-3.18-5.79-5.72-1.42-2.54-2.12-5.64-2.12-9.29v-23.11h6.48v22.25c0,3.89.98,6.88,2.95,8.96,1.97,2.09,4.66,3.13,8.06,3.13s6.26-1.08,8.28-3.24c2.02-2.16,3.02-5.3,3.02-9.43v-21.67h6.55Z"/>
      <path class="cls-1" d="m692.97,138.62v23.26c0,1.92.41,3.28,1.22,4.07.82.79,2.23,1.19,4.25,1.19h4.82v5.54h-5.9c-3.65,0-6.38-.84-8.21-2.52-1.83-1.68-2.74-4.44-2.74-8.28v-23.26h-5.11v-5.4h5.11v-9.94h6.55v9.94h10.3v5.4h-10.3Z"/>
      <path class="cls-1" d="m737.57,170.8c-3-1.68-5.35-4.07-7.06-7.16-1.71-3.1-2.56-6.68-2.56-10.76s.88-7.6,2.63-10.69c1.75-3.1,4.14-5.47,7.16-7.13,3.02-1.66,6.41-2.48,10.15-2.48s7.13.83,10.15,2.48c3.02,1.66,5.41,4.02,7.16,7.09,1.75,3.07,2.63,6.65,2.63,10.73s-.9,7.67-2.7,10.76c-1.8,3.1-4.24,5.48-7.31,7.16-3.07,1.68-6.48,2.52-10.22,2.52s-7.04-.84-10.04-2.52Zm16.67-4.9c2.06-1.1,3.73-2.76,5-4.97,1.27-2.21,1.91-4.9,1.91-8.06s-.62-5.86-1.87-8.06c-1.25-2.21-2.88-3.85-4.9-4.93-2.02-1.08-4.2-1.62-6.55-1.62s-4.6.54-6.59,1.62c-1.99,1.08-3.59,2.72-4.79,4.93-1.2,2.21-1.8,4.9-1.8,8.06s.59,5.93,1.76,8.14c1.18,2.21,2.75,3.85,4.72,4.93s4.13,1.62,6.48,1.62,4.56-.55,6.62-1.66Z"/>
      <path class="cls-1" d="m792.54,138.62h-8.28v34.06h-6.55v-34.06h-5.11v-5.4h5.11v-2.81c0-4.42,1.14-7.64,3.42-9.68,2.28-2.04,5.94-3.06,10.98-3.06v5.47c-2.88,0-4.91.56-6.08,1.69-1.18,1.13-1.76,2.99-1.76,5.58v2.81h8.28v5.4Z"/>
      <path class="cls-1" d="m827.39,138.62v23.26c0,1.92.41,3.28,1.22,4.07.82.79,2.23,1.19,4.25,1.19h4.82v5.54h-5.9c-3.65,0-6.38-.84-8.21-2.52-1.82-1.68-2.74-4.44-2.74-8.28v-23.26h-5.11v-5.4h5.11v-9.94h6.55v9.94h10.3v5.4h-10.3Z"/>
      <path class="cls-1" d="m873.25,134.41c2.4,1.27,4.29,3.18,5.65,5.72,1.37,2.54,2.05,5.64,2.05,9.29v23.26h-6.48v-22.32c0-3.94-.98-6.95-2.95-9.04-1.97-2.09-4.66-3.13-8.06-3.13s-6.21,1.08-8.24,3.24c-2.04,2.16-3.06,5.3-3.06,9.43v21.82h-6.55v-53.28h6.55v19.44c1.3-2.02,3.08-3.58,5.36-4.68,2.28-1.1,4.83-1.66,7.67-1.66,2.98,0,5.66.64,8.06,1.91Z"/>
      <path class="cls-1" d="m891.9,125.52c-.86-.86-1.3-1.92-1.3-3.17s.43-2.3,1.3-3.17c.86-.86,1.92-1.3,3.17-1.3s2.22.43,3.06,1.3c.84.86,1.26,1.92,1.26,3.17s-.42,2.3-1.26,3.17c-.84.86-1.86,1.3-3.06,1.3s-2.3-.43-3.17-1.3Zm6.34,7.7v39.46h-6.55v-39.46h6.55Z"/>
      <path class="cls-1" d="m915.23,171.78c-2.4-1.03-4.3-2.47-5.69-4.32-1.39-1.85-2.16-3.97-2.3-6.37h6.77c.19,1.97,1.12,3.58,2.77,4.82,1.66,1.25,3.83,1.87,6.52,1.87,2.5,0,4.46-.55,5.9-1.66,1.44-1.1,2.16-2.5,2.16-4.18s-.77-3.01-2.3-3.85c-1.54-.84-3.91-1.67-7.13-2.48-2.93-.77-5.32-1.55-7.16-2.34-1.85-.79-3.43-1.97-4.75-3.53-1.32-1.56-1.98-3.61-1.98-6.16,0-2.02.6-3.86,1.8-5.54,1.2-1.68,2.9-3.01,5.11-4,2.21-.98,4.73-1.48,7.56-1.48,4.37,0,7.89,1.1,10.58,3.31,2.69,2.21,4.13,5.23,4.32,9.07h-6.55c-.14-2.06-.97-3.72-2.48-4.97-1.51-1.25-3.54-1.87-6.08-1.87-2.35,0-4.22.5-5.62,1.51-1.39,1.01-2.09,2.33-2.09,3.96,0,1.3.42,2.36,1.26,3.2.84.84,1.9,1.51,3.17,2.02,1.27.5,3.04,1.07,5.29,1.69,2.83.77,5.14,1.52,6.91,2.27,1.77.75,3.3,1.86,4.57,3.35,1.27,1.49,1.93,3.43,1.98,5.83,0,2.16-.6,4.1-1.8,5.83-1.2,1.73-2.89,3.08-5.08,4.07-2.18.98-4.69,1.48-7.52,1.48-3.02,0-5.74-.52-8.14-1.55Z"/>
      <path class="cls-1" d="m973.37,170.8c-3-1.68-5.35-4.07-7.06-7.16-1.7-3.1-2.56-6.68-2.56-10.76s.88-7.6,2.63-10.69c1.75-3.1,4.14-5.47,7.16-7.13,3.02-1.66,6.41-2.48,10.15-2.48s7.13.83,10.15,2.48c3.02,1.66,5.41,4.02,7.16,7.09,1.75,3.07,2.63,6.65,2.63,10.73s-.9,7.67-2.7,10.76c-1.8,3.1-4.24,5.48-7.31,7.16-3.07,1.68-6.48,2.52-10.22,2.52s-7.04-.84-10.04-2.52Zm16.67-4.9c2.06-1.1,3.73-2.76,5-4.97,1.27-2.21,1.91-4.9,1.91-8.06s-.62-5.86-1.87-8.06c-1.25-2.21-2.88-3.85-4.9-4.93-2.02-1.08-4.2-1.62-6.55-1.62s-4.6.54-6.59,1.62c-1.99,1.08-3.59,2.72-4.79,4.93-1.2,2.21-1.8,4.9-1.8,8.06s.59,5.93,1.76,8.14c1.18,2.21,2.75,3.85,4.72,4.93,1.97,1.08,4.13,1.62,6.48,1.62s4.56-.55,6.62-1.66Z"/>
      <path class="cls-1" d="m1024.74,134.8c2.59-1.49,5.54-2.23,8.86-2.23,3.55,0,6.74.84,9.58,2.52,2.83,1.68,5.06,4.04,6.7,7.09,1.63,3.05,2.45,6.59,2.45,10.62s-.82,7.54-2.45,10.66c-1.63,3.12-3.88,5.54-6.73,7.27-2.86,1.73-6.04,2.59-9.54,2.59s-6.4-.74-8.96-2.23c-2.57-1.49-4.5-3.38-5.8-5.69v7.27h-6.55v-53.28h6.55v21.17c1.34-2.35,3.31-4.27,5.9-5.76Zm19.08,10.22c-1.2-2.21-2.82-3.89-4.86-5.04-2.04-1.15-4.28-1.73-6.73-1.73s-4.62.59-6.66,1.76c-2.04,1.18-3.67,2.88-4.9,5.11-1.22,2.23-1.84,4.81-1.84,7.74s.61,5.58,1.84,7.81c1.22,2.23,2.86,3.94,4.9,5.11,2.04,1.18,4.26,1.76,6.66,1.76s4.69-.59,6.73-1.76c2.04-1.18,3.66-2.88,4.86-5.11,1.2-2.23,1.8-4.86,1.8-7.88s-.6-5.57-1.8-7.78Z"/>
      <path class="cls-1" d="m1067.72,181.24c0,3.5-.89,6.07-2.66,7.7-1.78,1.63-4.37,2.45-7.78,2.45h-3.82v-5.54h2.74c1.82,0,3.11-.36,3.85-1.08.74-.72,1.12-1.94,1.12-3.67v-47.88h6.55v48.02Zm-6.37-55.73c-.84-.86-1.26-1.92-1.26-3.17s.42-2.3,1.26-3.17c.84-.86,1.88-1.3,3.13-1.3s2.29.43,3.13,1.3c.84.86,1.26,1.92,1.26,3.17s-.42,2.3-1.26,3.17c-.84.86-1.88,1.3-3.13,1.3s-2.29-.43-3.13-1.3Z"/>
      <path class="cls-1" d="m1114.59,155.4h-31.54c.24,3.89,1.57,6.92,4,9.11,2.42,2.18,5.36,3.28,8.82,3.28,2.83,0,5.2-.66,7.09-1.98,1.9-1.32,3.23-3.08,4-5.29h7.06c-1.06,3.79-3.17,6.88-6.34,9.25s-7.11,3.56-11.81,3.56c-3.74,0-7.09-.84-10.04-2.52-2.95-1.68-5.27-4.07-6.95-7.16-1.68-3.1-2.52-6.68-2.52-10.76s.82-7.66,2.45-10.73c1.63-3.07,3.92-5.44,6.88-7.09,2.95-1.66,6.35-2.48,10.19-2.48s7.06.82,9.94,2.45c2.88,1.63,5.1,3.88,6.66,6.73,1.56,2.86,2.34,6.08,2.34,9.68,0,1.25-.07,2.57-.22,3.96Zm-8.21-11.77c-1.1-1.8-2.6-3.17-4.5-4.1-1.9-.94-4-1.4-6.3-1.4-3.31,0-6.13,1.06-8.46,3.17-2.33,2.11-3.66,5.04-4,8.78h24.91c0-2.5-.55-4.64-1.66-6.44Z"/>
      <path class="cls-1" d="m1123.45,142.18c1.63-3.05,3.9-5.41,6.8-7.09,2.9-1.68,6.23-2.52,9.97-2.52,4.85,0,8.84,1.18,11.99,3.53,3.14,2.35,5.22,5.62,6.23,9.79h-7.06c-.67-2.4-1.98-4.29-3.92-5.69-1.94-1.39-4.36-2.09-7.24-2.09-3.74,0-6.77,1.28-9.07,3.85-2.3,2.57-3.46,6.2-3.46,10.91s1.15,8.42,3.46,11.02c2.3,2.59,5.33,3.89,9.07,3.89,2.88,0,5.28-.67,7.2-2.02,1.92-1.34,3.24-3.26,3.96-5.76h7.06c-1.06,4.03-3.17,7.26-6.34,9.68-3.17,2.42-7.13,3.64-11.88,3.64-3.74,0-7.07-.84-9.97-2.52-2.91-1.68-5.17-4.06-6.8-7.13-1.63-3.07-2.45-6.67-2.45-10.8s.82-7.64,2.45-10.69Z"/>
      <path class="cls-1" d="m1175.15,138.62v23.26c0,1.92.41,3.28,1.22,4.07.82.79,2.23,1.19,4.25,1.19h4.82v5.54h-5.9c-3.65,0-6.38-.84-8.21-2.52-1.82-1.68-2.74-4.44-2.74-8.28v-23.26h-5.11v-5.4h5.11v-9.94h6.55v9.94h10.3v5.4h-10.3Z"/>
      <path class="cls-1" d="m1217.7,125.88c2.93,2.69,4.39,6.29,4.39,10.8,0,5.04-1.56,8.77-4.68,11.2-3.12,2.42-7.34,3.64-12.67,3.64l-.22,6.84h-5.69l-.29-11.38h2.09c4.75,0,8.47-.72,11.16-2.16,2.69-1.44,4.03-4.15,4.03-8.14,0-2.88-.86-5.16-2.59-6.84-1.73-1.68-4.06-2.52-6.98-2.52s-5.32.8-7.02,2.41c-1.71,1.61-2.56,3.81-2.56,6.59h-6.19c0-2.88.65-5.41,1.94-7.6,1.3-2.18,3.13-3.88,5.51-5.08,2.38-1.2,5.12-1.8,8.24-1.8,4.75,0,8.59,1.34,11.52,4.03Zm-19.22,45.94c-.86-.86-1.3-1.92-1.3-3.17s.43-2.3,1.3-3.17c.86-.86,1.92-1.3,3.17-1.3s2.22.43,3.06,1.3c.84.86,1.26,1.92,1.26,3.17s-.42,2.3-1.26,3.17c-.84.86-1.86,1.3-3.06,1.3s-2.3-.43-3.17-1.3Z"/>
    </g>
    <g>
      <path class="cls-1" d="m1430.55,361.33c-3.48-2.88-3.74-4.05-2.48-8.56,10.95-39.01,21.85-78.03,32.84-117.02.63-2.25.17-2.69-2.04-2.67-13.24.08-26.49.05-39.73.04-5.56,0-7.17-1.65-7.18-7.31,0-4.17,0-8.33,0-12.5,0-2.17.61-4.41,2.73-4.99,2.68-.74,2.41-2.42,2.41-4.35-.02-39.2-.01-78.4-.01-117.6,0-5.69,1.43-7.1,7.22-7.1,20.4,0,40.8-.04,61.2.05,2.47.01,3.58-.3,3.46-3.19-.22-5.44,1.58-7.24,6.98-7.04,2.78.1,3.31-.82,3.26-3.4-.16-8.76-.07-17.52-.06-26.27,0-4.6,1.73-6.29,6.41-6.3,4.27-.01,8.54-.01,12.82,0,4.67.01,6.4,1.7,6.41,6.3.02,8.87.08,17.73-.05,26.59-.03,2.29.41,3.14,2.93,3.07,5.87-.15,7.47,1.45,7.3,7.36-.07,2.62.94,2.87,3.13,2.87,20.51-.07,41.01-.04,61.52-.04,5.79,0,7.22,1.41,7.22,7.1,0,39.2,0,78.4-.01,117.6,0,1.93-.3,3.68,2.41,4.35,1.86.46,2.66,2.43,2.68,4.36.07,5.02.14,10.04,0,15.06-.1,3.68-2.26,5.38-6.49,5.39-13.24.02-26.49.09-39.73-.06-2.87-.03-3.31.56-2.53,3.32,11.08,39.19,22.03,78.42,33.08,117.62.95,3.36-.38,5.49-2.87,7.34h-19.23c-1.86-1.36-2.89-3.11-3.52-5.41-4.37-16.04-8.95-32.03-13.34-48.07-.61-2.24-1.49-3.04-3.88-3-8.43.16-16.87.17-25.31,0-2.59-.05-3.42.51-3.39,3.27.15,15.38,0,30.76.13,46.13.02,3.03-.66,5.41-3.26,7.08h-19.23c-2.6-1.67-3.28-4.05-3.26-7.08.12-15.38-.02-30.76.13-46.13.03-2.76-.81-3.32-3.39-3.27-8.43.17-16.87.16-25.31,0-2.39-.05-3.27.76-3.88,3-4.38,16.04-8.96,32.03-13.34,48.07-.63,2.3-1.66,4.05-3.52,5.41h-19.23Zm76.5-176.53c9.55-13.82,18.85-27.25,28.12-40.7,3.06-4.44,6.91-4.52,9.92-.16,13.72,19.85,27.53,39.64,41.11,59.59,2.04,3,4.09,4.32,7.73,4.06,2.36-.17,2.73-.91,2.71-3-.1-8.97-.04-17.95-.04-26.92,0-28.31,0-56.63,0-84.94,0-1.61.57-3.29-2.35-3.27-19.02.13-38.04.08-57.05.05-1.3,0-2.11.17-2.56,1.65-.74,2.44-2.72,3.48-5.19,3.48-11.65.02-23.29.02-34.94,0-2.33,0-4.31-.91-5.05-3.2-.55-1.69-1.45-1.95-3.02-1.95-18.8.05-37.61.06-56.41,0-2.02,0-2.72.45-2.72,2.62.07,37.61.07,75.22,0,112.82,0,2.2.75,2.62,2.74,2.6,9.4-.09,18.8-.1,28.21.01,1.9.02,2.85-.75,3.83-2.18,8.15-11.89,16.37-23.73,24.56-35.59,3.16-4.58,6.91-4.53,10.09.13,3.31,4.84,6.67,9.64,10.32,14.92Zm69.16,22.55c-.36-.72-.48-1.02-.65-1.27-11.3-16.33-22.64-32.62-33.85-49.01-1.63-2.39-2.22-1.14-3.23.31-8.55,12.39-17.13,24.75-25.69,37.13-2.88,4.16-5.73,8.34-8.82,12.84h72.24Zm-105.78,87.32c8.84,0,17.27-.12,25.7.07,2.68.06,3.09-.89,3.07-3.25-.09-16.45-.04-32.9-.06-49.35,0-2.87.96-6.67-.49-8.36-1.69-1.97-5.62-.33-8.55-.69-2.05-.25-2.7.7-3.2,2.53-3.57,13.06-7.25,26.09-10.9,39.13-1.83,6.54-3.66,13.07-5.57,19.92Zm54.36-30.89c0,9.29.07,18.59-.05,27.88-.03,2.29.41,3.14,2.93,3.08,7.69-.18,15.38-.18,23.07,0,2.65.06,2.64-.84,2.05-2.92-4.77-16.82-9.46-33.67-14.19-50.5-.75-2.66-.84-6.39-2.63-7.65-1.96-1.38-5.54-.34-8.39-.58-2.26-.2-2.87.57-2.84,2.82.13,9.29.05,18.58.05,27.88Zm-12.98-40.91c28.95,0,57.89-.04,86.84.06,2.56,0,3.19-.71,3.15-3.19-.04-2.88-1.96-1.98-3.31-1.98-57.68-.03-115.36-.03-173.04-.03-.43,0-.86.05-1.28,0-1.56-.2-1.89.53-2.01,2-.2,2.48.55,3.2,3.13,3.2,28.84-.1,57.68-.06,86.52-.06Zm2.73,69.39c0-7.9,0-15.81,0-23.71,0-10.89,0-21.79,0-32.68,0-1.53.22-2.75-2.17-2.85-2.8-.12-3.01,1.09-3.01,3.34.05,37.17.04,74.33.02,111.5,0,1.9-.22,3.35,2.66,3.35,3.1,0,2.48-1.8,2.48-3.51,0-18.48,0-36.95,0-55.43Zm-72.61,58.75c1.89.73,2.3-.7,2.74-2.27,10.49-37.58,21.01-75.16,31.48-112.74.25-.89,1.58-2.37-.32-2.75-1.58-.32-3.58-.84-4.21,1.91-1.01,4.36-2.34,8.64-3.55,12.95-9.33,33.37-18.67,66.74-28.01,100.11-.44,1.59-1.37,3.31,1.87,2.8Zm140.21.02c2.73.52,2.33-.86,1.81-2.71-8.54-30.38-17.04-60.78-25.54-91.17-2.07-7.39-4.19-14.77-6.13-22.2-.67-2.56-2.52-1.89-4.04-1.76-1.94.17-.8,1.54-.57,2.37,10.54,37.79,21.12,75.57,31.66,113.36.43,1.55,1.02,2.55,2.82,2.1Zm-109.07-143.55c4.39,0,8.07-.37,11.63.09,4.98.64,8.24-1.05,10.47-5.5,1.47-2.93,5.19-5.36,4.98-8.28-.21-2.87-3.24-5.55-5.1-8.27-3.38-4.94-3.4-4.93-6.74-.1-4.95,7.16-9.9,14.33-15.24,22.07Zm36.34-151.59c0,3.63.1,7.26-.04,10.88-.07,1.89.64,2.41,2.39,2.27,1.47-.12,2.89.31,2.83-2.16-.16-7.14-.13-14.29,0-21.44.04-2.12-1.04-2.07-2.56-2.11-1.72-.04-2.8.09-2.67,2.33.2,3.4.05,6.82.05,10.24Zm2.63,28.5c3.63,0,7.26-.1,10.88.04,2.02.08,1.96-1.08,1.87-2.43-.08-1.27.54-2.81-1.85-2.78-7.25.11-14.51.11-21.76,0-2.17-.04-2.07,1.13-2.06,2.6.01,1.44-.18,2.72,2.03,2.62,3.62-.16,7.25-.04,10.88-.04Z"/>
      <path class="cls-1" d="m1478.6,125.4c.02,8.36-6.89,15.32-15.25,15.38-8.47.06-15.55-7.02-15.46-15.49.08-8.36,7.06-15.26,15.41-15.22,8.36.03,15.29,6.97,15.3,15.33Zm-15.39,5.1c2.68.02,5.09-2.36,5.11-5.05.02-2.68-2.37-5.09-5.05-5.11-2.68-.02-5.09,2.37-5.11,5.05-.02,2.68,2.36,5.09,5.05,5.11Z"/>
    </g>
  </g>
</svg>