<?xml version="1.0" encoding="UTF-8"?>
<svg id="Layer_2" data-name="Layer 2" xmlns="http://www.w3.org/2000/svg" viewBox="0 0 1924 924">
  <defs>
    <style>
      .cls-1, .cls-2 {
        fill: #fff;
      }

      .cls-2 {
        font-family: Poppins-Regular, Poppins;
        font-size: 72px;
      }
    </style>
  </defs>
  <g id="Export_Q" data-name="Export Q">
    <rect width="1924" height="924"/>
    <text class="cls-2" transform="translate(99.76 172.68)"><tspan x="0" y="0">What is the input of this object?</tspan></text>
    <g>
      <path class="cls-1" d="m1430.55,361.33c-3.48-2.88-3.74-4.05-2.48-8.56,10.95-39.01,21.85-78.03,32.84-117.02.63-2.25.17-2.69-2.04-2.67-13.24.08-26.49.05-39.73.04-5.56,0-7.17-1.65-7.18-7.31,0-4.17,0-8.33,0-12.5,0-2.17.61-4.41,2.73-4.99,2.68-.74,2.41-2.42,2.41-4.35-.02-39.2-.01-78.4-.01-117.6,0-5.69,1.43-7.1,7.22-7.1,20.4,0,40.8-.04,61.2.05,2.47.01,3.58-.3,3.46-3.19-.22-5.44,1.58-7.24,6.98-7.04,2.78.1,3.31-.82,3.26-3.4-.16-8.76-.07-17.52-.06-26.27,0-4.6,1.73-6.29,6.41-6.3,4.27-.01,8.54-.01,12.82,0,4.67.01,6.4,1.7,6.41,6.3.02,8.87.08,17.73-.05,26.59-.03,2.29.41,3.14,2.93,3.07,5.87-.15,7.47,1.45,7.3,7.36-.07,2.62.94,2.87,3.13,2.87,20.51-.07,41.01-.04,61.52-.04,5.79,0,7.22,1.41,7.22,7.1,0,39.2,0,78.4-.01,117.6,0,1.93-.3,3.68,2.41,4.35,1.86.46,2.66,2.43,2.68,4.36.07,5.02.14,10.04,0,15.06-.1,3.68-2.26,5.38-6.49,5.39-13.24.02-26.49.09-39.73-.06-2.87-.03-3.31.56-2.53,3.32,11.08,39.19,22.03,78.42,33.08,117.62.95,3.36-.38,5.49-2.87,7.34h-19.23c-1.86-1.36-2.89-3.11-3.52-5.41-4.37-16.04-8.95-32.03-13.34-48.07-.61-2.24-1.49-3.04-3.88-3-8.43.16-16.87.17-25.31,0-2.59-.05-3.42.51-3.39,3.27.15,15.38,0,30.76.13,46.13.02,3.03-.66,5.41-3.26,7.08h-19.23c-2.6-1.67-3.28-4.05-3.26-7.08.12-15.38-.02-30.76.13-46.13.03-2.76-.81-3.32-3.39-3.27-8.43.17-16.87.16-25.31,0-2.39-.05-3.27.76-3.88,3-4.38,16.04-8.96,32.03-13.34,48.07-.63,2.3-1.66,4.05-3.52,5.41h-19.23Zm76.5-176.53c9.55-13.82,18.85-27.25,28.12-40.7,3.06-4.44,6.91-4.52,9.92-.16,13.72,19.85,27.53,39.64,41.11,59.59,2.04,3,4.09,4.32,7.73,4.06,2.36-.17,2.73-.91,2.71-3-.1-8.97-.04-17.95-.04-26.92,0-28.31,0-56.63,0-84.94,0-1.61.57-3.29-2.35-3.27-19.02.13-38.04.08-57.05.05-1.3,0-2.11.17-2.56,1.65-.74,2.44-2.72,3.48-5.19,3.48-11.65.02-23.29.02-34.94,0-2.33,0-4.31-.91-5.05-3.2-.55-1.69-1.45-1.95-3.02-1.95-18.8.05-37.61.06-56.41,0-2.02,0-2.72.45-2.72,2.62.07,37.61.07,75.22,0,112.82,0,2.2.75,2.62,2.74,2.6,9.4-.09,18.8-.1,28.21.01,1.9.02,2.85-.75,3.83-2.18,8.15-11.89,16.37-23.73,24.56-35.59,3.16-4.58,6.91-4.53,10.09.13,3.31,4.84,6.67,9.64,10.32,14.92Zm69.16,22.55c-.36-.72-.48-1.02-.65-1.27-11.3-16.33-22.64-32.62-33.85-49.01-1.63-2.39-2.22-1.14-3.23.31-8.55,12.39-17.13,24.75-25.69,37.13-2.88,4.16-5.73,8.34-8.82,12.84h72.24Zm-105.78,87.32c8.84,0,17.27-.12,25.7.07,2.68.06,3.09-.89,3.07-3.25-.09-16.45-.04-32.9-.06-49.35,0-2.87.96-6.67-.49-8.36-1.69-1.97-5.62-.33-8.55-.69-2.05-.25-2.7.7-3.2,2.53-3.57,13.06-7.25,26.09-10.9,39.13-1.83,6.54-3.66,13.07-5.57,19.92Zm54.36-30.89c0,9.29.07,18.59-.05,27.88-.03,2.29.41,3.14,2.93,3.08,7.69-.18,15.38-.18,23.07,0,2.65.06,2.64-.84,2.05-2.92-4.77-16.82-9.46-33.67-14.19-50.5-.75-2.66-.84-6.39-2.63-7.65-1.96-1.38-5.54-.34-8.39-.58-2.26-.2-2.87.57-2.84,2.82.13,9.29.05,18.58.05,27.88Zm-12.98-40.91c28.95,0,57.89-.04,86.84.06,2.56,0,3.19-.71,3.15-3.19-.04-2.88-1.96-1.98-3.31-1.98-57.68-.03-115.36-.03-173.04-.03-.43,0-.86.05-1.28,0-1.56-.2-1.89.53-2.01,2-.2,2.48.55,3.2,3.13,3.2,28.84-.1,57.68-.06,86.52-.06Zm2.73,69.39c0-7.9,0-15.81,0-23.71,0-10.89,0-21.79,0-32.68,0-1.53.22-2.75-2.17-2.85-2.8-.12-3.01,1.09-3.01,3.34.05,37.17.04,74.33.02,111.5,0,1.9-.22,3.35,2.66,3.35,3.1,0,2.48-1.8,2.48-3.51,0-18.48,0-36.95,0-55.43Zm-72.61,58.75c1.89.73,2.3-.7,2.74-2.27,10.49-37.58,21.01-75.16,31.48-112.74.25-.89,1.58-2.37-.32-2.75-1.58-.32-3.58-.84-4.21,1.91-1.01,4.36-2.34,8.64-3.55,12.95-9.33,33.37-18.67,66.74-28.01,100.11-.44,1.59-1.37,3.31,1.87,2.8Zm140.21.02c2.73.52,2.33-.86,1.81-2.71-8.54-30.38-17.04-60.78-25.54-91.17-2.07-7.39-4.19-14.77-6.13-22.2-.67-2.56-2.52-1.89-4.04-1.76-1.94.17-.8,1.54-.57,2.37,10.54,37.79,21.12,75.57,31.66,113.36.43,1.55,1.02,2.55,2.82,2.1Zm-109.07-143.55c4.39,0,8.07-.37,11.63.09,4.98.64,8.24-1.05,10.47-5.5,1.47-2.93,5.19-5.36,4.98-8.28-.21-2.87-3.24-5.55-5.1-8.27-3.38-4.94-3.4-4.93-6.74-.1-4.95,7.16-9.9,14.33-15.24,22.07Zm36.34-151.59c0,3.63.1,7.26-.04,10.88-.07,1.89.64,2.41,2.39,2.27,1.47-.12,2.89.31,2.83-2.16-.16-7.14-.13-14.29,0-21.44.04-2.12-1.04-2.07-2.56-2.11-1.72-.04-2.8.09-2.67,2.33.2,3.4.05,6.82.05,10.24Zm2.63,28.5c3.63,0,7.26-.1,10.88.04,2.02.08,1.96-1.08,1.87-2.43-.08-1.27.54-2.81-1.85-2.78-7.25.11-14.51.11-21.76,0-2.17-.04-2.07,1.13-2.06,2.6.01,1.44-.18,2.72,2.03,2.62,3.62-.16,7.25-.04,10.88-.04Z"/>
      <path class="cls-1" d="m1478.6,125.4c.02,8.36-6.89,15.32-15.25,15.38-8.47.06-15.55-7.02-15.46-15.49.08-8.36,7.06-15.26,15.41-15.22,8.36.03,15.29,6.97,15.3,15.33Zm-15.39,5.1c2.68.02,5.09-2.36,5.11-5.05.02-2.68-2.37-5.09-5.05-5.11-2.68-.02-5.09,2.37-5.11,5.05-.02,2.68,2.36,5.09,5.05,5.11Z"/>
    </g>
  </g>
</svg>