<?xml version="1.0" encoding="UTF-8"?>
<svg id="Layer_2" data-name="Layer 2" xmlns="http://www.w3.org/2000/svg" viewBox="0 0 140.08 140.04">
  <defs>
    <style>
      .cls-1 {
        fill: #fff;
      }
    </style>
  </defs>
  <g id="Options">
    <g>
      <path class="cls-1" d="m140.08,88.85c-.92,1.09-1.61,2.46-3.2,2.78-1.25.26-2.5.47-3.74.76-4.37,1.04-7.65,3.59-9.99,7.39-1.69,2.73-2.59,5.74-2.7,8.9-.09,2.52.5,5.02,1.55,7.34,1.03,2.26.28,4.08-.72,5.16-1.24,1.33-3.45,1.63-5.31.84-7.13-3.01-14.96-1.37-20.08,4.62-2.2,2.57-3.52,5.58-3.92,8.98-.41,3.45-3.81,5.45-6.51,3.8-.75-.46-1.41-1.14-1.95-1.85-4.18-5.4-9.87-7.31-16.38-6.55-4.75.55-8.46,3.25-11.21,7.19-.88,1.26-3.02,2.09-4.47,1.73-1.4-.35-3.07-2.17-3.22-3.61-.45-4.42-2.1-8.26-5.47-11.25-2.67-2.37-5.76-3.74-9.34-4.32-3.68-.59-7.04.25-10.4,1.45-1.78.64-3.1.03-4.31-1.22-1.22-1.27-1.45-2.77-.89-4.33.93-2.6,1.83-5.21,1.67-8-.25-4.23-1.6-8.01-4.56-11.21-3.06-3.31-6.84-4.95-11.18-5.61-1.82-.28-3.03-1.5-3.53-3.1-.46-1.45-.27-3.06,1.04-4.22,2.13-1.87,4.25-3.71,5.7-6.22,3.43-5.9,2.92-14.58-2.1-19.55-1.15-1.14-2.4-2.19-3.58-3.3C0,54.25-.23,52.68.28,51.14c.56-1.7,1.85-2.84,3.72-3.01,6.79-.61,12.63-5.25,14.67-11.86,1.26-4.08,1.16-8.15-.58-12.1-.93-2.12-.54-4.21.9-5.52,1.44-1.31,3.04-1.34,4.67-.68,5.73,2.31,11.24,2.1,16.5-1.29,4.26-2.74,6.96-6.58,7.76-11.61C48.29,2.71,49.2.91,51.5,0,52.14,0,52.78,0,53.42,0c.82.53,1.88.89,2.43,1.62,4.05,5.46,9.23,8.25,16.18,7.42,4.7-.56,8.28-2.9,11.36-6.32.91-1.02,2.07-1.82,3.11-2.72.64,0,1.28,0,1.91,0,2.14.76,3.34,2.21,3.59,4.52.13,1.21.41,2.44.81,3.59,2.02,5.83,6.24,9.35,12.08,10.9,2.96.78,6.01.71,8.98-.3,1.37-.46,2.79-1.19,4.16-1.14,3.71.13,5.35,3.12,3.96,6.38-1.35,3.16-1.98,6.49-1.28,9.87,1.48,7.1,6.34,12.41,13.42,14,2.52.56,5.09.82,5.95,3.86v2.19c-1.26,1.21-2.55,2.39-3.77,3.64-4.1,4.25-6.2,9.16-5.28,15.22.66,4.34,2.78,7.78,6.07,10.45,1.26,1.03,2.38,1.99,2.98,3.5v2.19ZM54.62,13.01c-2.49,5.16-6.14,9.1-11,11.86-4.84,2.75-10.09,3.73-15.63,3.23,1.27,9.56-3.35,21.06-14.97,26.67,3.33,4.54,4.89,9.63,4.89,15.26,0,5.66-1.87,10.67-5.01,15.28,12.47,6,16.29,18.01,15.11,26.49,12.01-.48,21.15,4.19,26.75,15.01,10.27-6.5,20.46-6.22,30.66.26,2.35-5.14,5.95-9.09,10.74-11.89,4.83-2.81,10.13-3.76,15.61-3.35-.4-12.12,4.4-21.11,15.14-26.66-6.67-10.25-6.44-20.39.16-30.47-10.67-5.61-15.71-14.46-15.32-26.57-12.02.75-20.84-4.38-26.55-15.05-10.11,6.53-20.27,6.64-30.57-.09Z"/>
      <path class="cls-1" d="m68.59,113.8c-11.63-.33-22.27-5.01-30.75-14.21-7.28-7.89-11.18-17.31-11.49-28.12-.39-13.43,4.47-24.71,14.21-33.83,7.89-7.38,17.48-11.13,28.2-11.33,13.45-.24,24.95,4.63,34.02,14.72,7.32,8.15,10.98,17.88,10.97,28.72-.02,12.09-4.24,22.67-13.02,31.26-8.69,8.49-19.11,12.65-32.14,12.78Zm-33.52-43.85c0,9.9,3.59,18.37,10.65,25.2,7.07,6.84,15.64,10.26,25.57,9.82,9.8-.43,18.02-4.37,24.65-11.52,6.12-6.61,9.11-14.62,9.06-23.51-.06-9.66-3.52-18.12-10.57-24.97-7.07-6.86-15.63-10.08-25.33-9.92-18.45.31-34.1,15.38-34.03,34.9Z"/>
    </g>
  </g>
</svg>