<?xml version="1.0" encoding="UTF-8"?>
<svg id="Layer_2" data-name="Layer 2" xmlns="http://www.w3.org/2000/svg" viewBox="0 0 127.7 138.59">
  <defs>
    <style>
      .cls-1 {
        fill: #fff;
      }
    </style>
  </defs>
  <g id="Options">
    <g>
      <path class="cls-1" d="m10.37,44.22c-1.7-.98-3.13-1.78-4.54-2.61-2.73-1.59-3.62-4.46-2.17-6.97,1.4-2.43,4.31-3.13,6.99-1.66,1.48.81,2.94,1.66,4.67,2.64-.14-2.99-.3-5.73-.4-8.48-.09-2.52,1.23-4.46,3.39-5.13,2.85-.88,5.85.82,6.29,3.8.35,2.39.39,4.82.54,7.24.15,2.42.29,4.84.35,7.26.02.9.37,1.38,1.13,1.8,4.67,2.63,9.31,5.29,13.95,7.97.69.4,1.24.48,1.99.07,2.45-1.33,5.08-1.64,7.79-1.05,1.26.27,2.04-.02,2.47-1.35.9-2.81,2.66-4.98,5.23-6.44.68-.39.89-.84.89-1.59-.03-5.41-.04-10.83,0-16.24,0-.87-.36-1.28-1.01-1.71-3.87-2.55-7.74-5.12-11.58-7.71-1.79-1.21-2.6-2.95-2.19-5.08.39-2.05,1.7-3.37,3.74-3.9,1.5-.39,2.85.03,4.1.86,2.21,1.48,4.43,2.95,6.9,4.59,0-1.92-.01-3.54,0-5.17C58.95,2.22,61.02,0,63.89,0c2.88,0,4.91,2.22,4.94,5.39.01,1.6,0,3.19,0,4.77.55.26.82-.16,1.13-.37,2.03-1.32,4.01-2.72,6.06-4.01,2.41-1.51,5.3-.9,6.81,1.36,1.52,2.27,1.01,5.2-1.34,6.82-3.82,2.63-7.69,5.19-11.57,7.72-.84.54-1.13,1.13-1.12,2.12.05,5.26.04,10.52.01,15.78,0,.83.13,1.41.94,1.89,2.36,1.39,3.9,3.49,4.64,6.13.39,1.38,1.14,1.8,2.51,1.5,2.82-.61,5.55-.25,8.06,1.21.74.43,1.27.33,1.97-.08,4.68-2.71,9.37-5.41,14.09-8.05.89-.49,1.2-1.06,1.24-2.06.18-4.38.41-8.75.69-13.13.23-3.62,2.86-5.78,6.06-5.08,2.39.52,3.9,2.48,3.82,5.09-.09,2.78-.26,5.55-.41,8.62,1.6-.91,3.01-1.71,4.43-2.51,2.86-1.61,5.82-.98,7.26,1.54,1.45,2.54.51,5.38-2.33,7.05-1.36.8-2.73,1.58-4.37,2.52,2.58,1.3,4.9,2.48,7.23,3.63,1.58.78,2.68,1.92,2.98,3.69.32,1.93-.22,3.6-1.8,4.81-1.67,1.28-3.51,1.39-5.38.47-4.06-2.01-8.12-4.03-12.15-6.1-.85-.44-1.51-.5-2.39.02-4.53,2.66-9.1,5.26-13.68,7.82-.95.53-1.41,1.1-1.39,2.26.03,2.56-.89,4.88-2.57,6.79-1.05,1.19-1.16,2.06-.05,3.31,1.77,1.98,2.67,4.4,2.63,7.08-.01.88.26,1.39,1.04,1.83,4.76,2.67,9.51,5.37,14.22,8.12.74.43,1.27.36,1.97,0,4.13-2.1,8.27-4.18,12.43-6.22,1.82-.89,3.62-.76,5.25.46,1.59,1.19,2.17,2.84,1.87,4.78-.28,1.77-1.35,2.95-2.93,3.73-2.34,1.16-4.67,2.34-7.28,3.66,1.63.95,3.04,1.75,4.43,2.57,2.82,1.66,3.71,4.54,2.21,7.07-1.46,2.45-4.36,3.06-7.15,1.5-1.42-.8-2.84-1.6-4.49-2.53.15,3.07.35,5.88.4,8.7.07,3.52-3.05,5.91-6.35,4.93-2.1-.63-3.38-2.41-3.54-5.09-.25-4.27-.52-8.54-.66-12.82-.04-1.19-.43-1.84-1.46-2.41-4.64-2.58-9.24-5.22-13.83-7.88-.73-.42-1.29-.55-2.1-.08-2.46,1.43-5.15,1.78-7.91,1.18-1.45-.31-2.2.12-2.61,1.57-.74,2.63-2.32,4.7-4.68,6.1-.66.4-.88.85-.88,1.61.03,5.41.04,10.83-.01,16.24,0,.92.38,1.38,1.07,1.83,3.87,2.55,7.73,5.12,11.57,7.72,1.79,1.21,2.55,2.97,2.12,5.1-.42,2.05-1.75,3.35-3.79,3.85-1.5.37-2.85-.07-4.1-.91-2.18-1.46-4.36-2.91-6.86-4.57,0,2.08.04,3.89-.01,5.71-.06,2.22-1.41,3.94-3.48,4.61-1.92.61-4.01-.01-5.28-1.6-.77-.96-1.12-2.06-1.12-3.3,0-1.65-.02-3.3-.04-4.95,0-.04-.04-.09-.16-.32-1.75,1.17-3.49,2.32-5.23,3.47-.64.43-1.27.89-1.94,1.27-2.37,1.35-5.23.68-6.67-1.54-1.49-2.29-.94-5.18,1.42-6.8,3.65-2.51,7.33-4.98,11.07-7.36,1.18-.75,1.6-1.57,1.58-2.97-.09-5.1-.05-10.21-.01-15.31,0-.82-.22-1.3-.95-1.72-2.47-1.4-4.2-3.48-5.08-6.18-.46-1.39-1.16-1.89-2.63-1.56-2.65.59-5.23.26-7.64-1.02-.71-.38-1.27-.42-1.99,0-4.68,2.71-9.37,5.4-14.09,8.04-.8.45-1.01,1-1.05,1.85-.2,4.43-.42,8.86-.7,13.28-.22,3.34-2.58,5.49-5.5,5.13-2.65-.33-4.45-2.35-4.38-5.09.06-2.58.25-5.15.37-7.72.01-.24-.02-.49-.05-.93-1.6.9-3.05,1.73-4.53,2.54-2.76,1.52-5.7.81-7.1-1.69-1.4-2.52-.48-5.35,2.27-6.94,1.38-.8,2.77-1.58,4.13-2.35-.03-.63-.54-.65-.87-.82-2.11-1.08-4.25-2.09-6.35-3.19-2.52-1.32-3.47-4.14-2.3-6.58,1.19-2.48,4.09-3.52,6.7-2.26,4.17,2.02,8.31,4.1,12.44,6.21.77.39,1.34.41,2.1-.03,4.45-2.59,8.92-5.15,13.41-7.66.87-.48,1.24-1,1.22-2.03-.04-2.84.93-5.37,2.81-7.49.88-.99.98-1.76.05-2.79-1.97-2.2-2.94-4.83-2.87-7.78.02-.86-.31-1.29-1.02-1.68-4.58-2.58-9.14-5.18-13.68-7.82-.72-.42-1.24-.4-1.97-.03-3.99,2.04-8,4.03-12.02,6.01-2.97,1.47-5.85.67-7.16-1.95-1.3-2.62-.2-5.39,2.76-6.9,2.24-1.14,4.5-2.26,7.08-3.56Zm68.39,35.57c1.07.15,1.72-.1,2.06-.85.4-.89-.07-1.55-.62-2.22-3.8-4.63-3.8-10.21,0-14.83.59-.72,1.07-1.43.55-2.36-.54-.95-1.44-.84-2.33-.67-6.09,1.12-11.31-1.9-13.26-7.67-.25-.75-.4-1.57-1.42-1.53-.9.03-1.32.66-1.63,1.43-2.59,6.35-6.79,8.78-13.47,7.72-1.05-.17-1.59.23-2.11,1.07-.54.87,0,1.34.44,1.89,3.93,4.85,3.92,10.21,0,15.07-.44.55-.98,1.03-.44,1.9.52.83,1.06,1.24,2.11,1.07,6.68-1.06,10.89,1.37,13.48,7.71.31.77.73,1.4,1.63,1.43,1.02.04,1.17-.78,1.42-1.53,1.46-4.25,4.39-6.9,8.8-7.79,1.68-.34,3.39-.22,4.79.16Z"/>
      <path class="cls-1" d="m41.75,25.72c1.65.12,3.14.83,4.08,2.43.91,1.55,1.81,3.12,2.61,4.73,1.23,2.46.37,5.25-1.92,6.56-2.36,1.34-5.25.59-6.71-1.83-.96-1.58-1.9-3.19-2.67-4.87-1.53-3.29.89-7.01,4.62-7.02Z"/>
      <path class="cls-1" d="m83.68,40.1c-3.51,0-5.97-3.63-4.53-6.86.84-1.87,1.88-3.67,3-5.39,1.4-2.14,4.21-2.71,6.44-1.46,2.13,1.19,3.16,3.89,2.12,6.13-.88,1.91-1.95,3.74-3.07,5.53-.88,1.41-2.33,1.96-3.96,2.05Z"/>
      <path class="cls-1" d="m49.02,103.5c.01.85-.23,1.63-.63,2.36-.81,1.49-1.61,3-2.48,4.45-1.47,2.45-4.28,3.24-6.68,1.93-2.37-1.29-3.25-4.15-1.97-6.66.84-1.65,1.73-3.28,2.72-4.85,1.23-1.94,3.55-2.68,5.69-1.97,1.98.66,3.36,2.62,3.35,4.73Z"/>
      <path class="cls-1" d="m91.09,107.71c.02,2.28-1.34,4.2-3.34,4.88-2.08.7-4.41.03-5.6-1.83-1.11-1.73-2.13-3.53-3-5.39-1.02-2.16-.19-4.69,1.76-6,1.94-1.31,4.71-1.18,6.21.61,1.73,2.05,2.93,4.46,3.88,6.98.11.28.08.61.1.76Z"/>
      <path class="cls-1" d="m21.78,74.23c-.93,0-1.86.05-2.78-.01-2.61-.18-4.61-2.33-4.62-4.91,0-2.58,1.98-4.79,4.58-4.93,1.9-.1,3.82-.11,5.72,0,2.6.15,4.57,2.39,4.54,4.97-.03,2.58-2.04,4.71-4.66,4.87-.92.06-1.85,0-2.78,0Z"/>
      <path class="cls-1" d="m105.9,74.23c-.93,0-1.86.06-2.78-.01-2.6-.19-4.6-2.35-4.59-4.93,0-2.58,2-4.77,4.61-4.91,1.85-.1,3.71-.09,5.56,0,2.68.13,4.71,2.36,4.67,5.01-.04,2.58-2.06,4.69-4.68,4.85-.92.05-1.85,0-2.78,0Z"/>
    </g>
  </g>
</svg>