<?xml version="1.0" encoding="UTF-8"?>
<svg id="Layer_2" data-name="Layer 2" xmlns="http://www.w3.org/2000/svg" viewBox="0 0 154.94 118.39">
  <defs>
    <style>
      .cls-1 {
        fill: #fff;
      }
    </style>
  </defs>
  <g id="Options">
    <g>
      <path class="cls-1" d="m60.97,118.39c-7.25-.09-14.54-1.82-21.5-5.06-7.46-3.47-13.12-8.84-16.73-16.18-2.74-5.56-3.67-11.56-2.99-17.77.2-1.79.49-3.56.93-5.3.13-.52.02-.85-.43-1.18-4.5-3.35-8.67-7.09-12.45-11.24-2.62-2.87-4.99-5.95-7.06-9.25-.98-1.57-.97-2.69-.08-3.87,1.42-1.88,3.94-1.86,5.17.16,2.53,4.18,5.81,7.74,9.19,11.21,2.33,2.39,4.98,4.43,7.46,6.66.57.51.73.17.97-.31,3.21-6.59,7.9-11.91,14.3-15.48,7.5-4.19,15.37-4.54,23.37-1.29,3.42,1.39,6.4,3.5,9.33,5.67,5.6,4.15,11.37,8.03,17.41,11.48,9.57,5.45,19.55,9.97,30.18,12.94,2.46.69,4.94,1.24,7.48,1.55,2.26.27,3.41,1.72,3.11,3.77-.11.76-.54,1.32-1.06,1.85-3.04,3.05-6.31,5.83-9.77,8.38-5.34,3.93-10.72,7.83-16.52,11.1-6.96,3.93-14.22,7.19-21.91,9.38-5.86,1.67-11.85,2.74-18.42,2.78Zm9.76-32.17c.12.22.27.23.41.25,2.3.32,4.6.56,6.92.74,4.46.35,8.92.41,13.39.35,1.98-.03,3.36,1.37,3.4,3.3.04,1.84-1.24,3.12-3.26,3.18-1.77.05-3.54.04-5.31.02-4.32-.03-8.64-.18-12.93-.76-1.98-.27-3.98-.33-5.95-.7-.52-.1-.9-.13-.57.67,1.04,2.55,2,5.12,2.99,7.69.38.97.83,1.92,1.11,2.92.64,2.29-1.09,4.33-3.37,4.02-1.42-.2-2.33-1.06-2.85-2.38-1.83-4.63-3.74-9.23-5.38-13.93-.19-.54-.46-.84-1.05-.99-5.03-1.26-10-2.73-14.82-4.65-.47-.19-1.1-.7-1.41-.39-.4.4.14,1.01.33,1.5.96,2.61,2.1,5.15,2.93,7.8.4,1.29-.02,2.4-1.02,3.29-.95.84-2.01.9-3.16.44-1.15-.47-1.69-1.42-2.14-2.49-1.91-4.6-3.75-9.23-5.44-13.91-.25-.69-.65-1.16-1.33-1.5-1.73-.87-3.47-1.74-5.09-2.81-.55-.36-.63-.15-.73.38-.51,2.61-.58,5.23-.33,7.88.52,5.64,2.78,10.49,6.62,14.6,5.2,5.57,11.78,8.63,19.12,10.13,7.18,1.47,14.35,1.15,21.49-.43,5.46-1.21,10.63-3.22,15.73-5.43,4.85-2.1,9.37-4.83,13.87-7.58,5.05-3.09,9.85-6.55,14.47-10.25.27-.21.75-.4.69-.72-.07-.39-.61-.33-.95-.43-2.33-.69-4.7-1.25-7-2.04-11.28-3.89-21.88-9.18-31.98-15.52-5.16-3.24-10.03-6.9-15.02-10.37-3.19-2.22-6.75-3.57-10.64-3.96-6.28-.62-11.63,1.56-16.31,5.55-3.41,2.91-5.72,6.66-7.69,10.64-.22.44-.08.68.29.93,2.02,1.31,4.12,2.49,6.2,3.69.37.22.68.13,1.04-.07,1.85-1.03,3.71-2.03,5.57-3.04,1.84-.99,3.65-2.03,5.52-2.93,2.31-1.12,4.65.45,4.62,3.01-.02,1.21-.63,2.05-1.63,2.69-2.39,1.53-4.97,2.74-7.48,4.17.21.11.36.2.51.26,4.58,1.98,9.39,3.3,14.1,4.89,2.13.72,4.02.73,5.79-.81.32-.28.75-.44,1.13-.65,2.74-1.52,5.46-3.06,8.21-4.54,1.87-1.01,3.8-.42,4.66,1.35.78,1.6.29,3.33-1.24,4.21-1.65.95-3.34,1.83-5.01,2.75Z"/>
      <path class="cls-1" d="m138.08,13.49c2.58-2.12,4.97-4.35,7.09-6.86,1.46-1.73,2.94-3.43,4.12-5.37.72-1.2,2.59-1.56,3.9-.91,1.36.68,2.04,2.26,1.61,3.76-.24.82-.7,1.53-1.19,2.21-3.47,4.87-7.45,9.27-12.31,12.8-.72.52-.95,1.01-.77,1.94,1.47,7.36.04,14.12-4.46,20.16-1.77,2.37-4.05,4.23-6.54,5.8-6.23,3.92-13.08,5.49-20.38,5.27-6.95-.21-13.45-2.19-19.8-4.87-8.64-3.65-16.17-9.02-23.38-14.9-1.1-.89-2.08-1.93-3.1-2.92-.84-.81-1.34-1.76-.99-2.97.38-1.31,1.23-2.16,2.57-2.44,1.39-.29,2.8-.47,4.18-.81,6.04-1.51,11.77-3.82,17.33-6.61,7.03-3.53,13.47-7.94,19.77-12.6C109.14,1.65,112.98.15,117.26.01c5.6-.18,10.44,1.76,14.63,5.42,2.37,2.07,4.14,4.61,5.73,7.29.15.25.29.49.46.77Zm-66,15.62c.34.29.55.48.78.65,3.69,2.76,7.42,5.47,11.45,7.73,7.29,4.1,14.82,7.53,23.33,8.18,6.23.48,12.13-.45,17.56-3.72,3.89-2.34,6.92-5.42,8.36-9.85.83-2.55.99-5.17.76-7.82-.02-.27.07-.88-.53-.57-1.58.82-3.33,1.49-3.57,3.64,0,.06-.02.11-.04.17-1.12,3.01-2.2,6.04-3.55,8.95-.6,1.29-1.8,1.82-3.16,1.73-1.31-.09-2.13-.95-2.59-2.16-.28-.74-.23-1.48.03-2.21.38-1.09.79-2.17,1.18-3.27.13-.37.52-.83.23-1.11-.27-.26-.75.11-1.11.24-2.43.86-4.89,1.64-7.4,2.22-.84.19-1.3.61-1.55,1.41-.95,2.95-2.26,5.77-3.33,8.67-.13.35-.29.7-.5,1.01-.81,1.17-1.92,1.76-3.36,1.52-1.28-.22-1.96-1.11-2.38-2.27-.33-.91-.02-1.72.29-2.53.65-1.73,1.33-3.46,2.02-5.18.26-.63,0-.71-.53-.61-4.47.83-8.99.87-13.51.99-.87.02-1.74.01-2.6-.16-1.37-.28-2.54-1.53-2.69-2.86-.15-1.31.7-2.64,2.03-3.24.71-.32,1.46-.36,2.21-.33,2.93.11,5.86,0,8.78-.2.55-.04,1.12,0,1.73-.28-.48-.31-.88-.55-1.24-.82-1.18-.89-1.56-2.47-.96-3.92.54-1.31,1.87-2.09,3.29-1.91.76.1,1.43.46,2.09.83,2.2,1.23,4.4,2.46,6.58,3.72.65.38,1.28.45,1.99.25,1.86-.53,3.74-1.02,5.6-1.58,1.21-.36,2.41-.75,3.65-1.45-1.22-.64-2.34-1.23-3.46-1.82-.63-.33-1.17-.74-1.51-1.39-.63-1.21-.41-2.92.5-3.9.92-.99,2.34-1.25,3.68-.57,2.5,1.27,4.99,2.59,7.46,3.91.49.26.9.3,1.37.01.86-.53,1.73-1.06,2.62-1.54.48-.27.53-.52.28-1.03-1.29-2.62-3.12-4.78-5.31-6.7-5.08-4.42-11.28-4.15-16.11-1.49-2.07,1.14-3.91,2.6-5.8,3.99-6.77,4.98-13.98,9.2-21.72,12.5-3.65,1.55-7.36,2.95-11.31,4.14Z"/>
    </g>
  </g>
</svg>