<?xml version="1.0" encoding="UTF-8"?>
<svg id="Layer_2" data-name="Layer 2" xmlns="http://www.w3.org/2000/svg" viewBox="0 0 88.1 156.82">
  <defs>
    <style>
      .cls-1 {
        fill: #fff;
      }
    </style>
  </defs>
  <g id="Options">
    <g>
      <path class="cls-1" d="m46.99,82.01c2.57-4.1,5.87-7.14,9.55-9.87,6.61-4.91,14.04-5.81,21.9-4.79,1.58.2,3.13.62,4.7.9.96.17,1.2.65.94,1.56-4.18,14.29-12.89,22.78-29.23,24.39-2.45.24-4.93-.19-7.02-1.71-1.11-.81-1.18-.18-1.18.73,0,9.22.03-2.46-.02,6.76,0,1.74,1.12,1.43,2.12,1.43,12.17,0,24.35,0,36.52,0,.49,0,.99.03,1.48,0,1.23-.09,1.56.26,1.21,1.57-1.63,6.23-3.18,12.48-4.69,18.74-.27,1.11-.64,1.81-1.91,1.64-1.1-.14-1.42.51-1.67,1.49-2.47,10-5.02,19.99-7.46,29.99-.35,1.41-.82,1.97-2.41,1.97-17.22-.07-34.43-.06-51.65-.01-1.46,0-1.96-.47-2.3-1.86-2.43-9.95-4.98-19.87-7.42-29.81-.29-1.17-.62-1.97-2-1.78-1.17.16-1.38-.62-1.61-1.53-1.53-6.19-3.04-12.39-4.68-18.55-.4-1.52-.09-1.9,1.43-1.88,4.61.07,9.22.02,13.83.02,7.93,0,15.86-.03,23.8.03,1.58.01,2.25-.29,2.24-2.1-.07-19.43-.05-17.95-.02-37.38,0-1.47-.13-1.99-1.77-1.18-5.53,2.73-11.89,1.76-16.28-2.3-4.35-4.02-5.81-10.21-3.62-15.88.46-1.2.33-1.76-.74-2.52-5.34-3.8-7.42-10.39-5.33-16.5,2.06-6.01,7.7-9.99,14.13-9.82,1.32.03,1.74-.25,1.93-1.62C30.76,5.21,37.03-.03,44.12,0c7,.02,13.22,5.25,14.2,12.08.19,1.33.53,1.7,1.9,1.67,6.53-.16,12.19,3.86,14.22,9.96,2.03,6.1-.1,12.6-5.48,16.47-.86.62-1.18,1.06-.74,2.21,2.23,5.87.81,11.97-3.6,16.05-4.42,4.1-10.63,4.96-16.46,2.27-.72-.33-1.51-1-1.51.59.02,6.7.02,13.4.03,20.11,0,.1.1.2.31.61Zm-2.97,41.53c-9.59,0-19.18.02-28.77-.02-1.3,0-1.7.24-1.33,1.67,2.11,8.19,4.14,16.41,6.14,24.63.3,1.24.85,1.62,2.13,1.62,14.57-.05,29.13-.05,43.7,0,1.31,0,1.82-.42,2.12-1.64,1.98-8.16,3.98-16.32,6.09-24.45.43-1.64-.07-1.84-1.5-1.83-9.53.04-19.05.02-28.58.02ZM28.12,19.06c-4.64-.04-8.31,2.63-9.49,6.48-1.2,3.91.25,8.06,3.7,10.34,1.33.88,2.73,1.66,4.15,2.38.87.44,1,.89.52,1.72-.7,1.22-1.35,2.48-1.95,3.76-1.99,4.21-.73,9,3.01,11.6,3.66,2.55,8.54,2.1,11.8-1.15,1.13-1.13,2.21-2.31,3.21-3.55.76-.95,1.26-.8,1.98.04,1.15,1.36,2.32,2.72,3.63,3.92,3.13,2.87,7.73,3.15,11.23.79,3.44-2.32,4.98-6.66,3.56-10.53-.61-1.66-1.49-3.23-2.35-4.79-.49-.9-.39-1.39.55-1.86,1.37-.69,2.72-1.44,3.99-2.29,3.7-2.45,5.13-6.96,3.54-11.01-1.58-4.04-5.71-6.41-10.06-5.76-1.21.18-2.43.33-3.64.56-1.34.26-2.11-.07-2.1-1.61.02-1.29-.04-2.58-.14-3.87-.4-5.02-4.18-8.74-8.93-8.86-4.93-.12-8.89,3.37-9.49,8.44-.17,1.46-.18,2.94-.19,4.42-.01,1.29-.58,1.72-1.84,1.5-1.75-.31-3.52-.53-4.7-.7Zm16.12,87.61c-11.92,0-23.85.02-35.77-.02-1.5,0-1.96.31-1.47,1.88.79,2.57,1.41,5.2,2,7.83.28,1.22.82,1.66,2.12,1.63,3.93-.1,7.87-.07,11.8-.07,18.01,0,36.02.01,54.03.07,1.26,0,1.86-.35,2.14-1.6.56-2.51,1.27-4.99,1.9-7.48.56-2.23.54-2.24-1.71-2.24-11.68,0-23.36,0-35.04,0Zm10.62-17.71c9.6-1.24,17.72-5.2,22.01-14.94.45-1.02.46-1.41-.85-1.6-10-1.47-18.8,4.03-24.19,12-.67.99-1.64,2.24-1.01,3.37.71,1.29,2.36,1.01,4.05,1.18Z"/>
      <path class="cls-1" d="m56.5,32.95c-.23,6.8-4.74,12.32-12.38,12.5-6.28.15-12.08-4.26-12.43-12.42-.3-6.81,5.81-12.73,12.66-12.65,6.59.08,12.16,5.85,12.15,12.57Zm-12.33-6.94c-3.92-.04-7.08,2.99-7.15,6.85-.07,3.72,3.07,6.96,6.81,7.02,4,.06,7.26-3.06,7.25-6.95,0-3.77-3.12-6.88-6.9-6.91Z"/>
    </g>
  </g>
</svg>