<?xml version="1.0" encoding="UTF-8"?>
<svg id="Layer_2" data-name="Layer 2" xmlns="http://www.w3.org/2000/svg" viewBox="0 0 1924 924">
  <defs>
    <style>
      .cls-1 {
        fill: #fff;
      }
    </style>
  </defs>
  <g id="Export_Q" data-name="Export Q">
    <rect width="1924" height="924"/>
    <g>
      <path class="cls-1" d="m176.38,124.49l-14.54,50.18h-7.34l-11.66-40.39-12.1,40.39-7.27.07-14.04-50.26h6.98l10.94,42.55,12.1-42.55h7.34l11.52,42.41,11.02-42.41h7.06Z"/>
      <path class="cls-1" d="m211.23,136.41c2.4,1.27,4.28,3.18,5.65,5.72,1.37,2.54,2.05,5.64,2.05,9.29v23.26h-6.48v-22.32c0-3.94-.98-6.95-2.95-9.04-1.97-2.09-4.66-3.13-8.06-3.13s-6.2,1.08-8.24,3.24c-2.04,2.16-3.06,5.3-3.06,9.43v21.82h-6.55v-53.28h6.55v19.44c1.3-2.02,3.08-3.58,5.36-4.68,2.28-1.1,4.84-1.66,7.67-1.66,2.98,0,5.66.64,8.06,1.91Z"/>
      <path class="cls-1" d="m229.66,144.18c1.63-3.05,3.88-5.41,6.73-7.09,2.86-1.68,6.04-2.52,9.54-2.52s6.46.74,9,2.23c2.54,1.49,4.44,3.36,5.69,5.62v-7.2h6.62v39.46h-6.62v-7.34c-1.3,2.3-3.23,4.21-5.8,5.72-2.57,1.51-5.56,2.27-8.96,2.27s-6.67-.86-9.5-2.59c-2.83-1.73-5.06-4.15-6.7-7.27-1.63-3.12-2.45-6.67-2.45-10.66s.82-7.57,2.45-10.62Zm29.16,2.92c-1.2-2.21-2.82-3.9-4.86-5.08-2.04-1.18-4.28-1.76-6.73-1.76s-4.68.58-6.7,1.73c-2.02,1.15-3.62,2.83-4.82,5.04-1.2,2.21-1.8,4.8-1.8,7.78s.6,5.65,1.8,7.88c1.2,2.23,2.81,3.94,4.82,5.11,2.02,1.18,4.25,1.76,6.7,1.76s4.69-.59,6.73-1.76c2.04-1.18,3.66-2.88,4.86-5.11,1.2-2.23,1.8-4.84,1.8-7.81s-.6-5.57-1.8-7.78Z"/>
      <path class="cls-1" d="m286.32,140.62v23.26c0,1.92.41,3.28,1.22,4.07.82.79,2.23,1.19,4.25,1.19h4.82v5.54h-5.9c-3.65,0-6.38-.84-8.21-2.52-1.82-1.68-2.74-4.44-2.74-8.28v-23.26h-5.11v-5.4h5.11v-9.94h6.55v9.94h10.3v5.4h-10.3Z"/>
      <path class="cls-1" d="m323.76,144.18c1.63-3.05,3.9-5.41,6.8-7.09,2.9-1.68,6.23-2.52,9.97-2.52,4.85,0,8.84,1.18,11.99,3.53,3.14,2.35,5.22,5.62,6.23,9.79h-7.06c-.67-2.4-1.98-4.29-3.92-5.69-1.94-1.39-4.36-2.09-7.24-2.09-3.74,0-6.77,1.28-9.07,3.85-2.3,2.57-3.46,6.2-3.46,10.91s1.15,8.42,3.46,11.02c2.3,2.59,5.33,3.89,9.07,3.89,2.88,0,5.28-.67,7.2-2.02,1.92-1.34,3.24-3.26,3.96-5.76h7.06c-1.06,4.03-3.17,7.26-6.34,9.68-3.17,2.42-7.13,3.64-11.88,3.64-3.74,0-7.07-.84-9.97-2.52-2.9-1.68-5.17-4.06-6.8-7.13-1.63-3.07-2.45-6.67-2.45-10.8s.82-7.64,2.45-10.69Z"/>
      <path class="cls-1" d="m374.63,172.8c-3-1.68-5.35-4.07-7.06-7.16-1.7-3.1-2.56-6.68-2.56-10.76s.88-7.6,2.63-10.69c1.75-3.1,4.14-5.47,7.16-7.13,3.02-1.66,6.41-2.48,10.15-2.48s7.13.83,10.15,2.48c3.02,1.66,5.41,4.02,7.16,7.09,1.75,3.07,2.63,6.65,2.63,10.73s-.9,7.67-2.7,10.76c-1.8,3.1-4.24,5.48-7.31,7.16-3.07,1.68-6.48,2.52-10.22,2.52s-7.04-.84-10.04-2.52Zm16.67-4.9c2.06-1.1,3.73-2.76,5-4.97,1.27-2.21,1.91-4.9,1.91-8.06s-.62-5.86-1.87-8.06c-1.25-2.21-2.88-3.85-4.9-4.93-2.02-1.08-4.2-1.62-6.55-1.62s-4.6.54-6.59,1.62c-1.99,1.08-3.59,2.72-4.79,4.93-1.2,2.21-1.8,4.9-1.8,8.06s.59,5.93,1.76,8.14c1.18,2.21,2.75,3.85,4.72,4.93,1.97,1.08,4.13,1.62,6.48,1.62s4.56-.55,6.62-1.66Z"/>
      <path class="cls-1" d="m469.2,136.41c2.4,1.27,4.3,3.18,5.69,5.72,1.39,2.54,2.09,5.64,2.09,9.29v23.26h-6.48v-22.32c0-3.94-.97-6.95-2.92-9.04-1.94-2.09-4.57-3.13-7.88-3.13s-6.12,1.09-8.14,3.28c-2.02,2.18-3.02,5.34-3.02,9.47v21.74h-6.48v-22.32c0-3.94-.97-6.95-2.92-9.04-1.94-2.09-4.57-3.13-7.88-3.13s-6.12,1.09-8.14,3.28c-2.02,2.18-3.02,5.34-3.02,9.47v21.74h-6.55v-39.46h6.55v5.69c1.3-2.06,3.04-3.65,5.22-4.75,2.18-1.1,4.6-1.66,7.24-1.66,3.31,0,6.24.74,8.78,2.23,2.54,1.49,4.44,3.67,5.69,6.55,1.1-2.78,2.93-4.94,5.47-6.48,2.54-1.54,5.38-2.3,8.5-2.3s5.81.64,8.21,1.91Z"/>
      <path class="cls-1" d="m523.49,157.4h-31.54c.24,3.89,1.57,6.92,4,9.11,2.42,2.18,5.36,3.28,8.82,3.28,2.83,0,5.2-.66,7.09-1.98,1.9-1.32,3.23-3.08,4-5.29h7.06c-1.06,3.79-3.17,6.88-6.34,9.25s-7.1,3.56-11.81,3.56c-3.74,0-7.09-.84-10.04-2.52-2.95-1.68-5.27-4.07-6.95-7.16-1.68-3.1-2.52-6.68-2.52-10.76s.82-7.66,2.45-10.73c1.63-3.07,3.92-5.44,6.88-7.09,2.95-1.66,6.35-2.48,10.19-2.48s7.06.82,9.94,2.45c2.88,1.63,5.1,3.88,6.66,6.73,1.56,2.86,2.34,6.08,2.34,9.68,0,1.25-.07,2.57-.22,3.96Zm-8.21-11.77c-1.1-1.8-2.6-3.17-4.5-4.1-1.9-.94-4-1.4-6.3-1.4-3.31,0-6.13,1.06-8.46,3.17-2.33,2.11-3.66,5.04-4,8.78h24.91c0-2.5-.55-4.64-1.66-6.44Z"/>
      <path class="cls-1" d="m538.18,173.78c-2.4-1.03-4.3-2.47-5.69-4.32-1.39-1.85-2.16-3.97-2.3-6.37h6.77c.19,1.97,1.12,3.58,2.77,4.82,1.66,1.25,3.83,1.87,6.52,1.87,2.5,0,4.46-.55,5.9-1.66,1.44-1.1,2.16-2.5,2.16-4.18s-.77-3.01-2.3-3.85c-1.54-.84-3.91-1.67-7.13-2.48-2.93-.77-5.32-1.55-7.16-2.34-1.85-.79-3.43-1.97-4.75-3.53-1.32-1.56-1.98-3.61-1.98-6.16,0-2.02.6-3.86,1.8-5.54,1.2-1.68,2.9-3.01,5.11-4,2.21-.98,4.73-1.48,7.56-1.48,4.37,0,7.9,1.1,10.58,3.31,2.69,2.21,4.13,5.23,4.32,9.07h-6.55c-.14-2.06-.97-3.72-2.48-4.97-1.51-1.25-3.54-1.87-6.08-1.87-2.35,0-4.22.5-5.62,1.51-1.39,1.01-2.09,2.33-2.09,3.96,0,1.3.42,2.36,1.26,3.2.84.84,1.9,1.51,3.17,2.02,1.27.5,3.04,1.07,5.29,1.69,2.83.77,5.14,1.52,6.91,2.27,1.78.75,3.3,1.86,4.57,3.35,1.27,1.49,1.93,3.43,1.98,5.83,0,2.16-.6,4.1-1.8,5.83-1.2,1.73-2.89,3.08-5.08,4.07-2.18.98-4.69,1.48-7.52,1.48-3.02,0-5.74-.52-8.14-1.55Z"/>
      <path class="cls-1" d="m620.04,138.86c2.98,2.9,4.46,7.09,4.46,12.56v23.26h-6.48v-22.32c0-3.94-.98-6.95-2.95-9.04-1.97-2.09-4.66-3.13-8.06-3.13s-6.2,1.08-8.24,3.24c-2.04,2.16-3.06,5.3-3.06,9.43v21.82h-6.55v-39.46h6.55v5.62c1.3-2.02,3.06-3.58,5.29-4.68,2.23-1.1,4.69-1.66,7.38-1.66,4.8,0,8.69,1.45,11.66,4.36Z"/>
      <path class="cls-1" d="m671.02,157.4h-31.54c.24,3.89,1.57,6.92,4,9.11,2.42,2.18,5.36,3.28,8.82,3.28,2.83,0,5.2-.66,7.09-1.98,1.9-1.32,3.23-3.08,4-5.29h7.06c-1.06,3.79-3.17,6.88-6.34,9.25s-7.1,3.56-11.81,3.56c-3.74,0-7.09-.84-10.04-2.52-2.95-1.68-5.27-4.07-6.95-7.16-1.68-3.1-2.52-6.68-2.52-10.76s.82-7.66,2.45-10.73c1.63-3.07,3.92-5.44,6.88-7.09,2.95-1.66,6.35-2.48,10.19-2.48s7.06.82,9.94,2.45c2.88,1.63,5.1,3.88,6.66,6.73,1.56,2.86,2.34,6.08,2.34,9.68,0,1.25-.07,2.57-.22,3.96Zm-8.21-11.77c-1.1-1.8-2.6-3.17-4.5-4.1-1.9-.94-4-1.4-6.3-1.4-3.31,0-6.13,1.06-8.46,3.17-2.33,2.11-3.66,5.04-4,8.78h24.91c0-2.5-.55-4.64-1.66-6.44Z"/>
      <path class="cls-1" d="m700.46,174.68l-9.36-14.69-9,14.69h-6.84l12.74-19.58-12.74-19.87h7.42l9.36,14.62,8.93-14.62h6.84l-12.67,19.51,12.74,19.94h-7.42Z"/>
      <path class="cls-1" d="m722.35,140.62v23.26c0,1.92.41,3.28,1.22,4.07.82.79,2.23,1.19,4.25,1.19h4.82v5.54h-5.9c-3.65,0-6.38-.84-8.21-2.52-1.82-1.68-2.74-4.44-2.74-8.28v-23.26h-5.11v-5.4h5.11v-9.94h6.55v9.94h10.3v5.4h-10.3Z"/>
      <path class="cls-1" d="m764.9,127.88c2.93,2.69,4.39,6.29,4.39,10.8,0,5.04-1.56,8.77-4.68,11.2-3.12,2.42-7.34,3.64-12.67,3.64l-.22,6.84h-5.69l-.29-11.38h2.09c4.75,0,8.47-.72,11.16-2.16,2.69-1.44,4.03-4.15,4.03-8.14,0-2.88-.86-5.16-2.59-6.84-1.73-1.68-4.06-2.52-6.98-2.52s-5.32.8-7.02,2.41c-1.7,1.61-2.56,3.81-2.56,6.59h-6.19c0-2.88.65-5.41,1.94-7.6,1.3-2.18,3.13-3.88,5.51-5.08,2.38-1.2,5.12-1.8,8.24-1.8,4.75,0,8.59,1.34,11.52,4.03Zm-19.22,45.94c-.86-.86-1.3-1.92-1.3-3.17s.43-2.3,1.3-3.17c.86-.86,1.92-1.3,3.17-1.3s2.22.43,3.06,1.3c.84.86,1.26,1.92,1.26,3.17s-.42,2.3-1.26,3.17c-.84.86-1.86,1.3-3.06,1.3s-2.3-.43-3.17-1.3Z"/>
    </g>
    <rect class="cls-1" x="1631.97" y="216" width="134.27" height="10"/>
    <g>
      <path class="cls-1" d="m958.99,167.24c-.92,1.09-1.61,2.46-3.2,2.78-1.25.26-2.5.47-3.74.76-4.37,1.04-7.65,3.59-9.99,7.39-1.69,2.73-2.59,5.74-2.7,8.9-.09,2.52.5,5.02,1.55,7.34,1.03,2.26.28,4.08-.72,5.16-1.24,1.33-3.45,1.63-5.31.84-7.13-3.01-14.96-1.37-20.08,4.62-2.2,2.57-3.52,5.58-3.92,8.98-.41,3.45-3.81,5.45-6.51,3.8-.75-.46-1.41-1.14-1.95-1.85-4.18-5.4-9.87-7.31-16.38-6.55-4.75.55-8.46,3.25-11.21,7.19-.88,1.26-3.02,2.09-4.47,1.73-1.4-.35-3.07-2.17-3.22-3.61-.45-4.42-2.1-8.26-5.47-11.25-2.67-2.37-5.76-3.74-9.34-4.32-3.68-.59-7.04.25-10.4,1.45-1.78.64-3.1.03-4.31-1.22-1.22-1.27-1.45-2.77-.89-4.33.93-2.6,1.83-5.21,1.67-8-.25-4.23-1.6-8.01-4.56-11.21-3.06-3.31-6.84-4.95-11.18-5.61-1.82-.28-3.03-1.5-3.53-3.1-.46-1.45-.27-3.06,1.04-4.22,2.13-1.87,4.25-3.71,5.7-6.22,3.43-5.9,2.92-14.58-2.1-19.55-1.15-1.14-2.4-2.19-3.58-3.3-1.29-1.21-1.52-2.78-1.01-4.32.56-1.7,1.85-2.84,3.72-3.01,6.79-.61,12.63-5.25,14.67-11.86,1.26-4.08,1.16-8.15-.58-12.1-.93-2.12-.54-4.21.9-5.52,1.44-1.31,3.04-1.34,4.67-.68,5.73,2.31,11.24,2.1,16.5-1.29,4.26-2.74,6.96-6.58,7.76-11.61.37-2.36,1.28-4.17,3.59-5.07.64,0,1.28,0,1.91,0,.82.53,1.88.89,2.43,1.62,4.05,5.46,9.23,8.25,16.18,7.42,4.7-.56,8.28-2.9,11.36-6.32.91-1.02,2.07-1.82,3.11-2.72.64,0,1.28,0,1.91,0,2.14.76,3.34,2.21,3.59,4.52.13,1.21.41,2.44.81,3.59,2.02,5.83,6.24,9.35,12.08,10.9,2.96.78,6.01.71,8.98-.3,1.37-.46,2.79-1.19,4.16-1.14,3.71.13,5.35,3.12,3.96,6.38-1.35,3.16-1.98,6.49-1.28,9.87,1.48,7.1,6.34,12.41,13.42,14,2.52.56,5.09.82,5.95,3.86v2.19c-1.26,1.21-2.55,2.39-3.77,3.64-4.1,4.25-6.2,9.16-5.28,15.22.66,4.34,2.78,7.78,6.07,10.45,1.26,1.03,2.38,1.99,2.98,3.5v2.19Zm-85.47-75.84c-2.49,5.16-6.14,9.1-11,11.86-4.84,2.75-10.09,3.73-15.63,3.23,1.27,9.56-3.35,21.06-14.97,26.67,3.33,4.54,4.89,9.63,4.89,15.26,0,5.66-1.87,10.67-5.01,15.28,12.47,6,16.29,18.01,15.11,26.49,12.01-.48,21.15,4.19,26.75,15.01,10.27-6.5,20.46-6.22,30.66.26,2.35-5.14,5.95-9.09,10.74-11.89,4.83-2.81,10.13-3.76,15.61-3.35-.4-12.12,4.4-21.11,15.14-26.66-6.67-10.25-6.44-20.39.16-30.47-10.67-5.61-15.71-14.46-15.32-26.57-12.02.75-20.84-4.38-26.55-15.05-10.11,6.53-20.27,6.64-30.57-.09Z"/>
      <path class="cls-1" d="m887.51,192.19c-11.63-.33-22.27-5.01-30.75-14.21-7.28-7.89-11.18-17.31-11.49-28.12-.39-13.43,4.47-24.71,14.21-33.83,7.89-7.38,17.48-11.13,28.2-11.33,13.45-.24,24.95,4.63,34.02,14.72,7.32,8.15,10.98,17.88,10.97,28.72-.02,12.09-4.24,22.67-13.02,31.26-8.69,8.49-19.11,12.65-32.14,12.78Zm-33.52-43.85c0,9.9,3.59,18.37,10.65,25.2,7.07,6.84,15.64,10.26,25.57,9.82,9.8-.43,18.02-4.37,24.65-11.52,6.12-6.61,9.11-14.62,9.06-23.51-.06-9.66-3.52-18.12-10.57-24.97-7.07-6.86-15.63-10.08-25.33-9.92-18.45.31-34.1,15.38-34.03,34.9Z"/>
    </g>
    <g>
      <path class="cls-1" d="m1589.9,167.07c-.92,1.09-1.61,2.46-3.2,2.78-1.25.26-2.5.47-3.74.76-4.37,1.04-7.65,3.59-9.99,7.39-1.69,2.73-2.59,5.74-2.7,8.9-.09,2.52.5,5.02,1.55,7.34,1.03,2.26.28,4.08-.72,5.16-1.24,1.33-3.45,1.63-5.31.84-7.13-3.01-14.96-1.37-20.08,4.62-2.2,2.57-3.52,5.58-3.92,8.98-.41,3.45-3.81,5.45-6.51,3.8-.75-.46-1.41-1.14-1.95-1.85-4.18-5.4-9.87-7.31-16.38-6.55-4.75.55-8.46,3.25-11.21,7.19-.88,1.26-3.02,2.09-4.47,1.73-1.4-.35-3.07-2.17-3.22-3.61-.45-4.42-2.1-8.26-5.47-11.25-2.67-2.37-5.76-3.74-9.34-4.32-3.68-.59-7.04.25-10.4,1.45-1.78.64-3.1.03-4.31-1.22-1.22-1.27-1.45-2.77-.89-4.33.93-2.6,1.83-5.21,1.67-8-.25-4.23-1.6-8.01-4.56-11.21-3.06-3.31-6.84-4.95-11.18-5.61-1.82-.28-3.03-1.5-3.53-3.1-.46-1.45-.27-3.06,1.04-4.22,2.13-1.87,4.25-3.71,5.7-6.22,3.43-5.9,2.92-14.58-2.1-19.55-1.15-1.14-2.4-2.19-3.58-3.3-1.29-1.21-1.52-2.78-1.01-4.32.56-1.7,1.85-2.84,3.72-3.01,6.79-.61,12.63-5.25,14.67-11.86,1.26-4.08,1.16-8.15-.58-12.1-.93-2.12-.54-4.21.9-5.52,1.44-1.31,3.04-1.34,4.67-.68,5.73,2.31,11.24,2.1,16.5-1.29,4.26-2.74,6.96-6.58,7.76-11.61.37-2.36,1.28-4.17,3.59-5.07.64,0,1.28,0,1.91,0,.82.53,1.88.89,2.43,1.62,4.05,5.46,9.23,8.25,16.18,7.42,4.7-.56,8.28-2.9,11.36-6.32.91-1.02,2.07-1.82,3.11-2.72.64,0,1.28,0,1.91,0,2.14.76,3.34,2.21,3.59,4.52.13,1.21.41,2.44.81,3.59,2.02,5.83,6.24,9.35,12.08,10.9,2.96.78,6.01.71,8.98-.3,1.37-.46,2.79-1.19,4.16-1.14,3.71.13,5.35,3.12,3.96,6.38-1.35,3.16-1.98,6.49-1.28,9.87,1.48,7.1,6.34,12.41,13.42,14,2.52.56,5.09.82,5.95,3.86v2.19c-1.26,1.21-2.55,2.39-3.77,3.64-4.1,4.25-6.2,9.16-5.28,15.22.66,4.34,2.78,7.78,6.07,10.45,1.26,1.03,2.38,1.99,2.98,3.5v2.19Zm-85.47-75.84c-2.49,5.16-6.14,9.1-11,11.86-4.84,2.75-10.09,3.73-15.63,3.23,1.27,9.56-3.35,21.06-14.97,26.67,3.33,4.54,4.89,9.63,4.89,15.26,0,5.66-1.87,10.67-5.01,15.28,12.47,6,16.29,18.01,15.11,26.49,12.01-.48,21.15,4.19,26.75,15.01,10.27-6.5,20.46-6.22,30.66.26,2.35-5.14,5.95-9.09,10.74-11.89,4.83-2.81,10.13-3.76,15.61-3.35-.4-12.12,4.4-21.11,15.14-26.66-6.67-10.25-6.44-20.39.16-30.47-10.67-5.61-15.71-14.46-15.32-26.57-12.02.75-20.84-4.38-26.55-15.05-10.11,6.53-20.27,6.64-30.57-.09Z"/>
      <path class="cls-1" d="m1518.41,192.02c-11.63-.33-22.27-5.01-30.75-14.21-7.28-7.89-11.18-17.31-11.49-28.12-.39-13.43,4.47-24.71,14.21-33.83,7.89-7.38,17.48-11.13,28.2-11.33,13.45-.24,24.95,4.63,34.02,14.72,7.32,8.15,10.98,17.88,10.97,28.72-.02,12.09-4.24,22.67-13.02,31.26-8.69,8.49-19.11,12.65-32.14,12.78Zm-33.52-43.85c0,9.9,3.59,18.37,10.65,25.2,7.07,6.84,15.64,10.26,25.57,9.82,9.8-.43,18.02-4.37,24.65-11.52,6.12-6.61,9.11-14.62,9.06-23.51-.06-9.66-3.52-18.12-10.57-24.97-7.07-6.86-15.63-10.08-25.33-9.92-18.45.31-34.1,15.38-34.03,34.9Z"/>
    </g>
    <g>
      <path class="cls-1" d="m1175.93,123.34c-1.7-.98-3.13-1.78-4.54-2.61-2.73-1.59-3.62-4.46-2.17-6.97,1.4-2.43,4.31-3.13,6.99-1.66,1.48.81,2.94,1.66,4.67,2.64-.14-2.99-.3-5.73-.4-8.48-.09-2.52,1.23-4.46,3.39-5.13,2.85-.88,5.85.82,6.29,3.8.35,2.39.39,4.82.54,7.24.15,2.42.29,4.84.35,7.26.02.9.37,1.38,1.13,1.8,4.67,2.63,9.31,5.29,13.95,7.97.69.4,1.24.48,1.99.07,2.45-1.33,5.08-1.64,7.79-1.05,1.26.27,2.04-.02,2.47-1.35.9-2.81,2.66-4.98,5.23-6.44.68-.39.89-.84.89-1.59-.03-5.41-.04-10.83,0-16.24,0-.87-.36-1.28-1.01-1.71-3.87-2.55-7.74-5.12-11.58-7.71-1.79-1.21-2.6-2.95-2.19-5.08.39-2.05,1.7-3.37,3.74-3.9,1.5-.39,2.85.03,4.1.86,2.21,1.48,4.43,2.95,6.9,4.59,0-1.92-.01-3.54,0-5.17.02-3.14,2.09-5.37,4.96-5.37,2.88,0,4.91,2.22,4.94,5.39.01,1.6,0,3.19,0,4.77.55.26.82-.16,1.13-.37,2.03-1.32,4.01-2.72,6.06-4.01,2.41-1.51,5.3-.9,6.81,1.36,1.52,2.27,1.01,5.2-1.34,6.82-3.82,2.63-7.69,5.19-11.57,7.72-.84.54-1.13,1.13-1.12,2.12.05,5.26.04,10.52.01,15.78,0,.83.13,1.41.94,1.89,2.36,1.39,3.9,3.49,4.64,6.13.39,1.38,1.14,1.8,2.51,1.5,2.82-.61,5.55-.25,8.06,1.21.74.43,1.27.33,1.97-.08,4.68-2.71,9.37-5.41,14.09-8.05.89-.49,1.2-1.06,1.24-2.06.18-4.38.41-8.75.69-13.13.23-3.62,2.86-5.78,6.06-5.08,2.39.52,3.9,2.48,3.82,5.09-.09,2.78-.26,5.55-.41,8.62,1.6-.91,3.01-1.71,4.43-2.51,2.86-1.61,5.82-.98,7.26,1.54,1.45,2.54.51,5.38-2.33,7.05-1.36.8-2.73,1.58-4.37,2.52,2.58,1.3,4.9,2.48,7.23,3.63,1.58.78,2.68,1.92,2.98,3.69.32,1.93-.22,3.6-1.8,4.81-1.67,1.28-3.51,1.39-5.38.47-4.06-2.01-8.12-4.03-12.15-6.1-.85-.44-1.51-.5-2.39.02-4.53,2.66-9.1,5.26-13.68,7.82-.95.53-1.41,1.1-1.39,2.26.03,2.56-.89,4.88-2.57,6.79-1.05,1.19-1.16,2.06-.05,3.31,1.77,1.98,2.67,4.4,2.63,7.08-.01.88.26,1.39,1.04,1.83,4.76,2.67,9.51,5.37,14.22,8.12.74.43,1.27.36,1.97,0,4.13-2.1,8.27-4.18,12.43-6.22,1.82-.89,3.62-.76,5.25.46,1.59,1.19,2.17,2.84,1.87,4.78-.28,1.77-1.35,2.95-2.93,3.73-2.34,1.16-4.67,2.34-7.28,3.66,1.63.95,3.04,1.75,4.43,2.57,2.82,1.66,3.71,4.54,2.21,7.07-1.46,2.45-4.36,3.06-7.15,1.5-1.42-.8-2.84-1.6-4.49-2.53.15,3.07.35,5.88.4,8.7.07,3.52-3.05,5.91-6.35,4.93-2.1-.63-3.38-2.41-3.54-5.09-.25-4.27-.52-8.54-.66-12.82-.04-1.19-.43-1.84-1.46-2.41-4.64-2.58-9.24-5.22-13.83-7.88-.73-.42-1.29-.55-2.1-.08-2.46,1.43-5.15,1.78-7.91,1.18-1.45-.31-2.2.12-2.61,1.57-.74,2.63-2.32,4.7-4.68,6.1-.66.4-.88.85-.88,1.61.03,5.41.04,10.83-.01,16.24,0,.92.38,1.38,1.07,1.83,3.87,2.55,7.73,5.12,11.57,7.72,1.79,1.21,2.55,2.97,2.12,5.1-.42,2.05-1.75,3.35-3.79,3.85-1.5.37-2.85-.07-4.1-.91-2.18-1.46-4.36-2.91-6.86-4.57,0,2.08.04,3.89-.01,5.71-.06,2.22-1.41,3.94-3.48,4.61-1.92.61-4.01-.01-5.28-1.6-.77-.96-1.12-2.06-1.12-3.3,0-1.65-.02-3.3-.04-4.95,0-.04-.04-.09-.16-.32-1.75,1.17-3.49,2.32-5.23,3.47-.64.43-1.27.89-1.94,1.27-2.37,1.35-5.23.68-6.67-1.54-1.49-2.29-.94-5.18,1.42-6.8,3.65-2.51,7.33-4.98,11.07-7.36,1.18-.75,1.6-1.57,1.58-2.97-.09-5.1-.05-10.21-.01-15.31,0-.82-.22-1.3-.95-1.72-2.47-1.4-4.2-3.48-5.08-6.18-.46-1.39-1.16-1.89-2.63-1.56-2.65.59-5.23.26-7.64-1.02-.71-.38-1.27-.42-1.99,0-4.68,2.71-9.37,5.4-14.09,8.04-.8.45-1.01,1-1.05,1.85-.2,4.43-.42,8.86-.7,13.28-.22,3.34-2.58,5.49-5.5,5.13-2.65-.33-4.45-2.35-4.38-5.09.06-2.58.25-5.15.37-7.72.01-.24-.02-.49-.05-.93-1.6.9-3.05,1.73-4.53,2.54-2.76,1.52-5.7.81-7.1-1.69-1.4-2.52-.48-5.35,2.27-6.94,1.38-.8,2.77-1.58,4.13-2.35-.03-.63-.54-.65-.87-.82-2.11-1.08-4.25-2.09-6.35-3.19-2.52-1.32-3.47-4.14-2.3-6.58,1.19-2.48,4.09-3.52,6.7-2.26,4.17,2.02,8.31,4.1,12.44,6.21.77.39,1.34.41,2.1-.03,4.45-2.59,8.92-5.15,13.41-7.66.87-.48,1.24-1,1.22-2.03-.04-2.84.93-5.37,2.81-7.49.88-.99.98-1.76.05-2.79-1.97-2.2-2.94-4.83-2.87-7.78.02-.86-.31-1.29-1.02-1.68-4.58-2.58-9.14-5.18-13.68-7.82-.72-.42-1.24-.4-1.97-.03-3.99,2.04-8,4.03-12.02,6.01-2.97,1.47-5.85.67-7.16-1.95-1.3-2.62-.2-5.39,2.76-6.9,2.24-1.14,4.5-2.26,7.08-3.56Zm68.39,35.57c1.07.15,1.72-.1,2.06-.85.4-.89-.07-1.55-.62-2.22-3.8-4.63-3.8-10.21,0-14.83.59-.72,1.07-1.43.55-2.36-.54-.95-1.44-.84-2.33-.67-6.09,1.12-11.31-1.9-13.26-7.67-.25-.75-.4-1.57-1.42-1.53-.9.03-1.32.66-1.63,1.43-2.59,6.35-6.79,8.78-13.47,7.72-1.05-.17-1.59.23-2.11,1.07-.54.87,0,1.34.44,1.89,3.93,4.85,3.92,10.21,0,15.07-.44.55-.98,1.03-.44,1.9.52.83,1.06,1.24,2.11,1.07,6.68-1.06,10.89,1.37,13.48,7.71.31.77.73,1.4,1.63,1.43,1.02.04,1.17-.78,1.42-1.53,1.46-4.25,4.39-6.9,8.8-7.79,1.68-.34,3.39-.22,4.79.16Z"/>
      <path class="cls-1" d="m1207.31,104.84c1.65.12,3.14.83,4.08,2.43.91,1.55,1.81,3.12,2.61,4.73,1.23,2.46.37,5.25-1.92,6.56-2.36,1.34-5.25.59-6.71-1.83-.96-1.58-1.9-3.19-2.67-4.87-1.53-3.29.89-7.01,4.62-7.02Z"/>
      <path class="cls-1" d="m1249.24,119.22c-3.51,0-5.97-3.63-4.53-6.86.84-1.87,1.88-3.67,3-5.39,1.4-2.14,4.21-2.71,6.44-1.46,2.13,1.19,3.16,3.89,2.12,6.13-.88,1.91-1.95,3.74-3.07,5.53-.88,1.41-2.33,1.96-3.96,2.05Z"/>
      <path class="cls-1" d="m1214.58,182.61c.01.85-.23,1.63-.63,2.36-.81,1.49-1.61,3-2.48,4.45-1.47,2.45-4.28,3.24-6.68,1.93-2.37-1.29-3.25-4.15-1.97-6.66.84-1.65,1.73-3.28,2.72-4.85,1.23-1.94,3.55-2.68,5.69-1.97,1.98.66,3.36,2.62,3.35,4.73Z"/>
      <path class="cls-1" d="m1256.65,186.82c.02,2.28-1.34,4.2-3.34,4.88-2.08.7-4.41.03-5.6-1.83-1.11-1.73-2.13-3.53-3-5.39-1.02-2.16-.19-4.69,1.76-6,1.94-1.31,4.71-1.18,6.21.61,1.73,2.05,2.93,4.46,3.88,6.98.11.28.08.61.1.76Z"/>
      <path class="cls-1" d="m1187.34,153.35c-.93,0-1.86.05-2.78-.01-2.61-.18-4.61-2.33-4.62-4.91,0-2.58,1.98-4.79,4.58-4.93,1.9-.1,3.82-.11,5.72,0,2.6.15,4.57,2.39,4.54,4.97-.03,2.58-2.04,4.71-4.66,4.87-.92.06-1.85,0-2.78,0Z"/>
      <path class="cls-1" d="m1271.46,153.35c-.93,0-1.86.06-2.78-.01-2.6-.19-4.6-2.35-4.59-4.93,0-2.58,2-4.77,4.61-4.91,1.85-.1,3.71-.09,5.56,0,2.68.13,4.71,2.36,4.67,5.01-.04,2.58-2.06,4.69-4.68,4.85-.92.05-1.85,0-2.78,0Z"/>
    </g>
    <g>
      <path class="cls-1" d="m1373.79,152.01c2.57-4.1,5.87-7.14,9.55-9.87,6.61-4.91,14.04-5.81,21.9-4.79,1.58.2,3.13.62,4.7.9.96.17,1.2.65.94,1.56-4.18,14.29-12.89,22.78-29.23,24.39-2.45.24-4.93-.19-7.02-1.71-1.11-.81-1.18-.18-1.18.73,0,9.22.03-2.46-.02,6.76,0,1.74,1.12,1.43,2.12,1.43,12.17,0,24.35,0,36.52,0,.49,0,.99.03,1.48,0,1.23-.09,1.56.26,1.21,1.57-1.63,6.23-3.18,12.48-4.69,18.74-.27,1.11-.64,1.81-1.91,1.64-1.1-.14-1.42.51-1.67,1.49-2.47,10-5.02,19.99-7.46,29.99-.35,1.41-.82,1.97-2.41,1.97-17.22-.07-34.43-.06-51.65-.01-1.46,0-1.96-.47-2.3-1.86-2.43-9.95-4.98-19.87-7.42-29.81-.29-1.17-.62-1.97-2-1.78-1.17.16-1.38-.62-1.61-1.53-1.53-6.19-3.04-12.39-4.68-18.55-.4-1.52-.09-1.9,1.43-1.88,4.61.07,9.22.02,13.83.02,7.93,0,15.86-.03,23.8.03,1.58.01,2.25-.29,2.24-2.1-.07-19.43-.05-17.95-.02-37.38,0-1.47-.13-1.99-1.77-1.18-5.53,2.73-11.89,1.76-16.28-2.3-4.35-4.02-5.81-10.21-3.62-15.88.46-1.2.33-1.76-.74-2.52-5.34-3.8-7.42-10.39-5.33-16.5,2.06-6.01,7.7-9.99,14.13-9.82,1.32.03,1.74-.25,1.93-1.62.98-6.92,7.26-12.15,14.35-12.12,7,.02,13.22,5.25,14.2,12.08.19,1.33.53,1.7,1.9,1.67,6.53-.16,12.19,3.86,14.22,9.96,2.03,6.1-.1,12.6-5.48,16.47-.86.62-1.18,1.06-.74,2.21,2.23,5.87.81,11.97-3.6,16.05-4.42,4.1-10.63,4.96-16.46,2.27-.72-.33-1.51-1-1.51.59.02,6.7.02,13.4.03,20.11,0,.1.1.2.31.61Zm-2.97,41.53c-9.59,0-19.18.02-28.77-.02-1.3,0-1.7.24-1.33,1.67,2.11,8.19,4.14,16.41,6.14,24.63.3,1.24.85,1.62,2.13,1.62,14.57-.05,29.13-.05,43.7,0,1.31,0,1.82-.42,2.12-1.64,1.98-8.16,3.98-16.32,6.09-24.45.43-1.64-.07-1.84-1.5-1.83-9.53.04-19.05.02-28.58.02Zm-15.91-104.48c-4.64-.04-8.31,2.63-9.49,6.48-1.2,3.91.25,8.06,3.7,10.34,1.33.88,2.73,1.66,4.15,2.38.87.44,1,.89.52,1.72-.7,1.22-1.35,2.48-1.95,3.76-1.99,4.21-.73,9,3.01,11.6,3.66,2.55,8.54,2.1,11.8-1.15,1.13-1.13,2.21-2.31,3.21-3.55.76-.95,1.26-.8,1.98.04,1.15,1.36,2.32,2.72,3.63,3.92,3.13,2.87,7.73,3.15,11.23.79,3.44-2.32,4.98-6.66,3.56-10.53-.61-1.66-1.49-3.23-2.35-4.79-.49-.9-.39-1.39.55-1.86,1.37-.69,2.72-1.44,3.99-2.29,3.7-2.45,5.13-6.96,3.54-11.01-1.58-4.04-5.71-6.41-10.06-5.76-1.21.18-2.43.33-3.64.56-1.34.26-2.11-.07-2.1-1.61.02-1.29-.04-2.58-.14-3.87-.4-5.02-4.18-8.74-8.93-8.86-4.93-.12-8.89,3.37-9.49,8.44-.17,1.46-.18,2.94-.19,4.42-.01,1.29-.58,1.72-1.84,1.5-1.75-.31-3.52-.53-4.7-.7Zm16.12,87.61c-11.92,0-23.85.02-35.77-.02-1.5,0-1.96.31-1.47,1.88.79,2.57,1.41,5.2,2,7.83.28,1.22.82,1.66,2.12,1.63,3.93-.1,7.87-.07,11.8-.07,18.01,0,36.02.01,54.03.07,1.26,0,1.86-.35,2.14-1.6.56-2.51,1.27-4.99,1.9-7.48.56-2.23.54-2.24-1.71-2.24-11.68,0-23.36,0-35.04,0Zm10.62-17.71c9.6-1.24,17.72-5.2,22.01-14.94.45-1.02.46-1.41-.85-1.6-10-1.47-18.8,4.03-24.19,12-.67.99-1.64,2.24-1.01,3.37.71,1.29,2.36,1.01,4.05,1.18Z"/>
      <path class="cls-1" d="m1383.29,102.95c-.23,6.8-4.74,12.32-12.38,12.5-6.28.15-12.08-4.26-12.43-12.42-.3-6.81,5.81-12.73,12.66-12.65,6.59.08,12.16,5.85,12.15,12.57Zm-12.33-6.94c-3.92-.04-7.08,2.99-7.15,6.85-.07,3.72,3.07,6.96,6.81,7.02,4,.06,7.26-3.06,7.25-6.95,0-3.77-3.12-6.88-6.9-6.91Z"/>
    </g>
    <g>
      <path class="cls-1" d="m1043.63,207.6c-7.25-.09-14.54-1.82-21.5-5.06-7.46-3.47-13.12-8.84-16.73-16.18-2.74-5.56-3.67-11.56-2.99-17.77.2-1.79.49-3.56.93-5.3.13-.52.02-.85-.43-1.18-4.5-3.35-8.67-7.09-12.45-11.24-2.62-2.87-4.99-5.95-7.06-9.25-.98-1.57-.97-2.69-.08-3.87,1.42-1.88,3.94-1.86,5.17.16,2.53,4.18,5.81,7.74,9.19,11.21,2.33,2.39,4.98,4.43,7.46,6.66.57.51.73.17.97-.31,3.21-6.59,7.9-11.91,14.3-15.48,7.5-4.19,15.37-4.54,23.37-1.29,3.42,1.39,6.4,3.5,9.33,5.67,5.6,4.15,11.37,8.03,17.41,11.48,9.57,5.45,19.55,9.97,30.18,12.94,2.46.69,4.94,1.24,7.48,1.55,2.26.27,3.41,1.72,3.11,3.77-.11.76-.54,1.32-1.06,1.85-3.04,3.05-6.31,5.83-9.77,8.38-5.34,3.93-10.72,7.83-16.52,11.1-6.96,3.93-14.22,7.19-21.91,9.38-5.86,1.67-11.85,2.74-18.42,2.78Zm9.76-32.17c.12.22.27.23.41.25,2.3.32,4.6.56,6.92.74,4.46.35,8.92.41,13.39.35,1.98-.03,3.36,1.37,3.4,3.3.04,1.84-1.24,3.12-3.26,3.18-1.77.05-3.54.04-5.31.02-4.32-.03-8.64-.18-12.93-.76-1.98-.27-3.98-.33-5.95-.7-.52-.1-.9-.13-.57.67,1.04,2.55,2,5.12,2.99,7.69.38.97.83,1.92,1.11,2.92.64,2.29-1.09,4.33-3.37,4.02-1.42-.2-2.33-1.06-2.85-2.38-1.83-4.63-3.74-9.23-5.38-13.93-.19-.54-.46-.84-1.05-.99-5.03-1.26-10-2.73-14.82-4.65-.47-.19-1.1-.7-1.41-.39-.4.4.14,1.01.33,1.5.96,2.61,2.1,5.15,2.93,7.8.4,1.29-.02,2.4-1.02,3.29-.95.84-2.01.9-3.16.44-1.15-.47-1.69-1.42-2.14-2.49-1.91-4.6-3.75-9.23-5.44-13.91-.25-.69-.65-1.16-1.33-1.5-1.73-.87-3.47-1.74-5.09-2.81-.55-.36-.63-.15-.73.38-.51,2.61-.58,5.23-.33,7.88.52,5.64,2.78,10.49,6.62,14.6,5.2,5.57,11.78,8.63,19.12,10.13,7.18,1.47,14.35,1.15,21.49-.43,5.46-1.21,10.63-3.22,15.73-5.43,4.85-2.1,9.37-4.83,13.87-7.58,5.05-3.09,9.85-6.55,14.47-10.25.27-.21.75-.4.69-.72-.07-.39-.61-.33-.95-.43-2.33-.69-4.7-1.25-7-2.04-11.28-3.89-21.88-9.18-31.98-15.52-5.16-3.24-10.03-6.9-15.02-10.37-3.19-2.22-6.75-3.57-10.64-3.96-6.28-.62-11.63,1.56-16.31,5.55-3.41,2.91-5.72,6.66-7.69,10.64-.22.44-.08.68.29.93,2.02,1.31,4.12,2.49,6.2,3.69.37.22.68.13,1.04-.07,1.85-1.03,3.71-2.03,5.57-3.04,1.84-.99,3.65-2.03,5.52-2.93,2.31-1.12,4.65.45,4.62,3.01-.02,1.21-.63,2.05-1.63,2.69-2.39,1.53-4.97,2.74-7.48,4.17.21.11.36.2.51.26,4.58,1.98,9.39,3.3,14.1,4.89,2.13.72,4.02.73,5.79-.81.32-.28.75-.44,1.13-.65,2.74-1.52,5.46-3.06,8.21-4.54,1.87-1.01,3.8-.42,4.66,1.35.78,1.6.29,3.33-1.24,4.21-1.65.95-3.34,1.83-5.01,2.75Z"/>
      <path class="cls-1" d="m1120.75,102.71c2.58-2.12,4.97-4.35,7.09-6.86,1.46-1.73,2.94-3.43,4.12-5.37.72-1.2,2.59-1.56,3.9-.91,1.36.68,2.04,2.26,1.61,3.76-.24.82-.7,1.53-1.19,2.21-3.47,4.87-7.45,9.27-12.31,12.8-.72.52-.95,1.01-.77,1.94,1.47,7.36.04,14.12-4.46,20.16-1.77,2.37-4.05,4.23-6.54,5.8-6.23,3.92-13.08,5.49-20.38,5.27-6.95-.21-13.45-2.19-19.8-4.87-8.64-3.65-16.17-9.02-23.38-14.9-1.1-.89-2.08-1.93-3.1-2.92-.84-.81-1.34-1.76-.99-2.97.38-1.31,1.23-2.16,2.57-2.44,1.39-.29,2.8-.47,4.18-.81,6.04-1.51,11.77-3.82,17.33-6.61,7.03-3.53,13.47-7.94,19.77-12.6,3.4-2.52,7.24-4.02,11.52-4.16,5.6-.18,10.44,1.76,14.63,5.42,2.37,2.07,4.14,4.61,5.73,7.29.15.25.29.49.46.77Zm-66,15.62c.34.29.55.48.78.65,3.69,2.76,7.42,5.47,11.45,7.73,7.29,4.1,14.82,7.53,23.33,8.18,6.23.48,12.13-.45,17.56-3.72,3.89-2.34,6.92-5.42,8.36-9.85.83-2.55.99-5.17.76-7.82-.02-.27.07-.88-.53-.57-1.58.82-3.33,1.49-3.57,3.64,0,.06-.02.11-.04.17-1.12,3.01-2.2,6.04-3.55,8.95-.6,1.29-1.8,1.82-3.16,1.73-1.31-.09-2.13-.95-2.59-2.16-.28-.74-.23-1.48.03-2.21.38-1.09.79-2.17,1.18-3.27.13-.37.52-.83.23-1.11-.27-.26-.75.11-1.11.24-2.43.86-4.89,1.64-7.4,2.22-.84.19-1.3.61-1.55,1.41-.95,2.95-2.26,5.77-3.33,8.67-.13.35-.29.7-.5,1.01-.81,1.17-1.92,1.76-3.36,1.52-1.28-.22-1.96-1.11-2.38-2.27-.33-.91-.02-1.72.29-2.53.65-1.73,1.33-3.46,2.02-5.18.26-.63,0-.71-.53-.61-4.47.83-8.99.87-13.51.99-.87.02-1.74.01-2.6-.16-1.37-.28-2.54-1.53-2.69-2.86-.15-1.31.7-2.64,2.03-3.24.71-.32,1.46-.36,2.21-.33,2.93.11,5.86,0,8.78-.2.55-.04,1.12,0,1.73-.28-.48-.31-.88-.55-1.24-.82-1.18-.89-1.56-2.47-.96-3.92.54-1.31,1.87-2.09,3.29-1.91.76.1,1.43.46,2.09.83,2.2,1.23,4.4,2.46,6.58,3.72.65.38,1.28.45,1.99.25,1.86-.53,3.74-1.02,5.6-1.58,1.21-.36,2.41-.75,3.65-1.45-1.22-.64-2.34-1.23-3.46-1.82-.63-.33-1.17-.74-1.51-1.39-.63-1.21-.41-2.92.5-3.9.92-.99,2.34-1.25,3.68-.57,2.5,1.27,4.99,2.59,7.46,3.91.49.26.9.3,1.37.01.86-.53,1.73-1.06,2.62-1.54.48-.27.53-.52.28-1.03-1.29-2.62-3.12-4.78-5.31-6.7-5.08-4.42-11.28-4.15-16.11-1.49-2.07,1.14-3.91,2.6-5.8,3.99-6.77,4.98-13.98,9.2-21.72,12.5-3.65,1.55-7.36,2.95-11.31,4.14Z"/>
    </g>
  </g>
</svg>