<?xml version="1.0" encoding="UTF-8"?>
<svg id="Layer_2" data-name="Layer 2" xmlns="http://www.w3.org/2000/svg" viewBox="0 0 153.39 177">
  <defs>
    <style>
      .cls-1 {
        fill: #fff;
      }
    </style>
  </defs>
  <g id="Options">
    <path class="cls-1" d="m69.28,44.1c0-.98,0-1.81,0-2.63,0-9.24-.02-18.49.01-27.73.01-3.45,1.86-6.05,4.89-7.11,3.02-1.06,6.4-.14,8.36,2.29,1.27,1.58,1.68,3.44,1.62,5.44.73.14.96-.48,1.32-.8C95.17,4.72,106.58.21,119.68,0c4.76-.08,7.85,3.17,7.76,8.05-.19,10.32-3.3,19.68-9.17,28.15-.34.49-.67.99-1.05,1.54,2.26.68,4.47,1.25,6.6,2.01,17.52,6.27,29.42,22.7,29.56,41.19.15,19.87-2.84,39.22-10.51,57.68-4.59,11.05-10.68,21.13-19.95,28.95-7.78,6.57-16.63,10.15-27,9.24-3.83-.34-7.5-1.3-10.95-2.96-5.42-2.61-10.74-2.51-16.24-.11-14.21,6.2-27.02,3.3-38.54-6.47-9.15-7.76-15.09-17.81-19.65-28.73C4.33,123.68,1.33,108.09.34,92.08c-.41-6.63-.73-13.25.71-19.84,6.34-29.03,39.41-43.99,65.32-29.49.88.49,1.71,1.08,2.9,1.36ZM14.9,86.59c.2,4.52.48,9.04,1.03,13.54,1.62,13.21,4.76,25.99,10.63,38,3.53,7.22,7.87,13.89,14.34,18.88,6.73,5.2,14.07,6.82,22.04,3.07,9.05-4.27,18.08-4.09,27.15-.16,2.11.91,4.25,1.73,6.55,2.01,6.73.82,12.3-1.76,17.25-6,5.94-5.09,10.07-11.54,13.35-18.54,8.35-17.85,11.48-36.79,11.29-56.33-.12-11.99-8.2-23.08-19.49-27.19-8.61-3.13-17-2.43-25,1.96-4.23,2.32-8.61,4.04-13.43,4.58-7.73.86-14.76-1.08-21.54-4.75-15.99-8.66-35.7-1.38-42.25,15.41-1.96,5.03-2.13,10.24-1.89,15.52Zm70.43-44.39c14.76-3.5,24.45-16.39,25.92-26.1-11.77,2.35-23.32,13.27-25.92,26.1Z"/>
  </g>
</svg>