<?xml version="1.0" encoding="UTF-8"?>
<svg id="Layer_2" data-name="Layer 2" xmlns="http://www.w3.org/2000/svg" viewBox="0 0 164.93 179">
  <defs>
    <style>
      .cls-1 {
        fill: #fff;
      }
    </style>
  </defs>
  <g id="Options">
    <g>
      <path class="cls-1" d="m13.4,57.12c-2.2-1.26-4.04-2.3-5.86-3.37-3.52-2.06-4.67-5.77-2.8-9,1.81-3.14,5.57-4.04,9.03-2.15,1.91,1.05,3.8,2.14,6.03,3.41-.19-3.86-.39-7.4-.51-10.95-.11-3.25,1.59-5.76,4.38-6.63,3.68-1.14,7.56,1.06,8.13,4.9.46,3.08.5,6.23.69,9.35.19,3.12.38,6.25.45,9.38.03,1.16.48,1.78,1.45,2.33,6.03,3.39,12.03,6.83,18.02,10.3.89.51,1.61.62,2.57.09,3.16-1.71,6.56-2.11,10.06-1.36,1.63.35,2.63-.03,3.19-1.75,1.16-3.62,3.44-6.44,6.76-8.32.88-.5,1.15-1.08,1.14-2.06-.04-6.99-.05-13.99.01-20.98.01-1.12-.47-1.65-1.3-2.2-5-3.3-9.99-6.61-14.95-9.96-2.31-1.56-3.35-3.81-2.83-6.56.51-2.65,2.2-4.35,4.83-5.03,1.93-.5,3.68.03,5.3,1.11,2.86,1.91,5.72,3.81,8.91,5.93,0-2.47-.01-4.57,0-6.67C76.14,2.87,78.81,0,82.51,0c3.71,0,6.34,2.87,6.37,6.96.02,2.06,0,4.12,0,6.16.71.34,1.06-.21,1.46-.47,2.62-1.71,5.18-3.51,7.83-5.17,3.12-1.95,6.85-1.16,8.8,1.76,1.96,2.93,1.3,6.72-1.73,8.81-4.93,3.4-9.93,6.7-14.95,9.97-1.08.7-1.46,1.46-1.44,2.74.07,6.79.05,13.59.02,20.38,0,1.07.16,1.82,1.22,2.45,3.05,1.8,5.04,4.51,5.99,7.92.5,1.78,1.47,2.32,3.25,1.94,3.65-.79,7.16-.33,10.41,1.56.96.56,1.64.42,2.54-.1,6.04-3.5,12.1-6.99,18.2-10.39,1.14-.64,1.55-1.37,1.6-2.66.23-5.65.52-11.31.89-16.96.3-4.67,3.69-7.46,7.82-6.57,3.08.67,5.04,3.2,4.94,6.57-.11,3.59-.34,7.17-.53,11.13,2.07-1.17,3.89-2.21,5.72-3.24,3.69-2.08,7.52-1.26,9.37,1.99,1.87,3.28.66,6.95-3.01,9.1-1.76,1.03-3.53,2.04-5.64,3.25,3.33,1.67,6.32,3.2,9.34,4.69,2.03,1,3.46,2.49,3.85,4.77.42,2.49-.29,4.65-2.32,6.21-2.16,1.66-4.54,1.8-6.95.6-5.25-2.6-10.48-5.21-15.69-7.87-1.1-.56-1.95-.64-3.09.02-5.85,3.43-11.75,6.79-17.67,10.1-1.23.69-1.82,1.42-1.8,2.92.04,3.31-1.15,6.3-3.32,8.77-1.36,1.54-1.5,2.67-.06,4.27,2.29,2.56,3.44,5.68,3.4,9.15-.01,1.14.33,1.8,1.35,2.37,6.15,3.45,12.28,6.94,18.37,10.49.95.55,1.64.46,2.55,0,5.34-2.71,10.69-5.39,16.06-8.04,2.35-1.15,4.67-.99,6.78.59,2.05,1.53,2.8,3.67,2.41,6.18-.36,2.29-1.74,3.81-3.78,4.81-3.02,1.49-6.03,3.03-9.4,4.72,2.11,1.22,3.92,2.26,5.72,3.32,3.64,2.14,4.8,5.86,2.85,9.13-1.88,3.17-5.63,3.96-9.23,1.94-1.84-1.03-3.67-2.07-5.79-3.27.19,3.97.45,7.6.52,11.23.09,4.55-3.94,7.63-8.2,6.36-2.72-.81-4.37-3.12-4.57-6.57-.33-5.52-.67-11.03-.85-16.56-.05-1.53-.55-2.38-1.88-3.12-5.99-3.33-11.93-6.74-17.86-10.17-.95-.55-1.67-.71-2.71-.1-3.18,1.84-6.65,2.3-10.22,1.53-1.87-.4-2.84.15-3.37,2.02-.96,3.4-3,6.07-6.05,7.88-.86.51-1.14,1.1-1.14,2.08.04,6.99.06,13.99-.01,20.98-.01,1.19.49,1.78,1.38,2.37,5,3.3,9.99,6.61,14.94,9.97,2.31,1.57,3.3,3.84,2.74,6.58-.54,2.65-2.26,4.33-4.89,4.97-1.94.48-3.68-.09-5.29-1.17-2.81-1.89-5.63-3.76-8.85-5.91,0,2.68.05,5.03-.01,7.37-.08,2.87-1.82,5.1-4.5,5.95-2.48.79-5.17-.02-6.83-2.07-.99-1.24-1.45-2.66-1.44-4.26,0-2.13-.03-4.26-.05-6.39,0-.06-.05-.11-.2-.41-2.27,1.51-4.51,3-6.75,4.49-.83.55-1.64,1.14-2.51,1.64-3.06,1.75-6.75.88-8.62-1.99-1.92-2.96-1.21-6.7,1.83-8.79,4.72-3.24,9.47-6.43,14.3-9.5,1.53-.97,2.07-2.03,2.04-3.83-.11-6.59-.07-13.19-.02-19.78,0-1.06-.28-1.68-1.23-2.22-3.19-1.81-5.43-4.5-6.57-7.98-.59-1.8-1.5-2.44-3.4-2.01-3.42.76-6.76.33-9.87-1.32-.92-.49-1.64-.54-2.57,0-6.04,3.5-12.1,6.98-18.2,10.39-1.03.58-1.31,1.29-1.36,2.39-.26,5.72-.54,11.44-.9,17.15-.28,4.31-3.34,7.1-7.1,6.63-3.43-.43-5.74-3.04-5.66-6.58.08-3.33.32-6.65.48-9.98.02-.31-.03-.63-.06-1.2-2.06,1.16-3.95,2.24-5.85,3.29-3.56,1.96-7.37,1.04-9.16-2.19-1.81-3.25-.62-6.91,2.94-8.97,1.78-1.03,3.58-2.04,5.34-3.04-.04-.81-.7-.84-1.12-1.06-2.72-1.39-5.49-2.7-8.2-4.12-3.25-1.71-4.49-5.35-2.97-8.5,1.54-3.21,5.29-4.54,8.65-2.92,5.39,2.6,10.73,5.3,16.06,8.02.99.51,1.73.53,2.71-.04,5.75-3.35,11.52-6.65,17.33-9.9,1.12-.63,1.6-1.29,1.58-2.63-.05-3.66,1.2-6.94,3.63-9.67,1.14-1.28,1.27-2.27.07-3.6-2.54-2.84-3.8-6.23-3.71-10.05.03-1.11-.41-1.66-1.31-2.17-5.91-3.33-11.81-6.69-17.67-10.1-.93-.54-1.61-.51-2.54-.04-5.15,2.63-10.34,5.2-15.52,7.76-3.83,1.89-7.56.86-9.24-2.52-1.68-3.38-.26-6.97,3.56-8.91,2.9-1.47,5.81-2.92,9.14-4.59Zm88.33,45.94c1.38.19,2.22-.13,2.66-1.1.52-1.15-.09-2-.8-2.87-4.91-5.98-4.91-13.19,0-19.15.77-.93,1.38-1.85.71-3.05-.7-1.23-1.86-1.08-3.01-.87-7.87,1.44-14.61-2.45-17.12-9.91-.33-.97-.51-2.02-1.83-1.98-1.16.04-1.71.85-2.11,1.84-3.34,8.2-8.77,11.34-17.4,9.97-1.35-.21-2.05.3-2.72,1.38-.7,1.12,0,1.74.57,2.45,5.07,6.27,5.07,13.19,0,19.47-.57.71-1.27,1.33-.57,2.45.67,1.08,1.37,1.6,2.72,1.39,8.62-1.37,14.07,1.77,17.41,9.96.4.99.95,1.8,2.11,1.85,1.32.05,1.51-1,1.84-1.97,1.89-5.48,5.67-8.91,11.37-10.06,2.17-.44,4.38-.28,6.19.21Z"/>
      <path class="cls-1" d="m53.93,33.22c2.13.15,4.06,1.07,5.27,3.13,1.18,2.01,2.33,4.03,3.37,6.11,1.59,3.17.48,6.79-2.48,8.47-3.05,1.73-6.78.76-8.67-2.36-1.24-2.05-2.45-4.13-3.45-6.29-1.97-4.24,1.14-9.06,5.97-9.06Z"/>
      <path class="cls-1" d="m108.08,51.79c-4.54,0-7.72-4.69-5.85-8.87,1.08-2.42,2.42-4.74,3.87-6.97,1.8-2.77,5.44-3.5,8.32-1.89,2.75,1.54,4.08,5.02,2.74,7.92-1.14,2.47-2.52,4.84-3.97,7.14-1.14,1.81-3.01,2.53-5.12,2.65Z"/>
      <path class="cls-1" d="m63.31,133.68c.02,1.09-.3,2.11-.82,3.05-1.05,1.93-2.08,3.87-3.2,5.75-1.9,3.17-5.53,4.19-8.63,2.5-3.06-1.67-4.19-5.36-2.54-8.6,1.08-2.13,2.23-4.24,3.51-6.26,1.59-2.51,4.58-3.47,7.35-2.54,2.56.86,4.35,3.38,4.32,6.11Z"/>
      <path class="cls-1" d="m117.65,139.11c.03,2.94-1.74,5.43-4.32,6.3-2.69.91-5.69.04-7.23-2.36-1.43-2.23-2.75-4.57-3.88-6.96-1.31-2.79-.25-6.05,2.27-7.75,2.51-1.69,6.08-1.52,8.03.78,2.23,2.64,3.78,5.76,5.01,9.01.14.36.1.79.13.98Z"/>
      <path class="cls-1" d="m28.13,95.88c-1.2,0-2.4.07-3.59-.01-3.37-.23-5.95-3.01-5.96-6.34-.01-3.33,2.56-6.19,5.92-6.37,2.46-.13,4.93-.14,7.38,0,3.36.2,5.9,3.08,5.86,6.42-.04,3.34-2.63,6.08-6.01,6.29-1.19.07-2.4.01-3.59,0Z"/>
      <path class="cls-1" d="m136.78,95.88c-1.2,0-2.4.07-3.59-.01-3.36-.24-5.94-3.04-5.93-6.37,0-3.33,2.58-6.17,5.95-6.34,2.39-.13,4.8-.12,7.19,0,3.46.16,6.08,3.05,6.03,6.47-.06,3.34-2.66,6.06-6.05,6.26-1.19.07-2.4.01-3.59,0Z"/>
    </g>
  </g>
</svg>