<?xml version="1.0" encoding="UTF-8"?>
<svg id="Layer_2" data-name="Layer 2" xmlns="http://www.w3.org/2000/svg" viewBox="0 0 127.56 146.65">
  <defs>
    <style>
      .cls-1 {
        fill: #fff;
      }
    </style>
  </defs>
  <g id="Options">
    <path class="cls-1" d="m108.73,106.32c3.91,1.82,7.41,3.42,10.89,5.06,7.34,3.45,9.85,10.37,6.44,17.78-1.55,3.38-3.09,6.77-4.72,10.11-3.24,6.64-10.29,9.18-17,6.08-12.67-5.85-25.32-11.75-37.95-17.69-1.54-.73-2.82-.93-4.38-.05-1.81,1.02-3.77,1.79-5.69,2.61-.82.35-1.13.86-1.25,1.75-.91,7.23-7.73,10.69-14.05,7.05-1.4-.81-2.39-.75-3.74-.11-4.47,2.14-8.99,4.17-13.51,6.22-7.51,3.42-14.39.89-17.9-6.56-1.56-3.3-3.12-6.61-4.61-9.94-3.07-6.84-.46-13.85,6.34-17.06,3.65-1.72,7.34-3.37,11.18-5.12-1.59-1.12-3.3-1.51-4.89-2.14-7.5-3-10.48-10.26-7.16-17.59,1.48-3.27,3-6.52,4.52-9.76,3.31-7.06,9.47-9.63,16.83-7.04.23.08.47.12.81.21-.43-2.75-1.05-5.36-1.23-7.99-1.74-26.19,10.31-44.45,32.76-56.66,4.31-2.35,8.87-4.12,13.66-5.25,3.8-.9,6.07,1.18,5.38,4.97-1.51,8.34.3,16.07,4.25,23.41,2.85,5.3,6.39,10.16,9.51,15.29,3.32,5.46,6.06,11.12,6.24,17.69.07,2.43-.11,4.83-.77,7.17-.27.98-.13,1.2.96,1.1,7.34-.64,11.38,1.74,14.46,8.39,1.4,3.02,2.82,6.03,4.2,9.05,3.26,7.13.7,14.12-6.39,17.51-.93.44-1.86.88-3.21,1.52ZM35.13,57.48c.08,4.53.86,9.52,2.69,14.34.73,1.93,1.74,3.36,3.85,4.02,1.85.58,3.59,1.53,5.38,2.31,2.92,1.27,2.85,1.26,3.31-1.83,1.01-6.89,3.93-12.68,9.97-16.52,3.86-2.46,6.49-1.22,7.19,3.27.96,6.14,3.85,11.28,8.12,15.72.8.83,1.44,1.03,2.53.5,2.63-1.3,5.33-2.45,7.99-3.67.59-.27,1.19-.53,1.57-1.12,2.66-4.23,4.46-8.69,3.93-13.83-.48-4.68-2.58-8.72-4.97-12.62-2.32-3.78-4.79-7.46-7.15-11.22-5.04-8.03-8.5-16.59-8.34-26.27.02-1.5-.66-1.19-1.55-.83-5.24,2.1-10.1,4.86-14.6,8.25-12.93,9.74-19.67,22.67-19.93,39.49Zm76.85,35.31c.07-.64-.32-1.47-.71-2.3-1.49-3.19-2.96-6.39-4.46-9.58-1.65-3.5-3.98-4.38-7.47-2.79-29.41,13.44-58.81,26.9-88.22,40.35-3.25,1.49-4.15,3.94-2.66,7.21,1.49,3.26,3.02,6.51,4.55,9.75,1.58,3.35,3.97,4.23,7.35,2.69,5.22-2.37,10.5-4.65,15.63-7.2,3-1.49,5.59-2,8.07.84.62.71,1.64,1.28,2.65.7.95-.54.74-1.58.66-2.48-.3-3.49.15-4.28,3.34-5.74,8.3-3.8,16.6-7.59,24.9-11.38,10.91-4.99,21.81-9.98,32.73-14.94,2.12-.96,3.62-2.31,3.63-5.14Zm-38.54,29.62c11.77,5.47,23.11,10.77,34.48,16,2.61,1.2,5.1.2,6.38-2.42,1.66-3.4,3.23-6.84,4.8-10.28,1.49-3.26.62-5.72-2.61-7.24-5.25-2.47-10.53-4.87-15.77-7.36-1-.47-1.79-.4-2.75.06-2.88,1.38-5.8,2.67-8.71,4-5.15,2.35-10.3,4.71-15.82,7.24Zm-18.93-32.36c-.23-.19-.31-.29-.42-.33-9.72-4.25-19.43-8.52-29.18-12.71-2.54-1.09-5.02-.08-6.24,2.43-1.73,3.57-3.41,7.18-5.03,10.8-1.29,2.9-.2,5.47,2.77,6.66,3.62,1.45,7.3,2.79,10.9,4.29,1.21.5,2.2.37,3.33-.16,6.32-2.93,12.67-5.81,19-8.71,1.59-.73,3.16-1.48,4.86-2.28Zm14.74-6.71c-3.71-4.1-6.33-8.53-8.18-13.72-2.11,2.8-2.83,5.74-3.2,8.79-.5,4.16-.43,4.23,3.44,5.93.66.29,1.32.55,1.96.87.63.31,1.23.33,1.87.02,1.29-.62,2.59-1.2,4.1-1.9Z"/>
  </g>
</svg>