<?xml version="1.0" encoding="UTF-8"?>
<svg id="Layer_2" data-name="Layer 2" xmlns="http://www.w3.org/2000/svg" viewBox="0 0 149.07 157.26">
  <defs>
    <style>
      .cls-1 {
        fill: #fff;
      }
    </style>
  </defs>
  <g id="Options">
    <path class="cls-1" d="m124.04,111.11c-.48,2.95-.94,5.8-1.42,8.79,7.02,3.09,14.14,6.22,21.25,9.37,4,1.77,5.12,2.69,5.17,7.57.07,6.71.02,13.43.02,20.24h-10.96v-18.25c-6.52-2.9-12.96-5.77-19.03-8.47-2.95,3.92-5.56,7.87-8.67,11.37-3.33,3.75-7.43,6.69-11.83,9.15-5.37,3.01-11.11,5.1-17.2,5.9-11.5,1.51-22.32-.59-32.32-6.62-7.82-4.71-13.87-11.07-18.23-19.06-.42-.77-.75-.94-1.56-.57-5.55,2.5-11.12,4.97-16.69,7.41-1.11.49-1.53,1.14-1.51,2.42.09,5.56.04,11.12.04,16.74H.06c0-4.88,0-9.69,0-14.5,0-2.18.14-4.38-.03-6.55-.32-3.99,1.96-5.54,4.7-6.75,4.6-2.04,9.23-4.04,13.84-6.06,2.29-1,4.58-1.98,6.84-3.05.39-.19.88-.83.83-1.18-.37-2.36-.85-4.71-1.37-7.04-.09-.41-.5-.89-.89-1.07-6.77-3.1-13.56-6.16-20.35-9.23C1.26,100.6,0,98.87.04,96.14c.07-7.17.02-14.35.02-21.62h11.04v8.19c0,2.82.07,5.63-.03,8.45-.05,1.36.31,2.07,1.66,2.62,3.77,1.55,7.45,3.33,11.18,5,.24.11.54.1.91.16v-29.14c-5.95-2.65-11.91-5.25-17.83-7.96-1.85-.85-3.67-1.82-5.35-2.97-1.2-.82-1.59-2.2-1.58-3.73.05-7.29.02-14.59.02-21.99h11.03v5.04c0,4.02.03,8.05-.02,12.07-.01,1.05.29,1.52,1.34,1.95,4.23,1.76,8.38,3.7,12.57,5.56.2.09.44.09.71.14,3.83-9.78,11.8-11.73,21.14-11,.71-7.36-1.4-14.93,2.74-21.65-3.03-2.49-6.04-4.93-9.01-7.42-1.31-1.1-1.94-2.51-1.9-4.32.09-4.47.03-8.94.03-13.5h11.04c0,2.86.07,5.72-.03,8.57-.06,1.67.1,2.99,1.74,4,1.76,1.08,3.26,2.58,4.96,3.78.42.29,1.3.34,1.76.09,4.09-2.18,8.48-2.83,13.03-2.73,4.05.09,8.13-.02,12.15.43,2.35.27,4.63,1.37,6.87,2.28,1.14.46,1.97.41,2.9-.36,1.59-1.33,3.26-2.58,4.87-3.88.9-.73,1.52-1.51,1.46-2.86-.13-3.08-.04-6.17-.04-9.33h10.7c0,5.08.12,10.09-.1,15.09-.05,1.06-1.13,2.27-2.04,3.07-2.45,2.15-5.05,4.13-7.61,6.15-.84.66-.93,1.28-.4,2.28,1.22,2.29,1.9,4.75,1.87,7.4-.04,4.22-.01,8.43-.01,12.9,9.6-.55,17.64,1.3,21.43,11.11,3.98-1.75,7.76-3.42,11.55-5.08.66-.29,1.28-.71,1.97-.88,1.01-.24,1.3-.76,1.29-1.78-.05-5.68-.02-11.36-.02-17.14h10.96c.02.48.07.97.07,1.47,0,5.86-.03,11.72.01,17.58.05,7.03-1.43,6.96-6.4,9.37-4.57,2.22-9.2,4.43-14.01,6.02-3.94,1.3-4.67,3.56-4.52,7.33.31,7.4.09,14.82.09,22.24v1.85c3.89-1.74,7.54-3.63,11.37-5,2.19-.78,2.51-1.95,2.46-3.94-.12-5.16-.04-10.32-.04-15.56h11.04c0,3.52,0,7,0,10.49,0,2.87,0,5.75,0,8.62.01,7.19-1.3,6.82-6.43,9.35-4.62,2.27-9.42,4.18-14.14,6.24-1.47.64-2.95,1.27-4.45,1.92Zm-88.1-31.14c0,9.68-.04,19.21.03,28.74.02,2.07.34,4.14.67,6.19,1.14,6.92,4.26,12.95,8.84,18.14,5.79,6.57,13.05,10.73,21.71,12.47,1.77.35,1.85-.28,1.85-1.62-.02-20.86-.01-41.71-.02-62.57,0-.44-.05-.88-.08-1.35h-33.01Zm44.17,65.89c.47-.18.77-.35,1.09-.4,6.85-1.04,12.87-4.02,18.07-8.43,9.29-7.87,13.72-18.15,13.89-30.25.12-8.39.02-16.78.02-25.17,0-.55,0-1.09,0-1.57h-33.07v65.82Zm33.07-77.04c0-1.48,0-2.9,0-4.32.02-4.34-2.34-6.64-6.59-6.64-12.42,0-24.83,0-37.25,0-9.31,0-18.62,0-27.94,0-2.55,0-5.3,2.15-5.44,4.38-.14,2.16-.03,4.34-.03,6.57h77.25Zm-22.07-22.05c0-3.56.09-6.95-.04-10.33-.06-1.6-.27-3.31-.89-4.77-2.04-4.76-5.95-6.81-10.98-6.91-3.45-.06-6.9-.1-10.34.01-3.86.13-7.06,1.63-9.17,5.03-1.08,1.74-1.74,3.58-1.7,5.68.07,3.76.02,7.53.02,11.28h33.11Z"/>
  </g>
</svg>