<?xml version="1.0" encoding="UTF-8"?>
<svg id="Layer_2" data-name="Layer 2" xmlns="http://www.w3.org/2000/svg" viewBox="0 0 102.19 227">
  <defs>
    <style>
      .cls-1 {
        fill: #fff;
      }
    </style>
  </defs>
  <g id="Options">
    <path class="cls-1" d="m54.13,0c1.57.38,3.16.7,4.71,1.14,18.23,5.26,26.21,26.11,16.18,42.25-.34.55-.9,1-.91,1.89,1.79.26,3.61.43,5.39.79,12.83,2.6,22.37,13.75,22.54,26.85.2,15.52.19,31.04.01,46.56-.15,12.96-8.29,23.39-20.74,26.93-1.74.5-1.91,1.34-1.91,2.8.03,19.81.02,39.61.02,59.42,0,11.37-7.01,18.35-18.4,18.36-6.8,0-13.6.02-20.4,0-10.57-.03-17.85-7.26-17.86-17.83-.04-19.95-.04-39.91.03-59.86,0-1.79-.47-2.49-2.25-2.99C8.66,142.94.25,132.12.12,119.76c-.16-15.59-.17-31.19,0-46.78.15-14.19,11.63-26.17,25.83-27.37.72-.06,1.44-.17,2.46-.3-2.32-3.58-4.12-7.15-4.99-11.15C20.06,18.74,30.63,3.09,46.25.47c.57-.1,1.19-.03,1.67-.47,2.07,0,4.14,0,6.21,0Zm14.1,147.43c0-20.1,0-40.19,0-60.29,0-.89-.02-1.78.07-2.66.36-3.48,3.72-5.7,7.08-4.71,2.66.78,4.02,2.81,4.03,6.12.01,15.74.03,31.48-.03,47.21,0,1.93.48,2.15,2.08,1.3,6.25-3.35,9.41-8.6,9.44-15.63.07-14.41.02-28.82.02-43.22,0-11.53-6.27-18.19-17.73-18.85-6.49-.38-11.17-5.74-10.73-12.22.18-2.71,1.59-4.83,2.96-7.04,3.84-6.19,3.82-12.52-.17-18.55-4.08-6.17-10.17-8.53-17.32-7.23-7,1.27-11.57,5.66-13.35,12.63-1.35,5.26-.11,10.03,3.03,14.45,2.66,3.73,3.07,7.82.89,11.92-2.07,3.91-5.47,5.89-9.88,6.06-10.39.41-17.17,7.31-17.26,17.71-.07,7.24-.01,14.48-.01,21.72,0,7.54,0,15.07,0,22.61,0,6.88,3.01,12.05,9,15.44,2.22,1.26,2.38,1.14,2.38-1.36,0-15.37,0-30.74,0-46.1,0-1.11,0-2.21.34-3.29.76-2.32,2.94-3.94,5.34-3.93,2.41,0,4.57,1.63,5.32,3.97.37,1.15.34,2.33.34,3.51,0,31.48,0,62.95,0,94.43,0,9.31-.02,18.62.01,27.93.01,4.12,2.14,6.24,6.27,6.36.81.02,1.64-.09,2.44.03,2.11.31,2.74-.45,2.73-2.63-.09-19.21-.05-38.42-.04-57.63,0-1.1.01-2.23.2-3.31.46-2.62,2.64-4.42,5.28-4.48,3.54-.08,5.79,2.45,5.79,6.58,0,19.43,0,38.86,0,58.3q0,3.16,3.19,3.16c.15,0,.3,0,.44,0,5.99,0,7.84-1.83,7.84-7.76,0-20.17,0-40.34,0-60.51Z"/>
  </g>
</svg>