<?xml version="1.0" encoding="UTF-8"?>
<svg id="Layer_2" data-name="Layer 2" xmlns="http://www.w3.org/2000/svg" viewBox="0 0 176.9 176.98">
  <defs>
    <style>
      .cls-1 {
        fill: #fff;
      }
    </style>
  </defs>
  <g id="Options">
    <g>
      <path class="cls-1" d="m88.43,176.98c-26.45,0-52.9,0-79.35,0-4.81,0-8.1-2.4-8.92-6.45-.98-4.9,2.54-9.45,7.53-9.63,2.32-.09,4.65-.07,6.97,0,1.03.03,1.54-.22,1.4-1.34-.06-.49-.01-1-.01-1.51,0-49.51,0-99.01,0-148.52C16.05,3.03,19.1,0,25.66,0c41.84,0,83.68,0,125.52,0,6.63,0,9.62,3.02,9.62,9.7,0,49.63.01,99.26-.05,148.89,0,1.95.51,2.47,2.37,2.31,1.93-.17,3.89-.08,5.84-.02,4.29.11,7.59,3.3,7.92,7.58.3,4.02-2.68,7.69-6.85,8.35-.92.15-1.88.16-2.81.16-26.26,0-52.52,0-78.78,0Zm-56.26-88.48c0,23.5.01,46.99-.03,70.49,0,1.39.24,1.95,1.82,1.92,6.85-.09,13.7-.1,20.54,0,1.59.02,1.83-.54,1.82-1.94-.06-7.1-.04-14.2-.02-21.3.01-5.83,3.12-8.94,8.96-8.94,15.45,0,30.91-.01,46.36,0,5.82,0,8.92,3.12,8.94,8.97.01,7.1.04,14.2-.03,21.3-.01,1.45.33,1.92,1.86,1.9,6.66-.09,13.32-.11,19.98.01,1.88.03,2.37-.41,2.37-2.34-.06-46.74-.06-93.48,0-140.22,0-1.77-.36-2.29-2.23-2.29-36,.06-71.99.06-107.99,0-1.83,0-2.4.34-2.4,2.31.08,23.37.05,46.74.05,70.11Zm56.25,72.37c4.83,0,9.66-.05,14.49.03,1.35.02,1.69-.41,1.66-1.7-.07-4.26-.08-8.53,0-12.8.02-1.36-.46-1.68-1.74-1.67-9.6.04-19.2.05-28.79,0-1.47,0-1.78.49-1.76,1.85.08,4.2.1,8.41,0,12.61-.04,1.5.51,1.74,1.84,1.72,4.77-.07,9.53-.03,14.3-.03Z"/>
      <path class="cls-1" d="m88.54,64.38c1.44,0,2.89-.06,4.33.01,4.06.2,7.34,3.45,7.6,7.47.26,4.07-2.49,7.78-6.54,8.37-3.66.53-7.4.54-11.06,0-4.03-.6-6.77-4.33-6.49-8.4.27-3.94,3.49-7.18,7.46-7.42,1.56-.09,3.13-.02,4.7-.02Z"/>
      <path class="cls-1" d="m88.42,112.6c-1.44,0-2.89.05-4.33,0-4.09-.17-7.4-3.36-7.7-7.37-.32-4.14,2.47-7.91,6.61-8.49,3.6-.5,7.27-.51,10.87,0,4.14.59,6.93,4.37,6.59,8.5-.32,4.02-3.63,7.19-7.72,7.36-1.44.06-2.88,0-4.33,0Z"/>
      <path class="cls-1" d="m56.39,64.37c1.38,0,2.76-.04,4.14,0,4.24.15,7.55,3.43,7.8,7.68.23,3.96-2.68,7.67-6.75,8.2-3.54.47-7.15.48-10.68-.01-4.18-.58-6.86-4.17-6.62-8.45.22-3.99,3.53-7.24,7.61-7.42,1.5-.07,3.01-.01,4.51-.01Z"/>
      <path class="cls-1" d="m56.08,112.6c-1.44,0-2.89.07-4.32-.01-4-.22-7.25-3.44-7.49-7.35-.27-4.28,2.39-7.91,6.55-8.5,3.6-.51,7.27-.5,10.87,0,4.05.56,6.94,4.36,6.63,8.3-.33,4.2-3.56,7.39-7.72,7.56-1.5.06-3.01.01-4.51,0Z"/>
      <path class="cls-1" d="m120.58,112.6c-1.44,0-2.89.05-4.33,0-4.15-.18-7.39-3.37-7.72-7.56-.31-3.94,2.58-7.74,6.63-8.3,3.6-.5,7.27-.51,10.87,0,4.17.6,6.82,4.21,6.55,8.5-.25,3.99-3.57,7.19-7.68,7.36-1.44.06-2.88,0-4.33,0Z"/>
      <path class="cls-1" d="m120.73,64.37c1.32,0,2.63-.03,3.95,0,4.23.11,7.63,3.27,7.9,7.33.29,4.37-2.41,7.99-6.7,8.56-3.54.47-7.15.48-10.68-.01-4.05-.56-6.95-4.33-6.67-8.28.3-4.19,3.54-7.41,7.69-7.59,1.5-.06,3.01-.01,4.51-.01h0Z"/>
      <path class="cls-1" d="m56.35,32.25c1.44,0,2.89-.05,4.32.01,4.31.2,7.66,3.69,7.66,7.96,0,4.27-3.33,7.82-7.64,7.98-2.94.11-5.89.11-8.83,0-4.35-.15-7.61-3.62-7.61-7.96,0-4.34,3.25-7.79,7.59-7.98,1.5-.07,3.01-.01,4.51,0Z"/>
      <path class="cls-1" d="m120.75,32.25c1.44,0,2.89-.06,4.32.01,4.33.21,7.56,3.69,7.53,8.04-.03,4.25-3.24,7.72-7.48,7.89-3,.12-6.02.12-9.02,0-4.29-.16-7.63-3.77-7.58-8.03.05-4.21,3.33-7.68,7.53-7.9,1.56-.08,3.13-.01,4.7-.01,0,0,0,0,0,0Z"/>
      <path class="cls-1" d="m88.31,48.22c-1.44,0-2.89.06-4.32-.01-4.31-.21-7.62-3.72-7.61-8,.01-4.28,3.34-7.8,7.66-7.94,2.94-.1,5.89-.1,8.84,0,4.31.15,7.62,3.7,7.61,7.99-.01,4.28-3.34,7.76-7.66,7.95-1.5.07-3.01.01-4.51,0Z"/>
    </g>
  </g>
</svg>