<?xml version="1.0" encoding="UTF-8"?>
<svg id="Layer_2" data-name="Layer 2" xmlns="http://www.w3.org/2000/svg" viewBox="0 0 189.57 156.39">
  <defs>
    <style>
      .cls-1 {
        fill: #fff;
      }
    </style>
  </defs>
  <g id="Options">
    <path class="cls-1" d="m189.57,85.27c0,11.56,0,23.12,0,34.68,0,11.73-9.66,20.87-21.38,20.27-9.21-.47-17.34-7.76-18.69-16.76-1.46-9.72,3.79-18.9,12.7-22.21,4.72-1.75,9.45-1.81,14.17-.07.88.33,1.13.23,1.12-.76-.04-5.97-.04-11.94,0-17.91,0-1.03-.31-1.02-1.14-.81-13.96,3.51-27.92,6.99-41.88,10.47-2.77.69-5.52,1.45-8.31,2.05-1.03.22-1.18.7-1.18,1.63.03,13.41.02,26.82.02,40.23,0,11.74-9.63,20.88-21.36,20.29-9.21-.46-17.33-7.73-18.71-16.74-1.48-9.7,3.77-18.91,12.68-22.23,4.72-1.76,9.45-1.83,14.16-.08,1.06.39,1.14.07,1.14-.87-.02-16.65-.02-33.29-.02-49.94,0-4.09,1.55-6.02,5.57-7.03,20.93-5.23,41.85-10.47,62.77-15.71,4.93-1.23,8.34,1.38,8.35,6.44,0,11.69,0,23.37,0,35.06Zm-12.11-22.18c0-1.56-.07-3.11.02-4.67.06-1.1-.27-1.18-1.26-.93-16.76,4.23-33.53,8.42-50.3,12.59-.71.18-.96.42-.95,1.16.04,3.28.04,6.56,0,9.84-.01.84.18.96.99.75,5.81-1.49,11.64-2.92,17.46-4.38,10.99-2.75,21.98-5.52,32.98-8.24.81-.2,1.11-.49,1.07-1.32-.07-1.59-.02-3.19-.02-4.79Zm-8.01,48.92c-4.47-.03-8.12,3.58-8.13,8.04-.01,4.42,3.55,8.05,7.94,8.1,4.47.05,8.16-3.53,8.19-7.98.04-4.48-3.55-8.14-8.01-8.16Zm-64.58,16.15c-4.47-.03-8.12,3.58-8.13,8.04-.01,4.42,3.55,8.05,7.94,8.1,4.47.05,8.16-3.53,8.19-7.98.04-4.48-3.55-8.14-8.01-8.16Z"/>
    <path class="cls-1" d="m38.32,53.57c0-.67,0-1.15,0-1.62,0-15.2,0-30.39,0-45.59,0-4.83,3.41-7.37,8.06-5.98,12.32,3.68,24.64,7.37,36.96,11.06,3.33,1,4.76,2.93,4.77,6.4,0,7.26,0,14.52,0,21.78,0,4.59-3.48,7.18-7.88,5.86-9.73-2.91-19.45-5.82-29.18-8.74-.37-.11-.75-.2-1.24-.33,0,.55,0,.99,0,1.42,0,12.25,0,24.49,0,36.74,0,13.11-10.03,23.87-23.18,24.88-12.72.98-24.28-8.24-26.32-20.99-2.58-16.16,11.23-30.54,27.42-28.57,1.87.23,3.68.63,5.46,1.24,1.74.59,3.35,1.44,5.13,2.45Zm-13.41,7.62c-7.39,0-13.39,6-13.39,13.38,0,7.39,5.97,13.41,13.35,13.43,7.44.02,13.47-6,13.46-13.44-.01-7.38-6.02-13.37-13.41-13.36ZM49.81,13.4c0,3.57,0,6.99,0,10.42,0,.62.42.66.84.79,8.34,2.5,16.69,5,25.02,7.54.87.26.98-.01.97-.79-.04-2.83-.07-5.66.01-8.49.03-1.09-.26-1.58-1.36-1.9-6.34-1.84-12.65-3.77-18.98-5.66-2.12-.64-4.25-1.25-6.49-1.91Z"/>
  </g>
</svg>