<?xml version="1.0" encoding="UTF-8"?>
<svg id="Layer_2" data-name="Layer 2" xmlns="http://www.w3.org/2000/svg" viewBox="0 0 1924 924">
  <defs>
    <style>
      .cls-1 {
        fill: #fff;
      }
    </style>
  </defs>
  <g id="Export_Q" data-name="Export Q">
    <rect width="1924" height="924"/>
    <g>
      <path class="cls-1" d="m174.38,124.49l-14.54,50.18h-7.34l-11.66-40.39-12.1,40.39-7.27.07-14.04-50.26h6.98l10.94,42.55,12.1-42.55h7.34l11.52,42.41,11.02-42.41h7.06Z"/>
      <path class="cls-1" d="m209.23,136.41c2.4,1.27,4.28,3.18,5.65,5.72,1.37,2.54,2.05,5.64,2.05,9.29v23.26h-6.48v-22.32c0-3.94-.98-6.95-2.95-9.04-1.97-2.09-4.66-3.13-8.06-3.13s-6.2,1.08-8.24,3.24c-2.04,2.16-3.06,5.3-3.06,9.43v21.82h-6.55v-53.28h6.55v19.44c1.3-2.02,3.08-3.58,5.36-4.68,2.28-1.1,4.83-1.66,7.67-1.66,2.98,0,5.66.64,8.06,1.91Z"/>
      <path class="cls-1" d="m227.66,144.18c1.63-3.05,3.88-5.41,6.73-7.09,2.86-1.68,6.04-2.52,9.54-2.52s6.46.74,9,2.23c2.54,1.49,4.44,3.36,5.69,5.62v-7.2h6.62v39.46h-6.62v-7.34c-1.3,2.3-3.23,4.21-5.8,5.72-2.57,1.51-5.56,2.27-8.96,2.27s-6.67-.86-9.5-2.59c-2.83-1.73-5.06-4.15-6.7-7.27-1.63-3.12-2.45-6.67-2.45-10.66s.82-7.57,2.45-10.62Zm29.16,2.92c-1.2-2.21-2.82-3.9-4.86-5.08-2.04-1.18-4.28-1.76-6.73-1.76s-4.68.58-6.7,1.73c-2.02,1.15-3.62,2.83-4.82,5.04-1.2,2.21-1.8,4.8-1.8,7.78s.6,5.65,1.8,7.88c1.2,2.23,2.81,3.94,4.82,5.11,2.02,1.18,4.25,1.76,6.7,1.76s4.69-.59,6.73-1.76c2.04-1.18,3.66-2.88,4.86-5.11,1.2-2.23,1.8-4.84,1.8-7.81s-.6-5.57-1.8-7.78Z"/>
      <path class="cls-1" d="m284.32,140.62v23.26c0,1.92.41,3.28,1.22,4.07.82.79,2.23,1.19,4.25,1.19h4.82v5.54h-5.9c-3.65,0-6.38-.84-8.21-2.52-1.83-1.68-2.74-4.44-2.74-8.28v-23.26h-5.11v-5.4h5.11v-9.94h6.55v9.94h10.3v5.4h-10.3Z"/>
      <path class="cls-1" d="m321.98,127.52c-.86-.86-1.3-1.92-1.3-3.17s.43-2.3,1.3-3.17,1.92-1.3,3.17-1.3,2.22.43,3.06,1.3c.84.86,1.26,1.92,1.26,3.17s-.42,2.3-1.26,3.17c-.84.86-1.86,1.3-3.06,1.3s-2.3-.43-3.17-1.3Zm6.34,7.7v39.46h-6.55v-39.46h6.55Z"/>
      <path class="cls-1" d="m345.31,173.78c-2.4-1.03-4.3-2.47-5.69-4.32-1.39-1.85-2.16-3.97-2.3-6.37h6.77c.19,1.97,1.12,3.58,2.77,4.82,1.66,1.25,3.83,1.87,6.52,1.87,2.5,0,4.46-.55,5.9-1.66,1.44-1.1,2.16-2.5,2.16-4.18s-.77-3.01-2.3-3.85c-1.54-.84-3.91-1.67-7.13-2.48-2.93-.77-5.32-1.55-7.16-2.34-1.85-.79-3.43-1.97-4.75-3.53-1.32-1.56-1.98-3.61-1.98-6.16,0-2.02.6-3.86,1.8-5.54,1.2-1.68,2.9-3.01,5.11-4,2.21-.98,4.73-1.48,7.56-1.48,4.37,0,7.9,1.1,10.58,3.31,2.69,2.21,4.13,5.23,4.32,9.07h-6.55c-.14-2.06-.97-3.72-2.48-4.97-1.51-1.25-3.54-1.87-6.08-1.87-2.35,0-4.22.5-5.62,1.51-1.39,1.01-2.09,2.33-2.09,3.96,0,1.3.42,2.36,1.26,3.2.84.84,1.9,1.51,3.17,2.02,1.27.5,3.04,1.07,5.29,1.69,2.83.77,5.14,1.52,6.91,2.27,1.77.75,3.3,1.86,4.57,3.35,1.27,1.49,1.93,3.43,1.98,5.83,0,2.16-.6,4.1-1.8,5.83-1.2,1.73-2.89,3.08-5.08,4.07-2.18.98-4.69,1.48-7.52,1.48-3.02,0-5.74-.52-8.14-1.55Z"/>
      <path class="cls-1" d="m404.27,140.62v23.26c0,1.92.41,3.28,1.22,4.07.82.79,2.23,1.19,4.25,1.19h4.82v5.54h-5.9c-3.65,0-6.38-.84-8.21-2.52-1.82-1.68-2.74-4.44-2.74-8.28v-23.26h-5.11v-5.4h5.11v-9.94h6.55v9.94h10.3v5.4h-10.3Z"/>
      <path class="cls-1" d="m450.14,136.41c2.4,1.27,4.28,3.18,5.65,5.72,1.37,2.54,2.05,5.64,2.05,9.29v23.26h-6.48v-22.32c0-3.94-.98-6.95-2.95-9.04-1.97-2.09-4.66-3.13-8.06-3.13s-6.2,1.08-8.24,3.24c-2.04,2.16-3.06,5.3-3.06,9.43v21.82h-6.55v-53.28h6.55v19.44c1.3-2.02,3.08-3.58,5.36-4.68,2.28-1.1,4.83-1.66,7.67-1.66,2.98,0,5.66.64,8.06,1.91Z"/>
      <path class="cls-1" d="m504.35,157.4h-31.54c.24,3.89,1.57,6.92,4,9.11,2.42,2.18,5.36,3.28,8.82,3.28,2.83,0,5.2-.66,7.09-1.98,1.9-1.32,3.23-3.08,4-5.29h7.06c-1.06,3.79-3.17,6.88-6.34,9.25s-7.1,3.56-11.81,3.56c-3.74,0-7.09-.84-10.04-2.52-2.95-1.68-5.27-4.07-6.95-7.16-1.68-3.1-2.52-6.68-2.52-10.76s.82-7.66,2.45-10.73c1.63-3.07,3.92-5.44,6.88-7.09,2.95-1.66,6.35-2.48,10.19-2.48s7.06.82,9.94,2.45c2.88,1.63,5.1,3.88,6.66,6.73,1.56,2.86,2.34,6.08,2.34,9.68,0,1.25-.07,2.57-.22,3.96Zm-8.21-11.77c-1.1-1.8-2.6-3.17-4.5-4.1-1.9-.94-4-1.4-6.3-1.4-3.31,0-6.13,1.06-8.46,3.17-2.33,2.11-3.66,5.04-4,8.78h24.91c0-2.5-.55-4.64-1.66-6.44Z"/>
      <path class="cls-1" d="m539.6,172.8c-3-1.68-5.35-4.07-7.06-7.16-1.71-3.1-2.56-6.68-2.56-10.76s.88-7.6,2.63-10.69c1.75-3.1,4.14-5.47,7.16-7.13,3.02-1.66,6.41-2.48,10.15-2.48s7.13.83,10.15,2.48c3.02,1.66,5.41,4.02,7.16,7.09,1.75,3.07,2.63,6.65,2.63,10.73s-.9,7.67-2.7,10.76c-1.8,3.1-4.24,5.48-7.31,7.16-3.07,1.68-6.48,2.52-10.22,2.52s-7.04-.84-10.04-2.52Zm16.67-4.9c2.06-1.1,3.73-2.76,5-4.97,1.27-2.21,1.91-4.9,1.91-8.06s-.62-5.86-1.87-8.06c-1.25-2.21-2.88-3.85-4.9-4.93s-4.2-1.62-6.55-1.62-4.6.54-6.59,1.62c-1.99,1.08-3.59,2.72-4.79,4.93-1.2,2.21-1.8,4.9-1.8,8.06s.59,5.93,1.76,8.14c1.18,2.21,2.75,3.85,4.72,4.93,1.97,1.08,4.13,1.62,6.48,1.62s4.56-.55,6.62-1.66Z"/>
      <path class="cls-1" d="m613.5,135.22v39.46h-6.55v-5.83c-1.25,2.02-2.99,3.59-5.22,4.72-2.23,1.13-4.69,1.69-7.38,1.69-3.07,0-5.83-.64-8.28-1.91-2.45-1.27-4.38-3.18-5.8-5.72-1.42-2.54-2.12-5.64-2.12-9.29v-23.11h6.48v22.25c0,3.89.98,6.88,2.95,8.96,1.97,2.09,4.66,3.13,8.06,3.13s6.26-1.08,8.28-3.24c2.02-2.16,3.02-5.3,3.02-9.43v-21.67h6.55Z"/>
      <path class="cls-1" d="m632.58,140.62v23.26c0,1.92.41,3.28,1.22,4.07.82.79,2.23,1.19,4.25,1.19h4.82v5.54h-5.9c-3.65,0-6.38-.84-8.21-2.52-1.82-1.68-2.74-4.44-2.74-8.28v-23.26h-5.11v-5.4h5.11v-9.94h6.55v9.94h10.3v5.4h-10.3Z"/>
      <path class="cls-1" d="m663.15,136.84c2.57-1.51,5.56-2.27,8.96-2.27s6.68.84,9.54,2.52c2.86,1.68,5.1,4.04,6.73,7.09,1.63,3.05,2.45,6.59,2.45,10.62s-.82,7.54-2.45,10.66c-1.63,3.12-3.88,5.54-6.73,7.27-2.86,1.73-6.04,2.59-9.54,2.59s-6.32-.76-8.89-2.27c-2.57-1.51-4.52-3.4-5.87-5.65v25.99h-6.55v-58.18h6.55v7.27c1.3-2.26,3.23-4.14,5.8-5.65Zm19.19,10.19c-1.2-2.21-2.82-3.89-4.86-5.04-2.04-1.15-4.28-1.73-6.73-1.73s-4.62.59-6.66,1.76c-2.04,1.18-3.67,2.88-4.9,5.11-1.22,2.23-1.84,4.81-1.84,7.74s.61,5.58,1.84,7.81c1.22,2.23,2.86,3.94,4.9,5.11,2.04,1.18,4.26,1.76,6.66,1.76s4.69-.59,6.73-1.76c2.04-1.18,3.66-2.88,4.86-5.11,1.2-2.23,1.8-4.86,1.8-7.88s-.6-5.57-1.8-7.78Z"/>
      <path class="cls-1" d="m734.46,135.22v39.46h-6.55v-5.83c-1.25,2.02-2.99,3.59-5.22,4.72-2.23,1.13-4.69,1.69-7.38,1.69-3.07,0-5.83-.64-8.28-1.91-2.45-1.27-4.38-3.18-5.8-5.72-1.42-2.54-2.12-5.64-2.12-9.29v-23.11h6.48v22.25c0,3.89.98,6.88,2.95,8.96,1.97,2.09,4.66,3.13,8.06,3.13s6.26-1.08,8.28-3.24,3.02-5.3,3.02-9.43v-21.67h6.55Z"/>
      <path class="cls-1" d="m753.54,140.62v23.26c0,1.92.41,3.28,1.22,4.07.82.79,2.23,1.19,4.25,1.19h4.82v5.54h-5.9c-3.65,0-6.38-.84-8.21-2.52-1.83-1.68-2.74-4.44-2.74-8.28v-23.26h-5.11v-5.4h5.11v-9.94h6.55v9.94h10.3v5.4h-10.3Z"/>
      <path class="cls-1" d="m798.15,172.8c-3-1.68-5.35-4.07-7.06-7.16-1.7-3.1-2.56-6.68-2.56-10.76s.88-7.6,2.63-10.69c1.75-3.1,4.14-5.47,7.16-7.13,3.02-1.66,6.41-2.48,10.15-2.48s7.13.83,10.15,2.48c3.02,1.66,5.41,4.02,7.16,7.09,1.75,3.07,2.63,6.65,2.63,10.73s-.9,7.67-2.7,10.76c-1.8,3.1-4.24,5.48-7.31,7.16-3.07,1.68-6.48,2.52-10.22,2.52s-7.04-.84-10.04-2.52Zm16.67-4.9c2.06-1.1,3.73-2.76,5-4.97,1.27-2.21,1.91-4.9,1.91-8.06s-.62-5.86-1.87-8.06c-1.25-2.21-2.88-3.85-4.9-4.93-2.02-1.08-4.2-1.62-6.55-1.62s-4.6.54-6.59,1.62c-1.99,1.08-3.59,2.72-4.79,4.93-1.2,2.21-1.8,4.9-1.8,8.06s.59,5.93,1.76,8.14c1.18,2.21,2.75,3.85,4.72,4.93,1.97,1.08,4.13,1.62,6.48,1.62s4.56-.55,6.62-1.66Z"/>
      <path class="cls-1" d="m853.12,140.62h-8.28v34.06h-6.55v-34.06h-5.11v-5.4h5.11v-2.81c0-4.42,1.14-7.64,3.42-9.68,2.28-2.04,5.94-3.06,10.98-3.06v5.47c-2.88,0-4.91.56-6.08,1.69-1.18,1.13-1.76,2.99-1.76,5.58v2.81h8.28v5.4Z"/>
      <path class="cls-1" d="m887.97,140.62v23.26c0,1.92.41,3.28,1.22,4.07.82.79,2.23,1.19,4.25,1.19h4.82v5.54h-5.9c-3.65,0-6.38-.84-8.21-2.52-1.82-1.68-2.74-4.44-2.74-8.28v-23.26h-5.11v-5.4h5.11v-9.94h6.55v9.94h10.3v5.4h-10.3Z"/>
      <path class="cls-1" d="m933.83,136.41c2.4,1.27,4.28,3.18,5.65,5.72,1.37,2.54,2.05,5.64,2.05,9.29v23.26h-6.48v-22.32c0-3.94-.98-6.95-2.95-9.04-1.97-2.09-4.66-3.13-8.06-3.13s-6.2,1.08-8.24,3.24c-2.04,2.16-3.06,5.3-3.06,9.43v21.82h-6.55v-53.28h6.55v19.44c1.3-2.02,3.08-3.58,5.36-4.68,2.28-1.1,4.84-1.66,7.67-1.66,2.98,0,5.66.64,8.06,1.91Z"/>
      <path class="cls-1" d="m952.48,127.52c-.86-.86-1.3-1.92-1.3-3.17s.43-2.3,1.3-3.17,1.92-1.3,3.17-1.3,2.22.43,3.06,1.3c.84.86,1.26,1.92,1.26,3.17s-.42,2.3-1.26,3.17c-.84.86-1.86,1.3-3.06,1.3s-2.3-.43-3.17-1.3Zm6.34,7.7v39.46h-6.55v-39.46h6.55Z"/>
      <path class="cls-1" d="m975.81,173.78c-2.4-1.03-4.3-2.47-5.69-4.32-1.39-1.85-2.16-3.97-2.3-6.37h6.77c.19,1.97,1.12,3.58,2.77,4.82,1.66,1.25,3.83,1.87,6.52,1.87,2.5,0,4.46-.55,5.9-1.66,1.44-1.1,2.16-2.5,2.16-4.18s-.77-3.01-2.3-3.85c-1.54-.84-3.91-1.67-7.13-2.48-2.93-.77-5.32-1.55-7.16-2.34s-3.43-1.97-4.75-3.53c-1.32-1.56-1.98-3.61-1.98-6.16,0-2.02.6-3.86,1.8-5.54,1.2-1.68,2.9-3.01,5.11-4,2.21-.98,4.73-1.48,7.56-1.48,4.37,0,7.9,1.1,10.58,3.31,2.69,2.21,4.13,5.23,4.32,9.07h-6.55c-.14-2.06-.97-3.72-2.48-4.97-1.51-1.25-3.54-1.87-6.08-1.87-2.35,0-4.22.5-5.62,1.51-1.39,1.01-2.09,2.33-2.09,3.96,0,1.3.42,2.36,1.26,3.2.84.84,1.9,1.51,3.17,2.02,1.27.5,3.04,1.07,5.29,1.69,2.83.77,5.14,1.52,6.91,2.27,1.78.75,3.3,1.86,4.57,3.35,1.27,1.49,1.93,3.43,1.98,5.83,0,2.16-.6,4.1-1.8,5.83-1.2,1.73-2.89,3.08-5.08,4.07-2.18.98-4.69,1.48-7.52,1.48-3.02,0-5.74-.52-8.14-1.55Z"/>
      <path class="cls-1" d="m1033.95,172.8c-3-1.68-5.35-4.07-7.06-7.16-1.71-3.1-2.56-6.68-2.56-10.76s.88-7.6,2.63-10.69c1.75-3.1,4.14-5.47,7.16-7.13,3.02-1.66,6.41-2.48,10.15-2.48s7.13.83,10.15,2.48c3.02,1.66,5.41,4.02,7.16,7.09,1.75,3.07,2.63,6.65,2.63,10.73s-.9,7.67-2.7,10.76c-1.8,3.1-4.24,5.48-7.31,7.16-3.07,1.68-6.48,2.52-10.22,2.52s-7.04-.84-10.04-2.52Zm16.67-4.9c2.06-1.1,3.73-2.76,5-4.97,1.27-2.21,1.91-4.9,1.91-8.06s-.62-5.86-1.87-8.06c-1.25-2.21-2.88-3.85-4.9-4.93-2.02-1.08-4.2-1.62-6.55-1.62s-4.6.54-6.59,1.62c-1.99,1.08-3.59,2.72-4.79,4.93-1.2,2.21-1.8,4.9-1.8,8.06s.59,5.93,1.76,8.14c1.18,2.21,2.75,3.85,4.72,4.93,1.97,1.08,4.13,1.62,6.48,1.62s4.56-.55,6.62-1.66Z"/>
      <path class="cls-1" d="m1085.32,136.8c2.59-1.49,5.54-2.23,8.86-2.23,3.55,0,6.74.84,9.58,2.52,2.83,1.68,5.06,4.04,6.7,7.09,1.63,3.05,2.45,6.59,2.45,10.62s-.82,7.54-2.45,10.66c-1.63,3.12-3.88,5.54-6.73,7.27s-6.04,2.59-9.54,2.59-6.4-.74-8.96-2.23c-2.57-1.49-4.5-3.38-5.8-5.69v7.27h-6.55v-53.28h6.55v21.17c1.34-2.35,3.31-4.27,5.9-5.76Zm19.08,10.22c-1.2-2.21-2.82-3.89-4.86-5.04-2.04-1.15-4.28-1.73-6.73-1.73s-4.62.59-6.66,1.76c-2.04,1.18-3.67,2.88-4.9,5.11-1.22,2.23-1.84,4.81-1.84,7.74s.61,5.58,1.84,7.81c1.22,2.23,2.86,3.94,4.9,5.11,2.04,1.18,4.26,1.76,6.66,1.76s4.69-.59,6.73-1.76c2.04-1.18,3.66-2.88,4.86-5.11,1.2-2.23,1.8-4.86,1.8-7.88s-.6-5.57-1.8-7.78Z"/>
      <path class="cls-1" d="m1128.3,183.24c0,3.5-.89,6.07-2.66,7.7-1.78,1.63-4.37,2.45-7.78,2.45h-3.82v-5.54h2.74c1.82,0,3.11-.36,3.85-1.08.74-.72,1.12-1.94,1.12-3.67v-47.88h6.55v48.02Zm-6.37-55.73c-.84-.86-1.26-1.92-1.26-3.17s.42-2.3,1.26-3.17c.84-.86,1.88-1.3,3.13-1.3s2.29.43,3.13,1.3c.84.86,1.26,1.92,1.26,3.17s-.42,2.3-1.26,3.17c-.84.86-1.88,1.3-3.13,1.3s-2.29-.43-3.13-1.3Z"/>
      <path class="cls-1" d="m1175.17,157.4h-31.54c.24,3.89,1.57,6.92,4,9.11,2.42,2.18,5.36,3.28,8.82,3.28,2.83,0,5.2-.66,7.09-1.98,1.9-1.32,3.23-3.08,4-5.29h7.06c-1.06,3.79-3.17,6.88-6.34,9.25s-7.1,3.56-11.81,3.56c-3.74,0-7.09-.84-10.04-2.52-2.95-1.68-5.27-4.07-6.95-7.16-1.68-3.1-2.52-6.68-2.52-10.76s.82-7.66,2.45-10.73c1.63-3.07,3.92-5.44,6.88-7.09,2.95-1.66,6.35-2.48,10.19-2.48s7.06.82,9.94,2.45c2.88,1.63,5.1,3.88,6.66,6.73,1.56,2.86,2.34,6.08,2.34,9.68,0,1.25-.07,2.57-.22,3.96Zm-8.21-11.77c-1.1-1.8-2.6-3.17-4.5-4.1-1.9-.94-4-1.4-6.3-1.4-3.31,0-6.13,1.06-8.46,3.17-2.33,2.11-3.66,5.04-4,8.78h24.91c0-2.5-.55-4.64-1.66-6.44Z"/>
      <path class="cls-1" d="m1184.03,144.18c1.63-3.05,3.9-5.41,6.8-7.09,2.9-1.68,6.23-2.52,9.97-2.52,4.85,0,8.84,1.18,11.99,3.53,3.14,2.35,5.22,5.62,6.23,9.79h-7.06c-.67-2.4-1.98-4.29-3.92-5.69-1.94-1.39-4.36-2.09-7.24-2.09-3.74,0-6.77,1.28-9.07,3.85-2.3,2.57-3.46,6.2-3.46,10.91s1.15,8.42,3.46,11.02c2.3,2.59,5.33,3.89,9.07,3.89,2.88,0,5.28-.67,7.2-2.02,1.92-1.34,3.24-3.26,3.96-5.76h7.06c-1.06,4.03-3.17,7.26-6.34,9.68-3.17,2.42-7.13,3.64-11.88,3.64-3.74,0-7.07-.84-9.97-2.52-2.9-1.68-5.17-4.06-6.8-7.13-1.63-3.07-2.45-6.67-2.45-10.8s.82-7.64,2.45-10.69Z"/>
      <path class="cls-1" d="m1235.72,140.62v23.26c0,1.92.41,3.28,1.22,4.07.82.79,2.23,1.19,4.25,1.19h4.82v5.54h-5.9c-3.65,0-6.38-.84-8.21-2.52-1.83-1.68-2.74-4.44-2.74-8.28v-23.26h-5.11v-5.4h5.11v-9.94h6.55v9.94h10.3v5.4h-10.3Z"/>
      <path class="cls-1" d="m1278.28,127.88c2.93,2.69,4.39,6.29,4.39,10.8,0,5.04-1.56,8.77-4.68,11.2-3.12,2.42-7.34,3.64-12.67,3.64l-.21,6.84h-5.69l-.29-11.38h2.09c4.75,0,8.47-.72,11.16-2.16,2.69-1.44,4.03-4.15,4.03-8.14,0-2.88-.86-5.16-2.59-6.84-1.73-1.68-4.06-2.52-6.98-2.52s-5.32.8-7.02,2.41c-1.7,1.61-2.56,3.81-2.56,6.59h-6.19c0-2.88.65-5.41,1.94-7.6,1.3-2.18,3.13-3.88,5.51-5.08,2.38-1.2,5.12-1.8,8.24-1.8,4.75,0,8.59,1.34,11.52,4.03Zm-19.22,45.94c-.86-.86-1.3-1.92-1.3-3.17s.43-2.3,1.3-3.17c.86-.86,1.92-1.3,3.17-1.3s2.22.43,3.06,1.3c.84.86,1.26,1.92,1.26,3.17s-.42,2.3-1.26,3.17c-.84.86-1.86,1.3-3.06,1.3s-2.3-.43-3.17-1.3Z"/>
    </g>
    <g>
      <path class="cls-1" d="m1631.19,116.9c0,5.02,0,10.05,0,15.07,0,5.62-2.63,9.6-7.74,11.82-6.84,2.98-13.76,5.79-20.62,8.74-1.84.79-3.56.69-5.43.14-14.45-4.2-28.92-8.32-43.36-12.53-1.66-.48-3.11-.48-4.73.16-20.06,7.94-40.13,15.85-60.24,23.65-1.97.76-2.28,1.85-2.27,3.66.07,8.64-.05,17.29.06,25.94.06,4.4-1.79,7.26-5.84,8.97-9.45,3.99-18.87,8.08-28.27,12.18-4.1,1.78-8.03,1.68-12.18-.08-29.85-12.65-59.74-25.2-89.62-37.79-7.22-3.04-9.23-6.08-9.24-13.91,0-7.36,0-14.72,0-22.08,0-8.14,2.07-11.13,9.68-13.75,46.86-16.12,93.73-32.23,140.61-48.31,12.79-4.39,25.66-8.56,38.45-12.97,3.03-1.04,5.87-1.08,8.89-.2,27.19,7.97,54.4,15.88,81.59,23.86,7.63,2.24,10.26,5.88,10.27,13.75,0,4.56,0,9.11,0,13.67Zm-155.79,64.68h.21c0-3.15-.08-6.31.03-9.46.08-2.18-.53-2.64-2.61-1.78-6.46,2.67-13.04,5.06-19.47,7.81-4.27,1.83-8.38,1.64-12.55-.02-7.26-2.88-14.5-5.79-21.75-8.69-20.99-8.39-41.99-16.77-62.98-25.16q-3.81-1.52-3.82,2.74c0,5.37.08,10.74-.04,16.11-.05,2.12.47,3.28,2.64,4.17,29.87,12.25,59.69,24.61,89.49,37.01,1.79.75,3.28.67,4.99-.09,5.21-2.34,10.48-4.55,15.7-6.86,3.41-1.5,8.1-2.23,9.79-4.86,1.69-2.64.37-7.21.37-10.93Zm-5.65-22.26c-1.91-.82-3.04-1.35-4.2-1.8-21.06-8.26-42.12-16.51-63.18-24.74-5.1-1.99-10.23-5.4-15.36-5.43-5.4-.03-10.85,3.14-16.23,5.04-2.17.77-4.58,1.11-6.66,2.87,24.74,9.98,49.28,19.59,73.55,29.84,6.64,2.8,12.34,3.36,18.69-.16,4-2.21,8.47-3.59,13.38-5.61Zm-66.65-38.2c7.09,2.8,13.39,5.21,19.64,7.76,20.16,8.23,40.8,15.25,60.61,24.33.62.29,1.11.15,1.65-.06,6.87-2.69,13.75-5.38,20.58-8.06-.37-1.3-1.22-1.21-1.82-1.43-26.12-9.65-52.25-19.27-78.38-28.9-1.1-.4-2.17-.76-3.39-.32-6.03,2.15-12.07,4.27-18.88,6.67Zm141.97,8.76c-.82-.43-1.07-.62-1.36-.71-27.22-8.97-54.44-17.93-81.66-26.9-.91-.3-1.79-.61-2.72-.29-6.04,2.06-12.08,4.15-18.35,6.3.52.36.68.53.88.6,26.34,9.73,52.68,19.44,79.02,29.17.89.33,1.79.63,2.72.27,7.02-2.74,14.02-5.51,21.47-8.43Zm37.2-14.3c-1.36-.5-2.11-.81-2.88-1.05-24.31-7.44-48.7-14.65-72.9-22.44-6.69-2.15-12.75-2.69-19.1.39-2.71,1.31-5.89,1.56-8.81,3.46,27.55,9.17,54.66,18.18,81.77,27.21.78.26,1.54.63,2.37.3,6.35-2.55,12.7-5.11,19.56-7.87Zm37.14-14.58c-1.47-.48-1.9-.63-2.35-.76-26.63-7.81-53.26-15.62-79.89-23.4-.77-.23-1.69-.54-2.39-.32-6.26,1.95-12.49,4.02-19.31,6.23.98.56,1.23.78,1.52.87,26.75,8.21,53.5,16.42,80.26,24.61.76.23,1.47.65,2.36.31,6.28-2.41,12.58-4.79,19.8-7.53Zm-49.93,31.29l.13.81c9.51,2.74,19.03,5.45,28.52,8.24,1.15.34,2.06.02,3.02-.37,5.4-2.2,10.76-4.51,16.21-6.58,1.79-.68,2.2-1.67,2.15-3.4-.15-4.91-.26-9.82-.17-14.72.05-2.83-.49-3.83-3.5-2.49-4.68,2.09-9.53,3.82-14.29,5.72-10.69,4.26-21.38,8.53-32.08,12.8Z"/>
      <path class="cls-1" d="m1483.39,274.41c-9.6,0-18.06-6.56-20.28-15.73-2.34-9.7,2.11-19.45,10.91-23.86,8.81-4.41,19.25-2.27,25.51,5.74,1.95,2.5,3.37,2.51,6,1.48,34.49-13.61,69.02-27.11,103.54-40.66,2.8-1.1,5.43-1.63,7.62,1.07,2.9,3.59,1.63,7.42-3.18,9.3-11.72,4.6-23.47,9.13-35.2,13.69-23.47,9.14-46.92,18.31-70.42,27.37-2.4.93-3.59,2.11-4.09,4.8-1.85,9.94-10.38,16.79-20.39,16.79Zm.11-11.23c5.23-.03,9.62-4.37,9.64-9.53.02-5.27-4.57-9.86-9.81-9.82-5.11.04-9.61,4.51-9.66,9.6-.05,5.22,4.54,9.77,9.83,9.75Z"/>
      <path class="cls-1" d="m1509.99,228.8c-9.33,0-17.61-6.18-20.15-15.03-2.62-9.15,1.09-18.74,9.18-23.7,8.08-4.95,18.51-4.12,25.14,2.75,2.67,2.76,4.57,2.59,7.7,1.36,34.62-13.61,69.31-27.07,103.96-40.61,2.54-.99,4.86-1.65,7.09.6,3.1,3.14,2.33,7.1-2.03,8.92-7.32,3.05-14.72,5.9-22.1,8.8-28.22,11.09-56.44,22.18-84.69,33.18-2.28.89-3.07,2.03-3.32,4.49-1.17,11.34-9.85,19.24-20.76,19.25Zm-9.28-20.4c.07,5.2,4.52,9.61,9.68,9.57,5.32-.04,9.71-4.64,9.56-10.03-.14-5.21-4.61-9.44-9.85-9.33-5.23.11-9.47,4.53-9.39,9.79Z"/>
    </g>
  </g>
</svg>