<?xml version="1.0" encoding="UTF-8"?>
<svg id="Layer_2" data-name="Layer 2" xmlns="http://www.w3.org/2000/svg" viewBox="0 0 1924 924">
  <defs>
    <style>
      .cls-1, .cls-2 {
        fill: #fff;
      }

      .cls-2 {
        font-family: Poppins-Regular, Poppins;
        font-size: 72px;
      }
    </style>
  </defs>
  <g id="Export_Q" data-name="Export Q">
    <rect width="1924" height="924"/>
    <text class="cls-2" transform="translate(105.76 174.68)"><tspan x="0" y="0">What is the output of this object?</tspan></text>
    <g>
      <path class="cls-1" d="m1631.19,116.9c0,5.02,0,10.05,0,15.07,0,5.62-2.63,9.6-7.74,11.82-6.84,2.98-13.76,5.79-20.62,8.74-1.84.79-3.56.69-5.43.14-14.45-4.2-28.92-8.32-43.36-12.53-1.66-.48-3.11-.48-4.73.16-20.06,7.94-40.13,15.85-60.24,23.65-1.97.76-2.28,1.85-2.27,3.66.07,8.64-.05,17.29.06,25.94.06,4.4-1.79,7.26-5.84,8.97-9.45,3.99-18.87,8.08-28.27,12.18-4.1,1.78-8.03,1.68-12.18-.08-29.85-12.65-59.74-25.2-89.62-37.79-7.22-3.04-9.23-6.08-9.24-13.91,0-7.36,0-14.72,0-22.08,0-8.14,2.07-11.13,9.68-13.75,46.86-16.12,93.73-32.23,140.61-48.31,12.79-4.39,25.66-8.56,38.45-12.97,3.03-1.04,5.87-1.08,8.89-.2,27.19,7.97,54.4,15.88,81.59,23.86,7.63,2.24,10.26,5.88,10.27,13.75,0,4.56,0,9.11,0,13.67Zm-155.79,64.68h.21c0-3.15-.08-6.31.03-9.46.08-2.18-.53-2.64-2.61-1.78-6.46,2.67-13.04,5.06-19.47,7.81-4.27,1.83-8.38,1.64-12.55-.02-7.26-2.88-14.5-5.79-21.75-8.69-20.99-8.39-41.99-16.77-62.98-25.16q-3.81-1.52-3.82,2.74c0,5.37.08,10.74-.04,16.11-.05,2.12.47,3.28,2.64,4.17,29.87,12.25,59.69,24.61,89.49,37.01,1.79.75,3.28.67,4.99-.09,5.21-2.34,10.48-4.55,15.7-6.86,3.41-1.5,8.1-2.23,9.79-4.86,1.69-2.64.37-7.21.37-10.93Zm-5.65-22.26c-1.91-.82-3.04-1.35-4.2-1.8-21.06-8.26-42.12-16.51-63.18-24.74-5.1-1.99-10.23-5.4-15.36-5.43-5.4-.03-10.85,3.14-16.23,5.04-2.17.77-4.58,1.11-6.66,2.87,24.74,9.98,49.28,19.59,73.55,29.84,6.64,2.8,12.34,3.36,18.69-.16,4-2.21,8.47-3.59,13.38-5.61Zm-66.65-38.2c7.09,2.8,13.39,5.21,19.64,7.76,20.16,8.23,40.8,15.25,60.61,24.33.62.29,1.11.15,1.65-.06,6.87-2.69,13.75-5.38,20.58-8.06-.37-1.3-1.22-1.21-1.82-1.43-26.12-9.65-52.25-19.27-78.38-28.9-1.1-.4-2.17-.76-3.39-.32-6.03,2.15-12.07,4.27-18.88,6.67Zm141.97,8.76c-.82-.43-1.07-.62-1.36-.71-27.22-8.97-54.44-17.93-81.66-26.9-.91-.3-1.79-.61-2.72-.29-6.04,2.06-12.08,4.15-18.35,6.3.52.36.68.53.88.6,26.34,9.73,52.68,19.44,79.02,29.17.89.33,1.79.63,2.72.27,7.02-2.74,14.02-5.51,21.47-8.43Zm37.2-14.3c-1.36-.5-2.11-.81-2.88-1.05-24.31-7.44-48.7-14.65-72.9-22.44-6.69-2.15-12.75-2.69-19.1.39-2.71,1.31-5.89,1.56-8.81,3.46,27.55,9.17,54.66,18.18,81.77,27.21.78.26,1.54.63,2.37.3,6.35-2.55,12.7-5.11,19.56-7.87Zm37.14-14.58c-1.47-.48-1.9-.63-2.35-.76-26.63-7.81-53.26-15.62-79.89-23.4-.77-.23-1.69-.54-2.39-.32-6.26,1.95-12.49,4.02-19.31,6.23.98.56,1.23.78,1.52.87,26.75,8.21,53.5,16.42,80.26,24.61.76.23,1.47.65,2.36.31,6.28-2.41,12.58-4.79,19.8-7.53Zm-49.93,31.29l.13.81c9.51,2.74,19.03,5.45,28.52,8.24,1.15.34,2.06.02,3.02-.37,5.4-2.2,10.76-4.51,16.21-6.58,1.79-.68,2.2-1.67,2.15-3.4-.15-4.91-.26-9.82-.17-14.72.05-2.83-.49-3.83-3.5-2.49-4.68,2.09-9.53,3.82-14.29,5.72-10.69,4.26-21.38,8.53-32.08,12.8Z"/>
      <path class="cls-1" d="m1483.39,274.41c-9.6,0-18.06-6.56-20.28-15.73-2.34-9.7,2.11-19.45,10.91-23.86,8.81-4.41,19.25-2.27,25.51,5.74,1.95,2.5,3.37,2.51,6,1.48,34.49-13.61,69.02-27.11,103.54-40.66,2.8-1.1,5.43-1.63,7.62,1.07,2.9,3.59,1.63,7.42-3.18,9.3-11.72,4.6-23.47,9.13-35.2,13.69-23.47,9.14-46.92,18.31-70.42,27.37-2.4.93-3.59,2.11-4.09,4.8-1.85,9.94-10.38,16.79-20.39,16.79Zm.11-11.23c5.23-.03,9.62-4.37,9.64-9.53.02-5.27-4.57-9.86-9.81-9.82-5.11.04-9.61,4.51-9.66,9.6-.05,5.22,4.54,9.77,9.83,9.75Z"/>
      <path class="cls-1" d="m1509.99,228.8c-9.33,0-17.61-6.18-20.15-15.03-2.62-9.15,1.09-18.74,9.18-23.7,8.08-4.95,18.51-4.12,25.14,2.75,2.67,2.76,4.57,2.59,7.7,1.36,34.62-13.61,69.31-27.07,103.96-40.61,2.54-.99,4.86-1.65,7.09.6,3.1,3.14,2.33,7.1-2.03,8.92-7.32,3.05-14.72,5.9-22.1,8.8-28.22,11.09-56.44,22.18-84.69,33.18-2.28.89-3.07,2.03-3.32,4.49-1.17,11.34-9.85,19.24-20.76,19.25Zm-9.28-20.4c.07,5.2,4.52,9.61,9.68,9.57,5.32-.04,9.71-4.64,9.56-10.03-.14-5.21-4.61-9.44-9.85-9.33-5.23.11-9.47,4.53-9.39,9.79Z"/>
    </g>
  </g>
</svg>