<?xml version="1.0" encoding="UTF-8"?>
<svg id="Layer_2" data-name="Layer 2" xmlns="http://www.w3.org/2000/svg" viewBox="0 0 139 160.39">
  <defs>
    <style>
      .cls-1 {
        fill: #fff;
      }
    </style>
  </defs>
  <g id="Options">
    <path class="cls-1" d="m62.78,39.97c0-.89,0-1.64,0-2.39,0-8.38-.02-16.75.01-25.13.01-3.12,1.68-5.48,4.43-6.44,2.74-.96,5.8-.13,7.57,2.08,1.15,1.44,1.52,3.12,1.47,4.93.66.13.87-.43,1.19-.73C86.24,4.27,96.58.19,108.45,0c4.31-.07,7.11,2.88,7.03,7.29-.17,9.35-2.99,17.84-8.31,25.51-.31.44-.61.89-.95,1.4,2.05.62,4.05,1.13,5.98,1.82,15.87,5.68,26.66,20.57,26.79,37.32.14,18.01-2.57,35.54-9.53,52.27-4.16,10.01-9.68,19.15-18.08,26.24-7.05,5.95-15.07,9.2-24.47,8.37-3.47-.31-6.8-1.18-9.92-2.68-4.91-2.36-9.73-2.27-14.71-.1-12.88,5.62-24.48,2.99-34.92-5.87-8.3-7.03-13.67-16.14-17.81-26.04C3.92,112.07,1.21,97.95.31,83.44c-.37-6.01-.66-12.01.65-17.98,5.74-26.31,35.71-39.86,59.19-26.73.79.44,1.55.98,2.63,1.24ZM13.5,78.47c.18,4.1.44,8.19.93,12.27,1.46,11.97,4.31,23.55,9.63,34.43,3.2,6.54,7.13,12.59,12.99,17.11,6.1,4.71,12.75,6.18,19.97,2.78,8.21-3.87,16.38-3.7,24.6-.15,1.91.83,3.85,1.57,5.93,1.83,6.1.74,11.15-1.59,15.63-5.44,5.38-4.61,9.13-10.46,12.09-16.8,7.56-16.17,10.4-33.34,10.23-51.05-.1-10.87-7.43-20.92-17.66-24.64-7.8-2.84-15.4-2.2-22.65,1.77-3.84,2.1-7.8,3.67-12.17,4.15-7,.78-13.37-.97-19.52-4.31-14.49-7.85-32.35-1.25-38.29,13.97-1.78,4.55-1.93,9.28-1.72,14.07Zm63.82-40.22c13.38-3.17,22.16-14.85,23.49-23.65-10.67,2.13-21.13,12.03-23.49,23.65Z"/>
  </g>
</svg>