<?xml version="1.0" encoding="UTF-8"?>
<svg id="Layer_2" data-name="Layer 2" xmlns="http://www.w3.org/2000/svg" viewBox="0 0 125.74 167">
  <defs>
    <style>
      .cls-1 {
        fill: #fff;
      }
    </style>
  </defs>
  <g id="Options">
    <g>
      <path class="cls-1" d="m63.57,0c.17.12.33.29.52.36,8.68,3.11,13.28,9.62,15.26,18.31.14.59.26,1.19.41,1.92,3.24-1.53,6.42-2.84,9.84-3.54,6.12-1.26,12.13-.58,18.12.8.92.21,1.04.83,1.16,1.59,1.5,9.82-.95,18.4-7.96,25.57-.26.27-.49.58-.75.9.62.58,1.39.58,2.07.78,13.21,3.95,21.77,14.46,23.17,28.1,1.37,13.28-1.68,25.67-7.3,37.54-8.18,17.28-20.27,31.55-34.42,44.18-2.18,1.94-5.56,4.42-9.01,6.79-7.52,5.16-17.53,4.94-24.73-.66-15.44-12.02-28.53-26.33-38.55-43.59C5.47,108.82,1.37,97.94.28,86.08c-.57-6.17-.37-12.3,1.47-18.29,3.36-10.94,10.78-17.75,21.57-21.11.68-.21,1.37-.4,2.03-.59,0-.66-.44-.89-.73-1.19-6.96-7.24-9.19-15.89-7.71-25.68.15-.97.65-1.25,1.5-1.46,9.21-2.28,18.18-1.99,26.78,2.44.24.12.5.19.83.31.58-2.7,1.2-5.3,2.31-7.76,2.65-5.83,6.86-9.99,12.91-12.23.33-.12.81-.05.98-.53.45,0,.9,0,1.34,0ZM9.77,80.25c-.05,7.65,1.5,14.75,4.28,21.51,7.93,19.28,20.21,35.83,35.49,49.4,7,6.21,17.56,6.15,24.33-.3,11.29-10.76,27.63-27.71,34.16-40.27,5.34-10.26,8.65-21.11,7.91-32.86-.47-7.48-2.92-14.12-9.46-18.38-6.82-4.45-14.46-6.16-22.45-4.35-12.9,2.92-25.76,3.9-38.71.71-5.13-1.26-10.2-1.71-15.43-.66-9.66,1.94-16.66,6.82-19.22,16.83-.73,2.84-.94,5.73-.9,8.38Zm53.04-32.15c5.35.03,10.58-.88,15.79-1.96,3.59-.74,7.3-1.1,10.38-3.47,2.01-1.54,3.95-3.13,5.57-5.07,2.47-2.96,4.3-6.24,5.02-10.09.22-1.18-.16-1.46-1.23-1.47-2.08-.01-4.15.1-6.18.53-5.1,1.08-9.95,2.68-13.54,6.77-.58.66-.96.29-1.38-.05-1.97-1.63-4.18-2.79-6.66-3.38-.93-.22-.85-.69-.7-1.46,1.06-5.62.1-10.91-3.58-15.33-3.1-3.73-3.69-3.73-6.79-.01-3.69,4.41-4.64,9.69-3.6,15.32.14.75.28,1.25-.67,1.49-2.53.62-4.8,1.8-6.8,3.48-.53.45-.85.38-1.36-.14-5.48-5.58-12.45-7.1-19.93-7.17-.88,0-1.08.32-.98,1.22.87,7.46,8.76,16.31,16.09,17.88,6.78,1.44,13.55,2.98,20.55,2.94Z"/>
      <path class="cls-1" d="m54.47,131.71c-.3,3.22-2.08,6.06-4.52,8.56-.42.43-.73.33-1.11-.06-2.39-2.53-4.32-5.31-4.42-8.95-.08-2.78,2.19-4.94,5.05-4.9,2.85.03,5.06,2.24,5,5.35Z"/>
      <path class="cls-1" d="m83.72,131.7c-.25,3.21-2.08,6.08-4.56,8.62-.35.36-.65.31-.99-.03-2.45-2.56-4.4-5.39-4.51-9.08-.08-2.7,2.15-4.8,4.95-4.84,2.85-.04,5.1,2.12,5.1,5.33Z"/>
      <path class="cls-1" d="m28.38,78.09c-.23,2.99-2.03,5.75-4.39,8.23-.48.5-.82.38-1.24-.06-2.24-2.35-3.95-4.98-4.35-8.29-.36-2.93,1.78-5.35,4.78-5.45,3.07-.1,5.3,2.05,5.2,5.57Z"/>
      <path class="cls-1" d="m78.67,73.87c3.08,0,5.32,2.33,5.01,5.39-.34,3.38-2.12,6.05-4.43,8.42-.5.52-.85.31-1.24-.1-2.18-2.25-3.83-4.81-4.3-7.97-.48-3.21,1.75-5.74,4.96-5.74Z"/>
      <path class="cls-1" d="m104.78,75.22c3.09.03,5.25,2.41,4.92,5.47-.36,3.33-2.12,5.94-4.34,8.3-.42.45-.76.54-1.23.04-2.26-2.41-4.09-5.04-4.39-8.45-.27-3.07,1.94-5.39,5.04-5.36Z"/>
      <path class="cls-1" d="m68.27,104.86c-.28,3.07-2.06,5.89-4.51,8.38-.45.45-.77.25-1.11-.11-2.35-2.42-4.14-5.15-4.41-8.61-.22-2.88,1.99-5.11,4.93-5.15,2.98-.04,5.17,2.08,5.11,5.49Z"/>
      <path class="cls-1" d="m89.23,100.73c3.24-.03,5.45,2.47,5.02,5.67-.43,3.19-2.1,5.71-4.23,8-.44.48-.82.67-1.36.09-2.25-2.42-4.09-5.04-4.34-8.46-.23-3.03,1.89-5.27,4.92-5.3Z"/>
      <path class="cls-1" d="m42.43,106.22c-.25,3.04-2.04,5.86-4.48,8.36-.43.44-.75.31-1.12-.07-2.36-2.41-4.13-5.15-4.44-8.59-.25-2.85,1.97-5.13,4.9-5.19,2.98-.06,5.18,2.06,5.14,5.49Z"/>
      <path class="cls-1" d="m44.41,79.27c0-3.29,2.1-5.36,4.91-5.41,2.82-.05,5.17,1.97,5.13,4.62-.05,3.75-1.99,6.65-4.51,9.23-.43.44-.76.3-1.12-.08-2.43-2.51-4.21-5.34-4.42-8.37Z"/>
    </g>
  </g>
</svg>