<?xml version="1.0" encoding="UTF-8"?>
<svg id="Layer_2" data-name="Layer 2" xmlns="http://www.w3.org/2000/svg" viewBox="0 0 107.02 187">
  <defs>
    <style>
      .cls-1 {
        fill: #fff;
      }
    </style>
  </defs>
  <g id="Options">
    <path class="cls-1" d="m49.21,187c-3.81-.71-7.7-1.03-11.42-2.2-19.51-6.17-32.63-18.56-36.95-38.97-2.19-10.33.01-20.29,5.15-29.43,5.88-10.45,11.81-20.86,16.49-31.92,4.23-9.98,7.75-20.21,10.61-30.67,2.03-7.41,6.63-12.47,13.86-15.06,1.05-.37,1.25-.86,1.18-1.84-.31-4.58-1.61-8.63-5.84-11.14-.73-.43-.66-.83-.3-1.45,1.41-2.42,2.81-4.84,4.15-7.3.45-.84.87-.78,1.56-.33,1.69,1.1,3.31,2.28,4.71,3.74.41.43.73.8,1.24.04,6.01-9.03,15.16-13.23,25.1-16.11,7.08-2.05,14.37-3.17,21.64-4.31,1.22-.19,1.21.22.95,1.13-2.5,8.84-4.91,17.71-9.06,25.97-3.99,7.96-9.26,14.74-17.61,18.57-1.1.51-2.24.93-3.38,1.39,3.35,6.02,4.36,12.78,6.52,19.16,5.57,16.5,12.78,32.21,21.77,47.12,3.59,5.95,6.18,12.27,7.06,19.21,1.67,13.34-2.16,25.08-10.72,35.26-9.53,11.32-21.93,17.26-36.54,18.81-.48.05-.98-.01-1.39.33h-8.77Zm3.41-10.44c12.33-.14,22.42-3.66,30.94-11.2,7.81-6.91,12.55-15.43,12.9-26.06.25-7.36-2.01-14.01-5.76-20.25-11.78-19.62-20.79-40.43-26.83-62.52-1.45-5.31-5.31-8.33-10.4-8.28-5.05.05-8.7,2.99-10.18,8.31-4.16,14.98-9.52,29.5-16.38,43.47-3.65,7.44-8,14.49-11.9,21.78-7.08,13.25-5.62,27.13,3.99,38.66,8.98,10.78,20.7,15.8,33.6,16.08ZM86.72,13.19c-6.55,1.51-12.58,3.25-17.91,6.84-5.72,3.85-8.77,9.29-9.68,16.03-.12.91-.5,1.91,1.21,1.91,6.74,0,12.52-2.21,17.09-7.26,4.46-4.94,6.93-10.93,9.3-17.52Z"/>
  </g>
</svg>