<?xml version="1.0" encoding="UTF-8"?>
<svg id="Layer_2" data-name="Layer 2" xmlns="http://www.w3.org/2000/svg" viewBox="0 0 627.76 85.84">
  <defs>
    <style>
      .cls-1 {
        fill: #fff;
      }
    </style>
  </defs>
  <g id="Options">
    <g>
      <path class="cls-1" d="m40.52,3.69v6.35h-16.31v53.48h-7.81V10.04H0V3.69h40.52Z"/>
      <path class="cls-1" d="m83.09,17.9c2.86,1.52,5.11,3.79,6.74,6.82,1.63,3.03,2.45,6.73,2.45,11.07v27.73h-7.73v-26.61c0-4.69-1.17-8.28-3.52-10.77-2.35-2.49-5.55-3.73-9.61-3.73s-7.4,1.29-9.83,3.86c-2.43,2.57-3.65,6.32-3.65,11.25v26.01h-7.81V0h7.81v23.18c1.55-2.4,3.68-4.26,6.4-5.58,2.72-1.32,5.77-1.97,9.14-1.97,3.55,0,6.75.76,9.61,2.27Z"/>
      <path class="cls-1" d="m147.73,42.92h-37.6c.29,4.63,1.87,8.26,4.76,10.86,2.89,2.6,6.4,3.91,10.52,3.91,3.38,0,6.19-.79,8.46-2.36,2.26-1.57,3.85-3.68,4.76-6.31h8.41c-1.26,4.52-3.78,8.2-7.55,11.03-3.78,2.83-8.47,4.25-14.08,4.25-4.46,0-8.46-1-11.97-3-3.52-2-6.28-4.85-8.28-8.54-2-3.69-3-7.97-3-12.83s.97-9.13,2.92-12.79c1.94-3.66,4.68-6.48,8.2-8.46,3.52-1.97,7.57-2.96,12.15-2.96s8.41.97,11.85,2.92c3.43,1.95,6.08,4.62,7.94,8.03,1.86,3.41,2.79,7.25,2.79,11.55,0,1.49-.09,3.06-.26,4.72Zm-9.79-14.04c-1.32-2.15-3.11-3.78-5.37-4.89-2.26-1.12-4.77-1.67-7.51-1.67-3.95,0-7.31,1.26-10.09,3.78-2.78,2.52-4.36,6.01-4.76,10.47h29.7c0-2.98-.66-5.54-1.97-7.68Z"/>
      <path class="cls-1" d="m198.81,16.48l-28.33,69.19h-8.07l9.27-22.66-18.97-46.53h8.67l14.76,38.11,14.59-38.11h8.07Z"/>
      <path class="cls-1" d="m229.54,27.17c1.94-3.63,4.62-6.45,8.03-8.46,3.4-2,7.2-3,11.37-3s7.7.89,10.73,2.66c3.03,1.77,5.29,4.01,6.78,6.7v-8.58h7.9v47.04h-7.9v-8.76c-1.55,2.75-3.85,5.02-6.91,6.82-3.06,1.8-6.62,2.7-10.69,2.7s-7.96-1.03-11.33-3.09c-3.38-2.06-6.04-4.95-7.98-8.67-1.95-3.72-2.92-7.95-2.92-12.71s.97-9.03,2.92-12.66Zm34.77,3.48c-1.43-2.63-3.36-4.65-5.79-6.05-2.43-1.4-5.11-2.1-8.03-2.1s-5.58.69-7.98,2.06c-2.4,1.37-4.32,3.38-5.75,6.01s-2.15,5.72-2.15,9.27.72,6.74,2.15,9.4,3.35,4.69,5.75,6.1c2.4,1.4,5.06,2.1,7.98,2.1s5.59-.7,8.03-2.1c2.43-1.4,4.36-3.43,5.79-6.1,1.43-2.66,2.15-5.76,2.15-9.31s-.72-6.64-2.15-9.27Z"/>
      <path class="cls-1" d="m301.26,17.86c2.55-1.49,5.65-2.23,9.31-2.23v8.07h-2.06c-8.76,0-13.13,4.75-13.13,14.25v25.58h-7.81V16.48h7.81v7.64c1.37-2.69,3.33-4.78,5.88-6.27Z"/>
      <path class="cls-1" d="m362.25,42.92h-37.6c.29,4.63,1.87,8.26,4.76,10.86,2.89,2.6,6.4,3.91,10.52,3.91,3.38,0,6.19-.79,8.46-2.36,2.26-1.57,3.85-3.68,4.77-6.31h8.41c-1.26,4.52-3.78,8.2-7.55,11.03-3.78,2.83-8.47,4.25-14.08,4.25-4.46,0-8.45-1-11.97-3-3.52-2-6.28-4.85-8.28-8.54-2-3.69-3-7.97-3-12.83s.97-9.13,2.92-12.79c1.94-3.66,4.68-6.48,8.2-8.46,3.52-1.97,7.57-2.96,12.15-2.96s8.41.97,11.85,2.92c3.43,1.95,6.08,4.62,7.94,8.03,1.86,3.41,2.79,7.25,2.79,11.55,0,1.49-.09,3.06-.26,4.72Zm-9.79-14.04c-1.32-2.15-3.11-3.78-5.37-4.89-2.26-1.12-4.76-1.67-7.51-1.67-3.95,0-7.31,1.26-10.09,3.78-2.78,2.52-4.36,6.01-4.77,10.47h29.7c0-2.98-.66-5.54-1.97-7.68Z"/>
      <path class="cls-1" d="m438.39,42.92h-37.6c.29,4.63,1.87,8.26,4.76,10.86,2.89,2.6,6.4,3.91,10.52,3.91,3.38,0,6.19-.79,8.46-2.36,2.26-1.57,3.85-3.68,4.76-6.31h8.41c-1.26,4.52-3.78,8.2-7.55,11.03-3.78,2.83-8.47,4.25-14.08,4.25-4.46,0-8.46-1-11.97-3-3.52-2-6.28-4.85-8.28-8.54-2-3.69-3-7.97-3-12.83s.97-9.13,2.92-12.79c1.94-3.66,4.68-6.48,8.2-8.46,3.52-1.97,7.57-2.96,12.15-2.96s8.41.97,11.85,2.92c3.43,1.95,6.08,4.62,7.94,8.03,1.86,3.41,2.79,7.25,2.79,11.55,0,1.49-.09,3.06-.26,4.72Zm-9.79-14.04c-1.32-2.15-3.1-3.78-5.37-4.89s-4.76-1.67-7.51-1.67c-3.95,0-7.31,1.26-10.09,3.78-2.78,2.52-4.36,6.01-4.76,10.47h29.7c0-2.98-.66-5.54-1.97-7.68Z"/>
      <path class="cls-1" d="m448.95,27.17c1.94-3.63,4.62-6.45,8.03-8.46,3.4-2,7.22-3,11.46-3s7.63.9,10.69,2.7c3.06,1.8,5.31,4.02,6.74,6.65v-8.58h7.9v69.36h-7.9v-30.99c-1.49,2.63-3.78,4.86-6.87,6.7-3.09,1.83-6.7,2.75-10.82,2.75s-7.87-1.03-11.24-3.09c-3.38-2.06-6.04-4.95-7.98-8.67-1.95-3.72-2.92-7.95-2.92-12.71s.97-9.03,2.92-12.66Zm34.77,3.48c-1.43-2.63-3.36-4.65-5.79-6.05-2.43-1.4-5.11-2.1-8.03-2.1s-5.58.69-7.98,2.06c-2.4,1.37-4.32,3.38-5.75,6.01s-2.15,5.72-2.15,9.27.72,6.74,2.15,9.4,3.35,4.69,5.75,6.1c2.4,1.4,5.06,2.1,7.98,2.1s5.59-.7,8.03-2.1c2.43-1.4,4.36-3.43,5.79-6.1,1.43-2.66,2.15-5.76,2.15-9.31s-.72-6.64-2.15-9.27Z"/>
      <path class="cls-1" d="m548.7,16.48v47.04h-7.81v-6.95c-1.49,2.4-3.56,4.28-6.22,5.62-2.66,1.34-5.59,2.02-8.8,2.02-3.66,0-6.95-.76-9.87-2.27-2.92-1.52-5.22-3.79-6.91-6.82-1.69-3.03-2.53-6.72-2.53-11.07v-27.56h7.73v26.53c0,4.63,1.17,8.2,3.52,10.69,2.35,2.49,5.55,3.73,9.61,3.73s7.47-1.29,9.87-3.86c2.4-2.57,3.61-6.32,3.61-11.25v-25.84h7.81Z"/>
      <path class="cls-1" d="m561.92,27.17c1.94-3.63,4.62-6.45,8.03-8.46,3.4-2,7.2-3,11.37-3s7.7.89,10.73,2.66c3.03,1.77,5.29,4.01,6.78,6.7v-8.58h7.9v47.04h-7.9v-8.76c-1.55,2.75-3.85,5.02-6.91,6.82-3.06,1.8-6.62,2.7-10.69,2.7s-7.96-1.03-11.33-3.09c-3.38-2.06-6.04-4.95-7.98-8.67-1.95-3.72-2.92-7.95-2.92-12.71s.97-9.03,2.92-12.66Zm34.77,3.48c-1.43-2.63-3.36-4.65-5.79-6.05-2.43-1.4-5.11-2.1-8.03-2.1s-5.58.69-7.98,2.06c-2.4,1.37-4.32,3.38-5.75,6.01s-2.15,5.72-2.15,9.27.72,6.74,2.15,9.4,3.35,4.69,5.75,6.1c2.4,1.4,5.06,2.1,7.98,2.1s5.59-.7,8.03-2.1c2.43-1.4,4.36-3.43,5.79-6.1,1.43-2.66,2.15-5.76,2.15-9.31s-.72-6.64-2.15-9.27Z"/>
      <path class="cls-1" d="m627.76,0v63.52h-7.81V0h7.81Z"/>
    </g>
  </g>
</svg>