<?xml version="1.0" encoding="UTF-8"?>
<svg id="Layer_2" data-name="Layer 2" xmlns="http://www.w3.org/2000/svg" viewBox="0 0 1924 924">
  <defs>
    <style>
      .cls-1 {
        fill: #fff;
      }
    </style>
  </defs>
  <g id="Export_Q" data-name="Export Q">
    <rect width="1924" height="924"/>
    <g>
      <path class="cls-1" d="m138.97,163.52h-21.89l-4.03,11.16h-6.91l18.14-49.9h7.56l18.07,49.9h-6.91l-4.03-11.16Zm-1.87-5.33l-9.07-25.34-9.07,25.34h18.14Z"/>
      <path class="cls-1" d="m157.84,144.18c1.63-3.05,3.9-5.41,6.8-7.09,2.9-1.68,6.23-2.52,9.97-2.52,4.85,0,8.84,1.18,11.99,3.53,3.14,2.35,5.22,5.62,6.23,9.79h-7.06c-.67-2.4-1.98-4.29-3.92-5.69-1.94-1.39-4.36-2.09-7.24-2.09-3.74,0-6.77,1.28-9.07,3.85-2.3,2.57-3.46,6.2-3.46,10.91s1.15,8.42,3.46,11.02c2.3,2.59,5.33,3.89,9.07,3.89,2.88,0,5.28-.67,7.2-2.02,1.92-1.34,3.24-3.26,3.96-5.76h7.06c-1.06,4.03-3.17,7.26-6.34,9.68-3.17,2.42-7.13,3.64-11.88,3.64-3.74,0-7.07-.84-9.97-2.52-2.9-1.68-5.17-4.06-6.8-7.13-1.63-3.07-2.45-6.67-2.45-10.8s.82-7.64,2.45-10.69Z"/>
      <path class="cls-1" d="m201.54,144.18c1.63-3.05,3.9-5.41,6.8-7.09,2.9-1.68,6.23-2.52,9.97-2.52,4.85,0,8.84,1.18,11.99,3.53,3.14,2.35,5.22,5.62,6.23,9.79h-7.06c-.67-2.4-1.98-4.29-3.92-5.69-1.94-1.39-4.36-2.09-7.24-2.09-3.74,0-6.77,1.28-9.07,3.85-2.3,2.57-3.46,6.2-3.46,10.91s1.15,8.42,3.46,11.02c2.3,2.59,5.33,3.89,9.07,3.89,2.88,0,5.28-.67,7.2-2.02,1.92-1.34,3.24-3.26,3.96-5.76h7.06c-1.06,4.03-3.17,7.26-6.34,9.68-3.17,2.42-7.13,3.64-11.88,3.64-3.74,0-7.07-.84-9.97-2.52-2.9-1.68-5.17-4.06-6.8-7.13-1.63-3.07-2.45-6.67-2.45-10.8s.82-7.64,2.45-10.69Z"/>
      <path class="cls-1" d="m252.41,172.8c-3-1.68-5.35-4.07-7.06-7.16-1.71-3.1-2.56-6.68-2.56-10.76s.88-7.6,2.63-10.69c1.75-3.1,4.14-5.47,7.16-7.13,3.02-1.66,6.41-2.48,10.15-2.48s7.13.83,10.15,2.48c3.02,1.66,5.41,4.02,7.16,7.09,1.75,3.07,2.63,6.65,2.63,10.73s-.9,7.67-2.7,10.76c-1.8,3.1-4.24,5.48-7.31,7.16-3.07,1.68-6.48,2.52-10.22,2.52s-7.04-.84-10.04-2.52Zm16.67-4.9c2.06-1.1,3.73-2.76,5-4.97,1.27-2.21,1.91-4.9,1.91-8.06s-.62-5.86-1.87-8.06c-1.25-2.21-2.88-3.85-4.9-4.93-2.02-1.08-4.2-1.62-6.55-1.62s-4.6.54-6.59,1.62c-1.99,1.08-3.59,2.72-4.79,4.93-1.2,2.21-1.8,4.9-1.8,8.06s.59,5.93,1.76,8.14c1.18,2.21,2.75,3.85,4.72,4.93s4.13,1.62,6.48,1.62,4.56-.55,6.62-1.66Z"/>
      <path class="cls-1" d="m302.81,136.37c2.14-1.25,4.74-1.87,7.81-1.87v6.77h-1.73c-7.34,0-11.02,3.98-11.02,11.95v21.46h-6.55v-39.46h6.55v6.41c1.15-2.26,2.8-4.01,4.93-5.26Z"/>
      <path class="cls-1" d="m318.18,144.18c1.63-3.05,3.88-5.41,6.73-7.09,2.86-1.68,6.06-2.52,9.61-2.52,3.07,0,5.93.71,8.57,2.12,2.64,1.42,4.66,3.28,6.05,5.58v-20.88h6.62v53.28h-6.62v-7.42c-1.3,2.35-3.22,4.28-5.76,5.8-2.54,1.51-5.52,2.27-8.93,2.27s-6.68-.86-9.54-2.59c-2.86-1.73-5.1-4.15-6.73-7.27-1.63-3.12-2.45-6.67-2.45-10.66s.82-7.57,2.45-10.62Zm29.16,2.92c-1.2-2.21-2.82-3.9-4.86-5.08-2.04-1.18-4.28-1.76-6.73-1.76s-4.68.58-6.7,1.73c-2.02,1.15-3.62,2.83-4.82,5.04-1.2,2.21-1.8,4.8-1.8,7.78s.6,5.65,1.8,7.88c1.2,2.23,2.81,3.94,4.82,5.11,2.02,1.18,4.25,1.76,6.7,1.76s4.69-.59,6.73-1.76c2.04-1.18,3.66-2.88,4.86-5.11,1.2-2.23,1.8-4.84,1.8-7.81s-.6-5.57-1.8-7.78Z"/>
      <path class="cls-1" d="m367.07,127.52c-.86-.86-1.3-1.92-1.3-3.17s.43-2.3,1.3-3.17c.86-.86,1.92-1.3,3.17-1.3s2.22.43,3.06,1.3c.84.86,1.26,1.92,1.26,3.17s-.42,2.3-1.26,3.17c-.84.86-1.86,1.3-3.06,1.3s-2.3-.43-3.17-1.3Zm6.34,7.7v39.46h-6.55v-39.46h6.55Z"/>
      <path class="cls-1" d="m415.45,138.86c2.98,2.9,4.46,7.09,4.46,12.56v23.26h-6.48v-22.32c0-3.94-.98-6.95-2.95-9.04-1.97-2.09-4.66-3.13-8.06-3.13s-6.2,1.08-8.24,3.24c-2.04,2.16-3.06,5.3-3.06,9.43v21.82h-6.55v-39.46h6.55v5.62c1.3-2.02,3.06-3.58,5.29-4.68,2.23-1.1,4.69-1.66,7.38-1.66,4.8,0,8.69,1.45,11.66,4.36Z"/>
      <path class="cls-1" d="m455.88,136.8c2.57,1.49,4.47,3.36,5.72,5.62v-7.2h6.62v40.32c0,3.6-.77,6.8-2.3,9.61-1.54,2.81-3.73,5-6.59,6.59-2.86,1.58-6.18,2.38-9.97,2.38-5.18,0-9.5-1.22-12.96-3.67-3.46-2.45-5.5-5.78-6.12-10.01h6.48c.72,2.4,2.21,4.33,4.46,5.8,2.26,1.46,4.97,2.2,8.14,2.2,3.6,0,6.54-1.13,8.82-3.38,2.28-2.26,3.42-5.42,3.42-9.5v-8.28c-1.3,2.3-3.22,4.22-5.76,5.76-2.54,1.54-5.52,2.3-8.93,2.3s-6.68-.86-9.54-2.59c-2.86-1.73-5.1-4.15-6.73-7.27-1.63-3.12-2.45-6.67-2.45-10.66s.82-7.57,2.45-10.62c1.63-3.05,3.88-5.41,6.73-7.09,2.86-1.68,6.04-2.52,9.54-2.52s6.4.74,8.96,2.23Zm3.92,10.3c-1.2-2.21-2.82-3.9-4.86-5.08-2.04-1.18-4.28-1.76-6.73-1.76s-4.68.58-6.7,1.73c-2.02,1.15-3.62,2.83-4.82,5.04-1.2,2.21-1.8,4.8-1.8,7.78s.6,5.65,1.8,7.88c1.2,2.23,2.81,3.94,4.82,5.11,2.02,1.18,4.25,1.76,6.7,1.76s4.69-.59,6.73-1.76c2.04-1.18,3.66-2.88,4.86-5.11,1.2-2.23,1.8-4.84,1.8-7.81s-.6-5.57-1.8-7.78Z"/>
      <path class="cls-1" d="m506.53,140.62v23.26c0,1.92.41,3.28,1.22,4.07s2.23,1.19,4.25,1.19h4.82v5.54h-5.9c-3.65,0-6.38-.84-8.21-2.52-1.82-1.68-2.74-4.44-2.74-8.28v-23.26h-5.11v-5.4h5.11v-9.94h6.55v9.94h10.3v5.4h-10.3Z"/>
      <path class="cls-1" d="m531.91,172.8c-3-1.68-5.35-4.07-7.06-7.16-1.71-3.1-2.56-6.68-2.56-10.76s.88-7.6,2.63-10.69c1.75-3.1,4.14-5.47,7.16-7.13,3.02-1.66,6.41-2.48,10.15-2.48s7.13.83,10.15,2.48c3.02,1.66,5.41,4.02,7.16,7.09,1.75,3.07,2.63,6.65,2.63,10.73s-.9,7.67-2.7,10.76c-1.8,3.1-4.24,5.48-7.31,7.16-3.07,1.68-6.48,2.52-10.22,2.52s-7.04-.84-10.04-2.52Zm16.67-4.9c2.06-1.1,3.73-2.76,5-4.97,1.27-2.21,1.91-4.9,1.91-8.06s-.62-5.86-1.87-8.06c-1.25-2.21-2.88-3.85-4.9-4.93-2.02-1.08-4.2-1.62-6.55-1.62s-4.6.54-6.59,1.62c-1.99,1.08-3.59,2.72-4.79,4.93-1.2,2.21-1.8,4.9-1.8,8.06s.59,5.93,1.76,8.14c1.18,2.21,2.75,3.85,4.72,4.93,1.97,1.08,4.13,1.62,6.48,1.62s4.56-.55,6.62-1.66Z"/>
      <path class="cls-1" d="m598.04,140.62v23.26c0,1.92.41,3.28,1.22,4.07s2.23,1.19,4.25,1.19h4.82v5.54h-5.9c-3.65,0-6.38-.84-8.21-2.52-1.82-1.68-2.74-4.44-2.74-8.28v-23.26h-5.11v-5.4h5.11v-9.94h6.55v9.94h10.3v5.4h-10.3Z"/>
      <path class="cls-1" d="m643.9,136.41c2.4,1.27,4.28,3.18,5.65,5.72,1.37,2.54,2.05,5.64,2.05,9.29v23.26h-6.48v-22.32c0-3.94-.98-6.95-2.95-9.04-1.97-2.09-4.66-3.13-8.06-3.13s-6.2,1.08-8.24,3.24c-2.04,2.16-3.06,5.3-3.06,9.43v21.82h-6.55v-53.28h6.55v19.44c1.3-2.02,3.08-3.58,5.36-4.68,2.28-1.1,4.83-1.66,7.67-1.66,2.98,0,5.66.64,8.06,1.91Z"/>
      <path class="cls-1" d="m698.12,157.4h-31.54c.24,3.89,1.57,6.92,4,9.11,2.42,2.18,5.36,3.28,8.82,3.28,2.83,0,5.2-.66,7.09-1.98,1.9-1.32,3.23-3.08,4-5.29h7.06c-1.06,3.79-3.17,6.88-6.34,9.25s-7.1,3.56-11.81,3.56c-3.74,0-7.09-.84-10.04-2.52-2.95-1.68-5.27-4.07-6.95-7.16-1.68-3.1-2.52-6.68-2.52-10.76s.82-7.66,2.45-10.73c1.63-3.07,3.92-5.44,6.88-7.09,2.95-1.66,6.35-2.48,10.19-2.48s7.06.82,9.94,2.45c2.88,1.63,5.1,3.88,6.66,6.73,1.56,2.86,2.34,6.08,2.34,9.68,0,1.25-.07,2.57-.22,3.96Zm-8.21-11.77c-1.11-1.8-2.6-3.17-4.5-4.1-1.9-.94-4-1.4-6.3-1.4-3.31,0-6.13,1.06-8.46,3.17-2.33,2.11-3.66,5.04-4,8.78h24.91c0-2.5-.55-4.64-1.66-6.44Z"/>
      <path class="cls-1" d="m726.2,144.18c1.63-3.05,3.9-5.41,6.8-7.09,2.9-1.68,6.23-2.52,9.97-2.52,4.85,0,8.84,1.18,11.99,3.53,3.14,2.35,5.22,5.62,6.23,9.79h-7.06c-.67-2.4-1.98-4.29-3.92-5.69-1.94-1.39-4.36-2.09-7.24-2.09-3.74,0-6.77,1.28-9.07,3.85-2.3,2.57-3.46,6.2-3.46,10.91s1.15,8.42,3.46,11.02c2.3,2.59,5.33,3.89,9.07,3.89,2.88,0,5.28-.67,7.2-2.02,1.92-1.34,3.24-3.26,3.96-5.76h7.06c-1.06,4.03-3.17,7.26-6.34,9.68-3.17,2.42-7.13,3.64-11.88,3.64-3.74,0-7.07-.84-9.97-2.52-2.9-1.68-5.17-4.06-6.8-7.13-1.63-3.07-2.45-6.67-2.45-10.8s.82-7.64,2.45-10.69Z"/>
      <path class="cls-1" d="m797.55,136.41c2.4,1.27,4.28,3.18,5.65,5.72,1.37,2.54,2.05,5.64,2.05,9.29v23.26h-6.48v-22.32c0-3.94-.98-6.95-2.95-9.04-1.97-2.09-4.66-3.13-8.06-3.13s-6.2,1.08-8.24,3.24-3.06,5.3-3.06,9.43v21.82h-6.55v-53.28h6.55v19.44c1.3-2.02,3.08-3.58,5.36-4.68,2.28-1.1,4.84-1.66,7.67-1.66,2.98,0,5.66.64,8.06,1.91Z"/>
      <path class="cls-1" d="m815.98,144.18c1.63-3.05,3.88-5.41,6.73-7.09,2.86-1.68,6.04-2.52,9.54-2.52s6.46.74,9,2.23c2.54,1.49,4.44,3.36,5.69,5.62v-7.2h6.62v39.46h-6.62v-7.34c-1.3,2.3-3.23,4.21-5.8,5.72-2.57,1.51-5.56,2.27-8.96,2.27s-6.67-.86-9.5-2.59c-2.83-1.73-5.06-4.15-6.7-7.27-1.63-3.12-2.45-6.67-2.45-10.66s.82-7.57,2.45-10.62Zm29.16,2.92c-1.2-2.21-2.82-3.9-4.86-5.08-2.04-1.18-4.28-1.76-6.73-1.76s-4.68.58-6.7,1.73c-2.02,1.15-3.62,2.83-4.82,5.04-1.2,2.21-1.8,4.8-1.8,7.78s.6,5.65,1.8,7.88c1.2,2.23,2.81,3.94,4.82,5.11,2.02,1.18,4.25,1.76,6.7,1.76s4.69-.59,6.73-1.76c2.04-1.18,3.66-2.88,4.86-5.11,1.2-2.23,1.8-4.84,1.8-7.81s-.6-5.57-1.8-7.78Z"/>
      <path class="cls-1" d="m876.14,136.37c2.13-1.25,4.74-1.87,7.81-1.87v6.77h-1.73c-7.34,0-11.02,3.98-11.02,11.95v21.46h-6.55v-39.46h6.55v6.41c1.15-2.26,2.8-4.01,4.93-5.26Z"/>
      <path class="cls-1" d="m899.5,140.62v23.26c0,1.92.41,3.28,1.22,4.07.82.79,2.23,1.19,4.25,1.19h4.82v5.54h-5.9c-3.65,0-6.38-.84-8.21-2.52-1.83-1.68-2.74-4.44-2.74-8.28v-23.26h-5.11v-5.4h5.11v-9.94h6.55v9.94h10.3v5.4h-10.3Z"/>
      <path class="cls-1" d="m924.49,165.6l-8.06,19.37h-4.39l5.26-19.37h7.2Z"/>
      <path class="cls-1" d="m959.19,140.62v23.26c0,1.92.41,3.28,1.22,4.07.82.79,2.23,1.19,4.25,1.19h4.82v5.54h-5.9c-3.65,0-6.38-.84-8.21-2.52-1.82-1.68-2.74-4.44-2.74-8.28v-23.26h-5.11v-5.4h5.11v-9.94h6.55v9.94h10.3v5.4h-10.3Z"/>
      <path class="cls-1" d="m1005.05,136.41c2.4,1.27,4.28,3.18,5.65,5.72,1.37,2.54,2.05,5.64,2.05,9.29v23.26h-6.48v-22.32c0-3.94-.98-6.95-2.95-9.04-1.97-2.09-4.66-3.13-8.06-3.13s-6.2,1.08-8.24,3.24-3.06,5.3-3.06,9.43v21.82h-6.55v-53.28h6.55v19.44c1.3-2.02,3.08-3.58,5.36-4.68,2.28-1.1,4.84-1.66,7.67-1.66,2.98,0,5.66.64,8.06,1.91Z"/>
      <path class="cls-1" d="m1059.27,157.4h-31.54c.24,3.89,1.57,6.92,4,9.11,2.42,2.18,5.36,3.28,8.82,3.28,2.83,0,5.2-.66,7.09-1.98,1.9-1.32,3.23-3.08,4-5.29h7.06c-1.06,3.79-3.17,6.88-6.34,9.25s-7.11,3.56-11.81,3.56c-3.74,0-7.09-.84-10.04-2.52-2.95-1.68-5.27-4.07-6.95-7.16-1.68-3.1-2.52-6.68-2.52-10.76s.82-7.66,2.45-10.73c1.63-3.07,3.92-5.44,6.88-7.09,2.95-1.66,6.35-2.48,10.19-2.48s7.06.82,9.94,2.45c2.88,1.63,5.1,3.88,6.66,6.73,1.56,2.86,2.34,6.08,2.34,9.68,0,1.25-.07,2.57-.22,3.96Zm-8.21-11.77c-1.1-1.8-2.6-3.17-4.5-4.1-1.9-.94-4-1.4-6.3-1.4-3.31,0-6.13,1.06-8.46,3.17-2.33,2.11-3.66,5.04-4,8.78h24.91c0-2.5-.55-4.64-1.66-6.44Z"/>
      <path class="cls-1" d="m1079.61,136.37c2.14-1.25,4.74-1.87,7.81-1.87v6.77h-1.73c-7.34,0-11.02,3.98-11.02,11.95v21.46h-6.55v-39.46h6.55v6.41c1.15-2.26,2.8-4.01,4.93-5.26Z"/>
      <path class="cls-1" d="m1130.76,157.4h-31.54c.24,3.89,1.57,6.92,4,9.11,2.42,2.18,5.36,3.28,8.82,3.28,2.83,0,5.2-.66,7.09-1.98,1.9-1.32,3.23-3.08,4-5.29h7.06c-1.06,3.79-3.17,6.88-6.34,9.25s-7.1,3.56-11.81,3.56c-3.74,0-7.09-.84-10.04-2.52-2.95-1.68-5.27-4.07-6.95-7.16-1.68-3.1-2.52-6.68-2.52-10.76s.82-7.66,2.45-10.73c1.63-3.07,3.92-5.44,6.88-7.09,2.95-1.66,6.35-2.48,10.19-2.48s7.06.82,9.94,2.45c2.88,1.63,5.1,3.88,6.66,6.73,1.56,2.86,2.34,6.08,2.34,9.68,0,1.25-.07,2.57-.22,3.96Zm-8.21-11.77c-1.1-1.8-2.6-3.17-4.5-4.1-1.9-.94-4-1.4-6.3-1.4-3.31,0-6.13,1.06-8.46,3.17-2.33,2.11-3.66,5.04-4,8.78h24.91c0-2.5-.55-4.64-1.66-6.44Z"/>
      <path class="cls-1" d="m1159.06,127.52c-.86-.86-1.29-1.92-1.29-3.17s.43-2.3,1.29-3.17c.86-.86,1.92-1.3,3.17-1.3s2.22.43,3.06,1.3c.84.86,1.26,1.92,1.26,3.17s-.42,2.3-1.26,3.17c-.84.86-1.86,1.3-3.06,1.3s-2.3-.43-3.17-1.3Zm6.34,7.7v39.46h-6.55v-39.46h6.55Z"/>
      <path class="cls-1" d="m1182.39,173.78c-2.4-1.03-4.3-2.47-5.69-4.32-1.39-1.85-2.16-3.97-2.3-6.37h6.77c.19,1.97,1.12,3.58,2.77,4.82,1.66,1.25,3.83,1.87,6.52,1.87,2.5,0,4.46-.55,5.9-1.66,1.44-1.1,2.16-2.5,2.16-4.18s-.77-3.01-2.3-3.85c-1.54-.84-3.91-1.67-7.13-2.48-2.93-.77-5.32-1.55-7.16-2.34s-3.43-1.97-4.75-3.53c-1.32-1.56-1.98-3.61-1.98-6.16,0-2.02.6-3.86,1.8-5.54,1.2-1.68,2.9-3.01,5.11-4,2.21-.98,4.73-1.48,7.56-1.48,4.37,0,7.9,1.1,10.58,3.31,2.69,2.21,4.13,5.23,4.32,9.07h-6.55c-.14-2.06-.97-3.72-2.48-4.97-1.51-1.25-3.54-1.87-6.08-1.87-2.35,0-4.22.5-5.62,1.51-1.39,1.01-2.09,2.33-2.09,3.96,0,1.3.42,2.36,1.26,3.2.84.84,1.9,1.51,3.17,2.02,1.27.5,3.04,1.07,5.29,1.69,2.83.77,5.14,1.52,6.91,2.27,1.78.75,3.3,1.86,4.57,3.35,1.27,1.49,1.93,3.43,1.98,5.83,0,2.16-.6,4.1-1.8,5.83-1.2,1.73-2.89,3.08-5.08,4.07-2.18.98-4.69,1.48-7.52,1.48-3.02,0-5.74-.52-8.14-1.55Z"/>
      <path class="cls-1" d="m1233.36,144.18c1.63-3.05,3.88-5.41,6.73-7.09,2.86-1.68,6.04-2.52,9.54-2.52s6.46.74,9,2.23c2.54,1.49,4.44,3.36,5.69,5.62v-7.2h6.62v39.46h-6.62v-7.34c-1.3,2.3-3.23,4.21-5.8,5.72-2.57,1.51-5.56,2.27-8.96,2.27s-6.67-.86-9.5-2.59-5.06-4.15-6.7-7.27c-1.63-3.12-2.45-6.67-2.45-10.66s.82-7.57,2.45-10.62Zm29.16,2.92c-1.2-2.21-2.82-3.9-4.86-5.08-2.04-1.18-4.28-1.76-6.73-1.76s-4.68.58-6.7,1.73c-2.02,1.15-3.62,2.83-4.82,5.04-1.2,2.21-1.8,4.8-1.8,7.78s.6,5.65,1.8,7.88c1.2,2.23,2.81,3.94,4.82,5.11,2.02,1.18,4.25,1.76,6.7,1.76s4.69-.59,6.73-1.76c2.04-1.18,3.66-2.88,4.86-5.11,1.2-2.23,1.8-4.84,1.8-7.81s-.6-5.57-1.8-7.78Z"/>
      <path class="cls-1" d="m115.86,207.8v53.28h-6.55v-53.28h6.55Z"/>
      <path class="cls-1" d="m127.02,230.58c1.63-3.05,3.88-5.41,6.73-7.09,2.86-1.68,6.04-2.52,9.54-2.52s6.46.74,9,2.23c2.54,1.49,4.44,3.36,5.69,5.62v-7.2h6.62v39.46h-6.62v-7.34c-1.29,2.3-3.23,4.21-5.79,5.72-2.57,1.51-5.56,2.27-8.96,2.27s-6.67-.86-9.5-2.59-5.06-4.15-6.7-7.27c-1.63-3.12-2.45-6.67-2.45-10.66s.82-7.57,2.45-10.62Zm29.16,2.92c-1.2-2.21-2.82-3.9-4.86-5.08-2.04-1.18-4.28-1.76-6.73-1.76s-4.68.58-6.7,1.73c-2.02,1.15-3.62,2.83-4.82,5.04-1.2,2.21-1.8,4.8-1.8,7.78s.6,5.65,1.8,7.88c1.2,2.23,2.81,3.94,4.82,5.11,2.02,1.18,4.25,1.76,6.7,1.76s4.69-.59,6.73-1.76c2.04-1.18,3.66-2.88,4.86-5.11,1.2-2.23,1.8-4.84,1.8-7.81s-.6-5.57-1.8-7.78Z"/>
      <path class="cls-1" d="m187.17,222.77c2.14-1.25,4.74-1.87,7.81-1.87v6.77h-1.73c-7.34,0-11.02,3.98-11.02,11.95v21.46h-6.55v-39.46h6.55v6.41c1.15-2.26,2.8-4.01,4.93-5.26Z"/>
      <path class="cls-1" d="m227.78,223.2c2.57,1.49,4.48,3.36,5.72,5.62v-7.2h6.62v40.32c0,3.6-.77,6.8-2.3,9.61-1.54,2.81-3.73,5-6.59,6.59-2.86,1.58-6.18,2.38-9.97,2.38-5.18,0-9.5-1.22-12.96-3.67-3.46-2.45-5.5-5.78-6.12-10.01h6.48c.72,2.4,2.21,4.33,4.46,5.8,2.26,1.46,4.97,2.2,8.14,2.2,3.6,0,6.54-1.13,8.82-3.38,2.28-2.26,3.42-5.42,3.42-9.5v-8.28c-1.3,2.3-3.22,4.22-5.76,5.76-2.54,1.54-5.52,2.3-8.93,2.3s-6.69-.86-9.54-2.59-5.1-4.15-6.73-7.27c-1.63-3.12-2.45-6.67-2.45-10.66s.82-7.57,2.45-10.62c1.63-3.05,3.88-5.41,6.73-7.09,2.86-1.68,6.04-2.52,9.54-2.52s6.4.74,8.96,2.23Zm3.92,10.3c-1.2-2.21-2.82-3.9-4.86-5.08-2.04-1.18-4.28-1.76-6.73-1.76s-4.68.58-6.7,1.73-3.62,2.83-4.82,5.04c-1.2,2.21-1.8,4.8-1.8,7.78s.6,5.65,1.8,7.88c1.2,2.23,2.81,3.94,4.82,5.11,2.02,1.18,4.25,1.76,6.7,1.76s4.69-.59,6.73-1.76c2.04-1.18,3.66-2.88,4.86-5.11,1.2-2.23,1.8-4.84,1.8-7.81s-.6-5.57-1.8-7.78Z"/>
      <path class="cls-1" d="m287,243.8h-31.54c.24,3.89,1.57,6.92,4,9.11,2.42,2.18,5.36,3.28,8.82,3.28,2.83,0,5.2-.66,7.09-1.98,1.9-1.32,3.23-3.08,4-5.29h7.06c-1.06,3.79-3.17,6.88-6.34,9.25s-7.11,3.56-11.81,3.56c-3.74,0-7.09-.84-10.04-2.52-2.95-1.68-5.27-4.07-6.95-7.16-1.68-3.1-2.52-6.68-2.52-10.76s.82-7.66,2.45-10.73c1.63-3.07,3.92-5.44,6.88-7.09,2.95-1.66,6.35-2.48,10.19-2.48s7.06.82,9.94,2.45c2.88,1.63,5.1,3.88,6.66,6.73,1.56,2.86,2.34,6.08,2.34,9.68,0,1.25-.07,2.57-.22,3.96Zm-8.21-11.77c-1.1-1.8-2.6-3.17-4.5-4.1-1.9-.94-4-1.4-6.3-1.4-3.31,0-6.13,1.06-8.46,3.17-2.33,2.11-3.66,5.04-4,8.78h24.91c0-2.5-.55-4.64-1.66-6.44Z"/>
      <path class="cls-1" d="m307.34,222.77c2.14-1.25,4.74-1.87,7.81-1.87v6.77h-1.73c-7.34,0-11.02,3.98-11.02,11.95v21.46h-6.55v-39.46h6.55v6.41c1.15-2.26,2.8-4.01,4.93-5.26Z"/>
      <path class="cls-1" d="m341.94,230.58c1.63-3.05,3.88-5.41,6.73-7.09,2.86-1.68,6.04-2.52,9.54-2.52s6.46.74,9,2.23c2.54,1.49,4.44,3.36,5.69,5.62v-7.2h6.62v39.46h-6.62v-7.34c-1.3,2.3-3.23,4.21-5.8,5.72-2.57,1.51-5.56,2.27-8.96,2.27s-6.67-.86-9.5-2.59c-2.83-1.73-5.06-4.15-6.7-7.27-1.63-3.12-2.45-6.67-2.45-10.66s.82-7.57,2.45-10.62Zm29.16,2.92c-1.2-2.21-2.82-3.9-4.86-5.08-2.04-1.18-4.28-1.76-6.73-1.76s-4.68.58-6.7,1.73c-2.02,1.15-3.62,2.83-4.82,5.04-1.2,2.21-1.8,4.8-1.8,7.78s.6,5.65,1.8,7.88c1.2,2.23,2.81,3.94,4.82,5.11,2.02,1.18,4.25,1.76,6.7,1.76s4.69-.59,6.73-1.76c2.04-1.18,3.66-2.88,4.86-5.11,1.2-2.23,1.8-4.84,1.8-7.81s-.6-5.57-1.8-7.78Z"/>
      <path class="cls-1" d="m446.26,222.81c2.4,1.27,4.29,3.18,5.69,5.72,1.39,2.54,2.09,5.64,2.09,9.29v23.26h-6.48v-22.32c0-3.94-.97-6.95-2.92-9.04s-4.57-3.13-7.88-3.13-6.12,1.09-8.14,3.28c-2.02,2.18-3.02,5.34-3.02,9.47v21.74h-6.48v-22.32c0-3.94-.97-6.95-2.92-9.04-1.94-2.09-4.57-3.13-7.88-3.13s-6.12,1.09-8.14,3.28c-2.02,2.18-3.02,5.34-3.02,9.47v21.74h-6.55v-39.46h6.55v5.69c1.3-2.06,3.04-3.65,5.22-4.75,2.18-1.1,4.6-1.66,7.24-1.66,3.31,0,6.24.74,8.78,2.23,2.54,1.49,4.44,3.67,5.69,6.55,1.1-2.78,2.93-4.94,5.47-6.48,2.54-1.54,5.38-2.3,8.5-2.3s5.81.64,8.21,1.91Z"/>
      <path class="cls-1" d="m471.93,259.2c-3-1.68-5.35-4.07-7.06-7.16-1.71-3.1-2.56-6.68-2.56-10.76s.88-7.6,2.63-10.69c1.75-3.1,4.14-5.47,7.16-7.13,3.02-1.66,6.41-2.48,10.15-2.48s7.13.83,10.15,2.48c3.02,1.66,5.41,4.02,7.16,7.09,1.75,3.07,2.63,6.65,2.63,10.73s-.9,7.67-2.7,10.76c-1.8,3.1-4.24,5.48-7.31,7.16-3.07,1.68-6.48,2.52-10.22,2.52s-7.04-.84-10.04-2.52Zm16.67-4.9c2.06-1.1,3.73-2.76,5-4.97,1.27-2.21,1.91-4.9,1.91-8.06s-.62-5.86-1.87-8.06c-1.25-2.21-2.88-3.85-4.9-4.93-2.02-1.08-4.2-1.62-6.55-1.62s-4.6.54-6.59,1.62c-1.99,1.08-3.59,2.72-4.79,4.93-1.2,2.21-1.8,4.9-1.8,8.06s.59,5.93,1.76,8.14c1.18,2.21,2.75,3.85,4.72,4.93,1.97,1.08,4.13,1.62,6.48,1.62s4.56-.55,6.62-1.66Z"/>
      <path class="cls-1" d="m545.84,221.62v39.46h-6.55v-5.83c-1.25,2.02-2.99,3.59-5.22,4.72-2.23,1.13-4.69,1.69-7.38,1.69-3.07,0-5.83-.64-8.28-1.91-2.45-1.27-4.38-3.18-5.8-5.72-1.42-2.54-2.12-5.64-2.12-9.29v-23.11h6.48v22.25c0,3.89.98,6.88,2.95,8.96,1.97,2.09,4.65,3.13,8.06,3.13s6.26-1.08,8.28-3.24,3.02-5.3,3.02-9.43v-21.67h6.55Z"/>
      <path class="cls-1" d="m587.82,225.26c2.98,2.9,4.46,7.09,4.46,12.56v23.26h-6.48v-22.32c0-3.94-.98-6.95-2.95-9.04-1.97-2.09-4.66-3.13-8.06-3.13s-6.2,1.08-8.24,3.24c-2.04,2.16-3.06,5.3-3.06,9.43v21.82h-6.55v-39.46h6.55v5.62c1.3-2.02,3.06-3.58,5.29-4.68,2.23-1.1,4.69-1.66,7.38-1.66,4.8,0,8.69,1.45,11.66,4.36Z"/>
      <path class="cls-1" d="m611,227.02v23.26c0,1.92.41,3.28,1.22,4.07.82.79,2.23,1.19,4.25,1.19h4.82v5.54h-5.9c-3.65,0-6.38-.84-8.21-2.52-1.83-1.68-2.74-4.44-2.74-8.28v-23.26h-5.11v-5.4h5.11v-9.94h6.55v9.94h10.3v5.4h-10.3Z"/>
      <path class="cls-1" d="m655.6,259.2c-3-1.68-5.35-4.07-7.06-7.16-1.7-3.1-2.56-6.68-2.56-10.76s.88-7.6,2.63-10.69c1.75-3.1,4.14-5.47,7.16-7.13,3.02-1.66,6.41-2.48,10.15-2.48s7.13.83,10.15,2.48c3.02,1.66,5.41,4.02,7.16,7.09,1.75,3.07,2.63,6.65,2.63,10.73s-.9,7.67-2.7,10.76c-1.8,3.1-4.24,5.48-7.31,7.16-3.07,1.68-6.48,2.52-10.22,2.52s-7.04-.84-10.04-2.52Zm16.67-4.9c2.06-1.1,3.73-2.76,5-4.97,1.27-2.21,1.91-4.9,1.91-8.06s-.62-5.86-1.87-8.06c-1.25-2.21-2.88-3.85-4.9-4.93-2.02-1.08-4.2-1.62-6.55-1.62s-4.6.54-6.59,1.62c-1.99,1.08-3.59,2.72-4.79,4.93-1.2,2.21-1.8,4.9-1.8,8.06s.59,5.93,1.76,8.14c1.18,2.21,2.75,3.85,4.72,4.93,1.97,1.08,4.13,1.62,6.48,1.62s4.56-.55,6.62-1.66Z"/>
      <path class="cls-1" d="m710.58,227.02h-8.28v34.06h-6.55v-34.06h-5.11v-5.4h5.11v-2.81c0-4.42,1.14-7.64,3.42-9.68,2.28-2.04,5.94-3.06,10.98-3.06v5.47c-2.88,0-4.91.56-6.08,1.69-1.18,1.13-1.76,2.99-1.76,5.58v2.81h8.28v5.4Z"/>
      <path class="cls-1" d="m789.99,221.62l-12.31,39.46h-6.77l-9.5-31.32-9.5,31.32h-6.77l-12.38-39.46h6.7l9.07,33.12,9.79-33.12h6.7l9.58,33.19,8.93-33.19h6.48Z"/>
      <path class="cls-1" d="m824.12,222.81c2.4,1.27,4.28,3.18,5.65,5.72,1.37,2.54,2.05,5.64,2.05,9.29v23.26h-6.48v-22.32c0-3.94-.98-6.95-2.95-9.04-1.97-2.09-4.66-3.13-8.06-3.13s-6.21,1.08-8.24,3.24c-2.04,2.16-3.06,5.3-3.06,9.43v21.82h-6.55v-53.28h6.55v19.44c1.3-2.02,3.08-3.58,5.36-4.68,2.28-1.1,4.83-1.66,7.67-1.66,2.98,0,5.66.64,8.06,1.91Z"/>
      <path class="cls-1" d="m842.77,213.92c-.86-.86-1.3-1.92-1.3-3.17s.43-2.3,1.3-3.17c.86-.86,1.92-1.3,3.17-1.3s2.22.43,3.06,1.3c.84.86,1.26,1.92,1.26,3.17s-.42,2.3-1.26,3.17c-.84.86-1.86,1.3-3.06,1.3s-2.3-.43-3.17-1.3Zm6.34,7.7v39.46h-6.55v-39.46h6.55Z"/>
      <path class="cls-1" d="m860.26,230.58c1.63-3.05,3.9-5.41,6.8-7.09,2.9-1.68,6.23-2.52,9.97-2.52,4.85,0,8.84,1.18,11.99,3.53,3.14,2.35,5.22,5.62,6.23,9.79h-7.06c-.67-2.4-1.98-4.29-3.92-5.69-1.94-1.39-4.36-2.09-7.24-2.09-3.74,0-6.77,1.28-9.07,3.85-2.3,2.57-3.46,6.2-3.46,10.91s1.15,8.42,3.46,11.02c2.3,2.59,5.33,3.89,9.07,3.89,2.88,0,5.28-.67,7.2-2.02,1.92-1.34,3.24-3.26,3.96-5.76h7.06c-1.06,4.03-3.17,7.26-6.34,9.68-3.17,2.42-7.13,3.64-11.88,3.64-3.74,0-7.07-.84-9.97-2.52-2.9-1.68-5.17-4.06-6.8-7.13-1.63-3.07-2.45-6.67-2.45-10.8s.82-7.64,2.45-10.69Z"/>
      <path class="cls-1" d="m931.61,222.81c2.4,1.27,4.28,3.18,5.65,5.72,1.37,2.54,2.05,5.64,2.05,9.29v23.26h-6.48v-22.32c0-3.94-.98-6.95-2.95-9.04-1.97-2.09-4.66-3.13-8.06-3.13s-6.2,1.08-8.24,3.24-3.06,5.3-3.06,9.43v21.82h-6.55v-53.28h6.55v19.44c1.3-2.02,3.08-3.58,5.36-4.68,2.28-1.1,4.83-1.66,7.67-1.66,2.98,0,5.66.64,8.06,1.91Z"/>
      <path class="cls-1" d="m985.32,227.02h-8.28v34.06h-6.55v-34.06h-5.11v-5.4h5.11v-2.81c0-4.42,1.14-7.64,3.42-9.68,2.28-2.04,5.94-3.06,10.98-3.06v5.47c-2.88,0-4.91.56-6.08,1.69-1.18,1.13-1.76,2.99-1.76,5.58v2.81h8.28v5.4Z"/>
      <path class="cls-1" d="m1004.44,222.77c2.13-1.25,4.74-1.87,7.81-1.87v6.77h-1.73c-7.34,0-11.02,3.98-11.02,11.95v21.46h-6.55v-39.46h6.55v6.41c1.15-2.26,2.8-4.01,4.93-5.26Z"/>
      <path class="cls-1" d="m1054.8,221.62v39.46h-6.55v-5.83c-1.25,2.02-2.99,3.59-5.22,4.72-2.23,1.13-4.69,1.69-7.38,1.69-3.07,0-5.83-.64-8.28-1.91-2.45-1.27-4.38-3.18-5.8-5.72-1.42-2.54-2.12-5.64-2.12-9.29v-23.11h6.48v22.25c0,3.89.98,6.88,2.95,8.96,1.97,2.09,4.66,3.13,8.06,3.13s6.26-1.08,8.28-3.24c2.02-2.16,3.02-5.3,3.02-9.43v-21.67h6.55Z"/>
      <path class="cls-1" d="m1066.11,213.92c-.86-.86-1.3-1.92-1.3-3.17s.43-2.3,1.3-3.17c.86-.86,1.92-1.3,3.17-1.3s2.22.43,3.06,1.3c.84.86,1.26,1.92,1.26,3.17s-.42,2.3-1.26,3.17c-.84.86-1.86,1.3-3.06,1.3s-2.3-.43-3.17-1.3Zm6.34,7.7v39.46h-6.55v-39.46h6.55Z"/>
      <path class="cls-1" d="m1091.59,227.02v23.26c0,1.92.41,3.28,1.22,4.07.82.79,2.23,1.19,4.25,1.19h4.82v5.54h-5.9c-3.65,0-6.38-.84-8.21-2.52-1.83-1.68-2.74-4.44-2.74-8.28v-23.26h-5.11v-5.4h5.11v-9.94h6.55v9.94h10.3v5.4h-10.3Z"/>
      <path class="cls-1" d="m1134.15,214.28c2.93,2.69,4.39,6.29,4.39,10.8,0,5.04-1.56,8.77-4.68,11.2-3.12,2.42-7.34,3.64-12.67,3.64l-.21,6.84h-5.69l-.29-11.38h2.09c4.75,0,8.47-.72,11.16-2.16,2.69-1.44,4.03-4.15,4.03-8.14,0-2.88-.86-5.16-2.59-6.84-1.73-1.68-4.06-2.52-6.98-2.52s-5.32.8-7.02,2.41c-1.7,1.61-2.56,3.81-2.56,6.59h-6.19c0-2.88.65-5.41,1.94-7.6,1.3-2.18,3.13-3.88,5.51-5.08,2.38-1.2,5.12-1.8,8.24-1.8,4.75,0,8.59,1.34,11.52,4.03Zm-19.22,45.94c-.86-.86-1.3-1.92-1.3-3.17s.43-2.3,1.3-3.17c.86-.86,1.92-1.3,3.17-1.3s2.22.43,3.06,1.3c.84.86,1.26,1.92,1.26,3.17s-.42,2.3-1.26,3.17c-.84.86-1.86,1.3-3.06,1.3s-2.3-.43-3.17-1.3Z"/>
    </g>
    <g>
      <path class="cls-1" d="m1625.76,108c.13.09.25.22.39.27,6.6,2.37,10.1,7.31,11.61,13.93.1.45.2.91.31,1.46,2.46-1.16,4.88-2.16,7.48-2.69,4.65-.96,9.22-.44,13.78.61.7.16.79.63.88,1.21,1.14,7.47-.73,13.99-6.05,19.45-.2.21-.37.44-.57.68.47.44,1.06.44,1.57.59,10.04,3.01,16.56,11,17.62,21.37,1.04,10.1-1.28,19.52-5.55,28.55-6.22,13.14-15.41,23.99-26.18,33.6-1.65,1.48-4.23,3.36-6.86,5.16-5.72,3.93-13.33,3.76-18.81-.5-11.74-9.14-21.69-20.03-29.31-33.15-4.51-7.76-7.62-16.04-8.45-25.06-.43-4.69-.28-9.36,1.12-13.91,2.56-8.32,8.2-13.5,16.41-16.06.52-.16,1.04-.3,1.55-.45,0-.5-.33-.68-.55-.91-5.29-5.51-6.99-12.09-5.86-19.53.11-.74.49-.95,1.14-1.11,7.01-1.73,13.83-1.51,20.36,1.85.18.09.38.14.63.24.44-2.05.91-4.03,1.76-5.9,2.02-4.43,5.22-7.6,9.82-9.3.25-.09.62-.04.74-.4.34,0,.68,0,1.02,0Zm-40.92,61.03c-.04,5.82,1.14,11.21,3.26,16.36,6.03,14.66,15.37,27.25,26.99,37.57,5.32,4.72,13.35,4.68,18.5-.23,8.59-8.18,21.01-21.08,25.98-30.63,4.06-7.8,6.57-16.05,6.02-24.99-.36-5.69-2.22-10.74-7.19-13.98-5.19-3.38-11-4.68-17.07-3.31-9.81,2.22-19.59,2.96-29.44.54-3.9-.96-7.76-1.3-11.73-.5-7.35,1.48-12.67,5.19-14.62,12.8-.55,2.16-.71,4.36-.69,6.38Zm40.34-24.45c4.07.03,8.04-.67,12-1.49,2.73-.56,5.55-.84,7.9-2.64,1.53-1.17,3-2.38,4.24-3.86,1.88-2.25,3.27-4.75,3.82-7.68.17-.9-.12-1.11-.94-1.11-1.58,0-3.15.07-4.7.4-3.88.82-7.57,2.04-10.3,5.15-.44.5-.73.22-1.05-.04-1.5-1.24-3.18-2.12-5.07-2.57-.71-.17-.64-.52-.53-1.11.81-4.28.08-8.3-2.72-11.65-2.36-2.83-2.8-2.84-5.17,0-2.8,3.36-3.53,7.37-2.74,11.65.11.57.21.95-.51,1.13-1.93.47-3.65,1.37-5.17,2.64-.4.34-.65.29-1.04-.11-4.17-4.25-9.47-5.4-15.16-5.45-.67,0-.82.24-.74.93.66,5.67,6.66,12.41,12.24,13.59,5.16,1.1,10.31,2.27,15.62,2.23Z"/>
      <path class="cls-1" d="m1618.84,208.16c-.23,2.45-1.58,4.61-3.44,6.51-.32.33-.56.25-.84-.05-1.82-1.93-3.28-4.04-3.36-6.8-.06-2.12,1.67-3.75,3.84-3.73,2.17.02,3.85,1.7,3.8,4.07Z"/>
      <path class="cls-1" d="m1641.08,208.16c-.19,2.44-1.58,4.62-3.46,6.56-.27.28-.5.24-.75-.03-1.86-1.95-3.35-4.1-3.43-6.91-.06-2.05,1.64-3.65,3.77-3.68,2.17-.03,3.88,1.61,3.88,4.06Z"/>
      <path class="cls-1" d="m1599,167.39c-.18,2.28-1.55,4.37-3.34,6.26-.36.38-.62.29-.94-.04-1.71-1.79-3-3.79-3.31-6.31-.27-2.23,1.36-4.07,3.64-4.14,2.33-.07,4.03,1.56,3.96,4.23Z"/>
      <path class="cls-1" d="m1637.24,164.17c2.35,0,4.05,1.77,3.81,4.1-.26,2.57-1.61,4.6-3.37,6.41-.38.39-.64.24-.95-.08-1.66-1.71-2.91-3.66-3.27-6.06-.36-2.44,1.33-4.36,3.77-4.37Z"/>
      <path class="cls-1" d="m1657.1,165.2c2.35.02,3.99,1.83,3.74,4.16-.27,2.54-1.61,4.51-3.3,6.31-.32.34-.58.41-.93.03-1.72-1.83-3.11-3.83-3.33-6.43-.2-2.33,1.47-4.1,3.83-4.08Z"/>
      <path class="cls-1" d="m1629.34,187.75c-.21,2.33-1.57,4.48-3.43,6.37-.34.35-.58.19-.85-.08-1.79-1.84-3.15-3.92-3.35-6.54-.17-2.19,1.51-3.89,3.75-3.92,2.27-.03,3.93,1.58,3.88,4.17Z"/>
      <path class="cls-1" d="m1645.27,184.6c2.47-.02,4.14,1.87,3.82,4.31-.32,2.43-1.6,4.34-3.22,6.08-.34.36-.62.51-1.04.07-1.71-1.84-3.11-3.84-3.3-6.43-.17-2.3,1.44-4.01,3.74-4.03Z"/>
      <path class="cls-1" d="m1609.68,188.78c-.19,2.31-1.55,4.45-3.41,6.36-.32.33-.57.24-.85-.05-1.8-1.83-3.14-3.91-3.38-6.54-.19-2.17,1.5-3.9,3.73-3.95,2.26-.04,3.94,1.57,3.91,4.18Z"/>
      <path class="cls-1" d="m1611.19,168.29c0-2.5,1.6-4.08,3.73-4.11,2.14-.03,3.93,1.5,3.9,3.51-.04,2.85-1.51,5.06-3.43,7.02-.33.34-.58.22-.85-.06-1.84-1.91-3.2-4.06-3.36-6.37Z"/>
    </g>
    <path class="cls-1" d="m1472.09,270c-3.03-.56-6.11-.82-9.07-1.75-15.5-4.9-25.91-14.74-29.34-30.95-1.74-8.21.01-16.11,4.09-23.37,4.67-8.3,9.37-16.57,13.09-25.35,3.36-7.93,6.15-16.05,8.43-24.35,1.61-5.89,5.27-9.9,11.01-11.96.83-.3.99-.69.94-1.46-.25-3.64-1.28-6.86-4.64-8.84-.58-.34-.52-.66-.24-1.15,1.12-1.92,2.23-3.85,3.29-5.8.36-.66.69-.62,1.24-.27,1.34.87,2.63,1.81,3.74,2.97.33.34.58.63.98.03,4.77-7.17,12.04-10.5,19.93-12.79,5.63-1.63,11.41-2.52,17.19-3.42.97-.15.96.17.75.9-1.98,7.02-3.9,14.06-7.19,20.63-3.17,6.32-7.35,11.7-13.99,14.75-.87.4-1.78.74-2.68,1.11,2.66,4.78,3.47,10.15,5.17,15.21,4.42,13.1,10.15,25.58,17.29,37.42,2.85,4.73,4.91,9.74,5.6,15.26,1.33,10.6-1.71,19.91-8.51,28-7.57,8.99-17.42,13.71-29.02,14.94-.38.04-.78,0-1.11.26h-6.97Zm2.71-8.29c9.79-.11,17.81-2.91,24.57-8.89,6.2-5.49,9.96-12.25,10.25-20.7.2-5.85-1.59-11.12-4.57-16.08-9.36-15.58-16.51-32.11-21.3-49.65-1.15-4.22-4.22-6.61-8.26-6.58-4.01.04-6.91,2.37-8.08,6.6-3.3,11.9-7.56,23.43-13.01,34.52-2.9,5.91-6.35,11.5-9.45,17.3-5.62,10.52-4.46,21.54,3.17,30.7,7.13,8.56,16.44,12.55,26.69,12.77Zm27.08-129.73c-5.2,1.2-9.99,2.58-14.23,5.43-4.54,3.06-6.97,7.38-7.69,12.73-.1.72-.39,1.52.96,1.52,5.36,0,9.94-1.75,13.57-5.77,3.54-3.92,5.51-8.68,7.38-13.91Z"/>
    <path class="cls-1" d="m1550.5,355.5c-89.33,0-162-72.67-162-162s72.67-162,162-162,162,72.67,162,162-72.67,162-162,162Zm0-313c-83.26,0-151,67.74-151,151s67.74,151,151,151,151-67.74,151-151-67.74-151-151-151Z"/>
    <path class="cls-1" d="m1612.5,337.33l-66.97-141.48c-.35-.74-.53-1.54-.53-2.35V37h11v155.26l66.44,140.36-9.94,4.71Z"/>
  </g>
</svg>