<?xml version="1.0" encoding="UTF-8"?>
<svg id="Layer_2" data-name="Layer 2" xmlns="http://www.w3.org/2000/svg" viewBox="0 0 1924 924">
  <defs>
    <style>
      .cls-1, .cls-2 {
        fill: #fff;
      }

      .cls-2 {
        font-family: Poppins-Regular, Poppins;
        font-size: 72px;
      }

      .cls-3 {
        fill: none;
        stroke: #fff;
        stroke-linejoin: round;
        stroke-width: 11px;
      }
    </style>
  </defs>
  <g id="Export_Q" data-name="Export Q">
    <rect width="1924" height="924"/>
    <text class="cls-2" transform="translate(103.76 174.68)"><tspan x="0" y="0">According to the chart, there is a</tspan><tspan x="0" y="86.4">larger amount of which fruit?</tspan></text>
    <g>
      <path class="cls-1" d="m1625.76,108c.13.09.25.22.39.27,6.6,2.37,10.1,7.31,11.61,13.93.1.45.2.91.31,1.46,2.46-1.16,4.88-2.16,7.48-2.69,4.65-.96,9.22-.44,13.78.61.7.16.79.63.88,1.21,1.14,7.47-.73,13.99-6.05,19.45-.2.21-.37.44-.57.68.47.44,1.06.44,1.57.59,10.04,3.01,16.56,11,17.62,21.37,1.04,10.1-1.28,19.52-5.55,28.55-6.22,13.14-15.41,23.99-26.18,33.6-1.65,1.48-4.23,3.36-6.86,5.16-5.72,3.93-13.33,3.76-18.81-.5-11.74-9.14-21.69-20.03-29.31-33.15-4.51-7.76-7.62-16.04-8.45-25.06-.43-4.69-.28-9.36,1.12-13.91,2.56-8.32,8.2-13.5,16.41-16.06.52-.16,1.04-.3,1.55-.45,0-.5-.33-.68-.55-.91-5.29-5.51-6.99-12.09-5.86-19.53.11-.74.49-.95,1.14-1.11,7.01-1.73,13.83-1.51,20.36,1.85.18.09.38.14.63.24.44-2.05.91-4.03,1.76-5.9,2.02-4.43,5.22-7.6,9.82-9.3.25-.09.62-.04.74-.4.34,0,.68,0,1.02,0Zm-40.92,61.03c-.04,5.82,1.14,11.21,3.26,16.36,6.03,14.66,15.37,27.25,26.99,37.57,5.32,4.72,13.35,4.68,18.5-.23,8.59-8.18,21.01-21.08,25.98-30.63,4.06-7.8,6.57-16.05,6.02-24.99-.36-5.69-2.22-10.74-7.19-13.98-5.19-3.38-11-4.68-17.07-3.31-9.81,2.22-19.59,2.96-29.44.54-3.9-.96-7.76-1.3-11.73-.5-7.35,1.48-12.67,5.19-14.62,12.8-.55,2.16-.71,4.36-.69,6.38Zm40.34-24.45c4.07.03,8.04-.67,12-1.49,2.73-.56,5.55-.84,7.9-2.64,1.53-1.17,3-2.38,4.24-3.86,1.88-2.25,3.27-4.75,3.82-7.68.17-.9-.12-1.11-.94-1.11-1.58,0-3.15.07-4.7.4-3.88.82-7.57,2.04-10.3,5.15-.44.5-.73.22-1.05-.04-1.5-1.24-3.18-2.12-5.07-2.57-.71-.17-.64-.52-.53-1.11.81-4.28.08-8.3-2.72-11.65-2.36-2.83-2.8-2.84-5.17,0-2.8,3.36-3.53,7.37-2.74,11.65.11.57.21.95-.51,1.13-1.93.47-3.65,1.37-5.17,2.64-.4.34-.65.29-1.04-.11-4.17-4.25-9.47-5.4-15.16-5.45-.67,0-.82.24-.74.93.66,5.67,6.66,12.41,12.24,13.59,5.16,1.1,10.31,2.27,15.62,2.23Z"/>
      <path class="cls-1" d="m1618.84,208.16c-.23,2.45-1.58,4.61-3.44,6.51-.32.33-.56.25-.84-.05-1.82-1.93-3.28-4.04-3.36-6.8-.06-2.12,1.67-3.75,3.84-3.73,2.17.02,3.85,1.7,3.8,4.07Z"/>
      <path class="cls-1" d="m1641.08,208.16c-.19,2.44-1.58,4.62-3.46,6.56-.27.28-.5.24-.75-.03-1.86-1.95-3.35-4.1-3.43-6.91-.06-2.05,1.64-3.65,3.77-3.68,2.17-.03,3.88,1.61,3.88,4.06Z"/>
      <path class="cls-1" d="m1599,167.39c-.18,2.28-1.55,4.37-3.34,6.26-.36.38-.62.29-.94-.04-1.71-1.79-3-3.79-3.31-6.31-.27-2.23,1.36-4.07,3.64-4.14,2.33-.07,4.03,1.56,3.96,4.23Z"/>
      <path class="cls-1" d="m1637.24,164.17c2.35,0,4.05,1.77,3.81,4.1-.26,2.57-1.61,4.6-3.37,6.41-.38.39-.64.24-.95-.08-1.66-1.71-2.91-3.66-3.27-6.06-.36-2.44,1.33-4.36,3.77-4.37Z"/>
      <path class="cls-1" d="m1657.1,165.2c2.35.02,3.99,1.83,3.74,4.16-.27,2.54-1.61,4.51-3.3,6.31-.32.34-.58.41-.93.03-1.72-1.83-3.11-3.83-3.33-6.43-.2-2.33,1.47-4.1,3.83-4.08Z"/>
      <path class="cls-1" d="m1629.34,187.75c-.21,2.33-1.57,4.48-3.43,6.37-.34.35-.58.19-.85-.08-1.79-1.84-3.15-3.92-3.35-6.54-.17-2.19,1.51-3.89,3.75-3.92,2.27-.03,3.93,1.58,3.88,4.17Z"/>
      <path class="cls-1" d="m1645.27,184.6c2.47-.02,4.14,1.87,3.82,4.31-.32,2.43-1.6,4.34-3.22,6.08-.34.36-.62.51-1.04.07-1.71-1.84-3.11-3.84-3.3-6.43-.17-2.3,1.44-4.01,3.74-4.03Z"/>
      <path class="cls-1" d="m1609.68,188.78c-.19,2.31-1.55,4.45-3.41,6.36-.32.33-.57.24-.85-.05-1.8-1.83-3.14-3.91-3.38-6.54-.19-2.17,1.5-3.9,3.73-3.95,2.26-.04,3.94,1.57,3.91,4.18Z"/>
      <path class="cls-1" d="m1611.19,168.29c0-2.5,1.6-4.08,3.73-4.11,2.14-.03,3.93,1.5,3.9,3.51-.04,2.85-1.51,5.06-3.43,7.02-.33.34-.58.22-.85-.06-1.84-1.91-3.2-4.06-3.36-6.37Z"/>
    </g>
    <path class="cls-1" d="m1472.09,270c-3.03-.56-6.11-.82-9.07-1.75-15.5-4.9-25.91-14.74-29.34-30.95-1.74-8.21.01-16.11,4.09-23.37,4.67-8.3,9.37-16.57,13.09-25.35,3.36-7.93,6.15-16.05,8.43-24.35,1.61-5.89,5.27-9.9,11.01-11.96.83-.3.99-.69.94-1.46-.25-3.64-1.28-6.86-4.64-8.84-.58-.34-.52-.66-.24-1.15,1.12-1.92,2.23-3.85,3.29-5.8.36-.66.69-.62,1.24-.27,1.34.87,2.63,1.81,3.74,2.97.33.34.58.63.98.03,4.77-7.17,12.04-10.5,19.93-12.79,5.63-1.63,11.41-2.52,17.19-3.42.97-.15.96.17.75.9-1.98,7.02-3.9,14.06-7.19,20.63-3.17,6.32-7.35,11.7-13.99,14.75-.87.4-1.78.74-2.68,1.11,2.66,4.78,3.47,10.15,5.17,15.21,4.42,13.1,10.15,25.58,17.29,37.42,2.85,4.73,4.91,9.74,5.6,15.26,1.33,10.6-1.71,19.91-8.51,28-7.57,8.99-17.42,13.71-29.02,14.94-.38.04-.78,0-1.11.26h-6.97Zm2.71-8.29c9.79-.11,17.81-2.91,24.57-8.89,6.2-5.49,9.96-12.25,10.25-20.7.2-5.85-1.59-11.12-4.57-16.08-9.36-15.58-16.51-32.11-21.3-49.65-1.15-4.22-4.22-6.61-8.26-6.58-4.01.04-6.91,2.37-8.08,6.6-3.3,11.9-7.56,23.43-13.01,34.52-2.9,5.91-6.35,11.5-9.45,17.3-5.62,10.52-4.46,21.54,3.17,30.7,7.13,8.56,16.44,12.55,26.69,12.77Zm27.08-129.73c-5.2,1.2-9.99,2.58-14.23,5.43-4.54,3.06-6.97,7.38-7.69,12.73-.1.72-.39,1.52.96,1.52,5.36,0,9.94-1.75,13.57-5.77,3.54-3.92,5.51-8.68,7.38-13.91Z"/>
    <circle class="cls-3" cx="1550.5" cy="193.5" r="156.5"/>
    <polyline class="cls-3" points="1550.5 37 1550.5 193.5 1617.47 334.98"/>
  </g>
</svg>