<?xml version="1.0" encoding="UTF-8"?>
<svg id="Layer_2" data-name="Layer 2" xmlns="http://www.w3.org/2000/svg" viewBox="0 0 157.48 157.38">
  <defs>
    <style>
      .cls-1 {
        fill: #fff;
      }
    </style>
  </defs>
  <g id="Options">
    <path class="cls-1" d="m0,86.05c.39-2.15.7-4.33,1.2-6.46,3.91-16.66,17.58-29.24,34.47-31.7,1.21-.18,1.51-.51,1.39-1.81C35.03,22.73,50.94,4.13,71.41.63c22.83-3.9,43.71,10.52,48.33,33.13.84,4.09,1.09,8.23.53,12.38-.16,1.2.21,1.56,1.35,1.73,18.44,2.73,32.7,16.68,35.4,35.07,3.54,24.16-13.22,43.86-34.04,47.42-7.22,1.23-14.28.69-21.18-1.77-.29-.1-.58-.19-.88-.28-.04-.01-.09.02-.27.08,1.72,3.26,3.64,6.36,5.56,9.47.57.91,1.14,1.83,1.74,2.71,4.39,6.42.48,15.3-6.41,16.56-.14.02-.25.15-.38.23h-44.89c-.08-.06-.15-.17-.24-.18-7.08-1.2-11.08-10.35-6.35-16.98,2.4-3.37,4.45-6.99,6.47-10.61.18-.31.57-.61.3-1.15-.39.11-.77.22-1.14.34-23.18,7.71-47.67-5.5-53.91-29.07-.66-2.48-.86-5.03-1.39-7.52,0-2.05,0-4.1,0-6.15Zm78.64,61.49c2.15,0,4.3,0,6.45,0,4.51,0,9.02.01,13.52,0,1.35,0,1.64-.54.99-1.71-.15-.27-.32-.52-.49-.78-4.39-6.8-8.39-13.82-12-21.06-1.48-2.97-2.88-5.99-4.25-9.02-.86-1.9-.58-3.73.8-5.3,1.34-1.51,3.07-1.96,5.03-1.46,1.3.34,2.16,1.3,3.04,2.24,5.75,6.16,12.78,9.95,21.2,10.59,20.23,1.53,36.47-15.58,34.08-35.72-1.77-14.98-14.02-26.74-29-27.95-3.09-.25-6.14.1-9.21.14-1.09.01-1.49-.12-1.07-1.32.61-1.73,1.06-3.52,1.6-5.29,1.44-4.69,1.77-9.46.92-14.28-3.2-18.08-19.68-29.58-37.74-26.19-15.71,2.95-27.73,17.73-25.56,35.69.42,3.52,1.72,6.84,2.65,10.24.25.91.12,1.19-.84,1.13-1.74-.12-3.48-.13-5.22-.23-19.75-1.11-35.88,16.08-33.49,35.7,3,24.53,31.16,36.57,50.96,21.79,2.02-1.51,3.76-3.3,5.46-5.16,1.3-1.43,2.97-1.96,4.88-1.43,1.91.52,3.05,1.8,3.53,3.68.36,1.43-.15,2.71-.72,3.99-4.62,10.23-9.97,20.06-16.06,29.5-.34.54-.94,1.06-.53,1.8.38.69,1.1.41,1.68.41,6.45.02,12.91.01,19.36.01Z"/>
  </g>
</svg>