<?xml version="1.0" encoding="UTF-8"?>
<svg id="Layer_2" data-name="Layer 2" xmlns="http://www.w3.org/2000/svg" viewBox="0 0 159.97 148.62">
  <defs>
    <style>
      .cls-1 {
        fill: #fff;
      }
    </style>
  </defs>
  <g id="Options">
    <path class="cls-1" d="m6.56,148.6c-5.6,0-8.17-4.28-5.51-9.2C25.55,94.18,50.05,48.97,74.55,3.75c1.83-3.37,4.82-4.57,7.82-3.19,1.56.72,2.41,2.05,3.18,3.48,8.32,15.37,57.07,105.4,73.14,135.03.75,1.38,1.42,2.75,1.25,4.38-.3,2.83-2.59,5.01-5.51,5.12-1.9.07-3.81.02-5.71.02-22.92,0-117.68,0-142.15,0ZM79.96,17.73C58.28,57.75,36.83,97.35,15.33,137.05h129.26c-21.55-39.78-42.99-79.37-64.63-119.32Z"/>
  </g>
</svg>