<?xml version="1.0" encoding="UTF-8"?>
<svg id="Layer_2" data-name="Layer 2" xmlns="http://www.w3.org/2000/svg" viewBox="0 0 153.51 134.55">
  <defs>
    <style>
      .cls-1 {
        fill: #fff;
      }
    </style>
  </defs>
  <g id="Options">
    <path class="cls-1" d="m153.51,44.9c-.49,2.84-.77,5.72-1.56,8.51-1.97,7.01-5.44,13.16-10.5,18.39-19.16,19.82-38.32,39.65-57.49,59.46-4.23,4.37-10.08,4.41-14.31.04-19.25-19.87-38.57-39.68-57.69-59.68C-6.32,52.51-3.23,21.18,18.42,6.78,31.24-1.75,44.87-1.69,58.64,4.6c4.87,2.22,9.04,5.47,12.74,9.32,1.24,1.3,2.5,2.59,3.75,3.88,1.66,1.71,1.65,1.7,3.27.05,2.86-2.92,5.53-6.07,8.86-8.49C100.02.11,113.98-3.03,128.73,3.35c13.7,5.92,21.45,17.09,24.18,31.73.24,1.27.13,2.59.59,3.82v5.99ZM41.25,14.6c-6.03-.03-10.27,1.1-14.1,3.58-16.3,10.55-15.86,31.78-5.24,42.98,17.85,18.8,36,37.31,54,55.97.7.72,1.07.7,1.75,0,17.93-18.58,35.93-37.1,53.81-55.73,8-8.34,10.04-21.6,4.88-31.92-4.44-8.88-11.43-14.47-21.71-14.81-8.52-.28-15.81,2.93-21.79,8.96-5.07,5.1-10.04,10.3-14.99,15.52-.9.95-1.33.83-2.17-.04-5.1-5.35-10.19-10.72-15.44-15.92-5.63-5.59-12.54-8.35-19-8.57Z"/>
  </g>
</svg>