<?xml version="1.0" encoding="UTF-8"?>
<svg id="Layer_2" data-name="Layer 2" xmlns="http://www.w3.org/2000/svg" viewBox="0 0 1924 924">
  <defs>
    <style>
      .cls-1, .cls-2 {
        fill: #fff;
      }

      .cls-3 {
        fill: none;
        stroke: #fff;
        stroke-linejoin: round;
        stroke-width: 10px;
      }

      .cls-2 {
        font-family: Poppins-Regular, Poppins;
        font-size: 72px;
      }
    </style>
  </defs>
  <g id="Export_Q" data-name="Export Q">
    <rect width="1924" height="924"/>
    <text class="cls-2" transform="translate(99.76 174.68)"><tspan x="0" y="0">Which shape comes next?</tspan></text>
    <line class="cls-3" x1="1753.97" y1="195" x2="1874" y2="195"/>
    <path class="cls-1" d="m1456,125.01c-.36,2.07-.56,4.16-1.13,6.19-1.43,5.1-3.96,9.58-7.65,13.39-13.94,14.43-27.89,28.85-41.84,43.27-3.08,3.18-7.34,3.21-10.42.03-14.01-14.46-28.07-28.88-41.99-43.43-13.3-13.91-11.05-36.71,4.71-47.19,9.33-6.21,19.25-6.16,29.27-1.58,3.54,1.62,6.58,3.98,9.27,6.79.91.94,1.82,1.88,2.73,2.82,1.21,1.25,1.2,1.24,2.38.04,2.08-2.13,4.02-4.42,6.45-6.18,9.29-6.73,19.45-9.02,30.19-4.38,9.97,4.31,15.61,12.44,17.6,23.1.17.93.1,1.89.43,2.78v4.36Zm-81.7-22.05c-4.39-.02-7.48.8-10.27,2.6-11.86,7.68-11.55,23.13-3.81,31.28,12.99,13.68,26.2,27.16,39.3,40.73.51.53.78.51,1.27,0,13.05-13.52,26.15-27,39.16-40.56,5.82-6.07,7.31-15.72,3.56-23.23-3.23-6.46-8.32-10.53-15.8-10.78-6.2-.2-11.5,2.13-15.86,6.52-3.69,3.71-7.31,7.5-10.91,11.29-.66.69-.97.61-1.58-.03-3.71-3.89-7.42-7.8-11.23-11.59-4.1-4.07-9.13-6.08-13.83-6.24Z"/>
    <path class="cls-1" d="m1205.98,146.65c.29-1.57.51-3.15.87-4.7,2.84-12.13,12.8-21.28,25.09-23.07.88-.13,1.1-.37,1.02-1.32-1.48-17,10.1-30.54,25-33.08,16.61-2.84,31.81,7.66,35.17,24.11.61,2.98.79,5.99.39,9.01-.12.87.15,1.14.98,1.26,13.42,1.99,23.8,12.14,25.76,25.52,2.58,17.59-9.62,31.92-24.78,34.52-5.25.9-10.39.5-15.41-1.29-.21-.07-.42-.14-.64-.2-.03,0-.07.02-.2.06,1.25,2.37,2.65,4.63,4.05,6.89.41.67.83,1.33,1.27,1.97,3.2,4.68.35,11.14-4.67,12.05-.1.02-.18.11-.28.17h-32.67c-.06-.05-.11-.12-.17-.13-5.15-.87-8.06-7.53-4.62-12.36,1.75-2.45,3.24-5.09,4.71-7.72.13-.23.41-.44.22-.84-.28.08-.56.16-.83.25-16.87,5.61-34.69-4-39.24-21.16-.48-1.8-.63-3.66-1.01-5.47,0-1.49,0-2.98,0-4.48Zm57.23,44.75c1.57,0,3.13,0,4.7,0,3.28,0,6.56,0,9.84,0,.98,0,1.19-.39.72-1.24-.11-.2-.24-.38-.36-.57-3.19-4.95-6.11-10.06-8.73-15.33-1.08-2.17-2.1-4.36-3.1-6.56-.63-1.38-.42-2.72.58-3.85.98-1.1,2.24-1.43,3.66-1.06.95.25,1.57.94,2.21,1.63,4.18,4.48,9.3,7.24,15.43,7.7,14.72,1.11,26.54-11.34,24.8-25.99-1.29-10.9-10.21-19.46-21.1-20.35-2.25-.18-4.47.07-6.7.1-.79.01-1.09-.09-.78-.96.45-1.26.77-2.57,1.16-3.85,1.04-3.41,1.29-6.89.67-10.39-2.33-13.16-14.33-21.53-27.46-19.06-11.43,2.15-20.18,12.9-18.6,25.97.31,2.56,1.25,4.98,1.93,7.45.18.67.09.87-.61.82-1.26-.08-2.53-.1-3.8-.17-14.38-.81-26.12,11.7-24.37,25.98,2.18,17.85,22.68,26.62,37.09,15.86,1.47-1.1,2.74-2.4,3.97-3.76.95-1.04,2.16-1.43,3.55-1.04,1.39.38,2.22,1.31,2.57,2.68.26,1.04-.11,1.97-.53,2.9-3.36,7.45-7.26,14.6-11.69,21.47-.25.39-.68.77-.38,1.31.28.5.8.3,1.22.3,4.7.01,9.4,0,14.09,0Z"/>
    <path class="cls-1" d="m1616.38,146.65c.29-1.57.51-3.15.87-4.7,2.84-12.13,12.8-21.28,25.09-23.07.88-.13,1.1-.37,1.02-1.32-1.48-17,10.1-30.54,25-33.08,16.61-2.84,31.81,7.66,35.17,24.11.61,2.98.79,5.99.39,9.01-.12.87.15,1.14.98,1.26,13.42,1.99,23.8,12.14,25.76,25.52,2.58,17.59-9.62,31.92-24.78,34.52-5.25.9-10.39.5-15.41-1.29-.21-.07-.42-.14-.64-.2-.03,0-.07.02-.2.06,1.25,2.37,2.65,4.63,4.05,6.89.41.67.83,1.33,1.27,1.97,3.2,4.68.35,11.14-4.67,12.05-.1.02-.18.11-.28.17h-32.67c-.06-.05-.11-.12-.17-.13-5.15-.87-8.06-7.53-4.62-12.36,1.75-2.45,3.24-5.09,4.71-7.72.13-.23.41-.44.22-.84-.28.08-.56.16-.83.25-16.87,5.61-34.69-4-39.24-21.16-.48-1.8-.63-3.66-1.01-5.47,0-1.49,0-2.98,0-4.48Zm57.23,44.75c1.57,0,3.13,0,4.7,0,3.28,0,6.56,0,9.84,0,.98,0,1.19-.39.72-1.24-.11-.2-.24-.38-.36-.57-3.19-4.95-6.11-10.06-8.73-15.33-1.08-2.17-2.1-4.36-3.1-6.56-.63-1.38-.42-2.72.58-3.85.98-1.1,2.24-1.43,3.66-1.06.95.25,1.57.94,2.21,1.63,4.18,4.48,9.3,7.24,15.43,7.7,14.72,1.11,26.54-11.34,24.8-25.99-1.29-10.9-10.21-19.46-21.1-20.35-2.25-.18-4.47.07-6.7.1-.79.01-1.09-.09-.78-.96.45-1.26.77-2.57,1.16-3.85,1.04-3.41,1.29-6.89.67-10.39-2.33-13.16-14.33-21.53-27.46-19.06-11.43,2.15-20.18,12.9-18.6,25.97.31,2.56,1.25,4.98,1.93,7.45.18.67.09.87-.61.82-1.26-.08-2.53-.1-3.8-.17-14.38-.81-26.12,11.7-24.37,25.98,2.18,17.85,22.68,26.62,37.09,15.86,1.47-1.1,2.74-2.4,3.97-3.76.95-1.04,2.16-1.43,3.55-1.04,1.39.38,2.22,1.31,2.57,2.68.26,1.04-.11,1.97-.53,2.9-3.36,7.45-7.26,14.6-11.69,21.47-.25.39-.68.77-.38,1.31.28.5.8.3,1.22.3,4.7.01,9.4,0,14.09,0Z"/>
    <rect class="cls-3" x="1079" y="93.82" width="94.95" height="94.95"/>
    <rect class="cls-3" x="1484.63" y="93.82" width="94.95" height="94.95"/>
  </g>
</svg>