<?xml version="1.0" encoding="UTF-8"?>
<svg id="Layer_2" data-name="Layer 2" xmlns="http://www.w3.org/2000/svg" viewBox="0 0 178.82 185.55">
  <defs>
    <style>
      .cls-1 {
        fill: #fff;
      }
    </style>
  </defs>
  <g id="Options">
    <g>
      <path class="cls-1" d="m19.2.04c-5.8,0-11.59.05-17.39-.04C.32-.02-.03.45.01,1.86c.1,3.17.12,6.35,0,9.52-.06,1.56.39,1.95,1.94,1.94,10.21-.07,20.42-.06,30.63-.03,21.73.05,39.92,13.94,45.45,34.71,1.02,3.82,1.51,7.7,1.51,11.66,0,6.21.04,12.42-.02,18.63-.02,2.08.48,3.9,1.56,5.67,4.62,7.6,9.17,15.24,13.74,22.86q1.29,2.16-1,2.92c-2.87.96-5.75,1.92-8.62,2.88-4.22,1.42-5.58,3.37-5.67,7.77-.1,5.17.49,10.36-.34,15.49-1.55,9.51-9.66,16.41-19.42,16.49-10.69.09-21.39.02-32.08.02-5.2,0-7.75,2.54-7.75,7.73,0,7.87.04,15.73-.04,23.6-.01,1.45.37,1.88,1.83,1.83,3.17-.11,6.35-.11,9.52,0,1.5.05,2.01-.3,1.97-1.91-.11-5.31.04-10.63-.09-15.94-.04-1.8.54-2.12,2.2-2.1,7.93.09,15.87.06,23.8.04,19.11-.05,33.62-14.59,33.66-33.71,0-2.07.1-4.15-.03-6.21-.09-1.38.49-1.91,1.71-2.29,4.27-1.34,8.5-2.8,12.76-4.19,5.23-1.71,6.88-6,4.05-10.74-5.73-9.58-11.47-19.16-17.25-28.71-.85-1.4-1.25-2.78-1.27-4.45-.06-7.17.39-14.35-.29-21.51C89.99,27.88,70.54,6.39,44.99,1.22,37.33-.33,29.6.14,21.89.04c-.9-.01-1.79,0-2.69,0Z"/>
      <path class="cls-1" d="m149.94,61.27c-.58-.04-.75.5-1.02.85-2.08,2.75-4.09,5.55-6.25,8.24-.87,1.08-.51,1.54.41,2.27,8.39,6.66,14.53,15,18.46,24.97,9.41,23.88,2.22,51.55-17.72,67.69-1.6,1.29-1.99,2.12-.52,3.79,1.95,2.22,3.71,4.63,5.34,7.1,1,1.52,1.72.98,2.72.16,12.41-10.11,21.21-22.72,24.95-38.3,7.22-30.02-1.26-55.19-24.51-75.44-.47-.41-.98-.77-1.47-1.14-.11-.08-.24-.12-.4-.2Z"/>
      <path class="cls-1" d="m145.82,119.16c-.3-12.93-4.93-24-14.09-33.17-1.11-1.11-1.71-1.09-2.7.11-2.06,2.49-4.25,4.89-6.47,7.25-.83.88-.91,1.36.01,2.31,13.34,13.72,13.33,33.53-.03,47.24-.97.99-.74,1.47.04,2.3,2.21,2.37,4.4,4.76,6.46,7.26,1.02,1.24,1.62,1.16,2.7.07,9.21-9.24,13.83-20.37,14.07-33.38Z"/>
      <path class="cls-1" d="m53.05,79.53c3.86,0,7.72-.04,11.58.02,1.17.02,1.73-.17,1.69-1.55-.1-3.44-.07-6.89-.01-10.34.02-1.08-.31-1.41-1.4-1.41-7.92.04-15.85.03-23.78,0-.91,0-1.38.16-1.36,1.23.06,3.58.07,7.17,0,10.75-.02,1.21.55,1.3,1.5,1.3,3.93-.03,7.86-.01,11.78-.01Z"/>
    </g>
  </g>
</svg>