<?xml version="1.0" encoding="UTF-8"?>
<svg id="Layer_2" data-name="Layer 2" xmlns="http://www.w3.org/2000/svg" viewBox="0 0 203.09 185.99">
  <defs>
    <style>
      .cls-1 {
        fill: #fff;
      }
    </style>
  </defs>
  <g id="Options">
    <g>
      <path class="cls-1" d="m0,80.91c.36-1.6.67-3.22,1.09-4.81,3.86-14.8,16.81-25.17,32.08-25.37,13.21-.18,26.43-.05,39.65-.06,42.56,0,85.12.01,127.67-.05,2.02,0,2.64.45,2.6,2.56-.14,7.99.03,15.99-.09,23.99-.58,39.63-28.87,73.76-67.7,81.76-35.01,7.21-71.25-8.61-89.58-39.16-.67-1.11-1.36-1.51-2.65-1.52-5.6-.09-11.23.48-16.78-.8-13.53-3.13-23.91-14.32-25.93-28.08-.07-.45-.24-.88-.37-1.32,0-2.38,0-4.76,0-7.14Zm118.51-13.38c-15.33,0-30.66,0-45.99,0-6.67,0-13.35,0-20.02,0-.96,0-1.78-.12-1.77,1.35.04,6.01-.1,12.03.89,17.99,4.69,28.16,26.31,50.23,54.5,55.66,32.21,6.2,64.82-12.56,75.98-43.59,3.39-9.43,4.21-19.14,4.03-29.05-.03-1.91-.5-2.4-2.41-2.39-21.74.07-43.48.04-65.21.04Zm-84.7,7.78c0-1.73-.05-3.98.02-6.22.04-1.23-.34-1.56-1.59-1.44-11.42,1.06-18.65,13.33-13.79,23.74,3.49,7.45,9.75,10.3,17.74,10.1,1.67-.04,1.81-.45,1.35-1.91-2.43-7.73-3.6-15.66-3.73-24.27Z"/>
      <path class="cls-1" d="m40.45,185.99c-5.35-2.16-6.64-4.11-6.64-10.07,0-1.72.09-3.44-.03-5.15-.09-1.44.49-1.91,1.83-1.74.26.03.53,0,.79,0,54.69,0,109.38,0,164.07,0,2.95,0,2.52-.29,2.55,2.51.02,1.39-.08,2.78.02,4.16.35,4.98-1.4,8.61-6.36,10.28H40.45Z"/>
      <path class="cls-1" d="m94.64,42.06c-1.22-.02-2.7-.39-3.45-1.95-.76-1.58-.38-3.06.68-4.43,2.64-3.42,2.55-6.62-.27-10.06-1.01-1.22-2.15-2.34-3.1-3.61-4.71-6.32-4.61-14.51.14-20.16,1.13-1.34,2.5-1.86,4.17-1.83,1.4.02,2.43.77,3,1.94.56,1.14.31,2.29-.52,3.33-.66.82-1.32,1.67-1.8,2.59-1.93,3.74-1.04,7.13,2.42,9.48,7.86,5.34,9.35,15.42,3.4,22.68-1.15,1.41-2.56,1.99-4.68,2.02Z"/>
      <path class="cls-1" d="m119.99,42.06c-1.17-.01-2.65-.38-3.41-1.94-.76-1.57-.39-3.06.67-4.43,2.64-3.43,2.56-6.62-.26-10.06-1-1.23-2.15-2.34-3.1-3.61-4.71-6.31-4.61-14.5.13-20.17,1.13-1.34,2.5-1.87,4.17-1.84,1.4.02,2.43.76,3.01,1.93.56,1.14.36,2.33-.52,3.32-.75.85-1.41,1.75-1.9,2.77-1.77,3.7-.87,7.01,2.52,9.32,7.87,5.35,9.36,15.41,3.42,22.68-1.15,1.41-2.56,2-4.72,2.03Z"/>
      <path class="cls-1" d="m145.73,42.06c-1.6-.03-3.06-.41-3.8-1.99-.71-1.51-.38-2.95.6-4.27,2.74-3.68,2.64-6.86-.33-10.37-.98-1.16-2.07-2.24-2.97-3.45-4.77-6.43-4.55-14.99.48-20.45,1.51-1.63,4.11-2.02,5.73-.85,1.6,1.15,1.87,2.88.71,4.49-.62.85-1.33,1.66-1.82,2.58-2.03,3.79-1.15,7.23,2.39,9.64,7.78,5.29,9.28,15.26,3.46,22.54-1.18,1.48-2.62,2.14-4.45,2.14Z"/>
    </g>
  </g>
</svg>