<?xml version="1.0" encoding="UTF-8"?>
<svg id="Layer_2" data-name="Layer 2" xmlns="http://www.w3.org/2000/svg" viewBox="0 0 105.39 180.9">
  <defs>
    <style>
      .cls-1 {
        fill: #fff;
      }
    </style>
  </defs>
  <g id="Options">
    <g>
      <path class="cls-1" d="m59.75,0c3.03.35,6.06.65,9.08,1.07,3.55.5,7.06,1.24,10.34,2.77,3.06,1.42,3.69,2.55,3.13,5.83-1.45,8.57-2.9,17.14-4.46,25.7-.31,1.72-.15,2.61,1.77,3.06,3.03.7,5.93,1.87,8.8,3.07,2.38,1,3.38,2.95,2.6,5.02-.78,2.06-2.87,2.86-5.27,2.01-.43-.15-.86-.3-1.52-.54.9,2.82,1.71,5.42,2.06,8.15.84,6.43-.22,12.54-3.05,18.33-.54,1.1-.48,1.49.68,2.03,4.93,2.31,7.37,7.44,6.03,12.74-.28,1.11,0,1.71.71,2.46,27.06,28.47,15.24,75.13-22.28,86.74-31.51,9.75-62.37-10.52-67.55-41.3-2.93-17.42,1.96-32.67,14.04-45.58.63-.67.84-1.21.61-2.16-1.37-5.51,1.03-10.53,6.15-13.02.67-.32,1.28-.41.75-1.45-4.36-8.68-4.67-17.57-1.24-26.71-.8-.17-1.37.32-2,.5-2.06.59-4.07-.33-4.77-2.21-.71-1.91.13-3.96,2.13-4.8,2.97-1.26,6.01-2.36,9.11-3.27,2.34-.68,2.31-.68,1.9-3.07-1.51-8.74-3.02-17.48-4.48-26.23-.44-2.61.17-3.75,2.57-4.97,4.32-2.2,9.04-2.84,13.76-3.5,2.09-.29,4.23-.12,6.29-.68,4.71,0,9.41,0,14.12,0Zm23.03,107.43c0,2.76.01,5.53,0,8.29-.02,4.15-2.74,6.02-6.22,3.82-3.55-2.23-6.53-2.22-10.08,0-3.49,2.19-6.27.32-6.28-3.81-.02-5.35-.05-10.71.03-16.06.02-1.44-.35-1.89-1.85-1.88-10.29.07-20.59.03-30.88.04-1.84,0-3.71.02-5.34-.88-1.27-.7-1.93-.28-2.77.66-9.36,10.56-13.51,22.9-11.35,36.82,2.77,17.83,12.9,30.34,29.98,36.17,17.04,5.81,32.74,2.33,45.92-10.04,17.92-16.81,18.62-45.33,1.89-63.05-.45-.48-.71-1.36-1.82-.91-1.09.45-1.28,1.13-1.26,2.17.06,2.88.02,5.76.02,8.65Zm-30.26-32.17c6.64,0,13.28-.03,19.92.03,1.21.01,1.9-.4,2.55-1.39,5.5-8.41,5.35-19.81-.38-28.08-.64-.93-1.41-1.44-2.5-1.73-12.88-3.44-25.75-3.48-38.64-.04-1.21.32-2.06.86-2.77,1.91-5.65,8.28-5.77,19.53-.29,27.93.64.99,1.33,1.41,2.54,1.4,6.52-.06,13.04-.03,19.57-.03Zm.27-67.77c-7.16-.21-14.03.49-20.78,2.29-.96.26-1.19.55-1.01,1.55,1.37,7.69,2.7,15.39,3.97,23.1.18,1.12.44,1.49,1.64,1.23,10.72-2.34,21.46-2.34,32.19,0,1.22.27,1.45-.14,1.63-1.25,1.25-7.59,2.53-15.18,3.92-22.75.24-1.33-.07-1.71-1.29-2.01-6.72-1.66-13.53-2.4-20.27-2.16Zm.02,75.35c-3.58,0-7.17,0-10.75,0-5.17,0-10.34-.03-15.51.02-2.62.03-4.27,1.96-3.87,4.33.34,2,1.92,3.14,4.43,3.15,17.04,0,34.08,0,51.11,0,.47,0,.95.02,1.41-.06,1.66-.29,2.97-1.73,3.11-3.38.14-1.67-.77-3.19-2.29-3.79-.79-.31-1.62-.26-2.44-.26-8.4,0-16.8,0-25.2,0Zm22.47,27.82v-9.1q0-3.72-3.77-3.72t-3.73,3.8c0,2.89,0,5.78,0,9.08,2.63-1.99,5-1.8,7.5-.06Z"/>
      <path class="cls-1" d="m56.45,135.49c.01,2.06-1.78,3.82-3.83,3.78-1.99-.04-3.68-1.75-3.69-3.74-.01-2.06,1.77-3.82,3.83-3.78,2,.04,3.68,1.74,3.69,3.74Z"/>
      <path class="cls-1" d="m52.65,120.4c-2.04-.02-3.69-1.65-3.72-3.67-.03-2.06,1.73-3.81,3.8-3.79,2,.02,3.69,1.7,3.72,3.7.03,2.08-1.69,3.78-3.81,3.76Z"/>
      <path class="cls-1" d="m48.91,62.05c0-.59-.04-1.18,0-1.76.18-2.37,1.62-3.79,3.98-3.81,4.87-.04,9.74-.04,14.61,0,2.18.01,3.71,1.34,3.92,3.26.22,2.04-.81,3.59-2.96,4.15-4.93,1.29-9.87,2.53-14.82,3.73-2.36.57-4.35-.87-4.68-3.29-.1-.75-.02-1.52-.02-2.28-.01,0-.03,0-.04,0Z"/>
      <path class="cls-1" d="m41.44,52.64c-2.11.02-3.84-1.69-3.8-3.76.03-2,1.72-3.67,3.73-3.7,2.08-.02,3.83,1.73,3.8,3.79-.03,2.03-1.67,3.65-3.72,3.67Z"/>
      <path class="cls-1" d="m64.06,52.64c-2.12.04-3.85-1.64-3.84-3.72,0-2,1.68-3.69,3.68-3.74,2.07-.05,3.84,1.69,3.84,3.75,0,2.02-1.65,3.67-3.68,3.7Z"/>
    </g>
  </g>
</svg>