<?xml version="1.0" encoding="UTF-8"?>
<svg id="Layer_2" data-name="Layer 2" xmlns="http://www.w3.org/2000/svg" viewBox="0 0 1924 924">
  <defs>
    <style>
      .cls-1 {
        fill: #fff;
      }
    </style>
  </defs>
  <g id="Export_Q" data-name="Export Q">
    <rect width="1924" height="924"/>
    <g>
      <path class="cls-1" d="m176.38,126.49l-14.54,50.18h-7.34l-11.66-40.39-12.1,40.39-7.27.07-14.04-50.26h6.98l10.94,42.55,12.1-42.55h7.34l11.52,42.41,11.02-42.41h7.06Z"/>
      <path class="cls-1" d="m211.23,138.41c2.4,1.27,4.28,3.18,5.65,5.72,1.37,2.54,2.05,5.64,2.05,9.29v23.26h-6.48v-22.32c0-3.94-.98-6.95-2.95-9.04-1.97-2.09-4.66-3.13-8.06-3.13s-6.2,1.08-8.24,3.24c-2.04,2.16-3.06,5.3-3.06,9.43v21.82h-6.55v-53.28h6.55v19.44c1.3-2.02,3.08-3.58,5.36-4.68,2.28-1.1,4.84-1.66,7.67-1.66,2.98,0,5.66.64,8.06,1.91Z"/>
      <path class="cls-1" d="m229.66,146.18c1.63-3.05,3.88-5.41,6.73-7.09,2.86-1.68,6.04-2.52,9.54-2.52s6.46.74,9,2.23c2.54,1.49,4.44,3.36,5.69,5.62v-7.2h6.62v39.46h-6.62v-7.34c-1.3,2.3-3.23,4.21-5.8,5.72-2.57,1.51-5.56,2.27-8.96,2.27s-6.67-.86-9.5-2.59c-2.83-1.73-5.06-4.15-6.7-7.27-1.63-3.12-2.45-6.67-2.45-10.66s.82-7.57,2.45-10.62Zm29.16,2.92c-1.2-2.21-2.82-3.9-4.86-5.08-2.04-1.18-4.28-1.76-6.73-1.76s-4.68.58-6.7,1.73c-2.02,1.15-3.62,2.83-4.82,5.04-1.2,2.21-1.8,4.8-1.8,7.78s.6,5.65,1.8,7.88c1.2,2.23,2.81,3.94,4.82,5.11,2.02,1.18,4.25,1.76,6.7,1.76s4.69-.59,6.73-1.76c2.04-1.18,3.66-2.88,4.86-5.11,1.2-2.23,1.8-4.83,1.8-7.81s-.6-5.57-1.8-7.78Z"/>
      <path class="cls-1" d="m286.32,142.62v23.26c0,1.92.41,3.28,1.22,4.07.82.79,2.23,1.19,4.25,1.19h4.82v5.54h-5.9c-3.65,0-6.38-.84-8.21-2.52-1.82-1.68-2.74-4.44-2.74-8.28v-23.26h-5.11v-5.4h5.11v-9.94h6.55v9.94h10.3v5.4h-10.3Z"/>
      <path class="cls-1" d="m323.98,129.52c-.86-.86-1.3-1.92-1.3-3.17s.43-2.3,1.3-3.17c.86-.86,1.92-1.3,3.17-1.3s2.22.43,3.06,1.3c.84.86,1.26,1.92,1.26,3.17s-.42,2.3-1.26,3.17c-.84.86-1.86,1.3-3.06,1.3s-2.3-.43-3.17-1.3Zm6.34,7.7v39.46h-6.55v-39.46h6.55Z"/>
      <path class="cls-1" d="m347.31,175.78c-2.4-1.03-4.3-2.47-5.69-4.32-1.39-1.85-2.16-3.97-2.3-6.37h6.77c.19,1.97,1.12,3.58,2.77,4.82s3.83,1.87,6.52,1.87c2.5,0,4.46-.55,5.9-1.66s2.16-2.5,2.16-4.18-.77-3.01-2.3-3.85c-1.54-.84-3.91-1.67-7.13-2.48-2.93-.77-5.32-1.55-7.16-2.34-1.85-.79-3.43-1.97-4.75-3.53-1.32-1.56-1.98-3.61-1.98-6.16,0-2.02.6-3.86,1.8-5.54,1.2-1.68,2.9-3.01,5.11-4,2.21-.98,4.73-1.48,7.56-1.48,4.37,0,7.9,1.1,10.58,3.31,2.69,2.21,4.13,5.23,4.32,9.07h-6.55c-.14-2.06-.97-3.72-2.48-4.97-1.51-1.25-3.54-1.87-6.08-1.87-2.35,0-4.22.5-5.62,1.51-1.39,1.01-2.09,2.33-2.09,3.96,0,1.3.42,2.37,1.26,3.2.84.84,1.9,1.51,3.17,2.02,1.27.5,3.04,1.07,5.29,1.69,2.83.77,5.14,1.52,6.91,2.27,1.78.75,3.3,1.86,4.57,3.35,1.27,1.49,1.93,3.43,1.98,5.83,0,2.16-.6,4.1-1.8,5.83-1.2,1.73-2.89,3.09-5.08,4.07-2.18.98-4.69,1.48-7.52,1.48-3.02,0-5.74-.52-8.14-1.55Z"/>
      <path class="cls-1" d="m406.27,142.62v23.26c0,1.92.41,3.28,1.22,4.07.82.79,2.23,1.19,4.25,1.19h4.82v5.54h-5.9c-3.65,0-6.38-.84-8.21-2.52-1.82-1.68-2.74-4.44-2.74-8.28v-23.26h-5.11v-5.4h5.11v-9.94h6.55v9.94h10.3v5.4h-10.3Z"/>
      <path class="cls-1" d="m452.14,138.41c2.4,1.27,4.28,3.18,5.65,5.72,1.37,2.54,2.05,5.64,2.05,9.29v23.26h-6.48v-22.32c0-3.94-.98-6.95-2.95-9.04-1.97-2.09-4.66-3.13-8.06-3.13s-6.2,1.08-8.24,3.24c-2.04,2.16-3.06,5.3-3.06,9.43v21.82h-6.55v-53.28h6.55v19.44c1.3-2.02,3.08-3.58,5.36-4.68,2.28-1.1,4.84-1.66,7.67-1.66,2.98,0,5.66.64,8.06,1.91Z"/>
      <path class="cls-1" d="m506.35,159.4h-31.54c.24,3.89,1.57,6.92,4,9.11,2.42,2.18,5.36,3.28,8.82,3.28,2.83,0,5.2-.66,7.09-1.98,1.9-1.32,3.23-3.08,4-5.29h7.06c-1.06,3.79-3.17,6.88-6.34,9.25s-7.1,3.56-11.81,3.56c-3.74,0-7.09-.84-10.04-2.52-2.95-1.68-5.27-4.07-6.95-7.16-1.68-3.1-2.52-6.68-2.52-10.76s.82-7.66,2.45-10.73c1.63-3.07,3.92-5.44,6.88-7.09,2.95-1.66,6.35-2.48,10.19-2.48s7.06.82,9.94,2.45c2.88,1.63,5.1,3.88,6.66,6.73,1.56,2.86,2.34,6.08,2.34,9.68,0,1.25-.07,2.57-.22,3.96Zm-8.21-11.77c-1.1-1.8-2.6-3.17-4.5-4.1-1.9-.94-4-1.4-6.3-1.4-3.31,0-6.13,1.06-8.46,3.17-2.33,2.11-3.66,5.04-4,8.79h24.91c0-2.5-.55-4.64-1.66-6.44Z"/>
      <path class="cls-1" d="m534.65,129.52c-.86-.86-1.3-1.92-1.3-3.17s.43-2.3,1.3-3.17c.86-.86,1.92-1.3,3.17-1.3s2.22.43,3.06,1.3c.84.86,1.26,1.92,1.26,3.17s-.42,2.3-1.26,3.17c-.84.86-1.86,1.3-3.06,1.3s-2.3-.43-3.17-1.3Zm6.34,7.7v39.46h-6.55v-39.46h6.55Z"/>
      <path class="cls-1" d="m583.03,140.86c2.98,2.91,4.46,7.09,4.46,12.56v23.26h-6.48v-22.32c0-3.94-.98-6.95-2.95-9.04-1.97-2.09-4.66-3.13-8.06-3.13s-6.2,1.08-8.24,3.24c-2.04,2.16-3.06,5.3-3.06,9.43v21.82h-6.55v-39.46h6.55v5.62c1.3-2.02,3.06-3.58,5.29-4.68,2.23-1.1,4.69-1.66,7.38-1.66,4.8,0,8.69,1.45,11.66,4.36Z"/>
      <path class="cls-1" d="m610.57,138.84c2.57-1.51,5.56-2.27,8.96-2.27s6.68.84,9.54,2.52c2.86,1.68,5.1,4.04,6.73,7.09,1.63,3.05,2.45,6.59,2.45,10.62s-.82,7.54-2.45,10.66c-1.63,3.12-3.88,5.54-6.73,7.27-2.86,1.73-6.04,2.59-9.54,2.59s-6.32-.76-8.89-2.27c-2.57-1.51-4.52-3.4-5.87-5.65v25.99h-6.55v-58.18h6.55v7.27c1.3-2.26,3.23-4.14,5.8-5.65Zm19.19,10.19c-1.2-2.21-2.82-3.89-4.86-5.04-2.04-1.15-4.28-1.73-6.73-1.73s-4.62.59-6.66,1.76c-2.04,1.18-3.67,2.88-4.9,5.11-1.22,2.23-1.84,4.81-1.84,7.74s.61,5.58,1.84,7.81c1.22,2.23,2.86,3.94,4.9,5.11,2.04,1.18,4.26,1.76,6.66,1.76s4.69-.59,6.73-1.76c2.04-1.18,3.66-2.88,4.86-5.11,1.2-2.23,1.8-4.86,1.8-7.88s-.6-5.57-1.8-7.78Z"/>
      <path class="cls-1" d="m681.89,137.22v39.46h-6.55v-5.83c-1.25,2.02-2.99,3.59-5.22,4.72-2.23,1.13-4.69,1.69-7.38,1.69-3.07,0-5.83-.64-8.28-1.91-2.45-1.27-4.38-3.18-5.8-5.72-1.42-2.54-2.12-5.64-2.12-9.29v-23.11h6.48v22.25c0,3.89.98,6.88,2.95,8.96,1.97,2.09,4.66,3.13,8.06,3.13s6.26-1.08,8.28-3.24c2.02-2.16,3.02-5.3,3.02-9.43v-21.67h6.55Z"/>
      <path class="cls-1" d="m700.97,142.62v23.26c0,1.92.41,3.28,1.22,4.07.82.79,2.23,1.19,4.25,1.19h4.82v5.54h-5.9c-3.65,0-6.38-.84-8.21-2.52-1.82-1.68-2.74-4.44-2.74-8.28v-23.26h-5.11v-5.4h5.11v-9.94h6.55v9.94h10.3v5.4h-10.3Z"/>
      <path class="cls-1" d="m745.57,174.8c-3-1.68-5.35-4.07-7.06-7.16-1.7-3.1-2.56-6.68-2.56-10.76s.88-7.6,2.63-10.69c1.75-3.1,4.14-5.47,7.16-7.13,3.02-1.66,6.41-2.48,10.15-2.48s7.13.83,10.15,2.48c3.02,1.66,5.41,4.02,7.16,7.09,1.75,3.07,2.63,6.65,2.63,10.73s-.9,7.67-2.7,10.76c-1.8,3.1-4.24,5.48-7.31,7.16-3.07,1.68-6.48,2.52-10.22,2.52s-7.04-.84-10.04-2.52Zm16.67-4.9c2.06-1.1,3.73-2.76,5-4.97,1.27-2.21,1.91-4.9,1.91-8.06s-.62-5.86-1.87-8.06c-1.25-2.21-2.88-3.85-4.9-4.93-2.02-1.08-4.2-1.62-6.55-1.62s-4.6.54-6.59,1.62c-1.99,1.08-3.59,2.72-4.79,4.93-1.2,2.21-1.8,4.9-1.8,8.06s.59,5.93,1.76,8.14c1.18,2.21,2.75,3.85,4.72,4.93,1.97,1.08,4.13,1.62,6.48,1.62s4.56-.55,6.62-1.66Z"/>
      <path class="cls-1" d="m800.54,142.62h-8.28v34.06h-6.55v-34.06h-5.11v-5.4h5.11v-2.81c0-4.42,1.14-7.64,3.42-9.68,2.28-2.04,5.94-3.06,10.98-3.06v5.47c-2.88,0-4.91.57-6.08,1.69-1.18,1.13-1.76,2.99-1.76,5.58v2.81h8.28v5.4Z"/>
      <path class="cls-1" d="m835.39,142.62v23.26c0,1.92.41,3.28,1.22,4.07.82.79,2.23,1.19,4.25,1.19h4.82v5.54h-5.9c-3.65,0-6.38-.84-8.21-2.52-1.82-1.68-2.74-4.44-2.74-8.28v-23.26h-5.11v-5.4h5.11v-9.94h6.55v9.94h10.3v5.4h-10.3Z"/>
      <path class="cls-1" d="m881.25,138.41c2.4,1.27,4.28,3.18,5.65,5.72,1.37,2.54,2.05,5.64,2.05,9.29v23.26h-6.48v-22.32c0-3.94-.98-6.95-2.95-9.04-1.97-2.09-4.66-3.13-8.06-3.13s-6.2,1.08-8.24,3.24c-2.04,2.16-3.06,5.3-3.06,9.43v21.82h-6.55v-53.28h6.55v19.44c1.3-2.02,3.08-3.58,5.36-4.68,2.28-1.1,4.84-1.66,7.67-1.66,2.98,0,5.66.64,8.06,1.91Z"/>
      <path class="cls-1" d="m899.9,129.52c-.86-.86-1.3-1.92-1.3-3.17s.43-2.3,1.3-3.17c.86-.86,1.92-1.3,3.17-1.3s2.22.43,3.06,1.3c.84.86,1.26,1.92,1.26,3.17s-.42,2.3-1.26,3.17c-.84.86-1.86,1.3-3.06,1.3s-2.3-.43-3.17-1.3Zm6.34,7.7v39.46h-6.55v-39.46h6.55Z"/>
      <path class="cls-1" d="m923.23,175.78c-2.4-1.03-4.3-2.47-5.69-4.32-1.39-1.85-2.16-3.97-2.3-6.37h6.77c.19,1.97,1.12,3.58,2.77,4.82s3.83,1.87,6.52,1.87c2.5,0,4.46-.55,5.9-1.66s2.16-2.5,2.16-4.18-.77-3.01-2.3-3.85c-1.54-.84-3.91-1.67-7.13-2.48-2.93-.77-5.32-1.55-7.16-2.34-1.85-.79-3.43-1.97-4.75-3.53-1.32-1.56-1.98-3.61-1.98-6.16,0-2.02.6-3.86,1.8-5.54,1.2-1.68,2.9-3.01,5.11-4,2.21-.98,4.73-1.48,7.56-1.48,4.37,0,7.9,1.1,10.58,3.31,2.69,2.21,4.13,5.23,4.32,9.07h-6.55c-.14-2.06-.97-3.72-2.48-4.97-1.51-1.25-3.54-1.87-6.08-1.87-2.35,0-4.22.5-5.62,1.51-1.39,1.01-2.09,2.33-2.09,3.96,0,1.3.42,2.37,1.26,3.2.84.84,1.9,1.51,3.17,2.02,1.27.5,3.04,1.07,5.29,1.69,2.83.77,5.14,1.52,6.91,2.27,1.78.75,3.3,1.86,4.57,3.35,1.27,1.49,1.93,3.43,1.98,5.83,0,2.16-.6,4.1-1.8,5.83-1.2,1.73-2.89,3.09-5.08,4.07-2.18.98-4.69,1.48-7.52,1.48-3.02,0-5.74-.52-8.14-1.55Z"/>
      <path class="cls-1" d="m974.2,146.18c1.63-3.05,3.88-5.41,6.73-7.09,2.86-1.68,6.06-2.52,9.61-2.52,3.07,0,5.93.71,8.57,2.12,2.64,1.42,4.66,3.28,6.05,5.58v-20.88h6.62v53.28h-6.62v-7.42c-1.3,2.35-3.22,4.28-5.76,5.8-2.54,1.51-5.52,2.27-8.93,2.27s-6.68-.86-9.54-2.59c-2.86-1.73-5.1-4.15-6.73-7.27-1.63-3.12-2.45-6.67-2.45-10.66s.82-7.57,2.45-10.62Zm29.16,2.92c-1.2-2.21-2.82-3.9-4.86-5.08-2.04-1.18-4.28-1.76-6.73-1.76s-4.68.58-6.7,1.73c-2.02,1.15-3.62,2.83-4.82,5.04-1.2,2.21-1.8,4.8-1.8,7.78s.6,5.65,1.8,7.88c1.2,2.23,2.81,3.94,4.82,5.11,2.02,1.18,4.25,1.76,6.7,1.76s4.69-.59,6.73-1.76c2.04-1.18,3.66-2.88,4.86-5.11,1.2-2.23,1.8-4.83,1.8-7.81s-.6-5.57-1.8-7.78Z"/>
      <path class="cls-1" d="m1058.66,159.4h-31.54c.24,3.89,1.57,6.92,4,9.11,2.42,2.18,5.36,3.28,8.82,3.28,2.83,0,5.2-.66,7.09-1.98,1.9-1.32,3.23-3.08,4-5.29h7.06c-1.06,3.79-3.17,6.88-6.34,9.25s-7.1,3.56-11.81,3.56c-3.74,0-7.09-.84-10.04-2.52-2.95-1.68-5.27-4.07-6.95-7.16-1.68-3.1-2.52-6.68-2.52-10.76s.82-7.66,2.45-10.73c1.63-3.07,3.92-5.44,6.88-7.09,2.95-1.66,6.35-2.48,10.19-2.48s7.06.82,9.94,2.45c2.88,1.63,5.1,3.88,6.66,6.73,1.56,2.86,2.34,6.08,2.34,9.68,0,1.25-.07,2.57-.22,3.96Zm-8.21-11.77c-1.11-1.8-2.6-3.17-4.5-4.1-1.9-.94-4-1.4-6.3-1.4-3.31,0-6.13,1.06-8.46,3.17-2.33,2.11-3.66,5.04-4,8.79h24.91c0-2.5-.55-4.64-1.66-6.44Z"/>
      <path class="cls-1" d="m1082.2,170.63l12.24-33.41h6.98l-15.48,39.46h-7.63l-15.48-39.46h7.06l12.31,33.41Z"/>
      <path class="cls-1" d="m1108.12,129.52c-.86-.86-1.3-1.92-1.3-3.17s.43-2.3,1.3-3.17c.86-.86,1.92-1.3,3.17-1.3s2.22.43,3.06,1.3c.84.86,1.26,1.92,1.26,3.17s-.42,2.3-1.26,3.17c-.84.86-1.86,1.3-3.06,1.3s-2.3-.43-3.17-1.3Zm6.34,7.7v39.46h-6.55v-39.46h6.55Z"/>
      <path class="cls-1" d="m1125.62,146.18c1.63-3.05,3.9-5.41,6.8-7.09,2.9-1.68,6.23-2.52,9.97-2.52,4.85,0,8.84,1.18,11.99,3.53,3.14,2.35,5.22,5.62,6.23,9.79h-7.06c-.67-2.4-1.98-4.29-3.92-5.69-1.94-1.39-4.36-2.09-7.24-2.09-3.74,0-6.77,1.29-9.07,3.85-2.3,2.57-3.46,6.2-3.46,10.91s1.15,8.42,3.46,11.02c2.3,2.59,5.33,3.89,9.07,3.89,2.88,0,5.28-.67,7.2-2.02,1.92-1.34,3.24-3.26,3.96-5.76h7.06c-1.06,4.03-3.17,7.26-6.34,9.68-3.17,2.42-7.13,3.64-11.88,3.64-3.74,0-7.07-.84-9.97-2.52-2.9-1.68-5.17-4.06-6.8-7.13-1.63-3.07-2.45-6.67-2.45-10.8s.82-7.64,2.45-10.69Z"/>
      <path class="cls-1" d="m1205.11,159.4h-31.54c.24,3.89,1.57,6.92,4,9.11,2.42,2.18,5.36,3.28,8.82,3.28,2.83,0,5.2-.66,7.09-1.98,1.9-1.32,3.23-3.08,4-5.29h7.06c-1.06,3.79-3.17,6.88-6.34,9.25s-7.1,3.56-11.81,3.56c-3.74,0-7.09-.84-10.04-2.52-2.95-1.68-5.27-4.07-6.95-7.16-1.68-3.1-2.52-6.68-2.52-10.76s.82-7.66,2.45-10.73,3.92-5.44,6.88-7.09c2.95-1.66,6.35-2.48,10.19-2.48s7.06.82,9.94,2.45c2.88,1.63,5.1,3.88,6.66,6.73,1.56,2.86,2.34,6.08,2.34,9.68,0,1.25-.07,2.57-.22,3.96Zm-8.21-11.77c-1.1-1.8-2.6-3.17-4.5-4.1-1.9-.94-4-1.4-6.3-1.4-3.31,0-6.13,1.06-8.46,3.17-2.33,2.11-3.66,5.04-4,8.79h24.91c0-2.5-.55-4.64-1.66-6.44Z"/>
      <path class="cls-1" d="m1238.3,129.88c2.93,2.69,4.39,6.29,4.39,10.8,0,5.04-1.56,8.77-4.68,11.2-3.12,2.43-7.34,3.64-12.67,3.64l-.22,6.84h-5.69l-.29-11.38h2.09c4.75,0,8.47-.72,11.16-2.16,2.69-1.44,4.03-4.15,4.03-8.14,0-2.88-.86-5.16-2.59-6.84-1.73-1.68-4.06-2.52-6.98-2.52s-5.32.8-7.02,2.41c-1.7,1.61-2.56,3.81-2.56,6.59h-6.19c0-2.88.65-5.41,1.94-7.6,1.3-2.18,3.13-3.88,5.51-5.08,2.38-1.2,5.12-1.8,8.24-1.8,4.75,0,8.59,1.34,11.52,4.03Zm-19.22,45.94c-.86-.87-1.3-1.92-1.3-3.17s.43-2.3,1.3-3.17,1.92-1.3,3.17-1.3,2.22.43,3.06,1.3c.84.86,1.26,1.92,1.26,3.17s-.42,2.3-1.26,3.17c-.84.86-1.86,1.29-3.06,1.29s-2.3-.43-3.17-1.29Z"/>
    </g>
    <g>
      <path class="cls-1" d="m1374.63,169.59c10.73-.69,20.03,1.7,28.28,7.77,22.31,16.42,44.63,32.83,66.89,49.33,4.63,3.43,9.49,4.81,14.99,2.72,8.94-3.41,11.25-14.54,4.37-21.19-2.59-2.51-5.47-4.71-8.19-7.08-.7-.61-1.18-.78-1.95-.03-2.16,2.1-4.77,2.41-7.65,1.83-8.13-1.63-15.79-4.61-23.26-8.09-22.56-10.52-43.38-23.94-63.64-38.28-8.52-6.03-16.86-12.31-25-18.86-.81-.65-1.64-1.17-2.73-1.2-11.13-.32-19.96-5.51-27.36-13.37-24.83-26.4-12.85-68.04,22.22-77.37,18.44-4.91,40.51,3.08,50.65,18.33,2.15,3.23,3.77,6.71,4.67,10.47.33,1.4,1.02,2.36,2.04,3.29,22.4,20.25,43.29,41.92,61.8,65.81,7.83,10.11,15.26,20.51,20.53,32.27.89,2,1.83,3.99,1.76,6.29-.06,2-.85,3.69-2.22,5.04-1.15,1.13-.9,1.79.26,2.72,2.74,2.22,5.51,4.44,8.03,6.9,8.55,8.33,11.34,18.37,7.46,29.67-3.93,11.46-12.56,17.46-24.46,18.75-7.6.82-14.4-1.48-20.51-5.98-22.36-16.48-44.73-32.97-67.09-49.45-12.41-9.14-28.77-6.45-37.71,6.18-2.73,3.85-7.04,4.84-10.66,2.45-3.63-2.4-4.42-7.03-1.75-10.98,7.39-10.92,17.88-16.57,30.26-17.94Zm1.54-37.83c4.67,3.47,9.04,6.79,13.49,9.99,20.6,14.79,41.78,28.65,64.81,39.46,4.83,2.26,9.78,4.23,14.89,5.78,1.11.34,1.92.38,2.43-.91.63-1.59,1.95-2.61,3.28-3.61,1.41-1.06,1.83-2.16.84-3.96-2.61-4.74-5.4-9.37-8.47-13.82-12.87-18.65-27.89-35.49-43.64-51.71-5.68-5.85-11.48-11.57-17.68-17.25-2.6,7.73-6.55,14.45-11.59,20.53-5.1,6.14-10.99,11.38-18.34,15.5Zm-44.74-38.1c.25,3.68,1.51,7.51,3.22,11.26.85,1.86,1.96,2.09,3.7,1.7,3.39-.76,6.66-1.87,9.61-3.69,11.23-6.95,19.38-16.52,24.23-28.82,1.42-3.6,2.08-7.37,1.85-11.28-.07-1.18-.45-1.79-1.66-2.13-23.42-6.58-42.86,12.81-40.96,32.97Zm57.41-22.25c-6.09,22.09-19.43,37.86-39.74,48,4.98,2.76,10.26,2.47,15.41.89,7.69-2.36,13.41-7.65,18.41-13.7,5.48-6.64,9.66-13.93,10.01-22.83.18-4.59-1.17-8.72-4.1-12.36Z"/>
      <path class="cls-1" d="m1417.51,144.32c-2.06.21-3.9-.35-5.48-1.65-2.48-2.04-4.96-4.08-7.34-6.23-3.3-2.96-3.63-7.54-.88-10.71,2.71-3.13,7.12-3.52,10.53-.8,2.63,2.1,5.23,4.25,7.68,6.56,2.3,2.18,2.95,4.94,1.82,7.96-1.09,2.9-3.26,4.5-6.33,4.86Z"/>
    </g>
  </g>
</svg>