<?xml version="1.0" encoding="UTF-8"?>
<svg id="Layer_2" data-name="Layer 2" xmlns="http://www.w3.org/2000/svg" viewBox="0 0 1924 924">
  <defs>
    <style>
      .cls-1, .cls-2 {
        fill: #fff;
      }

      .cls-2 {
        font-family: Poppins-Regular, Poppins;
        font-size: 72px;
      }
    </style>
  </defs>
  <g id="Export_Q" data-name="Export Q">
    <rect width="1924" height="924"/>
    <text class="cls-2" transform="translate(107.76 176.68)"><tspan x="0" y="0">What is the input of this device?</tspan></text>
    <g>
      <path class="cls-1" d="m1374.63,169.59c10.73-.69,20.03,1.7,28.28,7.77,22.31,16.42,44.63,32.83,66.89,49.33,4.63,3.43,9.49,4.81,14.99,2.72,8.94-3.41,11.25-14.54,4.37-21.19-2.59-2.51-5.47-4.71-8.19-7.08-.7-.61-1.18-.78-1.95-.03-2.16,2.1-4.77,2.41-7.65,1.83-8.13-1.63-15.79-4.61-23.26-8.09-22.56-10.52-43.38-23.94-63.64-38.28-8.52-6.03-16.86-12.31-25-18.86-.81-.65-1.64-1.17-2.73-1.2-11.13-.32-19.96-5.51-27.36-13.37-24.83-26.4-12.85-68.04,22.22-77.37,18.44-4.91,40.51,3.08,50.65,18.33,2.15,3.23,3.77,6.71,4.67,10.47.33,1.4,1.02,2.36,2.04,3.29,22.4,20.25,43.29,41.92,61.8,65.81,7.83,10.11,15.26,20.51,20.53,32.27.89,2,1.83,3.99,1.76,6.29-.06,2-.85,3.69-2.22,5.04-1.15,1.13-.9,1.79.26,2.72,2.74,2.22,5.51,4.44,8.03,6.9,8.55,8.33,11.34,18.37,7.46,29.67-3.93,11.46-12.56,17.46-24.46,18.75-7.6.82-14.4-1.48-20.51-5.98-22.36-16.48-44.73-32.97-67.09-49.45-12.41-9.14-28.77-6.45-37.71,6.18-2.73,3.85-7.04,4.84-10.66,2.45-3.63-2.4-4.42-7.03-1.75-10.98,7.39-10.92,17.88-16.57,30.26-17.94Zm1.54-37.83c4.67,3.47,9.04,6.79,13.49,9.99,20.6,14.79,41.78,28.65,64.81,39.46,4.83,2.26,9.78,4.23,14.89,5.78,1.11.34,1.92.38,2.43-.91.63-1.59,1.95-2.61,3.28-3.61,1.41-1.06,1.83-2.16.84-3.96-2.61-4.74-5.4-9.37-8.47-13.82-12.87-18.65-27.89-35.49-43.64-51.71-5.68-5.85-11.48-11.57-17.68-17.25-2.6,7.73-6.55,14.45-11.59,20.53-5.1,6.14-10.99,11.38-18.34,15.5Zm-44.74-38.1c.25,3.68,1.51,7.51,3.22,11.26.85,1.86,1.96,2.09,3.7,1.7,3.39-.76,6.66-1.87,9.61-3.69,11.23-6.95,19.38-16.52,24.23-28.82,1.42-3.6,2.08-7.37,1.85-11.28-.07-1.18-.45-1.79-1.66-2.13-23.42-6.58-42.86,12.81-40.96,32.97Zm57.41-22.25c-6.09,22.09-19.43,37.86-39.74,48,4.98,2.76,10.26,2.47,15.41.89,7.69-2.36,13.41-7.65,18.41-13.7,5.48-6.64,9.66-13.93,10.01-22.83.18-4.59-1.17-8.72-4.1-12.36Z"/>
      <path class="cls-1" d="m1417.51,144.32c-2.06.21-3.9-.35-5.48-1.65-2.48-2.04-4.96-4.08-7.34-6.23-3.3-2.96-3.63-7.54-.88-10.71,2.71-3.13,7.12-3.52,10.53-.8,2.63,2.1,5.23,4.25,7.68,6.56,2.3,2.18,2.95,4.94,1.82,7.96-1.09,2.9-3.26,4.5-6.33,4.86Z"/>
    </g>
  </g>
</svg>