<?xml version="1.0" encoding="UTF-8"?>
<svg id="Layer_2" data-name="Layer 2" xmlns="http://www.w3.org/2000/svg" viewBox="0 0 95.06 95">
  <defs>
    <style>
      .cls-1 {
        fill: #fff;
      }
    </style>
  </defs>
  <g id="Options">
    <path class="cls-1" d="m0,51.94c.24-1.3.42-2.61.72-3.9,2.36-10.06,10.61-17.65,20.81-19.13.73-.11.91-.31.84-1.09C21.15,13.72,30.75,2.49,43.1.38c13.78-2.35,26.38,6.35,29.17,20,.5,2.47.66,4.97.32,7.47-.1.72.12.94.81,1.05,11.13,1.65,19.74,10.07,21.37,21.17,2.14,14.59-7.98,26.48-20.55,28.63-4.36.74-8.62.42-12.79-1.07-.17-.06-.35-.12-.53-.17-.02,0-.05.02-.16.05,1.04,1.97,2.2,3.84,3.36,5.72.34.55.69,1.1,1.05,1.64,2.65,3.88.29,9.24-3.87,9.99-.08.02-.15.09-.23.14h-27.1s-.09-.1-.14-.11c-4.27-.73-6.69-6.25-3.83-10.25,1.45-2.03,2.68-4.22,3.9-6.4.11-.19.34-.37.18-.7-.23.07-.46.13-.69.21-13.99,4.66-28.77-3.32-32.54-17.55-.4-1.5-.52-3.03-.84-4.54,0-1.24,0-2.47,0-3.71Zm47.47,37.12c1.3,0,2.6,0,3.9,0,2.72,0,5.44,0,8.16,0,.82,0,.99-.32.6-1.03-.09-.16-.2-.31-.3-.47-2.65-4.1-5.07-8.34-7.24-12.72-.89-1.8-1.74-3.62-2.57-5.44-.52-1.15-.35-2.25.48-3.2.81-.91,1.85-1.18,3.03-.88.79.2,1.3.78,1.84,1.35,3.47,3.72,7.71,6.01,12.8,6.39,12.21.92,22.01-9.41,20.57-21.56-1.07-9.04-8.47-16.14-17.5-16.87-1.86-.15-3.71.06-5.56.08-.66,0-.9-.07-.65-.79.37-1.05.64-2.13.97-3.19.87-2.83,1.07-5.71.56-8.62-1.93-10.92-11.88-17.86-22.78-15.81-9.48,1.78-16.74,10.7-15.43,21.54.26,2.13,1.04,4.13,1.6,6.18.15.55.07.72-.51.68-1.05-.07-2.1-.08-3.15-.14-11.92-.67-21.66,9.71-20.21,21.55,1.81,14.81,18.81,22.08,30.76,13.15,1.22-.91,2.27-1.99,3.3-3.12.79-.86,1.79-1.18,2.95-.87,1.15.32,1.84,1.09,2.13,2.22.22.86-.09,1.63-.44,2.41-2.79,6.18-6.02,12.11-9.69,17.81-.21.32-.57.64-.32,1.08.23.42.67.25,1.01.25,3.9.01,7.79,0,11.69,0Z"/>
  </g>
</svg>