<?xml version="1.0" encoding="UTF-8"?>
<svg id="Layer_2" data-name="Layer 2" xmlns="http://www.w3.org/2000/svg" viewBox="0 0 159.76 160.15">
  <defs>
    <style>
      .cls-1 {
        fill: #fff;
      }
    </style>
  </defs>
  <g id="Options">
    <path class="cls-1" d="m125.78,55.26c-3.59-.29-7.14.11-10.71.16-1.27.02-1.74-.14-1.25-1.53.71-2.02,1.23-4.1,1.86-6.14,1.67-5.45,2.06-11,1.07-16.6C113.04,10.12,93.87-3.26,72.89.69c-18.26,3.43-32.24,20.61-29.72,41.49.49,4.09,2,7.95,3.08,11.9.29,1.06.14,1.39-.98,1.31-2.02-.13-4.05-.15-6.07-.27C16.24,53.84-2.51,73.83.28,96.64c3.49,28.52,34.23,42.52,57.25,25.34,2.35-1.76,3.38-3.84,5.35-6,1.51-1.66,3.45-2.28,5.68-1.67,2.22.61,3.55,2.09,4.11,4.28.42,1.66-.17,3.15-.84,4.64-5.37,11.9-8.6,23.33-15.67,34.3-.4.62-1.09,1.23-.61,2.09.45.8,1.28.48,1.95.48,7.5.02,15.01.01,22.51.01,2.5,0,5,0,7.5,0,5.24,0,10.48.01,15.72,0,1.57,0,1.91-.62,1.15-1.98-.17-.31-.38-.61-.57-.91-5.1-7.91-7.76-16.07-11.95-24.49-1.72-3.46-3.35-6.97-4.95-10.49-1-2.21-.68-4.34.93-6.16,1.56-1.76,3.57-2.28,5.84-1.69,1.52.39,2.51,1.51,3.54,2.6,6.68,7.16,12.86,11.57,22.65,12.31,23.52,1.78,42.4-18.11,39.63-41.52-2.06-17.41-16.31-31.09-33.71-32.5Z"/>
  </g>
</svg>