<?xml version="1.0" encoding="UTF-8"?>
<svg id="Layer_2" data-name="Layer 2" xmlns="http://www.w3.org/2000/svg" viewBox="0 0 133 109.8">
  <defs>
    <style>
      .cls-1 {
        fill: #fff;
      }
    </style>
  </defs>
  <g id="Options">
    <path class="cls-1" d="m106.85.06c-9.08-.29-16.84,3.13-23.22,9.54-5.4,5.44-10.7,10.97-15.97,16.53-.96,1.01-1.42.89-2.31-.05-5.44-5.7-10.86-11.42-16.45-16.96C42.9,3.18,35.54.23,28.66,0c-6.42-.03-10.95,1.17-15.03,3.81C-3.73,15.06-3.27,37.67,8.05,49.6c19.01,20.03,38.35,39.75,57.53,59.63.74.77,1.14.75,1.86,0,19.1-19.8,38.28-39.53,57.33-59.38,8.53-8.89,10.69-23.02,5.2-34.01C125.26,6.38,117.8.42,106.85.06Z"/>
  </g>
</svg>