<?xml version="1.0" encoding="UTF-8"?>
<svg id="Layer_2" data-name="Layer 2" xmlns="http://www.w3.org/2000/svg" viewBox="0 0 95.13 95.07">
  <defs>
    <style>
      .cls-1 {
        fill: #fff;
      }
    </style>
  </defs>
  <g id="Options">
    <path class="cls-1" d="m95.13,43.09c-.24,1.3-.42,2.61-.72,3.9-2.36,10.07-10.62,17.66-20.82,19.15-.73.11-.91.31-.84,1.09,1.23,14.11-8.39,25.35-20.75,27.46-13.79,2.35-26.4-6.36-29.19-20.01-.5-2.47-.66-4.97-.32-7.48.1-.73-.12-.94-.81-1.05C10.53,64.5,1.92,56.08.29,44.96c-2.14-14.6,7.98-26.5,20.57-28.65,4.36-.75,8.62-.42,12.79,1.07.17.06.35.12.53.17.02,0,.05-.02.16-.05-1.04-1.97-2.2-3.84-3.36-5.72-.34-.55-.69-1.1-1.05-1.64-2.65-3.88-.29-9.24,3.87-10,.08-.02.15-.09.23-.14h27.12s.09.1.14.11c4.28.73,6.69,6.25,3.84,10.26-1.45,2.04-2.69,4.22-3.91,6.41-.11.19-.34.37-.18.7.23-.07.46-.13.69-.21,14-4.66,28.8,3.32,32.57,17.56.4,1.5.52,3.04.84,4.54,0,1.24,0,2.48,0,3.71ZM47.63,5.94c-1.3,0-2.6,0-3.9,0-2.72,0-5.45,0-8.17,0-.82,0-.99.32-.6,1.03.09.16.2.32.3.47,2.65,4.11,5.07,8.35,7.25,12.72.9,1.8,1.74,3.62,2.57,5.45.52,1.15.35,2.26-.48,3.2-.81.91-1.86,1.19-3.04.88-.79-.2-1.3-.78-1.84-1.35-3.47-3.72-7.72-6.01-12.81-6.39-12.22-.92-22.03,9.41-20.59,21.58,1.07,9.05,8.47,16.16,17.52,16.89,1.87.15,3.71-.06,5.56-.08.66,0,.9.07.65.8-.37,1.05-.64,2.13-.97,3.19-.87,2.83-1.07,5.72-.56,8.63,1.93,10.92,11.89,17.87,22.8,15.82,9.49-1.78,16.75-10.71,15.44-21.56-.26-2.13-1.04-4.13-1.6-6.19-.15-.55-.07-.72.51-.68,1.05.07,2.1.08,3.15.14,11.93.67,21.68-9.71,20.23-21.57-1.81-14.82-18.82-22.09-30.78-13.16-1.22.91-2.27,2-3.3,3.12-.79.86-1.79,1.18-2.95.87-1.15-.32-1.84-1.09-2.13-2.22-.22-.86.09-1.64.44-2.41,2.79-6.18,6.02-12.12,9.7-17.82.21-.32.57-.64.32-1.08-.23-.42-.67-.25-1.01-.25-3.9-.01-7.8,0-11.7,0Z"/>
  </g>
</svg>