<?xml version="1.0" encoding="UTF-8"?>
<svg id="Layer_2" data-name="Layer 2" xmlns="http://www.w3.org/2000/svg" viewBox="0 0 1924 924">
  <defs>
    <style>
      .cls-1 {
        fill: #fff;
      }
    </style>
  </defs>
  <g id="Export_Q" data-name="Export Q">
    <rect width="1924" height="924"/>
    <g>
      <path class="cls-1" d="m303.76,129.52c-.86-.86-1.3-1.92-1.3-3.17s.43-2.3,1.3-3.17c.86-.86,1.92-1.3,3.17-1.3s2.22.43,3.06,1.3c.84.86,1.26,1.92,1.26,3.17s-.42,2.3-1.26,3.17c-.84.86-1.86,1.3-3.06,1.3s-2.3-.43-3.17-1.3Zm6.34,7.7v39.46h-6.55v-39.46h6.55Z"/>
      <path class="cls-1" d="m327.09,175.78c-2.4-1.03-4.3-2.47-5.69-4.32-1.39-1.85-2.16-3.97-2.3-6.37h6.77c.19,1.97,1.12,3.58,2.77,4.82s3.83,1.87,6.52,1.87c2.5,0,4.46-.55,5.9-1.66s2.16-2.5,2.16-4.18-.77-3.01-2.3-3.85c-1.54-.84-3.91-1.67-7.13-2.48-2.93-.77-5.32-1.55-7.16-2.34-1.85-.79-3.43-1.97-4.75-3.53-1.32-1.56-1.98-3.61-1.98-6.16,0-2.02.6-3.86,1.8-5.54,1.2-1.68,2.9-3.01,5.11-4,2.21-.98,4.73-1.48,7.56-1.48,4.37,0,7.9,1.1,10.58,3.31,2.69,2.21,4.13,5.23,4.32,9.07h-6.55c-.14-2.06-.97-3.72-2.48-4.97-1.51-1.25-3.54-1.87-6.08-1.87-2.35,0-4.22.5-5.62,1.51-1.39,1.01-2.09,2.33-2.09,3.96,0,1.3.42,2.37,1.26,3.2.84.84,1.9,1.51,3.17,2.02,1.27.5,3.04,1.07,5.29,1.69,2.83.77,5.14,1.52,6.91,2.27,1.77.75,3.3,1.86,4.57,3.35,1.27,1.49,1.93,3.43,1.98,5.83,0,2.16-.6,4.1-1.8,5.83-1.2,1.73-2.89,3.09-5.08,4.07-2.18.98-4.69,1.48-7.52,1.48-3.02,0-5.74-.52-8.14-1.55Z"/>
      <path class="cls-1" d="m386.06,142.62v23.26c0,1.92.41,3.28,1.22,4.07.82.79,2.23,1.19,4.25,1.19h4.82v5.54h-5.9c-3.65,0-6.38-.84-8.21-2.52-1.82-1.68-2.74-4.44-2.74-8.28v-23.26h-5.11v-5.4h5.11v-9.94h6.55v9.94h10.3v5.4h-10.3Z"/>
      <path class="cls-1" d="m411.44,174.8c-3-1.68-5.35-4.07-7.06-7.16-1.7-3.1-2.56-6.68-2.56-10.76s.88-7.6,2.63-10.69c1.75-3.1,4.14-5.47,7.16-7.13,3.02-1.66,6.41-2.48,10.15-2.48s7.13.83,10.15,2.48c3.02,1.66,5.41,4.02,7.16,7.09,1.75,3.07,2.63,6.65,2.63,10.73s-.9,7.67-2.7,10.76c-1.8,3.1-4.24,5.48-7.31,7.16-3.07,1.68-6.48,2.52-10.22,2.52s-7.04-.84-10.04-2.52Zm16.67-4.9c2.06-1.1,3.73-2.76,5-4.97,1.27-2.21,1.91-4.9,1.91-8.06s-.62-5.86-1.87-8.06c-1.25-2.21-2.88-3.85-4.9-4.93-2.02-1.08-4.2-1.62-6.55-1.62s-4.6.54-6.59,1.62c-1.99,1.08-3.59,2.72-4.79,4.93-1.2,2.21-1.8,4.9-1.8,8.06s.59,5.93,1.76,8.14c1.18,2.21,2.75,3.85,4.72,4.93,1.97,1.08,4.13,1.62,6.48,1.62s4.56-.55,6.62-1.66Z"/>
      <path class="cls-1" d="m604.14,146.18c1.63-3.05,3.88-5.41,6.73-7.09,2.86-1.68,6.04-2.52,9.54-2.52s6.46.74,9,2.23c2.54,1.49,4.44,3.36,5.69,5.62v-7.2h6.62v39.46h-6.62v-7.34c-1.3,2.3-3.23,4.21-5.8,5.72-2.57,1.51-5.56,2.27-8.96,2.27s-6.67-.86-9.5-2.59c-2.83-1.73-5.06-4.15-6.7-7.27-1.63-3.12-2.45-6.67-2.45-10.66s.82-7.57,2.45-10.62Zm29.16,2.92c-1.2-2.21-2.82-3.9-4.86-5.08-2.04-1.18-4.28-1.76-6.73-1.76s-4.68.58-6.7,1.73c-2.02,1.15-3.62,2.83-4.82,5.04-1.2,2.21-1.8,4.8-1.8,7.78s.6,5.65,1.8,7.88c1.2,2.23,2.81,3.94,4.82,5.11,2.02,1.18,4.25,1.76,6.7,1.76s4.69-.59,6.73-1.76c2.04-1.18,3.66-2.88,4.86-5.11,1.2-2.23,1.8-4.83,1.8-7.81s-.6-5.57-1.8-7.78Z"/>
      <path class="cls-1" d="m658.65,175.78c-2.4-1.03-4.3-2.47-5.69-4.32-1.39-1.85-2.16-3.97-2.3-6.37h6.77c.19,1.97,1.12,3.58,2.77,4.82s3.83,1.87,6.52,1.87c2.5,0,4.46-.55,5.9-1.66s2.16-2.5,2.16-4.18-.77-3.01-2.3-3.85c-1.54-.84-3.91-1.67-7.13-2.48-2.93-.77-5.32-1.55-7.16-2.34-1.85-.79-3.43-1.97-4.75-3.53-1.32-1.56-1.98-3.61-1.98-6.16,0-2.02.6-3.86,1.8-5.54,1.2-1.68,2.9-3.01,5.11-4,2.21-.98,4.73-1.48,7.56-1.48,4.37,0,7.9,1.1,10.58,3.31,2.69,2.21,4.13,5.23,4.32,9.07h-6.55c-.14-2.06-.97-3.72-2.48-4.97-1.51-1.25-3.54-1.87-6.08-1.87-2.35,0-4.22.5-5.62,1.51-1.39,1.01-2.09,2.33-2.09,3.96,0,1.3.42,2.37,1.26,3.2.84.84,1.9,1.51,3.17,2.02,1.27.5,3.04,1.07,5.29,1.69,2.83.77,5.14,1.52,6.91,2.27,1.77.75,3.3,1.86,4.57,3.35,1.27,1.49,1.93,3.43,1.98,5.83,0,2.16-.6,4.1-1.8,5.83-1.2,1.73-2.89,3.09-5.08,4.07-2.18.98-4.69,1.48-7.52,1.48-3.02,0-5.74-.52-8.14-1.55Z"/>
      <path class="cls-1" d="m882.85,129.52c-.86-.86-1.3-1.92-1.3-3.17s.43-2.3,1.3-3.17c.86-.86,1.92-1.3,3.17-1.3s2.22.43,3.06,1.3c.84.86,1.26,1.92,1.26,3.17s-.42,2.3-1.26,3.17c-.84.86-1.86,1.3-3.06,1.3s-2.3-.43-3.17-1.3Zm6.34,7.7v39.46h-6.55v-39.46h6.55Z"/>
      <path class="cls-1" d="m906.18,175.78c-2.4-1.03-4.3-2.47-5.69-4.32-1.39-1.85-2.16-3.97-2.3-6.37h6.77c.19,1.97,1.12,3.58,2.77,4.82,1.66,1.25,3.83,1.87,6.52,1.87,2.5,0,4.46-.55,5.9-1.66,1.44-1.1,2.16-2.5,2.16-4.18s-.77-3.01-2.3-3.85-3.91-1.67-7.13-2.48c-2.93-.77-5.32-1.55-7.16-2.34-1.85-.79-3.43-1.97-4.75-3.53-1.32-1.56-1.98-3.61-1.98-6.16,0-2.02.6-3.86,1.8-5.54,1.2-1.68,2.9-3.01,5.11-4,2.21-.98,4.73-1.48,7.56-1.48,4.37,0,7.9,1.1,10.58,3.31,2.69,2.21,4.13,5.23,4.32,9.07h-6.55c-.14-2.06-.97-3.72-2.48-4.97-1.51-1.25-3.54-1.87-6.08-1.87-2.35,0-4.22.5-5.62,1.51-1.39,1.01-2.09,2.33-2.09,3.96,0,1.3.42,2.37,1.26,3.2.84.84,1.9,1.51,3.17,2.02,1.27.5,3.04,1.07,5.29,1.69,2.83.77,5.14,1.52,6.91,2.27,1.78.75,3.3,1.86,4.57,3.35,1.27,1.49,1.93,3.43,1.98,5.83,0,2.16-.6,4.1-1.8,5.83-1.2,1.73-2.89,3.09-5.08,4.07-2.18.98-4.69,1.48-7.52,1.48-3.02,0-5.74-.52-8.14-1.55Z"/>
      <path class="cls-1" d="m965.15,142.62v23.26c0,1.92.41,3.28,1.22,4.07.82.79,2.23,1.19,4.25,1.19h4.82v5.54h-5.9c-3.65,0-6.38-.84-8.21-2.52-1.82-1.68-2.74-4.44-2.74-8.28v-23.26h-5.11v-5.4h5.11v-9.94h6.55v9.94h10.3v5.4h-10.3Z"/>
      <path class="cls-1" d="m990.53,174.8c-3-1.68-5.35-4.07-7.06-7.16-1.7-3.1-2.56-6.68-2.56-10.76s.88-7.6,2.63-10.69c1.75-3.1,4.14-5.47,7.16-7.13,3.02-1.66,6.41-2.48,10.15-2.48s7.13.83,10.15,2.48c3.02,1.66,5.41,4.02,7.16,7.09,1.75,3.07,2.63,6.65,2.63,10.73s-.9,7.67-2.7,10.76c-1.8,3.1-4.24,5.48-7.31,7.16-3.07,1.68-6.48,2.52-10.22,2.52s-7.04-.84-10.04-2.52Zm16.67-4.9c2.06-1.1,3.73-2.76,5-4.97,1.27-2.21,1.91-4.9,1.91-8.06s-.62-5.86-1.87-8.06c-1.25-2.21-2.88-3.85-4.9-4.93-2.02-1.08-4.2-1.62-6.55-1.62s-4.6.54-6.59,1.62c-1.99,1.08-3.59,2.72-4.79,4.93-1.2,2.21-1.8,4.9-1.8,8.06s.59,5.93,1.76,8.14c1.18,2.21,2.75,3.85,4.72,4.93,1.97,1.08,4.13,1.62,6.48,1.62s4.56-.55,6.62-1.66Z"/>
    </g>
    <rect class="cls-1" x="1065.97" y="179" width="134.27" height="10"/>
    <path class="cls-1" d="m274,130.7c-.52,3.03-.82,6.09-1.66,9.06-2.1,7.47-5.8,14.02-11.19,19.6-20.41,21.12-40.82,42.24-61.25,63.35-4.5,4.65-10.74,4.69-15.25.04-20.51-21.17-41.09-42.28-61.47-63.58-19.47-20.36-16.17-53.74,6.9-69.09,13.66-9.09,28.18-9.02,42.84-2.32,5.18,2.37,9.63,5.83,13.57,9.93,1.33,1.38,2.66,2.76,3.99,4.13,1.77,1.82,1.76,1.81,3.48.05,3.05-3.12,5.89-6.47,9.44-9.04,13.6-9.86,28.48-13.21,44.2-6.41,14.6,6.31,22.85,18.21,25.76,33.81.25,1.35.14,2.76.63,4.08v6.39Zm-119.6-32.28c-6.42-.03-10.95,1.17-15.03,3.81-17.36,11.24-16.9,33.86-5.58,45.79,19.01,20.03,38.35,39.75,57.53,59.63.74.77,1.14.75,1.86,0,19.1-19.8,38.28-39.53,57.33-59.38,8.53-8.89,10.69-23.02,5.2-34.01-4.73-9.46-12.18-15.42-23.13-15.77-9.08-.29-16.84,3.13-23.22,9.54-5.4,5.43-10.7,10.97-15.97,16.53-.96,1.01-1.42.89-2.31-.05-5.44-5.7-10.86-11.42-16.45-16.96-6-5.95-13.36-8.9-20.24-9.13Z"/>
    <path class="cls-1" d="m570.84,141.46c-.3,1.73-.47,3.48-.95,5.18-1.2,4.26-3.31,8-6.39,11.19-11.66,12.06-23.31,24.12-34.97,36.17-2.57,2.66-6.13,2.68-8.71.02-11.71-12.09-23.46-24.14-35.1-36.31-11.12-11.62-9.24-30.69,3.94-39.45,7.8-5.19,16.09-5.15,24.46-1.32,2.96,1.35,5.5,3.33,7.75,5.67.76.79,1.52,1.57,2.28,2.36,1.01,1.04,1,1.04,1.99.03,1.74-1.78,3.36-3.69,5.39-5.16,7.77-5.63,16.26-7.54,25.24-3.66,8.33,3.6,13.05,10.4,14.71,19.31.14.77.08,1.58.36,2.33v3.65Zm-68.29-18.43c-3.67-.02-6.25.67-8.58,2.18-9.91,6.42-9.65,19.34-3.19,26.15,10.86,11.44,21.9,22.7,32.85,34.05.42.44.65.43,1.06,0,10.91-11.31,21.86-22.57,32.74-33.91,4.87-5.07,6.11-13.14,2.97-19.42-2.7-5.4-6.96-8.8-13.21-9.01-5.19-.17-9.62,1.78-13.26,5.45-3.08,3.1-6.11,6.27-9.12,9.44-.55.58-.81.51-1.32-.03-3.1-3.25-6.2-6.52-9.39-9.69-3.43-3.4-7.63-5.08-11.56-5.21Z"/>
    <path class="cls-1" d="m707.81,161.65c.38-2.08.68-4.18,1.16-6.24,3.77-16.1,16.99-28.26,33.31-30.63,1.17-.17,1.46-.49,1.35-1.75-1.96-22.57,13.42-40.55,33.19-43.92,22.06-3.76,42.24,10.17,46.7,32.01.81,3.95,1.05,7.95.51,11.96-.16,1.16.2,1.51,1.3,1.68,17.82,2.64,31.6,16.12,34.21,33.89,3.42,23.35-12.77,42.39-32.9,45.83-6.98,1.19-13.8.66-20.47-1.71-.28-.1-.56-.18-.85-.27-.04-.01-.09.02-.26.08,1.66,3.15,3.52,6.15,5.38,9.15.55.88,1.1,1.76,1.69,2.62,4.25,6.21.46,14.79-6.2,16-.13.02-.25.15-.37.23h-43.38c-.08-.06-.14-.16-.23-.18-6.84-1.16-10.71-10-6.14-16.41,2.32-3.26,4.3-6.75,6.25-10.25.17-.3.55-.59.29-1.12-.37.11-.74.21-1.11.33-22.4,7.45-46.06-5.32-52.1-28.1-.63-2.39-.83-4.86-1.34-7.27,0-1.98,0-3.96,0-5.94Zm76,59.42c2.08,0,4.16,0,6.24,0,4.36,0,8.71.01,13.07,0,1.31,0,1.58-.52.96-1.65-.14-.26-.31-.5-.47-.75-4.24-6.57-8.11-13.36-11.6-20.36-1.43-2.87-2.79-5.79-4.11-8.72-.83-1.84-.56-3.61.77-5.12,1.3-1.46,2.97-1.9,4.86-1.41,1.26.33,2.09,1.25,2.94,2.16,5.56,5.95,12.35,9.62,20.49,10.23,19.55,1.48,35.24-15.06,32.94-34.51-1.71-14.47-13.55-25.84-28.02-27.01-2.98-.24-5.93.09-8.9.13-1.05.01-1.44-.12-1.03-1.27.59-1.68,1.02-3.41,1.55-5.11,1.39-4.53,1.71-9.15.89-13.8-3.09-17.47-19.02-28.59-36.47-25.31-15.18,2.85-26.8,17.13-24.7,34.49.41,3.4,1.66,6.61,2.56,9.89.24.88.12,1.15-.81,1.09-1.68-.11-3.36-.13-5.04-.22-19.09-1.07-34.68,15.54-32.36,34.5,2.9,23.71,30.11,35.34,49.24,21.06,1.95-1.46,3.64-3.19,5.28-4.99,1.26-1.38,2.87-1.89,4.72-1.39,1.84.51,2.95,1.74,3.41,3.56.35,1.38-.14,2.62-.7,3.86-4.46,9.89-9.64,19.39-15.52,28.51-.33.52-.91,1.02-.51,1.74.37.67,1.07.4,1.62.4,6.24.02,12.48.01,18.71.01Z"/>
  </g>
</svg>