<?xml version="1.0" encoding="UTF-8"?>
<svg id="Layer_2" data-name="Layer 2" xmlns="http://www.w3.org/2000/svg" viewBox="0 0 86.04 67.05">
  <defs>
    <style>
      .cls-1 {
        fill: #fff;
      }
    </style>
  </defs>
  <g id="Options">
    <g>
      <path class="cls-1" d="m0,15.66V1.35h24.93v65.7H8.91V15.66H0Z"/>
      <path class="cls-1" d="m41.44,8.91C45.43,2.97,51.87,0,60.75,0s15.31,2.97,19.31,8.91c3.99,5.94,5.98,14.07,5.98,24.39s-2,18.63-5.98,24.57c-3.99,5.94-10.43,8.91-19.31,8.91s-15.32-2.97-19.3-8.91c-3.99-5.94-5.99-14.13-5.99-24.57s1.99-18.45,5.99-24.39Zm27.49,10.39c-1.32-3.27-4.05-4.91-8.19-4.91s-6.87,1.64-8.19,4.91c-1.32,3.27-1.98,7.94-1.98,14,0,4.08.24,7.46.72,10.12.48,2.67,1.45,4.83,2.92,6.48,1.47,1.65,3.65,2.47,6.52,2.47s5.05-.82,6.53-2.47c1.47-1.65,2.44-3.81,2.92-6.48.48-2.67.72-6.04.72-10.12,0-6.06-.66-10.72-1.98-14Z"/>
    </g>
  </g>
</svg>