<?xml version="1.0" encoding="UTF-8"?>
<svg id="Layer_2" data-name="Layer 2" xmlns="http://www.w3.org/2000/svg" viewBox="0 0 80.91 67.77">
  <defs>
    <style>
      .cls-1 {
        fill: #fff;
      }
    </style>
  </defs>
  <g id="Options">
    <g>
      <path class="cls-1" d="m0,15.84V1.53h24.93v65.7H8.91V15.84H0Z"/>
      <path class="cls-1" d="m42.3,5.22c3.96-3.48,9.33-5.22,16.11-5.22,4.5,0,8.35.78,11.56,2.34,3.21,1.56,5.64,3.69,7.29,6.39,1.65,2.7,2.47,5.73,2.47,9.09,0,3.96-.99,7.19-2.97,9.67-1.98,2.49-4.29,4.19-6.93,5.08v.36c3.42,1.14,6.12,3.03,8.1,5.67,1.98,2.64,2.97,6.03,2.97,10.17,0,3.72-.86,7.01-2.56,9.86-1.71,2.85-4.2,5.08-7.47,6.71-3.27,1.62-7.15,2.43-11.65,2.43-7.2,0-12.95-1.77-17.24-5.31-4.29-3.54-6.56-8.88-6.8-16.02h14.94c.06,2.64.81,4.72,2.25,6.25,1.44,1.53,3.54,2.29,6.3,2.29,2.34,0,4.15-.67,5.45-2.02,1.29-1.35,1.94-3.13,1.94-5.36,0-2.88-.92-4.96-2.75-6.25-1.83-1.29-4.76-1.93-8.77-1.93h-2.88v-12.51h2.88c3.06,0,5.54-.52,7.42-1.57,1.89-1.05,2.84-2.93,2.84-5.62,0-2.16-.6-3.84-1.8-5.04-1.2-1.2-2.85-1.8-4.95-1.8-2.28,0-3.98.69-5.09,2.07-1.11,1.38-1.75,3.09-1.93,5.13h-15.03c.24-6.42,2.34-11.37,6.3-14.85Z"/>
    </g>
  </g>
</svg>