<?xml version="1.0" encoding="UTF-8"?>
<svg id="Layer_2" data-name="Layer 2" xmlns="http://www.w3.org/2000/svg" viewBox="0 0 1924 924">
  <defs>
    <style>
      .cls-1 {
        fill: #fff;
      }
    </style>
  </defs>
  <g id="Export_Q" data-name="Export Q">
    <rect width="1924" height="924"/>
    <g>
      <path class="cls-1" d="m149.97,126.49v50.18h-6.55v-22.75h-25.56v22.75h-6.55v-50.18h6.55v22.03h25.56v-22.03h6.55Z"/>
      <path class="cls-1" d="m168.29,174.8c-3-1.68-5.35-4.07-7.06-7.16-1.7-3.1-2.56-6.68-2.56-10.76s.88-7.6,2.63-10.69c1.75-3.1,4.14-5.47,7.16-7.13,3.02-1.66,6.41-2.48,10.15-2.48s7.13.83,10.15,2.48c3.02,1.66,5.41,4.02,7.16,7.09,1.75,3.07,2.63,6.65,2.63,10.73s-.9,7.67-2.7,10.76c-1.8,3.1-4.24,5.48-7.31,7.16-3.07,1.68-6.48,2.52-10.22,2.52s-7.04-.84-10.04-2.52Zm16.67-4.9c2.06-1.1,3.73-2.76,5-4.97,1.27-2.21,1.91-4.9,1.91-8.06s-.62-5.86-1.87-8.06c-1.25-2.21-2.88-3.85-4.9-4.93-2.02-1.08-4.2-1.62-6.55-1.62s-4.6.54-6.59,1.62c-1.99,1.08-3.59,2.72-4.79,4.93-1.2,2.21-1.8,4.9-1.8,8.06s.59,5.93,1.76,8.14c1.18,2.21,2.75,3.85,4.72,4.93,1.97,1.08,4.13,1.62,6.48,1.62s4.56-.55,6.62-1.66Z"/>
      <path class="cls-1" d="m259.77,137.22l-12.31,39.46h-6.77l-9.5-31.32-9.5,31.32h-6.77l-12.38-39.46h6.7l9.07,33.12,9.79-33.12h6.7l9.58,33.19,8.93-33.19h6.48Z"/>
      <path class="cls-1" d="m341.13,138.41c2.4,1.27,4.3,3.18,5.69,5.72,1.39,2.54,2.09,5.64,2.09,9.29v23.26h-6.48v-22.32c0-3.94-.97-6.95-2.92-9.04-1.94-2.09-4.57-3.13-7.88-3.13s-6.12,1.09-8.14,3.28c-2.02,2.18-3.02,5.34-3.02,9.47v21.74h-6.48v-22.32c0-3.94-.97-6.95-2.92-9.04-1.94-2.09-4.57-3.13-7.88-3.13s-6.12,1.09-8.14,3.28c-2.02,2.18-3.02,5.34-3.02,9.47v21.74h-6.55v-39.46h6.55v5.69c1.3-2.06,3.04-3.65,5.22-4.75,2.18-1.1,4.6-1.66,7.24-1.66,3.31,0,6.24.74,8.78,2.23,2.54,1.49,4.44,3.67,5.69,6.55,1.1-2.78,2.93-4.94,5.47-6.48,2.54-1.54,5.38-2.3,8.5-2.3s5.81.64,8.21,1.91Z"/>
      <path class="cls-1" d="m359.63,146.18c1.63-3.05,3.88-5.41,6.73-7.09,2.86-1.68,6.04-2.52,9.54-2.52s6.46.74,9,2.23c2.54,1.49,4.44,3.36,5.69,5.62v-7.2h6.62v39.46h-6.62v-7.34c-1.3,2.3-3.23,4.21-5.8,5.72-2.57,1.51-5.56,2.27-8.96,2.27s-6.67-.86-9.5-2.59c-2.83-1.73-5.06-4.15-6.7-7.27-1.63-3.12-2.45-6.67-2.45-10.66s.82-7.57,2.45-10.62Zm29.16,2.92c-1.2-2.21-2.82-3.9-4.86-5.08-2.04-1.18-4.28-1.76-6.73-1.76s-4.68.58-6.7,1.73c-2.02,1.15-3.62,2.83-4.82,5.04-1.2,2.21-1.8,4.8-1.8,7.78s.6,5.65,1.8,7.88c1.2,2.23,2.81,3.94,4.82,5.11,2.02,1.18,4.25,1.76,6.7,1.76s4.69-.59,6.73-1.76c2.04-1.18,3.66-2.88,4.86-5.11,1.2-2.23,1.8-4.83,1.8-7.81s-.6-5.57-1.8-7.78Z"/>
      <path class="cls-1" d="m439.19,140.86c2.98,2.91,4.46,7.09,4.46,12.56v23.26h-6.48v-22.32c0-3.94-.98-6.95-2.95-9.04-1.97-2.09-4.66-3.13-8.06-3.13s-6.2,1.08-8.24,3.24c-2.04,2.16-3.06,5.3-3.06,9.43v21.82h-6.55v-39.46h6.55v5.62c1.3-2.02,3.06-3.58,5.29-4.68,2.23-1.1,4.69-1.66,7.38-1.66,4.8,0,8.69,1.45,11.66,4.36Z"/>
      <path class="cls-1" d="m488.37,137.22l-23.76,58.03h-6.77l7.78-19.01-15.91-39.02h7.27l12.38,31.97,12.24-31.97h6.77Z"/>
      <path class="cls-1" d="m522.14,142.62v23.26c0,1.92.41,3.28,1.22,4.07.82.79,2.23,1.19,4.25,1.19h4.82v5.54h-5.9c-3.65,0-6.38-.84-8.21-2.52-1.83-1.68-2.74-4.44-2.74-8.28v-23.26h-5.11v-5.4h5.11v-9.94h6.55v9.94h10.3v5.4h-10.3Z"/>
      <path class="cls-1" d="m551.84,138.37c2.14-1.25,4.74-1.87,7.81-1.87v6.77h-1.73c-7.34,0-11.02,3.98-11.02,11.95v21.46h-6.55v-39.46h6.55v6.41c1.15-2.26,2.8-4.01,4.93-5.26Z"/>
      <path class="cls-1" d="m567.42,129.52c-.86-.86-1.3-1.92-1.3-3.17s.43-2.3,1.3-3.17c.86-.86,1.92-1.3,3.17-1.3s2.22.43,3.06,1.3c.84.86,1.26,1.92,1.26,3.17s-.42,2.3-1.26,3.17c-.84.86-1.86,1.3-3.06,1.3s-2.3-.43-3.17-1.3Zm6.34,7.7v39.46h-6.55v-39.46h6.55Z"/>
      <path class="cls-1" d="m584.92,146.18c1.63-3.05,3.88-5.41,6.73-7.09,2.86-1.68,6.04-2.52,9.54-2.52s6.46.74,9,2.23c2.54,1.49,4.44,3.36,5.69,5.62v-7.2h6.62v39.46h-6.62v-7.34c-1.3,2.3-3.23,4.21-5.8,5.72-2.57,1.51-5.56,2.27-8.96,2.27s-6.67-.86-9.5-2.59c-2.83-1.73-5.06-4.15-6.7-7.27-1.63-3.12-2.45-6.67-2.45-10.66s.82-7.57,2.45-10.62Zm29.16,2.92c-1.2-2.21-2.82-3.9-4.86-5.08-2.04-1.18-4.28-1.76-6.73-1.76s-4.68.58-6.7,1.73c-2.02,1.15-3.62,2.83-4.82,5.04-1.2,2.21-1.8,4.8-1.8,7.78s.6,5.65,1.8,7.88c1.2,2.23,2.81,3.94,4.82,5.11,2.02,1.18,4.25,1.76,6.7,1.76s4.69-.59,6.73-1.76c2.04-1.18,3.66-2.88,4.86-5.11,1.2-2.23,1.8-4.83,1.8-7.81s-.6-5.57-1.8-7.78Z"/>
      <path class="cls-1" d="m664.48,140.86c2.98,2.91,4.46,7.09,4.46,12.56v23.26h-6.48v-22.32c0-3.94-.98-6.95-2.95-9.04-1.97-2.09-4.66-3.13-8.06-3.13s-6.2,1.08-8.24,3.24c-2.04,2.16-3.06,5.3-3.06,9.43v21.82h-6.55v-39.46h6.55v5.62c1.3-2.02,3.06-3.58,5.29-4.68,2.23-1.1,4.69-1.66,7.38-1.66,4.8,0,8.69,1.45,11.66,4.36Z"/>
      <path class="cls-1" d="m704.91,138.8c2.57,1.49,4.48,3.36,5.72,5.62v-7.2h6.62v40.32c0,3.6-.77,6.8-2.3,9.61-1.54,2.81-3.73,5-6.59,6.59-2.86,1.58-6.18,2.38-9.97,2.38-5.18,0-9.5-1.22-12.96-3.67-3.46-2.45-5.5-5.78-6.12-10.01h6.48c.72,2.4,2.21,4.33,4.46,5.8,2.26,1.46,4.97,2.2,8.14,2.2,3.6,0,6.54-1.13,8.82-3.38,2.28-2.26,3.42-5.42,3.42-9.5v-8.28c-1.3,2.3-3.22,4.22-5.76,5.76-2.54,1.54-5.52,2.3-8.93,2.3s-6.68-.86-9.54-2.59c-2.86-1.73-5.1-4.15-6.73-7.27-1.63-3.12-2.45-6.67-2.45-10.66s.82-7.57,2.45-10.62c1.63-3.05,3.88-5.41,6.73-7.09,2.86-1.68,6.04-2.52,9.54-2.52s6.4.74,8.96,2.23Zm3.92,10.3c-1.2-2.21-2.82-3.9-4.86-5.08-2.04-1.18-4.28-1.76-6.73-1.76s-4.68.58-6.7,1.73c-2.02,1.15-3.62,2.83-4.82,5.04-1.2,2.21-1.8,4.8-1.8,7.78s.6,5.65,1.8,7.88c1.2,2.23,2.81,3.94,4.82,5.11,2.02,1.18,4.25,1.76,6.7,1.76s4.69-.59,6.73-1.76c2.04-1.18,3.66-2.88,4.86-5.11,1.2-2.23,1.8-4.83,1.8-7.81s-.6-5.57-1.8-7.78Z"/>
      <path class="cls-1" d="m734.89,123.4v53.28h-6.55v-53.28h6.55Z"/>
      <path class="cls-1" d="m781.84,159.4h-31.54c.24,3.89,1.57,6.92,4,9.11,2.42,2.18,5.36,3.28,8.82,3.28,2.83,0,5.2-.66,7.09-1.98,1.9-1.32,3.23-3.08,4-5.29h7.06c-1.06,3.79-3.17,6.88-6.34,9.25s-7.1,3.56-11.81,3.56c-3.74,0-7.09-.84-10.04-2.52-2.95-1.68-5.27-4.07-6.95-7.16-1.68-3.1-2.52-6.68-2.52-10.76s.82-7.66,2.45-10.73c1.63-3.07,3.92-5.44,6.88-7.09,2.95-1.66,6.35-2.48,10.19-2.48s7.06.82,9.94,2.45c2.88,1.63,5.1,3.88,6.66,6.73,1.56,2.86,2.34,6.08,2.34,9.68,0,1.25-.07,2.57-.22,3.96Zm-8.21-11.77c-1.1-1.8-2.6-3.17-4.5-4.1-1.9-.94-4-1.4-6.3-1.4-3.31,0-6.13,1.06-8.46,3.17-2.33,2.11-3.66,5.04-4,8.79h24.91c0-2.5-.55-4.64-1.66-6.44Z"/>
      <path class="cls-1" d="m796.52,175.78c-2.4-1.03-4.3-2.47-5.69-4.32-1.39-1.85-2.16-3.97-2.3-6.37h6.77c.19,1.97,1.12,3.58,2.77,4.82,1.66,1.25,3.83,1.87,6.52,1.87,2.5,0,4.46-.55,5.9-1.66,1.44-1.1,2.16-2.5,2.16-4.18s-.77-3.01-2.3-3.85-3.91-1.67-7.13-2.48c-2.93-.77-5.32-1.55-7.16-2.34-1.85-.79-3.43-1.97-4.75-3.53-1.32-1.56-1.98-3.61-1.98-6.16,0-2.02.6-3.86,1.8-5.54,1.2-1.68,2.9-3.01,5.11-4,2.21-.98,4.73-1.48,7.56-1.48,4.37,0,7.9,1.1,10.58,3.31,2.69,2.21,4.13,5.23,4.32,9.07h-6.55c-.14-2.06-.97-3.72-2.48-4.97-1.51-1.25-3.54-1.87-6.08-1.87-2.35,0-4.22.5-5.62,1.51-1.39,1.01-2.09,2.33-2.09,3.96,0,1.3.42,2.37,1.26,3.2.84.84,1.9,1.51,3.17,2.02,1.27.5,3.04,1.07,5.29,1.69,2.83.77,5.14,1.52,6.91,2.27,1.78.75,3.3,1.86,4.57,3.35,1.27,1.49,1.93,3.43,1.98,5.83,0,2.16-.6,4.1-1.8,5.83-1.2,1.73-2.89,3.09-5.08,4.07-2.18.98-4.69,1.48-7.52,1.48-3.02,0-5.74-.52-8.14-1.55Z"/>
      <path class="cls-1" d="m847.5,146.18c1.63-3.05,3.88-5.41,6.73-7.09,2.86-1.68,6.04-2.52,9.54-2.52s6.46.74,9,2.23c2.54,1.49,4.44,3.36,5.69,5.62v-7.2h6.62v39.46h-6.62v-7.34c-1.3,2.3-3.23,4.21-5.8,5.72-2.57,1.51-5.56,2.27-8.96,2.27s-6.67-.86-9.5-2.59c-2.83-1.73-5.06-4.15-6.7-7.27-1.63-3.12-2.45-6.67-2.45-10.66s.82-7.57,2.45-10.62Zm29.16,2.92c-1.2-2.21-2.82-3.9-4.86-5.08-2.04-1.18-4.28-1.76-6.73-1.76s-4.68.58-6.7,1.73c-2.02,1.15-3.62,2.83-4.82,5.04-1.2,2.21-1.8,4.8-1.8,7.78s.6,5.65,1.8,7.88c1.2,2.23,2.81,3.94,4.82,5.11,2.02,1.18,4.25,1.76,6.7,1.76s4.69-.59,6.73-1.76c2.04-1.18,3.66-2.88,4.86-5.11,1.2-2.23,1.8-4.83,1.8-7.81s-.6-5.57-1.8-7.78Z"/>
      <path class="cls-1" d="m907.66,138.37c2.14-1.25,4.74-1.87,7.81-1.87v6.77h-1.73c-7.34,0-11.02,3.98-11.02,11.95v21.46h-6.55v-39.46h6.55v6.41c1.15-2.26,2.8-4.01,4.93-5.26Z"/>
      <path class="cls-1" d="m958.81,159.4h-31.54c.24,3.89,1.57,6.92,4,9.11,2.42,2.18,5.36,3.28,8.82,3.28,2.83,0,5.2-.66,7.09-1.98,1.9-1.32,3.23-3.08,4-5.29h7.06c-1.06,3.79-3.17,6.88-6.34,9.25s-7.1,3.56-11.81,3.56c-3.74,0-7.09-.84-10.04-2.52-2.95-1.68-5.27-4.07-6.95-7.16-1.68-3.1-2.52-6.68-2.52-10.76s.82-7.66,2.45-10.73c1.63-3.07,3.92-5.44,6.88-7.09,2.95-1.66,6.35-2.48,10.19-2.48s7.06.82,9.94,2.45c2.88,1.63,5.1,3.88,6.66,6.73,1.56,2.86,2.34,6.08,2.34,9.68,0,1.25-.07,2.57-.22,3.96Zm-8.21-11.77c-1.1-1.8-2.6-3.17-4.5-4.1-1.9-.94-4-1.4-6.3-1.4-3.31,0-6.13,1.06-8.46,3.17-2.33,2.11-3.66,5.04-4,8.79h24.91c0-2.5-.55-4.64-1.66-6.44Z"/>
      <path class="cls-1" d="m994.88,142.62v23.26c0,1.92.41,3.28,1.22,4.07.82.79,2.23,1.19,4.25,1.19h4.82v5.54h-5.9c-3.65,0-6.38-.84-8.21-2.52-1.83-1.68-2.74-4.44-2.74-8.28v-23.26h-5.11v-5.4h5.11v-9.94h6.55v9.94h10.3v5.4h-10.3Z"/>
      <path class="cls-1" d="m1040.75,138.41c2.4,1.27,4.28,3.18,5.65,5.72,1.37,2.54,2.05,5.64,2.05,9.29v23.26h-6.48v-22.32c0-3.94-.98-6.95-2.95-9.04-1.97-2.09-4.66-3.13-8.06-3.13s-6.2,1.08-8.24,3.24c-2.04,2.16-3.06,5.3-3.06,9.43v21.82h-6.55v-53.28h6.55v19.44c1.3-2.02,3.08-3.58,5.36-4.68,2.28-1.1,4.83-1.66,7.67-1.66,2.98,0,5.66.64,8.06,1.91Z"/>
      <path class="cls-1" d="m1094.96,159.4h-31.54c.24,3.89,1.57,6.92,4,9.11,2.42,2.18,5.36,3.28,8.82,3.28,2.83,0,5.2-.66,7.09-1.98,1.9-1.32,3.23-3.08,4-5.29h7.06c-1.06,3.79-3.17,6.88-6.34,9.25s-7.1,3.56-11.81,3.56c-3.74,0-7.09-.84-10.04-2.52-2.95-1.68-5.27-4.07-6.95-7.16-1.68-3.1-2.52-6.68-2.52-10.76s.82-7.66,2.45-10.73c1.63-3.07,3.92-5.44,6.88-7.09,2.95-1.66,6.35-2.48,10.19-2.48s7.06.82,9.94,2.45c2.88,1.63,5.1,3.88,6.66,6.73,1.56,2.86,2.34,6.08,2.34,9.68,0,1.25-.07,2.57-.22,3.96Zm-8.21-11.77c-1.11-1.8-2.6-3.17-4.5-4.1-1.9-.94-4-1.4-6.3-1.4-3.31,0-6.13,1.06-8.46,3.17-2.33,2.11-3.66,5.04-4,8.79h24.91c0-2.5-.55-4.64-1.66-6.44Z"/>
      <path class="cls-1" d="m1115.3,138.37c2.13-1.25,4.74-1.87,7.81-1.87v6.77h-1.73c-7.34,0-11.02,3.98-11.02,11.95v21.46h-6.55v-39.46h6.55v6.41c1.15-2.26,2.8-4.01,4.93-5.26Z"/>
      <path class="cls-1" d="m1166.46,159.4h-31.54c.24,3.89,1.57,6.92,4,9.11,2.42,2.18,5.36,3.28,8.82,3.28,2.83,0,5.2-.66,7.09-1.98,1.9-1.32,3.23-3.08,4-5.29h7.06c-1.06,3.79-3.17,6.88-6.34,9.25s-7.11,3.56-11.81,3.56c-3.74,0-7.09-.84-10.04-2.52-2.95-1.68-5.27-4.07-6.95-7.16-1.68-3.1-2.52-6.68-2.52-10.76s.82-7.66,2.45-10.73,3.92-5.44,6.88-7.09c2.95-1.66,6.35-2.48,10.19-2.48s7.06.82,9.94,2.45c2.88,1.63,5.1,3.88,6.66,6.73,1.56,2.86,2.34,6.08,2.34,9.68,0,1.25-.07,2.57-.22,3.96Zm-8.21-11.77c-1.1-1.8-2.6-3.17-4.5-4.1s-4-1.4-6.3-1.4c-3.31,0-6.13,1.06-8.46,3.17-2.33,2.11-3.66,5.04-4,8.79h24.91c0-2.5-.55-4.64-1.66-6.44Z"/>
      <path class="cls-1" d="m1199.65,129.88c2.93,2.69,4.39,6.29,4.39,10.8,0,5.04-1.56,8.77-4.68,11.2-3.12,2.43-7.34,3.64-12.67,3.64l-.21,6.84h-5.69l-.29-11.38h2.09c4.75,0,8.47-.72,11.16-2.16,2.69-1.44,4.03-4.15,4.03-8.14,0-2.88-.86-5.16-2.59-6.84-1.73-1.68-4.06-2.52-6.98-2.52s-5.32.8-7.02,2.41c-1.7,1.61-2.56,3.81-2.56,6.59h-6.19c0-2.88.65-5.41,1.94-7.6,1.3-2.18,3.13-3.88,5.51-5.08,2.38-1.2,5.12-1.8,8.24-1.8,4.75,0,8.59,1.34,11.52,4.03Zm-19.22,45.94c-.86-.87-1.3-1.92-1.3-3.17s.43-2.3,1.3-3.17c.86-.86,1.92-1.3,3.17-1.3s2.22.43,3.06,1.3c.84.86,1.26,1.92,1.26,3.17s-.42,2.3-1.26,3.17c-.84.86-1.86,1.29-3.06,1.29s-2.3-.43-3.17-1.29Z"/>
    </g>
    <g>
      <path class="cls-1" d="m1342.38,198.89c-2.85,0-4.17-2.18-2.81-4.69,12.48-23.05,24.97-46.1,37.46-69.15.93-1.72,2.46-2.33,3.99-1.63.8.37,1.23,1.04,1.62,1.78,4.24,7.84,29.09,53.73,37.28,68.84.38.7.72,1.4.64,2.23-.15,1.44-1.32,2.56-2.81,2.61-.97.04-1.94,0-2.91,0-11.68,0-59.99,0-72.46,0Zm37.41-66.71c-11.05,20.4-21.98,40.59-32.95,60.83h65.89c-10.98-20.28-21.92-40.46-32.95-60.83Z"/>
      <path class="cls-1" d="m1416.38,198.89c-2.85,0-4.17-2.18-2.81-4.69,12.48-23.05,24.97-46.1,37.46-69.15.93-1.72,2.46-2.33,3.99-1.63.8.37,1.23,1.04,1.62,1.78,4.24,7.84,29.09,53.73,37.28,68.84.38.7.72,1.4.64,2.23-.15,1.44-1.32,2.56-2.81,2.61-.97.04-1.94,0-2.91,0-11.68,0-59.99,0-72.46,0Zm37.41-66.71c-11.05,20.4-21.98,40.59-32.95,60.83h65.89c-10.98-20.28-21.92-40.46-32.95-60.83Z"/>
      <path class="cls-1" d="m1379.38,130.89c-2.85,0-4.17-2.18-2.81-4.69,12.48-23.05,24.97-46.1,37.46-69.15.93-1.72,2.46-2.33,3.99-1.63.8.37,1.23,1.04,1.62,1.78,4.24,7.84,29.09,53.73,37.28,68.84.38.7.72,1.4.64,2.23-.15,1.44-1.32,2.56-2.81,2.61-.97.04-1.94,0-2.91,0-11.68,0-59.99,0-72.46,0Zm37.41-66.71c-11.05,20.4-21.98,40.59-32.95,60.83h65.89c-10.98-20.28-21.92-40.46-32.95-60.83Z"/>
      <path class="cls-1" d="m1304.38,268.89c-2.85,0-4.17-2.18-2.81-4.69,12.48-23.05,24.97-46.1,37.46-69.15.93-1.72,2.46-2.33,3.99-1.63.8.37,1.23,1.04,1.62,1.78,4.24,7.84,29.09,53.73,37.28,68.84.38.7.72,1.4.64,2.23-.15,1.44-1.32,2.56-2.81,2.61-.97.04-1.94,0-2.91,0-11.68,0-59.99,0-72.46,0Zm37.41-66.71c-11.05,20.4-21.98,40.59-32.95,60.83h65.89c-10.98-20.28-21.92-40.46-32.95-60.83Z"/>
      <path class="cls-1" d="m1380.38,268.89c-2.85,0-4.17-2.18-2.81-4.69,12.48-23.05,24.97-46.1,37.46-69.15.93-1.72,2.46-2.33,3.99-1.63.8.37,1.23,1.04,1.62,1.78,4.24,7.84,29.09,53.73,37.28,68.84.38.7.72,1.4.64,2.23-.15,1.44-1.32,2.56-2.81,2.61-.97.04-1.94,0-2.91,0-11.68,0-59.99,0-72.46,0Zm37.41-66.71c-11.05,20.4-21.98,40.59-32.95,60.83h65.89c-10.98-20.28-21.92-40.46-32.95-60.83Z"/>
      <path class="cls-1" d="m1454.38,268.89c-2.85,0-4.17-2.18-2.81-4.69,12.48-23.05,24.97-46.1,37.46-69.15.93-1.72,2.46-2.33,3.99-1.63.8.37,1.23,1.04,1.62,1.78,4.24,7.84,29.09,53.73,37.28,68.84.38.7.72,1.4.64,2.23-.15,1.44-1.32,2.56-2.81,2.61-.97.04-1.94,0-2.91,0-11.68,0-59.99,0-72.46,0Zm37.41-66.71c-11.05,20.4-21.98,40.59-32.95,60.83h65.89c-10.98-20.28-21.92-40.46-32.95-60.83Z"/>
    </g>
  </g>
</svg>