<?xml version="1.0" encoding="UTF-8"?>
<svg id="Layer_2" data-name="Layer 2" xmlns="http://www.w3.org/2000/svg" viewBox="0 0 1924 924">
  <defs>
    <style>
      .cls-1, .cls-2 {
        fill: #fff;
      }

      .cls-2 {
        font-family: Poppins-Regular, Poppins;
        font-size: 72px;
      }
    </style>
  </defs>
  <g id="Export_Q" data-name="Export Q">
    <rect width="1924" height="924"/>
    <text class="cls-2" transform="translate(105.76 176.68)"><tspan x="0" y="0">How many triangles are there?</tspan></text>
    <g>
      <path class="cls-1" d="m1342.38,198.89c-2.85,0-4.17-2.18-2.81-4.69,12.48-23.05,24.97-46.1,37.46-69.15.93-1.72,2.46-2.33,3.99-1.63.8.37,1.23,1.04,1.62,1.78,4.24,7.84,29.09,53.73,37.28,68.84.38.7.72,1.4.64,2.23-.15,1.44-1.32,2.56-2.81,2.61-.97.04-1.94,0-2.91,0-11.68,0-59.99,0-72.46,0Zm37.41-66.71c-11.05,20.4-21.98,40.59-32.95,60.83h65.89c-10.98-20.28-21.92-40.46-32.95-60.83Z"/>
      <path class="cls-1" d="m1416.38,198.89c-2.85,0-4.17-2.18-2.81-4.69,12.48-23.05,24.97-46.1,37.46-69.15.93-1.72,2.46-2.33,3.99-1.63.8.37,1.23,1.04,1.62,1.78,4.24,7.84,29.09,53.73,37.28,68.84.38.7.72,1.4.64,2.23-.15,1.44-1.32,2.56-2.81,2.61-.97.04-1.94,0-2.91,0-11.68,0-59.99,0-72.46,0Zm37.41-66.71c-11.05,20.4-21.98,40.59-32.95,60.83h65.89c-10.98-20.28-21.92-40.46-32.95-60.83Z"/>
      <path class="cls-1" d="m1379.38,130.89c-2.85,0-4.17-2.18-2.81-4.69,12.48-23.05,24.97-46.1,37.46-69.15.93-1.72,2.46-2.33,3.99-1.63.8.37,1.23,1.04,1.62,1.78,4.24,7.84,29.09,53.73,37.28,68.84.38.7.72,1.4.64,2.23-.15,1.44-1.32,2.56-2.81,2.61-.97.04-1.94,0-2.91,0-11.68,0-59.99,0-72.46,0Zm37.41-66.71c-11.05,20.4-21.98,40.59-32.95,60.83h65.89c-10.98-20.28-21.92-40.46-32.95-60.83Z"/>
      <path class="cls-1" d="m1304.38,268.89c-2.85,0-4.17-2.18-2.81-4.69,12.48-23.05,24.97-46.1,37.46-69.15.93-1.72,2.46-2.33,3.99-1.63.8.37,1.23,1.04,1.62,1.78,4.24,7.84,29.09,53.73,37.28,68.84.38.7.72,1.4.64,2.23-.15,1.44-1.32,2.56-2.81,2.61-.97.04-1.94,0-2.91,0-11.68,0-59.99,0-72.46,0Zm37.41-66.71c-11.05,20.4-21.98,40.59-32.95,60.83h65.89c-10.98-20.28-21.92-40.46-32.95-60.83Z"/>
      <path class="cls-1" d="m1380.38,268.89c-2.85,0-4.17-2.18-2.81-4.69,12.48-23.05,24.97-46.1,37.46-69.15.93-1.72,2.46-2.33,3.99-1.63.8.37,1.23,1.04,1.62,1.78,4.24,7.84,29.09,53.73,37.28,68.84.38.7.72,1.4.64,2.23-.15,1.44-1.32,2.56-2.81,2.61-.97.04-1.94,0-2.91,0-11.68,0-59.99,0-72.46,0Zm37.41-66.71c-11.05,20.4-21.98,40.59-32.95,60.83h65.89c-10.98-20.28-21.92-40.46-32.95-60.83Z"/>
      <path class="cls-1" d="m1454.38,268.89c-2.85,0-4.17-2.18-2.81-4.69,12.48-23.05,24.97-46.1,37.46-69.15.93-1.72,2.46-2.33,3.99-1.63.8.37,1.23,1.04,1.62,1.78,4.24,7.84,29.09,53.73,37.28,68.84.38.7.72,1.4.64,2.23-.15,1.44-1.32,2.56-2.81,2.61-.97.04-1.94,0-2.91,0-11.68,0-59.99,0-72.46,0Zm37.41-66.71c-11.05,20.4-21.98,40.59-32.95,60.83h65.89c-10.98-20.28-21.92-40.46-32.95-60.83Z"/>
    </g>
  </g>
</svg>