<?xml version="1.0" encoding="UTF-8"?>
<svg id="Layer_2" data-name="Layer 2" xmlns="http://www.w3.org/2000/svg" viewBox="0 0 46.53 67.5">
  <defs>
    <style>
      .cls-1 {
        fill: #fff;
      }
    </style>
  </defs>
  <g id="Options">
    <path class="cls-1" d="m24.21,55.08c3.18,0,5.43-1.41,6.75-4.23,1.32-2.82,1.98-7.41,1.98-13.77-1.32,1.86-3.12,3.3-5.4,4.32-2.28,1.02-4.83,1.53-7.65,1.53-3.84,0-7.26-.79-10.26-2.38-3-1.59-5.36-3.96-7.06-7.11-1.71-3.15-2.57-6.97-2.57-11.47s.91-8.31,2.75-11.61c1.83-3.3,4.44-5.85,7.83-7.65,3.39-1.8,7.39-2.7,12.01-2.7,8.88,0,15.09,2.76,18.63,8.28,3.54,5.52,5.31,13.65,5.31,24.39,0,7.8-.71,14.24-2.12,19.3-1.41,5.07-3.78,8.93-7.11,11.56-3.33,2.64-7.88,3.96-13.63,3.96-4.56,0-8.45-.9-11.66-2.7-3.21-1.8-5.67-4.17-7.38-7.11-1.71-2.94-2.69-6.18-2.92-9.72h14.22c.9,4.74,3.66,7.11,8.28,7.11Zm5.22-26.59c1.5-1.53,2.25-3.61,2.25-6.25,0-2.88-.78-5.1-2.34-6.66-1.56-1.56-3.66-2.34-6.3-2.34s-4.72.8-6.26,2.38c-1.53,1.59-2.29,3.77-2.29,6.53,0,2.58.77,4.67,2.29,6.25,1.53,1.59,3.74,2.38,6.62,2.38,2.52,0,4.53-.76,6.03-2.29Z"/>
  </g>
</svg>