<?xml version="1.0" encoding="UTF-8"?>
<svg id="Layer_2" data-name="Layer 2" xmlns="http://www.w3.org/2000/svg" viewBox="0 0 113.17 108.13">
  <defs>
    <style>
      .cls-1 {
        fill: #fff;
      }
    </style>
  </defs>
  <g id="Options">
    <path class="cls-1" d="m61.15,2.84l13.54,27.44c.74,1.5,2.17,2.54,3.83,2.78l30.29,4.4c4.17.61,5.84,5.73,2.82,8.68l-21.92,21.36c-1.2,1.17-1.75,2.85-1.46,4.5l5.17,30.16c.71,4.16-3.65,7.33-7.38,5.36l-27.09-14.24c-1.48-.78-3.25-.78-4.73,0l-27.09,14.24c-3.73,1.96-8.09-1.21-7.38-5.36l5.17-30.16c.28-1.65-.26-3.33-1.46-4.5L1.54,46.14c-3.02-2.94-1.35-8.07,2.82-8.68l30.29-4.4c1.66-.24,3.09-1.28,3.83-2.78L52.02,2.84c1.87-3.78,7.26-3.78,9.12,0Z"/>
  </g>
</svg>