<?xml version="1.0" encoding="UTF-8"?>
<svg id="Layer_2" data-name="Layer 2" xmlns="http://www.w3.org/2000/svg" viewBox="0 0 1924 924">
  <defs>
    <style>
      .cls-1 {
        fill: #fff;
      }
    </style>
  </defs>
  <g id="Export_Q" data-name="Export Q">
    <rect width="1924" height="924"/>
    <g>
      <path class="cls-1" d="m176.38,120.49l-14.54,50.18h-7.34l-11.66-40.39-12.1,40.39-7.27.07-14.04-50.26h6.98l10.94,42.55,12.1-42.55h7.34l11.52,42.41,11.02-42.41h7.06Z"/>
      <path class="cls-1" d="m211.23,132.41c2.4,1.27,4.28,3.18,5.65,5.72,1.37,2.54,2.05,5.64,2.05,9.29v23.26h-6.48v-22.32c0-3.94-.98-6.95-2.95-9.04-1.97-2.09-4.66-3.13-8.06-3.13s-6.2,1.08-8.24,3.24c-2.04,2.16-3.06,5.3-3.06,9.43v21.82h-6.55v-53.28h6.55v19.44c1.3-2.02,3.08-3.58,5.36-4.68,2.28-1.1,4.84-1.66,7.67-1.66,2.98,0,5.66.64,8.06,1.91Z"/>
      <path class="cls-1" d="m229.88,123.52c-.86-.86-1.3-1.92-1.3-3.17s.43-2.3,1.3-3.17c.86-.86,1.92-1.3,3.17-1.3s2.22.43,3.06,1.3c.84.86,1.26,1.92,1.26,3.17s-.42,2.3-1.26,3.17c-.84.86-1.86,1.3-3.06,1.3s-2.3-.43-3.17-1.3Zm6.34,7.7v39.46h-6.55v-39.46h6.55Z"/>
      <path class="cls-1" d="m247.37,140.18c1.63-3.05,3.9-5.41,6.8-7.09,2.9-1.68,6.23-2.52,9.97-2.52,4.85,0,8.84,1.18,11.99,3.53,3.14,2.35,5.22,5.62,6.23,9.79h-7.06c-.67-2.4-1.98-4.29-3.92-5.69-1.94-1.39-4.36-2.09-7.24-2.09-3.74,0-6.77,1.28-9.07,3.85-2.3,2.57-3.46,6.2-3.46,10.91s1.15,8.42,3.46,11.02c2.3,2.59,5.33,3.89,9.07,3.89,2.88,0,5.28-.67,7.2-2.02,1.92-1.34,3.24-3.26,3.96-5.76h7.06c-1.06,4.03-3.17,7.26-6.34,9.68-3.17,2.42-7.13,3.64-11.88,3.64-3.74,0-7.07-.84-9.97-2.52-2.9-1.68-5.17-4.06-6.8-7.13-1.63-3.07-2.45-6.67-2.45-10.8s.82-7.64,2.45-10.69Z"/>
      <path class="cls-1" d="m318.72,132.41c2.4,1.27,4.28,3.18,5.65,5.72,1.37,2.54,2.05,5.64,2.05,9.29v23.26h-6.48v-22.32c0-3.94-.98-6.95-2.95-9.04-1.97-2.09-4.66-3.13-8.06-3.13s-6.2,1.08-8.24,3.24c-2.04,2.16-3.06,5.3-3.06,9.43v21.82h-6.55v-53.28h6.55v19.44c1.3-2.02,3.08-3.58,5.36-4.68,2.28-1.1,4.84-1.66,7.67-1.66,2.98,0,5.66.64,8.06,1.91Z"/>
      <path class="cls-1" d="m362.21,169.78c-2.4-1.03-4.3-2.47-5.69-4.32-1.39-1.85-2.16-3.97-2.3-6.37h6.77c.19,1.97,1.12,3.58,2.77,4.82,1.66,1.25,3.83,1.87,6.52,1.87,2.5,0,4.46-.55,5.9-1.66,1.44-1.1,2.16-2.5,2.16-4.18s-.77-3.01-2.3-3.85c-1.54-.84-3.91-1.67-7.13-2.48-2.93-.77-5.32-1.55-7.16-2.34-1.85-.79-3.43-1.97-4.75-3.53-1.32-1.56-1.98-3.61-1.98-6.16,0-2.02.6-3.86,1.8-5.54,1.2-1.68,2.9-3.01,5.11-4,2.21-.98,4.73-1.48,7.56-1.48,4.37,0,7.9,1.1,10.58,3.31,2.69,2.21,4.13,5.23,4.32,9.07h-6.55c-.14-2.06-.97-3.72-2.48-4.97-1.51-1.25-3.54-1.87-6.08-1.87-2.35,0-4.22.5-5.62,1.51-1.39,1.01-2.09,2.33-2.09,3.96,0,1.3.42,2.36,1.26,3.2.84.84,1.9,1.51,3.17,2.02,1.27.5,3.04,1.07,5.29,1.69,2.83.77,5.14,1.52,6.91,2.27,1.78.75,3.3,1.86,4.57,3.35,1.27,1.49,1.93,3.43,1.98,5.83,0,2.16-.6,4.1-1.8,5.83-1.2,1.73-2.89,3.08-5.08,4.07-2.18.98-4.69,1.48-7.52,1.48-3.02,0-5.74-.52-8.14-1.55Z"/>
      <path class="cls-1" d="m421.61,132.41c2.4,1.27,4.28,3.18,5.65,5.72,1.37,2.54,2.05,5.64,2.05,9.29v23.26h-6.48v-22.32c0-3.94-.98-6.95-2.95-9.04-1.97-2.09-4.66-3.13-8.06-3.13s-6.2,1.08-8.24,3.24c-2.04,2.16-3.06,5.3-3.06,9.43v21.82h-6.55v-53.28h6.55v19.44c1.3-2.02,3.08-3.58,5.36-4.68,2.28-1.1,4.84-1.66,7.67-1.66,2.98,0,5.66.64,8.06,1.91Z"/>
      <path class="cls-1" d="m440.04,140.18c1.63-3.05,3.88-5.41,6.73-7.09,2.86-1.68,6.04-2.52,9.54-2.52s6.46.74,9,2.23c2.54,1.49,4.44,3.36,5.69,5.62v-7.2h6.62v39.46h-6.62v-7.34c-1.3,2.3-3.23,4.21-5.8,5.72-2.57,1.51-5.56,2.27-8.96,2.27s-6.67-.86-9.5-2.59c-2.83-1.73-5.06-4.15-6.7-7.27-1.63-3.12-2.45-6.67-2.45-10.66s.82-7.57,2.45-10.62Zm29.16,2.92c-1.2-2.21-2.82-3.9-4.86-5.08-2.04-1.18-4.28-1.76-6.73-1.76s-4.68.58-6.7,1.73c-2.02,1.15-3.62,2.83-4.82,5.04-1.2,2.21-1.8,4.8-1.8,7.78s.6,5.65,1.8,7.88c1.2,2.23,2.81,3.94,4.82,5.11,2.02,1.18,4.25,1.76,6.7,1.76s4.69-.59,6.73-1.76c2.04-1.18,3.66-2.88,4.86-5.11,1.2-2.23,1.8-4.84,1.8-7.81s-.6-5.57-1.8-7.78Z"/>
      <path class="cls-1" d="m501.06,132.84c2.57-1.51,5.56-2.27,8.96-2.27s6.68.84,9.54,2.52c2.86,1.68,5.1,4.04,6.73,7.09,1.63,3.05,2.45,6.59,2.45,10.62s-.82,7.54-2.45,10.66c-1.63,3.12-3.88,5.54-6.73,7.27-2.86,1.73-6.04,2.59-9.54,2.59s-6.32-.76-8.89-2.27c-2.57-1.51-4.52-3.4-5.87-5.65v25.99h-6.55v-58.18h6.55v7.27c1.3-2.26,3.23-4.14,5.8-5.65Zm19.19,10.19c-1.2-2.21-2.82-3.89-4.86-5.04-2.04-1.15-4.28-1.73-6.73-1.73s-4.62.59-6.66,1.76c-2.04,1.18-3.67,2.88-4.9,5.11-1.22,2.23-1.84,4.81-1.84,7.74s.61,5.58,1.84,7.81c1.22,2.23,2.86,3.94,4.9,5.11,2.04,1.18,4.26,1.76,6.66,1.76s4.69-.59,6.73-1.76c2.04-1.18,3.66-2.88,4.86-5.11,1.2-2.23,1.8-4.86,1.8-7.88s-.6-5.57-1.8-7.78Z"/>
      <path class="cls-1" d="m573.17,153.4h-31.54c.24,3.89,1.57,6.92,4,9.11,2.42,2.18,5.36,3.28,8.82,3.28,2.83,0,5.2-.66,7.09-1.98,1.9-1.32,3.23-3.08,4-5.29h7.06c-1.06,3.79-3.17,6.88-6.34,9.25s-7.1,3.56-11.81,3.56c-3.74,0-7.09-.84-10.04-2.52-2.95-1.68-5.27-4.07-6.95-7.16-1.68-3.1-2.52-6.68-2.52-10.76s.82-7.66,2.45-10.73c1.63-3.07,3.92-5.44,6.88-7.09,2.95-1.66,6.35-2.48,10.19-2.48s7.06.82,9.94,2.45c2.88,1.63,5.1,3.88,6.66,6.73,1.56,2.86,2.34,6.08,2.34,9.68,0,1.25-.07,2.57-.22,3.96Zm-8.21-11.77c-1.1-1.8-2.6-3.17-4.5-4.1-1.9-.94-4-1.4-6.3-1.4-3.31,0-6.13,1.06-8.46,3.17-2.33,2.11-3.66,5.04-4,8.78h24.91c0-2.5-.55-4.64-1.66-6.44Z"/>
      <path class="cls-1" d="m601.25,140.18c1.63-3.05,3.9-5.41,6.8-7.09,2.9-1.68,6.23-2.52,9.97-2.52,4.85,0,8.84,1.18,11.99,3.53,3.14,2.35,5.22,5.62,6.23,9.79h-7.06c-.67-2.4-1.98-4.29-3.92-5.69-1.94-1.39-4.36-2.09-7.24-2.09-3.74,0-6.77,1.28-9.07,3.85-2.3,2.57-3.46,6.2-3.46,10.91s1.15,8.42,3.46,11.02c2.3,2.59,5.33,3.89,9.07,3.89,2.88,0,5.28-.67,7.2-2.02,1.92-1.34,3.24-3.26,3.96-5.76h7.06c-1.06,4.03-3.17,7.26-6.34,9.68-3.17,2.42-7.13,3.64-11.88,3.64-3.74,0-7.07-.84-9.97-2.52-2.9-1.68-5.17-4.06-6.8-7.13-1.63-3.07-2.45-6.67-2.45-10.8s.82-7.64,2.45-10.69Z"/>
      <path class="cls-1" d="m652.12,168.8c-3-1.68-5.35-4.07-7.06-7.16-1.7-3.1-2.56-6.68-2.56-10.76s.88-7.6,2.63-10.69c1.75-3.1,4.14-5.47,7.16-7.13,3.02-1.66,6.41-2.48,10.15-2.48s7.13.83,10.15,2.48c3.02,1.66,5.41,4.02,7.16,7.09,1.75,3.07,2.63,6.65,2.63,10.73s-.9,7.67-2.7,10.76c-1.8,3.1-4.24,5.48-7.31,7.16-3.07,1.68-6.48,2.52-10.22,2.52s-7.04-.84-10.04-2.52Zm16.67-4.9c2.06-1.1,3.73-2.76,5-4.97,1.27-2.21,1.91-4.9,1.91-8.06s-.62-5.86-1.87-8.06c-1.25-2.21-2.88-3.85-4.9-4.93-2.02-1.08-4.2-1.62-6.55-1.62s-4.6.54-6.59,1.62c-1.99,1.08-3.59,2.72-4.79,4.93-1.2,2.21-1.8,4.9-1.8,8.06s.59,5.93,1.76,8.14c1.18,2.21,2.75,3.85,4.72,4.93,1.97,1.08,4.13,1.62,6.48,1.62s4.56-.55,6.62-1.66Z"/>
      <path class="cls-1" d="m746.69,132.41c2.4,1.27,4.3,3.18,5.69,5.72,1.39,2.54,2.09,5.64,2.09,9.29v23.26h-6.48v-22.32c0-3.94-.97-6.95-2.92-9.04-1.94-2.09-4.57-3.13-7.88-3.13s-6.12,1.09-8.14,3.28c-2.02,2.18-3.02,5.34-3.02,9.47v21.74h-6.48v-22.32c0-3.94-.97-6.95-2.92-9.04-1.94-2.09-4.57-3.13-7.88-3.13s-6.12,1.09-8.14,3.28c-2.02,2.18-3.02,5.34-3.02,9.47v21.74h-6.55v-39.46h6.55v5.69c1.3-2.06,3.04-3.65,5.22-4.75,2.18-1.1,4.6-1.66,7.24-1.66,3.31,0,6.24.74,8.78,2.23,2.54,1.49,4.44,3.67,5.69,6.55,1.1-2.78,2.93-4.94,5.47-6.48,2.54-1.54,5.38-2.3,8.5-2.3s5.81.64,8.21,1.91Z"/>
      <path class="cls-1" d="m800.98,153.4h-31.54c.24,3.89,1.57,6.92,4,9.11,2.42,2.18,5.36,3.28,8.82,3.28,2.83,0,5.2-.66,7.09-1.98,1.9-1.32,3.23-3.08,4-5.29h7.06c-1.06,3.79-3.17,6.88-6.34,9.25s-7.1,3.56-11.81,3.56c-3.74,0-7.09-.84-10.04-2.52-2.95-1.68-5.27-4.07-6.95-7.16-1.68-3.1-2.52-6.68-2.52-10.76s.82-7.66,2.45-10.73c1.63-3.07,3.92-5.44,6.88-7.09,2.95-1.66,6.35-2.48,10.19-2.48s7.06.82,9.94,2.45c2.88,1.63,5.1,3.88,6.66,6.73,1.56,2.86,2.34,6.08,2.34,9.68,0,1.25-.07,2.57-.22,3.96Zm-8.21-11.77c-1.1-1.8-2.6-3.17-4.5-4.1-1.9-.94-4-1.4-6.3-1.4-3.31,0-6.13,1.06-8.46,3.17-2.33,2.11-3.66,5.04-4,8.78h24.91c0-2.5-.55-4.64-1.66-6.44Z"/>
      <path class="cls-1" d="m815.66,169.78c-2.4-1.03-4.3-2.47-5.69-4.32-1.39-1.85-2.16-3.97-2.3-6.37h6.77c.19,1.97,1.12,3.58,2.77,4.82,1.66,1.25,3.83,1.87,6.52,1.87,2.5,0,4.46-.55,5.9-1.66,1.44-1.1,2.16-2.5,2.16-4.18s-.77-3.01-2.3-3.85c-1.54-.84-3.91-1.67-7.13-2.48-2.93-.77-5.32-1.55-7.16-2.34-1.85-.79-3.43-1.97-4.75-3.53-1.32-1.56-1.98-3.61-1.98-6.16,0-2.02.6-3.86,1.8-5.54,1.2-1.68,2.9-3.01,5.11-4,2.21-.98,4.73-1.48,7.56-1.48,4.37,0,7.9,1.1,10.58,3.31,2.69,2.21,4.13,5.23,4.32,9.07h-6.55c-.14-2.06-.97-3.72-2.48-4.97-1.51-1.25-3.54-1.87-6.08-1.87-2.35,0-4.22.5-5.62,1.51-1.39,1.01-2.09,2.33-2.09,3.96,0,1.3.42,2.36,1.26,3.2.84.84,1.9,1.51,3.17,2.02,1.27.5,3.04,1.07,5.29,1.69,2.83.77,5.14,1.52,6.91,2.27,1.78.75,3.3,1.86,4.57,3.35,1.27,1.49,1.93,3.43,1.98,5.83,0,2.16-.6,4.1-1.8,5.83-1.2,1.73-2.89,3.08-5.08,4.07-2.18.98-4.69,1.48-7.52,1.48-3.02,0-5.74-.52-8.14-1.55Z"/>
      <path class="cls-1" d="m897.53,134.86c2.98,2.9,4.46,7.09,4.46,12.56v23.26h-6.48v-22.32c0-3.94-.98-6.95-2.95-9.04-1.97-2.09-4.66-3.13-8.06-3.13s-6.2,1.08-8.24,3.24c-2.04,2.16-3.06,5.3-3.06,9.43v21.82h-6.55v-39.46h6.55v5.62c1.3-2.02,3.06-3.58,5.29-4.68,2.23-1.1,4.69-1.66,7.38-1.66,4.8,0,8.69,1.45,11.66,4.36Z"/>
      <path class="cls-1" d="m948.5,153.4h-31.54c.24,3.89,1.57,6.92,4,9.11,2.42,2.18,5.36,3.28,8.82,3.28,2.83,0,5.2-.66,7.09-1.98,1.9-1.32,3.23-3.08,4-5.29h7.06c-1.06,3.79-3.17,6.88-6.34,9.25s-7.1,3.56-11.81,3.56c-3.74,0-7.09-.84-10.04-2.52-2.95-1.68-5.27-4.07-6.95-7.16-1.68-3.1-2.52-6.68-2.52-10.76s.82-7.66,2.45-10.73c1.63-3.07,3.92-5.44,6.88-7.09,2.95-1.66,6.35-2.48,10.19-2.48s7.06.82,9.94,2.45c2.88,1.63,5.1,3.88,6.66,6.73,1.56,2.86,2.34,6.08,2.34,9.68,0,1.25-.07,2.57-.22,3.96Zm-8.21-11.77c-1.1-1.8-2.6-3.17-4.5-4.1-1.9-.94-4-1.4-6.3-1.4-3.31,0-6.13,1.06-8.46,3.17-2.33,2.11-3.66,5.04-4,8.78h24.91c0-2.5-.55-4.64-1.66-6.44Z"/>
      <path class="cls-1" d="m977.95,170.68l-9.36-14.69-9,14.69h-6.84l12.74-19.58-12.74-19.87h7.42l9.36,14.62,8.93-14.62h6.84l-12.67,19.51,12.74,19.94h-7.42Z"/>
      <path class="cls-1" d="m999.84,136.62v23.26c0,1.92.41,3.28,1.22,4.07.82.79,2.23,1.19,4.25,1.19h4.82v5.54h-5.9c-3.65,0-6.38-.84-8.21-2.52-1.82-1.68-2.74-4.44-2.74-8.28v-23.26h-5.11v-5.4h5.11v-9.94h6.55v9.94h10.3v5.4h-10.3Z"/>
      <path class="cls-1" d="m1042.39,123.88c2.93,2.69,4.39,6.29,4.39,10.8,0,5.04-1.56,8.77-4.68,11.2-3.12,2.42-7.34,3.64-12.67,3.64l-.22,6.84h-5.69l-.29-11.38h2.09c4.75,0,8.47-.72,11.16-2.16,2.69-1.44,4.03-4.15,4.03-8.14,0-2.88-.86-5.16-2.59-6.84-1.73-1.68-4.06-2.52-6.98-2.52s-5.32.8-7.02,2.41c-1.7,1.61-2.56,3.81-2.56,6.59h-6.19c0-2.88.65-5.41,1.94-7.6,1.3-2.18,3.13-3.88,5.51-5.08,2.38-1.2,5.12-1.8,8.24-1.8,4.75,0,8.59,1.34,11.52,4.03Zm-19.22,45.94c-.86-.86-1.3-1.92-1.3-3.17s.43-2.3,1.3-3.17c.86-.86,1.92-1.3,3.17-1.3s2.22.43,3.06,1.3c.84.86,1.26,1.92,1.26,3.17s-.42,2.3-1.26,3.17c-.84.86-1.86,1.3-3.06,1.3s-2.3-.43-3.17-1.3Z"/>
    </g>
    <path class="cls-1" d="m1200.01,194c-.8,0-1.59-.19-2.33-.57l-31.11-16.35-31.11,16.35c-1.68.88-3.73.74-5.27-.38-1.54-1.12-2.31-3.01-1.99-4.89l5.94-34.64-25.17-24.53c-1.36-1.33-1.85-3.32-1.27-5.13.59-1.81,2.15-3.13,4.04-3.4l34.78-5.05,15.55-31.52c.84-1.71,2.58-2.79,4.48-2.79s3.64,1.08,4.48,2.79l15.55,31.52,34.78,5.05c1.88.27,3.45,1.59,4.04,3.4.59,1.81.1,3.8-1.27,5.13l-25.17,24.53,5.94,34.64c.32,1.88-.45,3.77-1.99,4.89-.87.63-1.9.96-2.94.96Zm-33.43-27.58c.8,0,1.6.19,2.33.57l24.47,12.86-4.67-27.24c-.28-1.62.26-3.28,1.44-4.43l19.79-19.29-27.35-3.97c-1.63-.24-3.04-1.26-3.76-2.74l-12.23-24.79-12.23,24.79c-.73,1.48-2.14,2.5-3.76,2.74l-27.35,3.97,19.79,19.29c1.18,1.15,1.72,2.8,1.44,4.43l-4.67,27.24,24.47-12.86c.73-.38,1.53-.57,2.33-.57Z"/>
    <circle class="cls-1" cx="1309.5" cy="137.5" r="56.5"/>
    <path class="cls-1" d="m1490.01,194c-.8,0-1.59-.19-2.33-.57l-31.11-16.35-31.11,16.35c-1.68.88-3.73.74-5.27-.38-1.54-1.12-2.31-3.01-1.99-4.89l5.94-34.64-25.17-24.53c-1.36-1.33-1.85-3.32-1.27-5.13.59-1.81,2.15-3.13,4.04-3.4l34.78-5.05,15.55-31.52c.84-1.71,2.58-2.79,4.48-2.79s3.64,1.08,4.48,2.79l15.55,31.52,34.78,5.05c1.88.27,3.45,1.59,4.04,3.4.59,1.81.1,3.8-1.27,5.13l-25.17,24.53,5.94,34.64c.32,1.88-.45,3.77-1.99,4.89-.87.63-1.9.96-2.94.96Zm-33.43-27.58c.8,0,1.6.19,2.33.57l24.47,12.86-4.67-27.24c-.28-1.62.26-3.28,1.44-4.43l19.79-19.29-27.35-3.97c-1.63-.24-3.04-1.26-3.76-2.74l-12.23-24.79-12.23,24.79c-.73,1.48-2.14,2.5-3.76,2.74l-27.35,3.97,19.79,19.29c1.18,1.15,1.72,2.8,1.44,4.43l-4.67,27.24,24.47-12.86c.73-.38,1.53-.57,2.33-.57Z"/>
    <circle class="cls-1" cx="1599.5" cy="137.5" r="56.5"/>
    <rect class="cls-1" x="1698.97" y="189" width="134.27" height="10"/>
  </g>
</svg>