<?xml version="1.0" encoding="UTF-8"?>
<svg id="Layer_2" data-name="Layer 2" xmlns="http://www.w3.org/2000/svg" viewBox="0 0 169.31 157.22">
  <defs>
    <style>
      .cls-1 {
        fill: #fff;
      }
    </style>
  </defs>
  <g id="Options">
    <path class="cls-1" d="m97.45,49.1c-23.26-2.15-44.78,1.01-64.22,13.68-8.28,5.39-14.99,12.33-18.64,21.7-3.52,9.05-3.45,18.08,1.07,26.84,4.57,8.87,15.2,11.65,23.5,6.09,4.55-3.05,9.41-4.92,14.89-5.36,15.2-1.2,29.28,11.15,29.94,26.39.08,1.82.07,3.65.08,5.47,0,.72.11,1.21,1.02,1.18,23.48-.61,45.16-6.07,61.98-23.81,7.02-7.41,10.77-16.38,10.07-26.78-.67-9.9-5.27-17.96-12.23-24.81-1.08-1.06-2.26-2.01-3.33-3.07-2.34-2.32-2.46-5.95-.32-8.36,2.09-2.34,5.72-2.79,8.18-.71,12.56,10.59,20.19,23.7,19.8,40.56-.28,12.17-5.24,22.54-13.32,31.45-10.86,11.98-24.66,19.04-40,23.42-12.4,3.54-25.1,4.49-37.93,4.17-3.55-.09-5.92-2.64-5.99-6.43-.06-3.52.02-7.05-.03-10.57-.09-6.44-3.05-11.25-8.72-14.17-5.65-2.92-11.41-2.74-16.61,1.02-13.67,9.88-35.28,6.22-43.07-12.94-6.01-14.78-4.31-28.99,4.04-42.38,7.51-12.05,18.49-20.14,31.25-25.84,21-9.39,42.94-11.61,65.51-7.74,3.28.56,5.48.05,7.99-2.26,11.89-10.96,23.99-21.71,36.06-32.47,4.12-3.67,8.84-4.32,13.87-2.11,4.41,1.93,7.19,6.57,7,11.37-.14,3.46-1.8,6.18-4.12,8.65-9.83,10.45-19.63,20.94-29.43,31.42-6.58,7.03-13.14,14.08-19.75,21.09-.83.88-1.24,1.74-1.14,3,1.12,13.55-9.69,23.81-21.7,25.64-1.88.29-3.75.36-5.64.36-8.69,0-17.37,0-26.06,0-3.82,0-6.35-1.87-6.9-5.08-.51-3,1.2-5.57,4.59-6.88,3.51-1.36,4.91-3.46,5.03-7.58.08-2.76-.1-5.53.41-8.28,1.9-10.22,10.82-18.73,21.17-20.15.62-.09,1.24-.22,1.87-.27,1.31-.1,2.63-.14,3.94-.23.16-.01.31-.2.45-.32,1.67-1.5,3.33-3.01,5.43-4.91Zm-13.87,41.6c2.51-.15,5.53.27,8.53-.35,5.94-1.25,10.6-6.01,10.73-11.09.22-8.66-6.08-12.81-13.77-12.62-6.92.17-13.13,5.93-12.82,13.35.13,3.2.1,6.42-.87,9.52-.29.92-.04,1.22.93,1.2,2.26-.05,4.52-.02,7.28-.02ZM155.75,13.62c-.1-.11-.2-.22-.3-.33-16.88,15.16-33.76,30.32-50.71,45.54,1.17,1.05,2.39,1.96,3.38,3.07.96,1.09,1.5,1.11,2.54,0,11.13-11.99,22.33-23.92,33.5-35.87,3.86-4.13,7.72-8.27,11.59-12.4Z"/>
  </g>
</svg>