<?xml version="1.0" encoding="UTF-8"?>
<svg id="Layer_2" data-name="Layer 2" xmlns="http://www.w3.org/2000/svg" viewBox="0 0 91.44 156.95">
  <defs>
    <style>
      .cls-1 {
        fill: #fff;
      }
    </style>
  </defs>
  <g id="Options">
    <g>
      <path class="cls-1" d="m51.84,0c2.63.31,5.26.56,7.88.93,3.08.43,6.13,1.08,8.97,2.4,2.65,1.24,3.2,2.21,2.72,5.06-1.26,7.44-2.52,14.87-3.87,22.29-.27,1.49-.13,2.27,1.53,2.65,2.63.61,5.14,1.63,7.64,2.67,2.07.86,2.94,2.56,2.26,4.35-.67,1.79-2.49,2.48-4.57,1.74-.37-.13-.74-.26-1.32-.47.78,2.45,1.48,4.71,1.79,7.07.73,5.58-.19,10.88-2.64,15.9-.47.95-.41,1.29.59,1.76,4.28,2.01,6.39,6.46,5.24,11.06-.24.96,0,1.49.61,2.13,23.47,24.7,13.22,65.18-19.33,75.25-27.34,8.46-54.11-9.13-58.6-35.83-2.55-15.12,1.7-28.34,12.18-39.54.54-.58.73-1.05.53-1.87-1.19-4.78.89-9.14,5.34-11.29.58-.28,1.11-.35.65-1.26-3.78-7.53-4.05-15.25-1.08-23.18-.69-.15-1.19.28-1.74.44-1.79.51-3.54-.28-4.14-1.91-.62-1.66.12-3.43,1.85-4.17,2.58-1.09,5.21-2.05,7.91-2.83,2.03-.59,2.01-.59,1.65-2.66-1.31-7.58-2.62-15.17-3.89-22.76-.38-2.26.15-3.25,2.23-4.31,3.75-1.91,7.84-2.47,11.94-3.04,1.81-.25,3.67-.1,5.46-.59,4.08,0,8.16,0,12.25,0Zm19.98,93.21c0,2.4,0,4.8,0,7.19-.02,3.6-2.38,5.22-5.4,3.32-3.08-1.94-5.66-1.92-8.74,0-3.03,1.9-5.44.28-5.45-3.3-.01-4.64-.05-9.29.02-13.93.02-1.25-.3-1.64-1.6-1.63-8.93.06-17.86.02-26.79.03-1.59,0-3.22.01-4.63-.76-1.11-.61-1.68-.25-2.4.57-8.12,9.16-11.72,19.87-9.85,31.95,2.4,15.47,11.19,26.32,26.01,31.38,14.78,5.04,28.4,2.02,39.84-8.71,15.55-14.59,16.16-39.33,1.64-54.7-.39-.41-.62-1.18-1.58-.79-.94.39-1.11.98-1.09,1.89.05,2.5.02,5,.02,7.5Zm-26.26-27.91c5.76,0,11.52-.03,17.28.03,1.05,0,1.65-.34,2.21-1.2,4.77-7.3,4.64-17.18-.33-24.36-.56-.8-1.22-1.25-2.17-1.5-11.18-2.98-22.34-3.02-33.52-.03-1.05.28-1.79.75-2.41,1.65-4.9,7.18-5,16.94-.25,24.23.56.86,1.15,1.22,2.21,1.21,5.66-.06,11.32-.03,16.97-.03Zm.23-58.79c-6.21-.18-12.17.43-18.03,1.99-.83.22-1.03.48-.88,1.34,1.19,6.67,2.35,13.35,3.45,20.04.16.97.38,1.29,1.42,1.07,9.3-2.03,18.62-2.03,27.93,0,1.06.23,1.26-.12,1.42-1.08,1.08-6.59,2.19-13.17,3.4-19.74.21-1.15-.06-1.49-1.12-1.75-5.83-1.44-11.74-2.08-17.59-1.87Zm.02,65.37c-3.11,0-6.22,0-9.33,0-4.49,0-8.97-.03-13.46.02-2.27.02-3.7,1.7-3.35,3.76.29,1.74,1.67,2.73,3.85,2.73,14.78,0,29.56,0,44.35,0,.41,0,.82.01,1.22-.06,1.44-.25,2.57-1.5,2.7-2.93.13-1.45-.67-2.76-1.99-3.29-.68-.27-1.4-.22-2.11-.22-7.29,0-14.58,0-21.87,0Zm19.5,24.14v-7.9q0-3.23-3.27-3.23t-3.24,3.3c0,2.51,0,5.02,0,7.88,2.28-1.73,4.33-1.56,6.51-.05Z"/>
      <path class="cls-1" d="m48.97,117.55c0,1.79-1.54,3.32-3.32,3.28-1.73-.04-3.19-1.52-3.2-3.25-.01-1.79,1.54-3.32,3.32-3.28,1.74.04,3.19,1.51,3.2,3.24Z"/>
      <path class="cls-1" d="m45.68,104.46c-1.77-.02-3.2-1.43-3.22-3.18-.02-1.79,1.5-3.31,3.3-3.29,1.74.02,3.2,1.48,3.23,3.21.03,1.8-1.47,3.28-3.3,3.26Z"/>
      <path class="cls-1" d="m42.44,53.83c0-.51-.03-1.02,0-1.53.16-2.05,1.4-3.29,3.45-3.31,4.22-.04,8.45-.03,12.67,0,1.89.01,3.22,1.16,3.4,2.83.19,1.77-.7,3.12-2.56,3.6-4.28,1.12-8.56,2.2-12.86,3.24-2.04.49-3.77-.75-4.06-2.85-.09-.65-.01-1.32-.01-1.98-.01,0-.03,0-.04,0Z"/>
      <path class="cls-1" d="m35.95,45.67c-1.83.02-3.33-1.47-3.3-3.26.03-1.74,1.49-3.19,3.23-3.21,1.8-.02,3.32,1.5,3.3,3.29-.03,1.76-1.45,3.16-3.23,3.18Z"/>
      <path class="cls-1" d="m55.58,45.67c-1.84.03-3.34-1.42-3.33-3.23,0-1.73,1.46-3.2,3.2-3.24,1.79-.04,3.34,1.47,3.33,3.26,0,1.75-1.43,3.18-3.2,3.21Z"/>
    </g>
  </g>
</svg>