<?xml version="1.0" encoding="UTF-8"?>
<svg id="Layer_2" data-name="Layer 2" xmlns="http://www.w3.org/2000/svg" viewBox="0 0 1924 924">
  <defs>
    <style>
      .cls-1, .cls-2 {
        fill: #fff;
      }

      .cls-3 {
        fill: none;
        stroke: #fff;
        stroke-linejoin: round;
        stroke-width: 10px;
      }

      .cls-2 {
        font-family: Poppins-Regular, Poppins;
        font-size: 72px;
      }
    </style>
  </defs>
  <g id="Export_Q" data-name="Export Q">
    <rect width="1924" height="924"/>
    <text class="cls-2" transform="translate(99.76 176.68)"><tspan x="0" y="0" xml:space="preserve">        is to       as          is to</tspan></text>
    <line class="cls-3" x1="978.97" y1="183" x2="1099" y2="183"/>
    <g>
      <path class="cls-1" d="m788,173.26c-.92,1.09-1.61,2.46-3.2,2.78-1.25.26-2.5.47-3.74.76-4.37,1.04-7.65,3.59-9.99,7.39-1.69,2.73-2.59,5.74-2.7,8.9-.09,2.52.5,5.02,1.55,7.34,1.03,2.26.28,4.08-.72,5.16-1.24,1.33-3.45,1.63-5.31.84-7.13-3.01-14.96-1.37-20.08,4.62-2.2,2.57-3.52,5.58-3.92,8.98-.41,3.45-3.81,5.45-6.51,3.8-.75-.46-1.41-1.14-1.95-1.85-4.18-5.4-9.87-7.31-16.38-6.55-4.75.55-8.46,3.25-11.21,7.19-.88,1.26-3.02,2.09-4.47,1.73-1.4-.35-3.07-2.17-3.22-3.61-.45-4.42-2.1-8.26-5.47-11.25-2.67-2.37-5.76-3.74-9.34-4.32-3.68-.59-7.04.25-10.4,1.45-1.78.64-3.1.03-4.31-1.22-1.22-1.27-1.45-2.77-.89-4.33.93-2.6,1.83-5.21,1.67-8-.25-4.23-1.6-8.01-4.56-11.21-3.06-3.31-6.84-4.95-11.18-5.61-1.82-.28-3.03-1.5-3.53-3.1-.46-1.45-.27-3.06,1.04-4.22,2.13-1.87,4.25-3.71,5.7-6.22,3.43-5.9,2.92-14.58-2.1-19.55-1.15-1.14-2.4-2.19-3.58-3.3-1.29-1.21-1.52-2.78-1.01-4.32.56-1.7,1.85-2.84,3.72-3.01,6.79-.61,12.63-5.25,14.67-11.86,1.26-4.08,1.16-8.15-.58-12.1-.93-2.12-.54-4.21.9-5.52,1.44-1.31,3.04-1.34,4.67-.68,5.73,2.31,11.24,2.1,16.5-1.29,4.26-2.74,6.96-6.58,7.76-11.61.37-2.36,1.28-4.17,3.59-5.07.64,0,1.28,0,1.91,0,.82.53,1.88.89,2.43,1.62,4.05,5.46,9.23,8.25,16.18,7.42,4.7-.56,8.28-2.9,11.36-6.32.91-1.02,2.07-1.82,3.11-2.72.64,0,1.28,0,1.91,0,2.14.76,3.34,2.21,3.59,4.52.13,1.21.41,2.44.81,3.59,2.02,5.83,6.24,9.35,12.08,10.9,2.96.78,6.01.71,8.98-.3,1.37-.46,2.79-1.19,4.16-1.14,3.71.13,5.35,3.12,3.96,6.38-1.35,3.16-1.98,6.49-1.28,9.87,1.48,7.1,6.34,12.41,13.42,14,2.52.56,5.09.82,5.95,3.86v2.19c-1.26,1.21-2.55,2.39-3.77,3.64-4.1,4.25-6.2,9.16-5.28,15.22.66,4.34,2.78,7.78,6.07,10.45,1.26,1.03,2.38,1.99,2.98,3.5v2.19Zm-85.47-75.84c-2.49,5.16-6.14,9.1-11,11.86-4.84,2.75-10.09,3.73-15.63,3.23,1.27,9.56-3.35,21.06-14.97,26.67,3.33,4.54,4.89,9.63,4.89,15.26,0,5.66-1.87,10.67-5.01,15.28,12.47,6,16.29,18.01,15.11,26.49,12.01-.48,21.15,4.19,26.75,15.01,10.27-6.5,20.46-6.22,30.66.26,2.35-5.14,5.95-9.09,10.74-11.89,4.83-2.81,10.13-3.76,15.61-3.35-.4-12.12,4.4-21.11,15.14-26.66-6.67-10.25-6.44-20.39.16-30.47-10.67-5.61-15.71-14.46-15.32-26.57-12.02.75-20.84-4.38-26.55-15.05-10.11,6.53-20.27,6.64-30.57-.09Z"/>
      <path class="cls-1" d="m716.51,198.21c-11.63-.33-22.27-5.01-30.75-14.21-7.28-7.89-11.18-17.31-11.49-28.12-.39-13.43,4.47-24.71,14.21-33.83,7.89-7.38,17.48-11.13,28.2-11.33,13.45-.24,24.95,4.63,34.02,14.72,7.32,8.15,10.98,17.88,10.97,28.72-.02,12.09-4.24,22.67-13.02,31.26-8.69,8.49-19.11,12.65-32.14,12.78Zm-33.52-43.85c0,9.9,3.59,18.37,10.65,25.2,7.07,6.84,15.64,10.26,25.57,9.82,9.8-.43,18.02-4.37,24.65-11.52,6.12-6.61,9.11-14.62,9.06-23.51-.06-9.66-3.52-18.12-10.57-24.97-7.07-6.86-15.63-10.08-25.33-9.92-18.45.31-34.1,15.38-34.03,34.9Z"/>
    </g>
    <g>
      <path class="cls-1" d="m111.93,129.36c-1.7-.98-3.13-1.78-4.54-2.61-2.73-1.59-3.62-4.46-2.17-6.97,1.4-2.43,4.31-3.13,6.99-1.66,1.48.81,2.94,1.66,4.67,2.64-.14-2.99-.3-5.73-.4-8.48-.09-2.52,1.23-4.46,3.39-5.13,2.85-.88,5.85.82,6.29,3.8.35,2.39.39,4.82.54,7.24.15,2.42.29,4.84.35,7.26.02.9.37,1.38,1.13,1.8,4.67,2.63,9.31,5.29,13.95,7.97.69.4,1.24.48,1.99.07,2.45-1.33,5.08-1.64,7.79-1.05,1.26.27,2.04-.02,2.47-1.35.9-2.81,2.66-4.98,5.23-6.44.68-.39.89-.84.89-1.59-.03-5.41-.04-10.83,0-16.24,0-.87-.36-1.28-1.01-1.71-3.87-2.55-7.74-5.12-11.58-7.71-1.79-1.21-2.6-2.95-2.19-5.08.39-2.05,1.7-3.37,3.74-3.9,1.5-.39,2.85.03,4.1.86,2.21,1.48,4.43,2.95,6.9,4.59,0-1.92-.01-3.54,0-5.17.02-3.14,2.09-5.37,4.96-5.37,2.88,0,4.91,2.22,4.94,5.39.01,1.6,0,3.19,0,4.77.55.26.82-.16,1.13-.37,2.03-1.32,4.01-2.72,6.06-4.01,2.41-1.51,5.3-.9,6.81,1.36,1.52,2.27,1.01,5.2-1.34,6.82-3.82,2.63-7.69,5.19-11.57,7.72-.84.54-1.13,1.13-1.12,2.12.05,5.26.04,10.52.01,15.78,0,.83.13,1.41.94,1.89,2.36,1.39,3.9,3.49,4.64,6.13.39,1.38,1.14,1.8,2.51,1.5,2.82-.61,5.55-.25,8.06,1.21.74.43,1.27.33,1.97-.08,4.68-2.71,9.37-5.41,14.09-8.05.89-.49,1.2-1.06,1.24-2.06.18-4.38.41-8.75.69-13.13.23-3.62,2.86-5.78,6.06-5.08,2.39.52,3.9,2.48,3.82,5.09-.09,2.78-.26,5.55-.41,8.62,1.6-.91,3.01-1.71,4.43-2.51,2.86-1.61,5.82-.98,7.26,1.54,1.45,2.54.51,5.38-2.33,7.05-1.36.8-2.73,1.58-4.37,2.52,2.58,1.3,4.9,2.48,7.23,3.63,1.58.78,2.68,1.92,2.98,3.69.32,1.93-.22,3.6-1.8,4.81-1.67,1.28-3.51,1.39-5.38.47-4.06-2.01-8.12-4.03-12.15-6.1-.85-.44-1.51-.5-2.39.02-4.53,2.66-9.1,5.26-13.68,7.82-.95.53-1.41,1.1-1.39,2.26.03,2.56-.89,4.88-2.57,6.79-1.05,1.19-1.16,2.06-.05,3.31,1.77,1.98,2.67,4.4,2.63,7.08-.01.88.26,1.39,1.04,1.83,4.76,2.67,9.51,5.37,14.22,8.12.74.43,1.27.36,1.97,0,4.13-2.1,8.27-4.18,12.43-6.22,1.82-.89,3.62-.76,5.25.46,1.59,1.19,2.17,2.84,1.87,4.78-.28,1.77-1.35,2.95-2.93,3.73-2.34,1.16-4.67,2.34-7.28,3.66,1.63.95,3.04,1.75,4.43,2.57,2.82,1.66,3.71,4.54,2.21,7.07-1.46,2.45-4.36,3.06-7.15,1.5-1.42-.8-2.84-1.6-4.49-2.53.15,3.07.35,5.88.4,8.7.07,3.52-3.05,5.91-6.35,4.93-2.1-.63-3.38-2.41-3.54-5.09-.25-4.27-.52-8.54-.66-12.82-.04-1.19-.43-1.84-1.46-2.41-4.64-2.58-9.24-5.22-13.83-7.88-.73-.42-1.29-.55-2.1-.08-2.46,1.43-5.15,1.78-7.91,1.18-1.45-.31-2.2.12-2.61,1.57-.74,2.63-2.32,4.7-4.68,6.1-.66.4-.88.85-.88,1.61.03,5.41.04,10.83-.01,16.24,0,.92.38,1.38,1.07,1.83,3.87,2.55,7.73,5.12,11.57,7.72,1.79,1.21,2.55,2.97,2.12,5.1-.42,2.05-1.75,3.35-3.79,3.85-1.5.37-2.85-.07-4.1-.91-2.18-1.46-4.36-2.91-6.86-4.57,0,2.08.04,3.89-.01,5.71-.06,2.22-1.41,3.94-3.48,4.61-1.92.61-4.01-.01-5.28-1.6-.77-.96-1.12-2.06-1.12-3.3,0-1.65-.02-3.3-.04-4.95,0-.04-.04-.09-.16-.32-1.75,1.17-3.49,2.32-5.23,3.47-.64.43-1.27.89-1.94,1.27-2.37,1.35-5.23.68-6.67-1.54-1.49-2.29-.94-5.18,1.42-6.8,3.65-2.51,7.33-4.98,11.07-7.36,1.18-.75,1.6-1.57,1.58-2.97-.09-5.1-.05-10.21-.01-15.31,0-.82-.22-1.3-.95-1.72-2.47-1.4-4.2-3.48-5.08-6.18-.46-1.39-1.16-1.89-2.63-1.56-2.65.59-5.23.26-7.64-1.02-.71-.38-1.27-.42-1.99,0-4.68,2.71-9.37,5.4-14.09,8.04-.8.45-1.01,1-1.05,1.85-.2,4.43-.42,8.86-.7,13.28-.22,3.34-2.58,5.49-5.5,5.13-2.65-.33-4.45-2.35-4.38-5.09.06-2.58.25-5.15.37-7.72.01-.24-.02-.49-.05-.93-1.6.9-3.05,1.73-4.53,2.54-2.76,1.52-5.7.81-7.1-1.69-1.4-2.52-.48-5.35,2.27-6.94,1.38-.8,2.77-1.58,4.13-2.35-.03-.63-.54-.65-.87-.82-2.11-1.08-4.25-2.09-6.35-3.19-2.52-1.32-3.47-4.14-2.3-6.58,1.19-2.48,4.09-3.52,6.7-2.26,4.17,2.02,8.31,4.1,12.44,6.21.77.39,1.34.41,2.1-.03,4.45-2.59,8.92-5.15,13.41-7.66.87-.48,1.24-1,1.22-2.03-.04-2.84.93-5.37,2.81-7.49.88-.99.98-1.76.05-2.79-1.97-2.2-2.94-4.83-2.87-7.78.02-.86-.31-1.29-1.02-1.68-4.58-2.58-9.14-5.18-13.68-7.82-.72-.42-1.24-.4-1.97-.03-3.99,2.04-8,4.03-12.02,6.01-2.97,1.47-5.85.67-7.16-1.95-1.3-2.62-.2-5.39,2.76-6.9,2.24-1.14,4.5-2.26,7.08-3.56Zm68.39,35.57c1.07.15,1.72-.1,2.06-.85.4-.89-.07-1.55-.62-2.22-3.8-4.63-3.8-10.21,0-14.83.59-.72,1.07-1.43.55-2.36-.54-.95-1.44-.84-2.33-.67-6.09,1.12-11.31-1.9-13.26-7.67-.25-.75-.4-1.57-1.42-1.53-.9.03-1.32.66-1.63,1.43-2.59,6.35-6.79,8.78-13.47,7.72-1.05-.17-1.59.23-2.11,1.07-.54.87,0,1.34.44,1.89,3.93,4.85,3.92,10.21,0,15.07-.44.55-.98,1.03-.44,1.9.52.83,1.06,1.24,2.11,1.07,6.68-1.06,10.89,1.37,13.48,7.71.31.77.73,1.4,1.63,1.43,1.02.04,1.17-.78,1.42-1.53,1.46-4.25,4.39-6.9,8.8-7.79,1.68-.34,3.39-.22,4.79.16Z"/>
      <path class="cls-1" d="m143.31,110.86c1.65.12,3.14.83,4.08,2.43.91,1.55,1.81,3.12,2.61,4.73,1.23,2.46.37,5.25-1.92,6.56-2.36,1.34-5.25.59-6.71-1.83-.96-1.58-1.9-3.19-2.67-4.87-1.53-3.29.89-7.01,4.62-7.02Z"/>
      <path class="cls-1" d="m185.24,125.24c-3.51,0-5.97-3.63-4.53-6.86.84-1.87,1.88-3.67,3-5.39,1.4-2.14,4.21-2.71,6.44-1.46,2.13,1.19,3.16,3.89,2.12,6.13-.88,1.91-1.95,3.74-3.07,5.53-.88,1.41-2.33,1.96-3.96,2.05Z"/>
      <path class="cls-1" d="m150.58,188.63c.01.85-.23,1.63-.63,2.36-.81,1.49-1.61,3-2.48,4.45-1.47,2.45-4.28,3.24-6.68,1.93-2.37-1.29-3.25-4.15-1.97-6.66.84-1.65,1.73-3.28,2.72-4.85,1.23-1.94,3.55-2.68,5.69-1.97,1.98.66,3.36,2.62,3.35,4.73Z"/>
      <path class="cls-1" d="m192.65,192.84c.02,2.28-1.34,4.2-3.34,4.88-2.08.7-4.41.03-5.6-1.83-1.11-1.73-2.13-3.53-3-5.39-1.02-2.16-.19-4.69,1.76-6,1.94-1.31,4.71-1.18,6.21.61,1.73,2.05,2.93,4.46,3.88,6.98.11.28.08.61.1.76Z"/>
      <path class="cls-1" d="m123.34,159.37c-.93,0-1.86.05-2.78-.01-2.61-.18-4.61-2.33-4.62-4.91,0-2.58,1.98-4.79,4.58-4.93,1.9-.1,3.82-.11,5.72,0,2.6.15,4.57,2.39,4.54,4.97-.03,2.58-2.04,4.71-4.66,4.87-.92.06-1.85,0-2.78,0Z"/>
      <path class="cls-1" d="m207.46,159.37c-.93,0-1.86.06-2.78-.01-2.6-.19-4.6-2.35-4.59-4.93,0-2.58,2-4.77,4.61-4.91,1.85-.1,3.71-.09,5.56,0,2.68.13,4.71,2.36,4.67,5.01-.04,2.58-2.06,4.69-4.68,4.85-.92.05-1.85,0-2.78,0Z"/>
    </g>
    <g>
      <path class="cls-1" d="m472.4,75.96c2.63.31,5.26.56,7.88.93,3.08.43,6.13,1.08,8.97,2.4,2.65,1.24,3.2,2.21,2.72,5.06-1.26,7.44-2.52,14.87-3.87,22.29-.27,1.49-.13,2.27,1.53,2.65,2.63.61,5.14,1.63,7.64,2.67,2.07.86,2.94,2.56,2.26,4.35-.67,1.79-2.49,2.48-4.57,1.74-.37-.13-.74-.26-1.32-.47.78,2.45,1.48,4.71,1.79,7.07.73,5.58-.19,10.88-2.64,15.9-.47.95-.41,1.29.59,1.76,4.28,2.01,6.39,6.46,5.24,11.06-.24.96,0,1.49.61,2.13,23.47,24.7,13.22,65.18-19.33,75.25-27.34,8.46-54.11-9.13-58.6-35.83-2.55-15.12,1.7-28.34,12.18-39.54.54-.58.73-1.05.53-1.87-1.19-4.78.89-9.14,5.34-11.29.58-.28,1.11-.35.65-1.26-3.78-7.53-4.05-15.25-1.08-23.18-.69-.15-1.19.28-1.74.44-1.79.51-3.54-.28-4.14-1.91-.62-1.66.12-3.43,1.85-4.17,2.58-1.09,5.21-2.05,7.91-2.83,2.03-.59,2.01-.59,1.65-2.66-1.31-7.58-2.62-15.17-3.89-22.76-.38-2.26.15-3.25,2.23-4.31,3.75-1.91,7.84-2.47,11.94-3.04,1.81-.25,3.67-.1,5.46-.59,4.08,0,8.16,0,12.25,0Zm19.98,93.21c0,2.4,0,4.8,0,7.19-.02,3.6-2.38,5.22-5.4,3.32-3.08-1.94-5.66-1.92-8.74,0-3.03,1.9-5.44.28-5.45-3.3-.01-4.64-.05-9.29.02-13.93.02-1.25-.3-1.64-1.6-1.63-8.93.06-17.86.02-26.79.03-1.59,0-3.22.01-4.63-.76-1.11-.61-1.68-.25-2.4.57-8.12,9.16-11.72,19.87-9.85,31.95,2.4,15.47,11.19,26.32,26.01,31.38,14.78,5.04,28.4,2.02,39.84-8.71,15.55-14.59,16.16-39.33,1.64-54.7-.39-.41-.62-1.18-1.58-.79-.94.39-1.11.98-1.09,1.89.05,2.5.02,5,.02,7.5Zm-26.26-27.91c5.76,0,11.52-.03,17.28.03,1.05,0,1.65-.34,2.21-1.2,4.77-7.3,4.64-17.18-.33-24.36-.56-.8-1.22-1.25-2.17-1.5-11.18-2.98-22.34-3.02-33.52-.03-1.05.28-1.79.75-2.41,1.65-4.9,7.18-5,16.94-.25,24.23.56.86,1.15,1.22,2.21,1.21,5.66-.06,11.32-.03,16.97-.03Zm.23-58.79c-6.21-.18-12.17.43-18.03,1.99-.83.22-1.03.48-.88,1.34,1.19,6.67,2.35,13.35,3.45,20.04.16.97.38,1.29,1.42,1.07,9.3-2.03,18.62-2.03,27.93,0,1.06.23,1.26-.12,1.42-1.08,1.08-6.59,2.19-13.17,3.4-19.74.21-1.15-.06-1.49-1.12-1.75-5.83-1.44-11.74-2.08-17.59-1.87Zm.02,65.37c-3.11,0-6.22,0-9.33,0-4.49,0-8.97-.03-13.46.02-2.27.02-3.7,1.7-3.35,3.76.29,1.74,1.67,2.73,3.85,2.73,14.78,0,29.56,0,44.35,0,.41,0,.82.01,1.22-.06,1.44-.25,2.57-1.5,2.7-2.93.13-1.45-.67-2.76-1.99-3.29-.68-.27-1.4-.22-2.11-.22-7.29,0-14.58,0-21.87,0Zm19.5,24.14v-7.9q0-3.23-3.27-3.23t-3.24,3.3c0,2.51,0,5.02,0,7.88,2.28-1.73,4.33-1.56,6.51-.05Z"/>
      <path class="cls-1" d="m469.54,193.51c0,1.79-1.54,3.32-3.32,3.28-1.73-.04-3.19-1.52-3.2-3.25-.01-1.79,1.54-3.32,3.32-3.28,1.74.04,3.19,1.51,3.2,3.24Z"/>
      <path class="cls-1" d="m466.24,180.41c-1.77-.02-3.2-1.43-3.22-3.18-.02-1.79,1.5-3.31,3.3-3.29,1.74.02,3.2,1.48,3.23,3.21.03,1.8-1.47,3.28-3.3,3.26Z"/>
      <path class="cls-1" d="m463,129.79c0-.51-.03-1.02,0-1.53.16-2.05,1.4-3.29,3.45-3.31,4.22-.04,8.45-.03,12.67,0,1.89.01,3.22,1.16,3.4,2.83.19,1.77-.7,3.12-2.56,3.6-4.28,1.12-8.56,2.2-12.86,3.24-2.04.49-3.77-.75-4.06-2.85-.09-.65-.01-1.32-.01-1.98-.01,0-.03,0-.04,0Z"/>
      <path class="cls-1" d="m456.51,121.63c-1.83.02-3.33-1.47-3.3-3.26.03-1.74,1.49-3.19,3.23-3.21,1.8-.02,3.32,1.5,3.3,3.29-.03,1.76-1.45,3.16-3.23,3.18Z"/>
      <path class="cls-1" d="m476.14,121.63c-1.84.03-3.34-1.42-3.33-3.23,0-1.73,1.46-3.2,3.2-3.24,1.79-.04,3.34,1.47,3.33,3.26,0,1.75-1.43,3.18-3.2,3.21Z"/>
    </g>
  </g>
</svg>