<?xml version="1.0" encoding="UTF-8"?>
<svg id="Layer_2" data-name="Layer 2" xmlns="http://www.w3.org/2000/svg" viewBox="0 0 467.41 199.65">
  <defs>
    <style>
      .cls-1 {
        fill: #fff;
      }
    </style>
  </defs>
  <g id="Options">
    <path class="cls-1" d="m391.19,60.57c0-.89,0-1.64,0-2.39,0-8.38-.02-16.75.01-25.13.01-3.12,1.68-5.48,4.43-6.44,2.74-.96,5.8-.13,7.57,2.08,1.15,1.44,1.52,3.12,1.47,4.93.66.13.87-.43,1.19-.73,8.79-8.01,19.13-12.09,31-12.28,4.31-.07,7.11,2.88,7.03,7.29-.17,9.35-2.99,17.84-8.31,25.51-.31.44-.61.89-.95,1.4,2.05.62,4.05,1.13,5.98,1.82,15.87,5.68,26.66,20.57,26.79,37.32.14,18.01-2.57,35.54-9.53,52.27-4.16,10.01-9.68,19.15-18.08,26.24-7.05,5.95-15.07,9.2-24.47,8.37-3.47-.31-6.8-1.18-9.92-2.68-4.91-2.36-9.73-2.27-14.71-.1-12.88,5.62-24.48,2.99-34.92-5.87-8.3-7.03-13.67-16.14-17.81-26.04-5.63-13.46-8.34-27.59-9.24-42.1-.37-6.01-.66-12.01.65-17.98,5.74-26.31,35.71-39.86,59.19-26.73.79.44,1.55.98,2.63,1.24Zm-49.27,38.5c.18,4.1.44,8.19.93,12.27,1.46,11.97,4.31,23.55,9.63,34.43,3.2,6.54,7.13,12.59,12.99,17.11,6.1,4.71,12.75,6.18,19.97,2.78,8.21-3.87,16.38-3.7,24.6-.15,1.91.83,3.85,1.57,5.93,1.83,6.1.74,11.15-1.59,15.63-5.44,5.38-4.61,9.13-10.46,12.09-16.8,7.56-16.17,10.4-33.34,10.23-51.05-.1-10.87-7.43-20.92-17.66-24.64-7.8-2.84-15.4-2.2-22.65,1.77-3.84,2.1-7.8,3.67-12.17,4.15-7,.78-13.37-.97-19.52-4.31-14.49-7.85-32.35-1.25-38.29,13.97-1.78,4.55-1.93,9.28-1.72,14.07Zm63.82-40.22c13.38-3.17,22.16-14.85,23.49-23.65-10.67,2.13-21.13,12.03-23.49,23.65Z"/>
    <path class="cls-1" d="m47.61,0c1.38.33,2.78.61,4.14,1.01,16.04,4.62,23.05,22.97,14.23,37.16-.3.48-.79.88-.8,1.66,1.57.23,3.17.38,4.74.7,11.28,2.28,19.67,12.09,19.82,23.62.17,13.65.17,27.3.01,40.95-.13,11.39-7.29,20.57-18.24,23.69-1.53.44-1.68,1.18-1.68,2.47.03,17.42.02,34.84.01,52.26,0,10-6.16,16.14-16.18,16.15-5.98,0-11.96.02-17.94,0-9.29-.03-15.7-6.38-15.71-15.68-.03-17.55-.03-35.1.03-52.65,0-1.57-.42-2.19-1.98-2.63C7.62,125.72.22,116.2.11,105.33c-.14-13.71-.15-27.43,0-41.14.14-12.48,10.23-23.02,22.72-24.08.63-.05,1.26-.15,2.16-.26-2.04-3.15-3.62-6.28-4.39-9.8C17.64,16.48,26.94,2.72,40.68.42c.51-.08,1.05-.03,1.47-.42,1.82,0,3.64,0,5.46,0Zm12.4,129.67c0-17.68,0-35.35,0-53.03,0-.78-.02-1.56.06-2.34.32-3.06,3.27-5.01,6.23-4.14,2.34.69,3.54,2.47,3.54,5.39.01,13.84.03,27.68-.03,41.52,0,1.69.42,1.89,1.83,1.14,5.49-2.95,8.27-7.57,8.3-13.75.06-12.67.02-25.34.02-38.02,0-10.14-5.51-16-15.59-16.58-5.71-.33-9.82-5.05-9.44-10.75.16-2.38,1.4-4.25,2.6-6.2,3.38-5.44,3.36-11.01-.15-16.32-3.59-5.43-8.95-7.5-15.23-6.36-6.15,1.12-10.17,4.98-11.74,11.11-1.18,4.63-.09,8.83,2.67,12.71,2.34,3.28,2.7,6.87.79,10.48-1.82,3.44-4.81,5.18-8.69,5.33-9.14.36-15.1,6.43-15.18,15.57-.06,6.37-.01,12.74-.01,19.11,0,6.63,0,13.26,0,19.89,0,6.05,2.65,10.6,7.91,13.58,1.95,1.11,2.1,1,2.1-1.19,0-13.52,0-27.03,0-40.55,0-.98,0-1.95.3-2.89.67-2.04,2.59-3.47,4.7-3.46,2.12,0,4.02,1.44,4.68,3.49.32,1.01.3,2.05.3,3.09,0,27.68,0,55.37,0,83.05,0,8.19-.02,16.38,0,24.56.01,3.63,1.88,5.49,5.51,5.59.71.02,1.44-.08,2.14.02,1.85.27,2.41-.4,2.4-2.32-.08-16.9-.05-33.79-.04-50.69,0-.97.01-1.96.18-2.91.4-2.31,2.32-3.89,4.65-3.94,3.11-.07,5.09,2.15,5.1,5.79,0,17.09,0,34.18,0,51.27q0,2.78,2.8,2.78c.13,0,.26,0,.39,0,5.27,0,6.9-1.61,6.9-6.82,0-17.74,0-35.48,0-53.22Z"/>
    <g>
      <path class="cls-1" d="m205.72,187.97c-26.45,0-52.9,0-79.35,0-4.81,0-8.1-2.4-8.92-6.45-.98-4.9,2.54-9.45,7.53-9.63,2.32-.09,4.65-.07,6.97,0,1.03.03,1.54-.22,1.4-1.34-.06-.49-.01-1-.01-1.51,0-49.51,0-99.01,0-148.52,0-6.49,3.05-9.52,9.61-9.52,41.84,0,83.68,0,125.52,0,6.63,0,9.62,3.02,9.62,9.7,0,49.63.01,99.26-.05,148.89,0,1.95.51,2.47,2.37,2.31,1.93-.17,3.89-.08,5.84-.02,4.29.11,7.59,3.3,7.92,7.58.3,4.02-2.68,7.69-6.85,8.35-.92.15-1.88.16-2.81.16-26.26,0-52.52,0-78.78,0Zm-56.26-88.48c0,23.5.01,46.99-.03,70.49,0,1.39.24,1.95,1.82,1.92,6.85-.09,13.7-.1,20.54,0,1.59.02,1.83-.54,1.82-1.94-.06-7.1-.04-14.2-.02-21.3.01-5.83,3.12-8.94,8.96-8.94,15.45,0,30.91-.01,46.36,0,5.82,0,8.92,3.12,8.94,8.97.01,7.1.04,14.2-.03,21.3-.01,1.45.33,1.92,1.86,1.9,6.66-.09,13.32-.11,19.98.01,1.88.03,2.37-.41,2.37-2.34-.06-46.74-.06-93.48,0-140.22,0-1.77-.36-2.29-2.23-2.29-36,.06-71.99.06-107.99,0-1.83,0-2.4.34-2.4,2.31.08,23.37.05,46.74.05,70.11Zm56.25,72.37c4.83,0,9.66-.05,14.49.03,1.35.02,1.69-.41,1.66-1.7-.07-4.26-.08-8.53,0-12.8.02-1.36-.46-1.68-1.74-1.67-9.6.04-19.2.05-28.79,0-1.47,0-1.78.49-1.76,1.85.08,4.2.1,8.41,0,12.61-.04,1.5.51,1.74,1.84,1.72,4.77-.07,9.53-.03,14.3-.03Z"/>
      <path class="cls-1" d="m205.83,75.37c1.44,0,2.89-.06,4.33.01,4.06.2,7.34,3.45,7.6,7.47.26,4.07-2.49,7.78-6.54,8.37-3.66.53-7.4.54-11.06,0-4.03-.6-6.77-4.33-6.49-8.4.27-3.94,3.49-7.18,7.46-7.42,1.56-.09,3.13-.02,4.7-.02Z"/>
      <path class="cls-1" d="m205.7,123.6c-1.44,0-2.89.05-4.33,0-4.09-.17-7.4-3.36-7.7-7.37-.32-4.14,2.47-7.91,6.61-8.49,3.6-.5,7.27-.51,10.87,0,4.14.59,6.93,4.37,6.59,8.5-.32,4.02-3.63,7.19-7.72,7.36-1.44.06-2.88,0-4.33,0Z"/>
      <path class="cls-1" d="m173.68,75.37c1.38,0,2.76-.04,4.14,0,4.24.15,7.55,3.43,7.8,7.68.23,3.96-2.68,7.67-6.75,8.2-3.54.47-7.15.48-10.68-.01-4.18-.58-6.86-4.17-6.62-8.45.22-3.99,3.53-7.24,7.61-7.42,1.5-.07,3.01-.01,4.51-.01Z"/>
      <path class="cls-1" d="m173.37,123.59c-1.44,0-2.89.07-4.32-.01-4-.22-7.25-3.44-7.49-7.35-.27-4.28,2.39-7.91,6.55-8.5,3.6-.51,7.27-.5,10.87,0,4.05.56,6.94,4.36,6.63,8.3-.33,4.2-3.56,7.39-7.72,7.56-1.5.06-3.01.01-4.51,0Z"/>
      <path class="cls-1" d="m237.87,123.6c-1.44,0-2.89.05-4.33,0-4.15-.18-7.39-3.37-7.72-7.56-.31-3.94,2.58-7.74,6.63-8.3,3.6-.5,7.27-.51,10.87,0,4.17.6,6.82,4.21,6.55,8.5-.25,3.99-3.57,7.19-7.68,7.36-1.44.06-2.88,0-4.33,0Z"/>
      <path class="cls-1" d="m238.02,75.36c1.32,0,2.63-.03,3.95,0,4.23.11,7.63,3.27,7.9,7.33.29,4.37-2.41,7.99-6.7,8.56-3.54.47-7.15.48-10.68-.01-4.05-.56-6.95-4.33-6.67-8.28.3-4.19,3.54-7.41,7.69-7.59,1.5-.06,3.01-.01,4.51-.01h0Z"/>
      <path class="cls-1" d="m173.63,43.25c1.44,0,2.89-.05,4.32.01,4.31.2,7.66,3.69,7.66,7.96,0,4.27-3.33,7.82-7.64,7.98-2.94.11-5.89.11-8.83,0-4.35-.15-7.61-3.62-7.61-7.96,0-4.34,3.25-7.79,7.59-7.98,1.5-.07,3.01-.01,4.51,0Z"/>
      <path class="cls-1" d="m238.04,43.25c1.44,0,2.89-.06,4.32.01,4.33.21,7.56,3.69,7.53,8.04-.03,4.25-3.24,7.72-7.48,7.89-3,.12-6.02.12-9.02,0-4.29-.16-7.63-3.77-7.58-8.03.05-4.21,3.33-7.68,7.53-7.9,1.56-.08,3.13-.01,4.7-.01,0,0,0,0,0,0Z"/>
      <path class="cls-1" d="m205.59,59.22c-1.44,0-2.89.06-4.32-.01-4.31-.21-7.62-3.72-7.61-8,.01-4.28,3.34-7.8,7.66-7.94,2.94-.1,5.89-.1,8.84,0,4.31.15,7.62,3.7,7.61,7.99-.01,4.28-3.34,7.76-7.66,7.95-1.5.07-3.01.01-4.51,0Z"/>
    </g>
  </g>
</svg>