<?xml version="1.0" encoding="UTF-8"?>
<svg id="Layer_2" data-name="Layer 2" xmlns="http://www.w3.org/2000/svg" viewBox="0 0 48.6 68.31">
  <defs>
    <style>
      .cls-1 {
        fill: #fff;
      }
    </style>
  </defs>
  <g id="Options">
    <path class="cls-1" d="m1.53,17.64c0-3.24.84-6.19,2.52-8.87,1.68-2.67,4.23-4.8,7.65-6.39,3.42-1.59,7.62-2.38,12.6-2.38s9.16.8,12.55,2.38c3.39,1.59,5.92,3.72,7.6,6.39,1.68,2.67,2.52,5.62,2.52,8.87s-.76,6.06-2.29,8.46c-1.53,2.4-3.59,4.29-6.17,5.67,3.24,1.56,5.73,3.71,7.47,6.44,1.74,2.73,2.61,5.93,2.61,9.58,0,4.26-1.08,7.94-3.24,11.02-2.16,3.09-5.09,5.45-8.78,7.07s-7.78,2.43-12.28,2.43-8.6-.81-12.29-2.43-6.62-3.97-8.77-7.07c-2.16-3.09-3.24-6.76-3.24-11.02,0-3.72.87-6.94,2.61-9.67,1.74-2.73,4.2-4.84,7.38-6.35-5.64-3-8.46-7.71-8.46-14.13Zm15.93,23.08c-1.74,1.53-2.61,3.65-2.61,6.34,0,2.52.85,4.59,2.56,6.21,1.71,1.62,4,2.43,6.89,2.43s5.14-.81,6.79-2.43c1.65-1.62,2.48-3.69,2.48-6.21s-.85-4.74-2.56-6.3c-1.71-1.56-3.95-2.34-6.71-2.34s-5.1.76-6.84,2.29Zm12.47-26.46c-1.41-1.35-3.29-2.02-5.62-2.02s-4.22.69-5.62,2.07c-1.41,1.38-2.12,3.3-2.12,5.76s.72,4.19,2.16,5.54c1.44,1.35,3.3,2.03,5.58,2.03s4.14-.69,5.58-2.07c1.44-1.38,2.16-3.24,2.16-5.58,0-2.46-.71-4.36-2.11-5.71Z"/>
  </g>
</svg>