<?xml version="1.0" encoding="UTF-8"?>
<svg id="Layer_2" data-name="Layer 2" xmlns="http://www.w3.org/2000/svg" viewBox="0 0 46.53 65.79">
  <defs>
    <style>
      .cls-1 {
        fill: #fff;
      }
    </style>
  </defs>
  <g id="Options">
    <path class="cls-1" d="m42.75,13.5H14.67v12.42c1.2-1.32,2.88-2.4,5.04-3.24,2.16-.84,4.5-1.26,7.02-1.26,4.5,0,8.23,1.02,11.21,3.06,2.97,2.04,5.14,4.68,6.52,7.92,1.38,3.24,2.07,6.75,2.07,10.53,0,7.02-1.98,12.59-5.94,16.7-3.96,4.11-9.54,6.17-16.74,6.17-4.8,0-8.97-.82-12.51-2.47-3.54-1.65-6.27-3.95-8.19-6.89-1.92-2.94-2.97-6.33-3.15-10.17h15.03c.36,1.86,1.23,3.41,2.61,4.64,1.38,1.23,3.27,1.84,5.67,1.84,2.82,0,4.92-.9,6.3-2.7,1.38-1.8,2.07-4.2,2.07-7.2s-.72-5.19-2.16-6.75c-1.44-1.56-3.54-2.34-6.3-2.34-2.04,0-3.72.5-5.04,1.49-1.32.99-2.19,2.29-2.61,3.92H.72V0h42.03v13.5Z"/>
  </g>
</svg>