<?xml version="1.0" encoding="UTF-8"?>
<svg id="Layer_2" data-name="Layer 2" xmlns="http://www.w3.org/2000/svg" viewBox="0 0 1924 924">
  <defs>
    <style>
      .cls-1, .cls-2 {
        fill: #fff;
      }

      .cls-3 {
        font-family: Poppins-Bold, Poppins;
        font-weight: 700;
      }

      .cls-4 {
        fill: none;
        stroke: #fff;
        stroke-linejoin: round;
        stroke-width: 10px;
      }

      .cls-5 {
        letter-spacing: 0em;
      }

      .cls-5, .cls-6 {
        font-family: Poppins-Regular, Poppins;
      }

      .cls-2 {
        font-size: 72px;
      }
    </style>
  </defs>
  <g id="Export_Q" data-name="Export Q">
    <rect width="1924" height="924"/>
    <text class="cls-2" transform="translate(105.76 178.68)"><tspan class="cls-6" x="0" y="0" xml:space="preserve">          is to </tspan><tspan class="cls-3" x="358.27" y="0">4</tspan><tspan class="cls-5" x="407.01" y="0" xml:space="preserve"> as          is to</tspan></text>
    <line class="cls-4" x1="977.97" y1="186" x2="1112.24" y2="186"/>
    <path class="cls-1" d="m642.6,232.58c-5.6,0-8.17-4.28-5.51-9.2,24.49-45.22,48.99-90.44,73.49-135.65,1.83-3.37,4.82-4.57,7.82-3.19,1.56.72,2.41,2.05,3.18,3.48,8.32,15.37,57.07,105.4,73.14,135.03.75,1.38,1.42,2.75,1.25,4.38-.3,2.83-2.59,5.01-5.51,5.12-1.9.07-3.81.02-5.71.02-22.92,0-117.68,0-142.15,0Zm73.39-130.87c-21.68,40.02-43.13,79.62-64.63,119.32h129.26c-21.55-39.78-42.99-79.37-64.63-119.32Z"/>
    <rect class="cls-4" x="117" y="85.29" width="146" height="146"/>
  </g>
</svg>