<?xml version="1.0" encoding="UTF-8"?>
<svg id="Layer_2" data-name="Layer 2" xmlns="http://www.w3.org/2000/svg" viewBox="0 0 572.76 130.05">
  <defs>
    <style>
      .cls-1 {
        fill: #fff;
      }
    </style>
  </defs>
  <g id="Options">
    <path class="cls-1" d="m0,68.42c1.08-1.38,1.56-3.07,2.34-4.6.79-1.55,1.55-3.12,2.21-4.73.4-.97.86-1.33,1.98-1.16,5.74.87,11.51,1.55,17.3,2.03,15.37,1.27,30.64,1.14,45.51-3.64,6.75-2.17,13.21-4.96,18.67-9.65,2.42-2.08,4.5-4.47,6.46-6.97,1.68-2.15,3.26-4.38,5.05-6.43,2.34-2.69,3.45-5.81,3.66-9.29.17-2.75.7-5.52.02-8.27-.19-.78.23-.86.82-1,5.42-1.3,10.85-2.6,16.26-3.97,1.13-.29,1.43-.07,1.5,1.1.26,4.14.58,8.29,1.86,12.29.6,1.89,1.48,3.62,2.75,5.16,4.54,5.51,8.1,11.55,9.83,18.54,2.46,9.9.71,19.23-3.92,28.14-4.57,8.79-11.15,15.93-18.67,22.24-8.36,7.02-17.31,13.08-27.7,16.77-10.03,3.56-20.31,5.28-30.94,4.11-9.42-1.04-17.92-4.33-25-10.85-.57-.53-.83-1.05-.8-1.84.14-3.39.27-6.79.28-10.19,0-1.08.73-1.04,1.36-1.31-.41-.52-1.02-.52-1.54-.69-7.58-2.55-14.56-6.11-20.33-11.79-3.54-3.49-6.26-7.55-8.33-12.06-.18-.39-.2-.88-.64-1.12v-.8Zm61.81,43.17c3.11-.15,6.17-.42,9.22-.94,11.57-1.97,22.03-6.45,31.42-13.51,8.16-6.14,15.68-12.87,21.17-21.6,3.45-5.5,5.74-11.41,5.9-17.97.21-8.45-2.99-15.73-8.21-22.12-3.42-4.19-5.49-8.83-6.28-14.11-.15-1-.43-1.31-1.52-.98-1.02.31-.85.76-.58,1.45,1.88,4.87,2.62,9.8,1.03,14.93-.71,2.3-1.27,4.65-1.85,6.98-1.73,6.99-4.21,13.63-8.68,19.4-7.6,9.81-17.16,17.26-27.96,23.19-11.52,6.33-23.82,10.71-36.41,14.35-2.02.59-2,.59-2.03,2.66-.01.64.17,1.06.69,1.46,1.42,1.09,2.91,2.07,4.51,2.88,6.17,3.16,12.81,4,19.6,3.93Zm43.43-73.06c-.43.54-.8.99-1.15,1.44-3.32,4.2-6.46,8.56-10.5,12.15-6.02,5.36-13.18,8.63-20.7,11.19-11.5,3.92-23.41,5.17-35.49,5.09-8.9-.05-17.75-.84-26.57-2.01-.35-.05-.72-.2-1.05,0-.68.4-1.2,2.75-.8,3.5,2.36,4.38,5.75,7.83,9.83,10.62,7.84,5.35,16.67,7.97,25.94,9.41,1.52.24,2.89.02,4.29-.52,2.7-1.04,5.46-1.96,8.14-3.05,11.96-4.83,23.12-10.96,32.69-19.79,8.26-7.62,13.69-16.71,15.37-28.03Z"/>
    <g>
      <path class="cls-1" d="m334.56,41.5c-1.6-.92-2.94-1.67-4.26-2.45-2.56-1.49-3.39-4.19-2.04-6.54,1.32-2.28,4.05-2.94,6.56-1.56,1.39.76,2.76,1.56,4.38,2.47-.13-2.8-.28-5.38-.37-7.96-.08-2.36,1.15-4.18,3.18-4.81,2.68-.83,5.49.77,5.91,3.56.33,2.24.37,4.53.5,6.8.14,2.27.28,4.54.33,6.81.02.84.35,1.29,1.06,1.69,4.38,2.47,8.74,4.97,13.09,7.48.65.37,1.17.45,1.87.07,2.3-1.25,4.76-1.53,7.31-.99,1.19.26,1.91-.02,2.31-1.27.85-2.63,2.5-4.68,4.91-6.04.64-.36.83-.78.83-1.5-.03-5.08-.04-10.16,0-15.24,0-.81-.34-1.2-.94-1.6-3.63-2.39-7.26-4.8-10.87-7.24-1.68-1.13-2.44-2.76-2.05-4.76.37-1.92,1.6-3.16,3.51-3.66,1.41-.36,2.67.02,3.85.81,2.08,1.38,4.16,2.77,6.48,4.31,0-1.8,0-3.32,0-4.85C380.15,2.09,382.09,0,384.78,0c2.7,0,4.61,2.09,4.63,5.06.01,1.5,0,3,0,4.48.52.24.77-.15,1.06-.34,1.9-1.24,3.76-2.55,5.69-3.76,2.26-1.42,4.98-.84,6.4,1.28,1.42,2.13.95,4.88-1.25,6.4-3.58,2.47-7.21,4.87-10.86,7.24-.78.51-1.06,1.06-1.05,1.99.05,4.93.03,9.87.01,14.81,0,.78.12,1.33.88,1.78,2.22,1.31,3.66,3.28,4.36,5.75.36,1.29,1.07,1.69,2.36,1.41,2.65-.57,5.2-.24,7.56,1.13.7.41,1.19.31,1.84-.07,4.39-2.55,8.79-5.08,13.22-7.55.83-.46,1.13-1,1.16-1.93.16-4.11.38-8.22.64-12.32.22-3.39,2.68-5.42,5.68-4.77,2.24.49,3.66,2.32,3.59,4.77-.08,2.61-.25,5.21-.39,8.09,1.5-.85,2.83-1.6,4.16-2.35,2.68-1.51,5.46-.92,6.81,1.45,1.36,2.38.48,5.05-2.19,6.61-1.28.75-2.57,1.48-4.1,2.36,2.42,1.22,4.6,2.33,6.79,3.41,1.48.73,2.52,1.81,2.79,3.47.3,1.81-.21,3.38-1.69,4.51-1.57,1.2-3.3,1.31-5.05.44-3.81-1.89-7.62-3.78-11.4-5.72-.8-.41-1.42-.47-2.24.02-4.25,2.49-8.54,4.93-12.84,7.34-.89.5-1.32,1.03-1.3,2.12.03,2.41-.83,4.58-2.41,6.37-.98,1.12-1.09,1.94-.05,3.1,1.66,1.86,2.5,4.13,2.47,6.64,0,.83.24,1.31.98,1.72,4.47,2.5,8.92,5.04,13.35,7.62.69.4,1.19.33,1.85,0,3.88-1.97,7.76-3.92,11.67-5.84,1.7-.84,3.4-.72,4.93.43,1.49,1.12,2.03,2.67,1.75,4.49-.26,1.66-1.27,2.76-2.75,3.5-2.2,1.09-4.38,2.2-6.83,3.43,1.53.89,2.85,1.64,4.16,2.41,2.64,1.55,3.48,4.26,2.07,6.64-1.37,2.3-4.09,2.88-6.71,1.41-1.34-.75-2.67-1.5-4.21-2.38.14,2.89.33,5.52.38,8.16.07,3.31-2.86,5.54-5.96,4.62-1.97-.59-3.17-2.27-3.32-4.78-.24-4.01-.49-8.02-.62-12.03-.04-1.11-.4-1.73-1.37-2.26-4.35-2.42-8.67-4.9-12.98-7.39-.69-.4-1.22-.51-1.97-.07-2.31,1.34-4.83,1.67-7.42,1.11-1.36-.29-2.06.11-2.45,1.47-.7,2.47-2.18,4.41-4.39,5.73-.62.37-.83.8-.83,1.51.03,5.08.04,10.16,0,15.24,0,.86.35,1.29,1,1.72,3.63,2.4,7.26,4.8,10.86,7.25,1.68,1.14,2.4,2.79,1.99,4.78-.39,1.93-1.64,3.14-3.55,3.61-1.41.35-2.67-.07-3.84-.85-2.04-1.37-4.09-2.73-6.43-4.29,0,1.95.04,3.65,0,5.35-.06,2.08-1.32,3.7-3.27,4.32-1.8.57-3.76-.01-4.96-1.5-.72-.9-1.05-1.94-1.05-3.09,0-1.55-.02-3.09-.04-4.64,0-.04-.04-.08-.15-.3-1.65,1.09-3.28,2.18-4.91,3.26-.6.4-1.19.83-1.82,1.19-2.23,1.27-4.9.64-6.26-1.45-1.4-2.15-.88-4.87,1.33-6.38,3.43-2.35,6.88-4.67,10.39-6.91,1.11-.71,1.5-1.48,1.48-2.78-.08-4.79-.05-9.58-.01-14.37,0-.77-.21-1.22-.89-1.61-2.32-1.32-3.94-3.27-4.77-5.8-.43-1.31-1.09-1.77-2.47-1.46-2.49.56-4.91.24-7.17-.96-.67-.36-1.19-.4-1.87,0-4.39,2.55-8.79,5.07-13.22,7.55-.75.42-.95.94-.99,1.73-.19,4.16-.39,8.31-.66,12.46-.2,3.13-2.42,5.16-5.16,4.82-2.49-.31-4.17-2.21-4.11-4.78.06-2.42.23-4.83.35-7.25.01-.23-.02-.46-.05-.87-1.5.84-2.87,1.63-4.25,2.39-2.59,1.42-5.35.76-6.66-1.59-1.32-2.36-.45-5.02,2.13-6.52,1.29-.75,2.6-1.48,3.88-2.21-.03-.59-.51-.61-.81-.77-1.98-1.01-3.99-1.96-5.96-3-2.36-1.24-3.26-3.89-2.16-6.18,1.12-2.33,3.84-3.3,6.29-2.12,3.91,1.89,7.8,3.85,11.67,5.83.72.37,1.26.39,1.97-.03,4.18-2.43,8.37-4.83,12.59-7.19.81-.45,1.16-.94,1.15-1.91-.04-2.66.87-5.04,2.64-7.03.83-.93.92-1.65.05-2.62-1.85-2.06-2.76-4.53-2.69-7.3.02-.8-.29-1.21-.95-1.58-4.29-2.42-8.58-4.86-12.84-7.34-.68-.39-1.17-.37-1.84-.03-3.74,1.91-7.51,3.78-11.28,5.64-2.78,1.38-5.49.62-6.72-1.83-1.22-2.46-.19-5.06,2.59-6.47,2.11-1.07,4.22-2.12,6.64-3.34Zm64.18,33.38c1,.14,1.61-.09,1.93-.8.37-.83-.06-1.46-.58-2.09-3.57-4.34-3.57-9.58,0-13.92.56-.68,1.01-1.35.52-2.21-.51-.9-1.35-.78-2.19-.63-5.72,1.05-10.62-1.78-12.44-7.2-.24-.71-.37-1.47-1.33-1.44-.84.03-1.24.62-1.53,1.34-2.43,5.96-6.37,8.24-12.64,7.25-.98-.16-1.49.22-1.98,1-.51.81,0,1.26.41,1.78,3.68,4.56,3.68,9.58,0,14.15-.41.51-.92.97-.42,1.78.49.78.99,1.16,1.98,1.01,6.27-1,10.22,1.28,12.65,7.24.29.72.69,1.31,1.53,1.34.96.04,1.09-.73,1.34-1.43,1.37-3.99,4.12-6.47,8.26-7.31,1.58-.32,3.18-.2,4.5.15Z"/>
      <path class="cls-1" d="m364.01,24.14c1.55.11,2.95.78,3.83,2.28.86,1.46,1.69,2.93,2.45,4.44,1.15,2.31.35,4.93-1.8,6.15-2.22,1.26-4.93.55-6.3-1.71-.9-1.49-1.78-3-2.51-4.57-1.43-3.08.83-6.58,4.34-6.59Z"/>
      <path class="cls-1" d="m403.35,37.63c-3.3,0-5.61-3.41-4.25-6.44.79-1.76,1.76-3.45,2.81-5.06,1.31-2.01,3.95-2.54,6.04-1.37,2,1.12,2.96,3.65,1.99,5.76-.83,1.79-1.83,3.51-2.88,5.19-.83,1.32-2.19,1.84-3.72,1.93Z"/>
      <path class="cls-1" d="m370.83,97.12c.01.79-.22,1.53-.59,2.22-.76,1.4-1.51,2.81-2.33,4.18-1.38,2.3-4.02,3.04-6.27,1.81-2.22-1.22-3.05-3.89-1.85-6.25.79-1.55,1.62-3.08,2.55-4.55,1.16-1.82,3.33-2.52,5.34-1.84,1.86.62,3.16,2.46,3.14,4.44Z"/>
      <path class="cls-1" d="m410.31,101.07c.02,2.14-1.26,3.95-3.14,4.58-1.95.66-4.13.03-5.25-1.71-1.04-1.62-2-3.32-2.82-5.06-.95-2.02-.18-4.4,1.65-5.63,1.82-1.23,4.42-1.1,5.83.57,1.62,1.92,2.75,4.19,3.64,6.55.1.26.07.57.09.71Z"/>
      <path class="cls-1" d="m345.26,69.66c-.87,0-1.74.05-2.61,0-2.45-.17-4.32-2.19-4.33-4.61,0-2.42,1.86-4.5,4.3-4.63,1.78-.1,3.58-.1,5.37,0,2.44.14,4.29,2.24,4.26,4.66-.03,2.42-1.91,4.42-4.37,4.57-.87.05-1.74,0-2.61,0Z"/>
      <path class="cls-1" d="m424.21,69.66c-.87,0-1.74.05-2.61,0-2.44-.18-4.31-2.21-4.31-4.63,0-2.42,1.88-4.48,4.32-4.61,1.74-.09,3.48-.09,5.22,0,2.52.12,4.42,2.22,4.38,4.7-.04,2.42-1.93,4.4-4.39,4.55-.87.05-1.74,0-2.61,0Z"/>
    </g>
    <path class="cls-1" d="m556.96,92.7c3.28,1.53,6.21,2.87,9.13,4.24,6.16,2.9,8.26,8.7,5.4,14.92-1.3,2.83-2.59,5.68-3.96,8.48-2.72,5.57-8.63,7.7-14.26,5.1-10.63-4.91-21.24-9.85-31.84-14.84-1.29-.61-2.36-.78-3.67-.04-1.52.86-3.16,1.5-4.77,2.19-.69.29-.95.72-1.05,1.47-.77,6.06-6.49,8.97-11.79,5.91-1.17-.68-2-.63-3.13-.09-3.75,1.79-7.55,3.49-11.33,5.22-6.3,2.87-12.07.75-15.02-5.5-1.3-2.77-2.61-5.54-3.87-8.34-2.57-5.74-.39-11.62,5.32-14.31,3.06-1.45,6.16-2.83,9.38-4.3-1.33-.94-2.77-1.26-4.1-1.8-6.29-2.52-8.8-8.6-6.01-14.76,1.24-2.74,2.52-5.47,3.79-8.19,2.78-5.93,7.94-8.08,14.12-5.91.19.07.39.1.68.18-.36-2.31-.88-4.49-1.03-6.7-1.46-21.97,8.65-37.29,27.48-47.53,3.62-1.97,7.44-3.45,11.46-4.4,3.19-.75,5.09.99,4.52,4.17-1.27,7,.25,13.48,3.57,19.64,2.39,4.44,5.36,8.52,7.98,12.83,2.78,4.58,5.08,9.33,5.24,14.84.06,2.04-.09,4.05-.64,6.02-.23.82-.11,1,.81.93,6.16-.54,9.54,1.46,12.13,7.04,1.17,2.53,2.36,5.06,3.52,7.59,2.73,5.98.59,11.85-5.36,14.69-.78.37-1.56.74-2.7,1.27Zm-61.75-40.97c.07,3.8.72,7.99,2.25,12.03.62,1.62,1.46,2.82,3.23,3.38,1.56.49,3.01,1.28,4.52,1.94,2.45,1.07,2.39,1.06,2.78-1.54.85-5.78,3.3-10.63,8.36-13.86,3.24-2.06,5.44-1.03,6.04,2.75.81,5.15,3.23,9.46,6.82,13.19.67.7,1.21.86,2.12.42,2.2-1.09,4.47-2.06,6.71-3.08.5-.23,1-.44,1.31-.94,2.23-3.54,3.74-7.29,3.3-11.6-.4-3.92-2.16-7.31-4.17-10.59-1.95-3.17-4.02-6.26-6-9.41-4.23-6.74-7.13-13.92-7-22.04.02-1.25-.55-1-1.3-.7-4.39,1.76-8.47,4.08-12.25,6.92-10.85,8.17-16.5,19.01-16.72,33.13Zm64.47,29.62c.06-.54-.27-1.23-.59-1.93-1.25-2.68-2.48-5.36-3.74-8.03-1.38-2.94-3.34-3.68-6.27-2.34-24.67,11.28-49.34,22.56-74.01,33.85-2.73,1.25-3.48,3.31-2.23,6.05,1.25,2.74,2.53,5.46,3.81,8.18,1.33,2.81,3.33,3.55,6.17,2.26,4.38-1.99,8.81-3.9,13.11-6.04,2.52-1.25,4.69-1.68,6.77.7.52.59,1.37,1.07,2.22.59.8-.45.62-1.33.56-2.08-.25-2.93.12-3.59,2.8-4.81,6.96-3.18,13.93-6.37,20.89-9.55,9.15-4.18,18.3-8.37,27.46-12.54,1.78-.81,3.04-1.94,3.04-4.31Zm-32.33,24.85c9.87,4.59,19.38,9.04,28.92,13.42,2.19,1.01,4.28.17,5.35-2.03,1.39-2.85,2.71-5.74,4.03-8.62,1.25-2.73.52-4.79-2.19-6.07-4.4-2.07-8.84-4.09-13.23-6.18-.84-.4-1.5-.33-2.3.05-2.42,1.16-4.87,2.24-7.3,3.36-4.32,1.98-8.64,3.95-13.28,6.07Zm-15.88-27.15c-.2-.16-.26-.24-.35-.28-8.16-3.56-16.3-7.15-24.48-10.66-2.13-.92-4.21-.06-5.23,2.04-1.45,3-2.86,6.02-4.22,9.06-1.08,2.43-.17,4.59,2.32,5.59,3.04,1.22,6.12,2.34,9.15,3.6,1.02.42,1.84.31,2.8-.13,5.3-2.46,10.63-4.87,15.94-7.31,1.33-.61,2.65-1.24,4.07-1.91Zm12.36-5.63c-3.11-3.44-5.31-7.16-6.86-11.51-1.77,2.35-2.37,4.82-2.68,7.37-.42,3.49-.36,3.55,2.89,4.97.55.24,1.11.46,1.65.73.53.26,1.03.28,1.57.02,1.08-.52,2.17-1.01,3.44-1.59Z"/>
    <g>
      <path class="cls-1" d="m159.77,57.14c.23-1.05.44-2.1.71-3.14,2.52-9.66,10.97-16.42,20.93-16.56,8.62-.12,17.25-.04,25.87-.04,27.77,0,55.54,0,83.31-.03,1.32,0,1.72.29,1.7,1.67-.09,5.22.02,10.44-.06,15.65-.38,25.86-18.84,48.13-44.17,53.35-22.84,4.71-46.49-5.62-58.45-25.55-.44-.73-.88-.98-1.73-1-3.65-.06-7.33.32-10.95-.52-8.83-2.04-15.6-9.35-16.92-18.32-.04-.29-.16-.57-.24-.86,0-1.55,0-3.11,0-4.66Zm77.33-8.73c-10,0-20.01,0-30.01,0-4.35,0-8.71,0-13.06,0-.62,0-1.16-.08-1.16.88.03,3.92-.07,7.85.58,11.74,3.06,18.37,17.17,32.78,35.56,36.32,21.02,4.04,42.3-8.2,49.58-28.44,2.21-6.16,2.75-12.49,2.63-18.96-.02-1.25-.33-1.57-1.58-1.56-14.18.05-28.37.03-42.55.03Zm-55.27,5.07c0-1.13-.03-2.6.01-4.06.03-.8-.22-1.02-1.04-.94-7.46.69-12.17,8.7-9,15.49,2.27,4.86,6.36,6.72,11.57,6.59,1.09-.03,1.18-.29.88-1.24-1.59-5.04-2.35-10.22-2.44-15.84Z"/>
      <path class="cls-1" d="m186.16,125.71c-3.49-1.41-4.33-2.68-4.33-6.57,0-1.12.06-2.24-.02-3.36-.06-.94.32-1.25,1.19-1.13.17.02.34,0,.52,0,35.69,0,71.38,0,107.06,0,1.92,0,1.64-.19,1.67,1.64.01.9-.05,1.81.01,2.71.23,3.25-.91,5.62-4.15,6.71h-101.95Z"/>
      <path class="cls-1" d="m221.52,31.79c-.79-.01-1.76-.25-2.25-1.27-.5-1.03-.25-2,.44-2.89,1.72-2.23,1.66-4.32-.18-6.56-.66-.8-1.4-1.53-2.02-2.35-3.07-4.12-3.01-9.47.09-13.16.74-.88,1.63-1.22,2.72-1.2.91.02,1.58.5,1.96,1.27.36.74.2,1.5-.34,2.17-.43.54-.86,1.09-1.17,1.69-1.26,2.44-.68,4.65,1.58,6.19,5.13,3.49,6.1,10.06,2.22,14.8-.75.92-1.67,1.3-3.06,1.32Z"/>
      <path class="cls-1" d="m238.06,31.79c-.77,0-1.73-.25-2.23-1.27-.5-1.03-.26-2,.43-2.89,1.72-2.24,1.67-4.32-.17-6.56-.66-.8-1.4-1.53-2.02-2.35-3.08-4.12-3.01-9.46.08-13.16.73-.88,1.63-1.22,2.72-1.2.91.01,1.58.5,1.96,1.26.37.74.23,1.52-.34,2.17-.49.55-.92,1.14-1.24,1.81-1.16,2.41-.57,4.58,1.64,6.08,5.13,3.49,6.11,10.05,2.23,14.8-.75.92-1.67,1.31-3.08,1.33Z"/>
      <path class="cls-1" d="m254.86,31.79c-1.04-.02-2-.27-2.48-1.3-.46-.98-.25-1.93.39-2.79,1.79-2.4,1.72-4.48-.22-6.77-.64-.76-1.35-1.46-1.94-2.25-3.11-4.2-2.97-9.78.31-13.34.98-1.07,2.68-1.32,3.74-.56,1.05.75,1.22,1.88.46,2.93-.4.56-.87,1.08-1.19,1.68-1.32,2.47-.75,4.72,1.56,6.29,5.08,3.45,6.06,9.95,2.26,14.71-.77.96-1.71,1.4-2.9,1.4Z"/>
    </g>
  </g>
</svg>