<?xml version="1.0" encoding="UTF-8"?>
<svg id="Layer_2" data-name="Layer 2" xmlns="http://www.w3.org/2000/svg" viewBox="0 0 1924 924">
  <defs>
    <style>
      .cls-1, .cls-2 {
        fill: #fff;
      }

      .cls-2 {
        font-family: Poppins-Regular, Poppins;
        font-size: 72px;
      }
    </style>
  </defs>
  <g id="Export_Q" data-name="Export Q">
    <rect width="1924" height="924"/>
    <text class="cls-2" transform="translate(105.76 178.68)"><tspan x="0" y="0">Rank from coldest to hottest:</tspan></text>
    <path class="cls-1" d="m1474,154.26c1.16-1.49,1.68-3.31,2.52-4.96.85-1.67,1.67-3.37,2.38-5.1.43-1.04.92-1.43,2.13-1.25,6.19.94,12.4,1.67,18.64,2.18,16.56,1.37,33.02,1.22,49.05-3.92,7.27-2.34,14.24-5.35,20.12-10.4,2.61-2.24,4.85-4.82,6.96-7.51,1.81-2.31,3.52-4.72,5.44-6.93,2.52-2.9,3.72-6.26,3.95-10.01.18-2.97.75-5.95.02-8.92-.21-.84.25-.93.88-1.08,5.85-1.4,11.69-2.8,17.52-4.28,1.22-.31,1.54-.08,1.62,1.18.28,4.47.63,8.93,2,13.24.65,2.04,1.6,3.9,2.97,5.57,4.89,5.94,8.73,12.45,10.6,19.98,2.65,10.66.76,20.72-4.23,30.32-4.93,9.47-12.02,17.16-20.12,23.97-9.01,7.57-18.65,14.1-29.85,18.08-10.81,3.84-21.89,5.68-33.35,4.42-10.16-1.12-19.31-4.67-26.94-11.69-.62-.57-.89-1.13-.86-1.99.15-3.66.29-7.32.3-10.98,0-1.16.78-1.12,1.47-1.41-.44-.56-1.1-.56-1.66-.75-8.17-2.75-15.7-6.59-21.91-12.71-3.82-3.76-6.75-8.13-8.97-13-.19-.42-.21-.95-.69-1.2v-.87Zm66.61,46.52c3.35-.16,6.65-.46,9.93-1.02,12.46-2.12,23.74-6.95,33.86-14.56,8.8-6.61,16.9-13.87,22.81-23.28,3.72-5.92,6.19-12.29,6.36-19.37.22-9.11-3.23-16.96-8.85-23.84-3.68-4.51-5.92-9.52-6.77-15.21-.16-1.08-.47-1.41-1.64-1.06-1.1.33-.91.82-.63,1.56,2.02,5.25,2.82,10.57,1.11,16.09-.77,2.48-1.37,5.01-1.99,7.53-1.86,7.53-4.54,14.68-9.36,20.91-8.19,10.58-18.49,18.6-30.13,24.99-12.42,6.82-25.67,11.54-39.23,15.47-2.18.63-2.15.64-2.19,2.87-.01.69.18,1.15.75,1.57,1.54,1.17,3.14,2.23,4.86,3.11,6.65,3.4,13.8,4.31,21.12,4.23Zm46.8-78.74c-.47.58-.86,1.07-1.24,1.55-3.58,4.53-6.97,9.23-11.31,13.1-6.49,5.78-14.21,9.3-22.31,12.06-12.4,4.22-25.23,5.57-38.25,5.49-9.59-.06-19.13-.9-28.63-2.17-.38-.05-.77-.22-1.13,0-.73.43-1.3,2.96-.86,3.77,2.54,4.72,6.19,8.44,10.59,11.44,8.45,5.77,17.97,8.59,27.96,10.14,1.64.25,3.11.02,4.62-.56,2.91-1.12,5.88-2.11,8.78-3.28,12.89-5.21,24.91-11.81,35.23-21.32,8.9-8.21,14.76-18.01,16.56-30.21Z"/>
    <g>
      <path class="cls-1" d="m1185.56,125.24c-1.72-.99-3.16-1.8-4.59-2.64-2.76-1.61-3.66-4.51-2.19-7.05,1.42-2.46,4.36-3.17,7.07-1.68,1.5.82,2.97,1.68,4.72,2.67-.14-3.02-.31-5.8-.4-8.57-.09-2.55,1.24-4.51,3.43-5.19,2.88-.89,5.92.83,6.37,3.84.36,2.41.39,4.88.54,7.32.15,2.45.3,4.89.36,7.34.02.91.37,1.39,1.14,1.82,4.72,2.66,9.42,5.35,14.11,8.06.7.4,1.26.48,2.01.07,2.48-1.34,5.13-1.65,7.88-1.06,1.28.28,2.06-.02,2.49-1.37.91-2.84,2.69-5.04,5.29-6.51.69-.39.9-.85.9-1.61-.03-5.48-.04-10.95,0-16.43,0-.88-.37-1.3-1.02-1.73-3.92-2.58-7.82-5.17-11.71-7.8-1.81-1.22-2.63-2.98-2.21-5.13.4-2.07,1.72-3.41,3.78-3.94,1.51-.39,2.88.03,4.15.87,2.24,1.49,4.48,2.98,6.98,4.64,0-1.94-.01-3.58,0-5.23.02-3.18,2.12-5.43,5.01-5.43,2.91,0,4.97,2.25,4.99,5.45.01,1.61,0,3.23,0,4.82.56.26.83-.17,1.14-.37,2.05-1.34,4.06-2.75,6.13-4.05,2.44-1.53,5.36-.91,6.89,1.38,1.53,2.3,1.02,5.26-1.35,6.9-3.86,2.66-7.77,5.25-11.71,7.8-.84.55-1.14,1.14-1.13,2.15.05,5.32.04,10.64.01,15.96,0,.84.13,1.43.95,1.91,2.39,1.41,3.95,3.53,4.69,6.2.39,1.39,1.15,1.82,2.54,1.52,2.85-.62,5.61-.26,8.15,1.22.75.44,1.29.33,1.99-.08,4.73-2.74,9.47-5.47,14.25-8.14.9-.5,1.21-1.07,1.25-2.08.18-4.43.41-8.85.69-13.28.23-3.66,2.89-5.84,6.13-5.14,2.41.52,3.95,2.5,3.87,5.14-.09,2.81-.26,5.62-.42,8.71,1.62-.92,3.05-1.73,4.48-2.53,2.89-1.63,5.89-.99,7.34,1.56,1.47,2.57.52,5.44-2.36,7.13-1.38.81-2.77,1.59-4.42,2.55,2.61,1.31,4.95,2.51,7.31,3.67,1.59.78,2.71,1.95,3.01,3.73.33,1.95-.23,3.64-1.82,4.86-1.69,1.3-3.55,1.41-5.44.47-4.11-2.03-8.21-4.08-12.29-6.17-.86-.44-1.53-.5-2.42.02-4.58,2.69-9.2,5.32-13.84,7.91-.96.54-1.42,1.11-1.41,2.29.03,2.59-.9,4.93-2.6,6.87-1.06,1.21-1.17,2.09-.05,3.34,1.79,2,2.7,4.45,2.66,7.16-.01.89.26,1.41,1.06,1.85,4.82,2.7,9.61,5.43,14.38,8.21.74.43,1.29.36,1.99,0,4.18-2.12,8.37-4.22,12.57-6.29,1.84-.9,3.66-.77,5.31.46,1.61,1.2,2.19,2.88,1.89,4.84-.28,1.79-1.36,2.98-2.96,3.77-2.37,1.17-4.72,2.37-7.36,3.7,1.65.96,3.07,1.77,4.48,2.6,2.85,1.67,3.75,4.59,2.23,7.15-1.47,2.48-4.41,3.1-7.23,1.52-1.44-.81-2.87-1.62-4.54-2.56.15,3.11.35,5.95.41,8.8.07,3.56-3.09,5.97-6.42,4.98-2.13-.63-3.42-2.44-3.58-5.15-.26-4.32-.52-8.64-.67-12.96-.04-1.2-.43-1.86-1.47-2.44-4.69-2.6-9.34-5.28-13.98-7.97-.74-.43-1.31-.55-2.12-.08-2.49,1.44-5.2,1.8-8,1.2-1.47-.32-2.22.12-2.64,1.58-.75,2.66-2.35,4.75-4.74,6.17-.67.4-.89.86-.89,1.63.03,5.48.04,10.95-.01,16.43,0,.93.38,1.39,1.08,1.85,3.91,2.58,7.82,5.18,11.7,7.81,1.81,1.23,2.58,3.01,2.15,5.16-.42,2.08-1.77,3.39-3.83,3.9-1.52.37-2.88-.07-4.14-.92-2.2-1.48-4.41-2.94-6.93-4.62,0,2.1.04,3.94-.01,5.77-.06,2.24-1.42,3.99-3.52,4.66-1.94.62-4.05-.01-5.34-1.62-.78-.97-1.14-2.09-1.13-3.33,0-1.67-.02-3.33-.04-5,0-.04-.04-.09-.16-.32-1.77,1.18-3.53,2.35-5.29,3.51-.65.43-1.29.9-1.96,1.28-2.4,1.37-5.28.69-6.75-1.56-1.51-2.32-.95-5.24,1.44-6.88,3.69-2.54,7.42-5.04,11.2-7.44,1.2-.76,1.62-1.59,1.6-3-.09-5.16-.05-10.32-.01-15.49,0-.83-.22-1.32-.96-1.74-2.5-1.42-4.25-3.52-5.14-6.25-.46-1.41-1.18-1.91-2.66-1.58-2.68.6-5.29.26-7.73-1.03-.72-.38-1.28-.43-2.01,0-4.73,2.74-9.48,5.46-14.25,8.13-.81.45-1.02,1.01-1.06,1.87-.2,4.48-.42,8.96-.71,13.43-.22,3.38-2.61,5.56-5.56,5.19-2.68-.34-4.5-2.38-4.43-5.15.06-2.61.25-5.21.38-7.81.01-.24-.02-.49-.05-.94-1.61.91-3.09,1.75-4.58,2.57-2.79,1.53-5.77.82-7.18-1.71-1.42-2.55-.49-5.41,2.3-7.02,1.4-.81,2.8-1.6,4.18-2.38-.03-.63-.55-.66-.88-.83-2.13-1.09-4.3-2.11-6.42-3.23-2.54-1.34-3.51-4.19-2.33-6.66,1.21-2.51,4.14-3.56,6.78-2.28,4.22,2.04,8.4,4.15,12.58,6.28.78.4,1.35.42,2.12-.03,4.5-2.62,9.02-5.21,13.57-7.75.88-.49,1.25-1.01,1.24-2.06-.04-2.87.94-5.43,2.84-7.58.89-1,.99-1.78.05-2.82-1.99-2.22-2.97-4.88-2.9-7.87.02-.87-.32-1.3-1.03-1.7-4.63-2.61-9.24-5.24-13.84-7.91-.73-.42-1.26-.4-1.99-.03-4.03,2.06-8.09,4.07-12.15,6.08-3,1.48-5.92.67-7.24-1.98-1.32-2.65-.2-5.46,2.79-6.97,2.27-1.15,4.55-2.29,7.16-3.6Zm69.16,35.97c1.08.15,1.74-.1,2.08-.86.4-.9-.07-1.57-.63-2.25-3.84-4.68-3.84-10.32,0-15,.6-.73,1.08-1.45.56-2.39-.54-.97-1.46-.85-2.36-.68-6.16,1.13-11.44-1.92-13.41-7.76-.26-.76-.4-1.58-1.44-1.55-.91.03-1.34.67-1.65,1.44-2.62,6.42-6.87,8.88-13.63,7.81-1.06-.17-1.61.23-2.13,1.08-.55.88,0,1.36.45,1.91,3.97,4.91,3.97,10.33,0,15.25-.45.55-.99,1.04-.45,1.92.53.84,1.07,1.26,2.13,1.09,6.75-1.07,11.02,1.38,13.63,7.8.32.77.74,1.41,1.65,1.45,1.03.04,1.18-.79,1.44-1.54,1.48-4.29,4.44-6.97,8.9-7.88,1.7-.35,3.43-.22,4.85.17Z"/>
      <path class="cls-1" d="m1217.29,106.53c1.67.12,3.18.84,4.13,2.45.92,1.57,1.83,3.16,2.64,4.79,1.24,2.48.38,5.31-1.95,6.63-2.39,1.36-5.31.6-6.79-1.85-.97-1.6-1.92-3.23-2.71-4.93-1.54-3.32.9-7.09,4.67-7.1Z"/>
      <path class="cls-1" d="m1259.69,121.07c-3.55,0-6.04-3.67-4.58-6.94.85-1.89,1.9-3.71,3.03-5.45,1.41-2.17,4.26-2.74,6.51-1.48,2.16,1.2,3.19,3.93,2.15,6.2-.89,1.93-1.97,3.79-3.11,5.59-.89,1.42-2.36,1.98-4.01,2.08Z"/>
      <path class="cls-1" d="m1224.64,185.18c.01.86-.24,1.65-.64,2.39-.82,1.51-1.63,3.03-2.51,4.5-1.49,2.48-4.33,3.28-6.75,1.95-2.4-1.31-3.28-4.19-1.99-6.74.85-1.67,1.75-3.32,2.75-4.9,1.25-1.96,3.59-2.71,5.76-1.99,2,.67,3.4,2.65,3.38,4.78Z"/>
      <path class="cls-1" d="m1267.19,189.44c.02,2.3-1.36,4.25-3.38,4.93-2.11.71-4.45.03-5.66-1.85-1.12-1.75-2.15-3.57-3.04-5.45-1.03-2.18-.2-4.74,1.78-6.07,1.96-1.33,4.76-1.19,6.28.61,1.75,2.07,2.96,4.51,3.92,7.05.11.28.08.62.1.77Z"/>
      <path class="cls-1" d="m1197.09,155.59c-.94,0-1.88.05-2.81-.01-2.64-.18-4.66-2.36-4.67-4.97,0-2.61,2-4.85,4.63-4.99,1.92-.1,3.86-.11,5.78,0,2.63.16,4.62,2.41,4.59,5.03-.03,2.61-2.06,4.76-4.71,4.93-.93.06-1.88,0-2.81,0Z"/>
      <path class="cls-1" d="m1282.17,155.59c-.94,0-1.88.06-2.81-.01-2.63-.19-4.65-2.38-4.64-4.99,0-2.61,2.02-4.83,4.66-4.97,1.87-.1,3.75-.09,5.63,0,2.71.13,4.76,2.39,4.72,5.06-.04,2.61-2.08,4.74-4.73,4.9-.93.06-1.88,0-2.81,0Z"/>
    </g>
    <path class="cls-1" d="m1432.24,180.42c3.54,1.64,6.7,3.09,9.84,4.57,6.64,3.12,8.9,9.38,5.82,16.07-1.4,3.05-2.79,6.12-4.26,9.14-2.93,6.01-9.3,8.3-15.37,5.5-11.45-5.29-22.89-10.62-34.31-15.99-1.39-.66-2.55-.84-3.96-.05-1.64.92-3.41,1.62-5.14,2.36-.74.32-1.02.77-1.13,1.58-.83,6.53-6.99,9.67-12.7,6.37-1.27-.73-2.16-.68-3.38-.1-4.04,1.93-8.13,3.77-12.21,5.62-6.79,3.09-13.01.81-16.18-5.93-1.41-2.99-2.82-5.97-4.17-8.99-2.77-6.18-.42-12.52,5.73-15.42,3.3-1.56,6.64-3.04,10.11-4.63-1.43-1.01-2.98-1.36-4.42-1.94-6.78-2.71-9.48-9.27-6.47-15.91,1.34-2.95,2.71-5.89,4.09-8.83,2.99-6.39,8.56-8.71,15.22-6.37.2.07.42.11.73.19-.39-2.49-.95-4.84-1.11-7.23-1.57-23.67,9.32-40.19,29.62-51.23,3.9-2.12,8.02-3.72,12.35-4.74,3.44-.81,5.49,1.06,4.87,4.49-1.37,7.54.27,14.53,3.84,21.17,2.58,4.79,5.78,9.19,8.6,13.83,3,4.94,5.47,10.06,5.64,15.99.06,2.19-.1,4.37-.69,6.48-.25.89-.12,1.08.87,1,6.63-.58,10.29,1.57,13.07,7.59,1.27,2.73,2.55,5.45,3.8,8.18,2.95,6.45.63,12.77-5.78,15.83-.84.4-1.68.79-2.91,1.37Zm-66.55-44.15c.07,4.1.78,8.61,2.43,12.96.66,1.75,1.58,3.04,3.48,3.64,1.68.53,3.25,1.38,4.87,2.09,2.64,1.15,2.58,1.14,2.99-1.65.92-6.23,3.55-11.46,9.01-14.94,3.49-2.22,5.87-1.11,6.5,2.96.87,5.56,3.48,10.2,7.35,14.22.72.75,1.3.93,2.28.45,2.38-1.17,4.82-2.22,7.23-3.32.54-.24,1.08-.48,1.42-1.01,2.41-3.82,4.03-7.85,3.56-12.5-.43-4.23-2.33-7.88-4.5-11.41-2.1-3.42-4.33-6.75-6.46-10.14-4.56-7.26-7.68-15-7.54-23.75.02-1.35-.6-1.08-1.41-.75-4.73,1.9-9.13,4.39-13.2,7.46-11.69,8.81-17.78,20.49-18.01,35.7Zm69.47,31.92c.06-.58-.29-1.33-.64-2.08-1.35-2.88-2.68-5.78-4.03-8.66-1.49-3.17-3.6-3.96-6.76-2.52-26.59,12.15-53.17,24.32-79.76,36.48-2.94,1.34-3.75,3.57-2.41,6.52,1.35,2.95,2.73,5.88,4.11,8.81,1.43,3.03,3.59,3.82,6.65,2.44,4.72-2.14,9.49-4.2,14.13-6.51,2.71-1.35,5.06-1.81,7.3.76.56.64,1.48,1.16,2.39.64.86-.49.67-1.43.6-2.24-.27-3.15.13-3.86,3.02-5.18,7.5-3.43,15.01-6.86,22.51-10.29,9.86-4.51,19.72-9.02,29.59-13.51,1.91-.87,3.27-2.09,3.28-4.65Zm-34.84,26.78c10.64,4.95,20.89,9.74,31.17,14.46,2.36,1.08,4.61.18,5.77-2.19,1.5-3.07,2.92-6.18,4.34-9.29,1.35-2.94.56-5.17-2.36-6.54-4.74-2.24-9.52-4.4-14.26-6.66-.9-.43-1.62-.36-2.48.05-2.6,1.25-5.25,2.42-7.87,3.62-4.65,2.13-9.31,4.26-14.31,6.55Zm-17.11-29.25c-.21-.17-.28-.26-.38-.3-8.79-3.84-17.57-7.7-26.38-11.49-2.3-.99-4.54-.07-5.64,2.2-1.57,3.23-3.08,6.49-4.54,9.77-1.17,2.62-.18,4.94,2.5,6.02,3.28,1.31,6.6,2.52,9.86,3.88,1.1.46,1.99.33,3.01-.14,5.71-2.65,11.45-5.25,17.18-7.88,1.44-.66,2.86-1.34,4.39-2.06Zm13.32-6.07c-3.36-3.71-5.72-7.71-7.39-12.4-1.91,2.53-2.56,5.19-2.89,7.95-.46,3.76-.39,3.82,3.11,5.36.59.26,1.2.5,1.78.79.57.28,1.11.3,1.69.02,1.16-.56,2.34-1.09,3.7-1.71Z"/>
    <g>
      <path class="cls-1" d="m1649.18,142.09c.25-1.13.47-2.26.76-3.38,2.71-10.41,11.82-17.7,22.56-17.84,9.29-.12,18.59-.04,27.88-.04,29.93,0,59.86,0,89.79-.03,1.42,0,1.85.32,1.83,1.8-.1,5.62.02,11.25-.06,16.87-.41,27.87-20.3,51.87-47.61,57.49-24.62,5.07-50.11-6.06-62.99-27.54-.47-.78-.95-1.06-1.86-1.07-3.94-.06-7.89.34-11.8-.56-9.52-2.2-16.81-10.07-18.23-19.75-.05-.31-.17-.62-.26-.93,0-1.67,0-3.35,0-5.02Zm83.34-9.41c-10.78,0-21.56,0-32.34,0-4.69,0-9.39,0-14.08,0-.67,0-1.25-.09-1.25.95.03,4.23-.07,8.46.63,12.65,3.3,19.8,18.5,35.33,38.33,39.14,22.65,4.36,45.59-8.83,53.43-30.65,2.39-6.63,2.96-13.46,2.84-20.43-.02-1.34-.35-1.69-1.7-1.68-15.29.05-30.57.03-45.86.03Zm-59.56,5.47c0-1.22-.04-2.8.01-4.37.03-.87-.24-1.1-1.12-1.02-8.03.75-13.12,9.38-9.69,16.69,2.45,5.24,6.86,7.25,12.47,7.11,1.18-.03,1.27-.32.95-1.34-1.71-5.43-2.53-11.02-2.62-17.07Z"/>
      <path class="cls-1" d="m1677.62,215.99c-3.76-1.52-4.67-2.89-4.67-7.08,0-1.21.06-2.42-.02-3.62-.07-1.01.35-1.35,1.29-1.22.18.02.37,0,.56,0,38.46,0,76.92,0,115.38,0,2.07,0,1.77-.2,1.8,1.76.01.98-.06,1.96.01,2.93.25,3.5-.99,6.05-4.47,7.23h-109.87Z"/>
      <path class="cls-1" d="m1715.73,114.77c-.86-.01-1.9-.27-2.43-1.37-.53-1.11-.27-2.15.48-3.12,1.85-2.4,1.79-4.66-.19-7.07-.71-.86-1.51-1.65-2.18-2.54-3.31-4.44-3.24-10.2.1-14.18.79-.94,1.76-1.31,2.93-1.29.98.02,1.71.54,2.11,1.37.39.8.22,1.61-.36,2.34-.46.58-.93,1.17-1.26,1.82-1.36,2.63-.73,5.01,1.7,6.67,5.53,3.76,6.57,10.84,2.39,15.95-.81.99-1.8,1.4-3.29,1.42Z"/>
      <path class="cls-1" d="m1733.56,114.77c-.83-.01-1.87-.27-2.4-1.36-.54-1.11-.28-2.15.47-3.12,1.86-2.41,1.8-4.66-.18-7.07-.71-.86-1.51-1.65-2.18-2.54-3.32-4.44-3.24-10.2.09-14.18.79-.94,1.76-1.31,2.93-1.3.98.02,1.71.54,2.12,1.36.4.8.25,1.64-.36,2.33-.53.59-.99,1.23-1.34,1.95-1.25,2.6-.61,4.93,1.77,6.55,5.53,3.76,6.58,10.84,2.41,15.95-.81.99-1.8,1.41-3.32,1.43Z"/>
      <path class="cls-1" d="m1751.66,114.77c-1.12-.02-2.15-.29-2.68-1.4-.5-1.06-.27-2.08.42-3,1.93-2.58,1.86-4.83-.23-7.29-.69-.81-1.45-1.57-2.09-2.43-3.36-4.52-3.2-10.54.34-14.38,1.06-1.15,2.89-1.42,4.03-.6,1.13.81,1.32,2.03.5,3.16-.43.6-.94,1.16-1.28,1.81-1.43,2.66-.81,5.08,1.68,6.78,5.47,3.72,6.53,10.73,2.43,15.85-.83,1.04-1.84,1.51-3.13,1.5Z"/>
    </g>
  </g>
</svg>