<?xml version="1.0" encoding="UTF-8"?>
<svg id="Layer_2" data-name="Layer 2" xmlns="http://www.w3.org/2000/svg" viewBox="0 0 272.15 169.14">
  <defs>
    <style>
      .cls-1 {
        stroke-width: 10px;
      }

      .cls-1, .cls-2 {
        fill: none;
        stroke: #fff;
        stroke-linecap: round;
        stroke-linejoin: round;
      }

      .cls-2 {
        stroke-width: 8px;
      }
    </style>
  </defs>
  <g id="Options">
    <g>
      <rect class="cls-1" x="112.58" y="-49.66" width="46.98" height="268.46" transform="translate(152.99 -74.75) rotate(64.2)"/>
      <line class="cls-2" x1="247.24" y1="56.92" x2="239.13" y2="40.14"/>
      <line class="cls-2" x1="220.15" y1="70.02" x2="212.04" y2="53.23"/>
      <line class="cls-2" x1="193.06" y1="83.11" x2="184.94" y2="66.33"/>
      <line class="cls-2" x1="165.97" y1="96.21" x2="157.85" y2="79.43"/>
      <line class="cls-2" x1="138.88" y1="109.31" x2="130.76" y2="92.52"/>
      <line class="cls-2" x1="111.78" y1="122.41" x2="103.67" y2="105.62"/>
      <line class="cls-2" x1="84.69" y1="135.5" x2="76.58" y2="118.72"/>
      <line class="cls-2" x1="57.6" y1="148.6" x2="49.49" y2="131.81"/>
      <line class="cls-2" x1="229.36" y1="54.8" x2="232.52" y2="61.33"/>
      <line class="cls-2" x1="202.5" y1="67.78" x2="205.66" y2="74.32"/>
      <line class="cls-2" x1="175.65" y1="80.76" x2="178.81" y2="87.3"/>
      <line class="cls-2" x1="148.79" y1="93.75" x2="151.95" y2="100.28"/>
      <line class="cls-2" x1="121.94" y1="106.73" x2="125.1" y2="113.27"/>
      <line class="cls-2" x1="93.74" y1="120.36" x2="96.9" y2="126.9"/>
      <line class="cls-2" x1="66.88" y1="133.34" x2="70.04" y2="139.88"/>
      <line class="cls-2" x1="40.03" y1="146.33" x2="43.19" y2="152.86"/>
    </g>
  </g>
</svg>