<?xml version="1.0" encoding="UTF-8"?>
<svg id="Layer_2" data-name="Layer 2" xmlns="http://www.w3.org/2000/svg" viewBox="0 0 441.1 144.63">
  <defs>
    <style>
      .cls-1 {
        fill: #fff;
      }
    </style>
  </defs>
  <g id="Options">
    <path class="cls-1" d="m197.74,88.22c-1.36.49-2.75.93-4.09,1.48-9.77,4-19.52,8.04-29.29,12.04-3.25,1.33-6.51,2.61-9.76,3.93-2.37.96-4.93-.6-4.97-3.15-.06-4.25-.07-8.5.04-12.75.02-.8.49-1.8,1.09-2.33,2.7-2.43,5.5-4.74,8.29-7.06,2.12-1.77,4.27-3.49,6.41-5.23,2.29-1.88,4.61-3.72,6.83-5.67.46-.4.79-1.17.81-1.79.11-3.53.18-7.06.11-10.59-.05-2.93,2.16-6.44,5.51-7.72,4.66-1.78,9.9-.24,12.35,4.4,2.22-1.82,4.43-3.6,6.6-5.44.23-.2.27-.72.27-1.09,0-6.35-.07-12.7-.04-19.04.03-5.7.9-11.28,3.36-16.48,2.03-4.3,5.01-7.83,9.94-8.78,4.69-.9,9.22-.58,13.11,2.85,3.95,3.49,5.78,8.03,6.76,12.97,1.7,8.54,1.27,17.22,1.08,25.85-.06,3,1.01,4.85,3.24,6.43,1.14.81,2.22,1.72,3.32,2.58,1.01-1.05,1.92-2.25,3.07-3.14,3.2-2.48,6.73-2.32,10.17-.68,3.52,1.68,5.01,4.78,5.11,8.56.07,3.12-.03,6.25.06,9.37.02.63.39,1.43.86,1.84,5.2,4.46,10.45,8.85,15.68,13.26,1.88,1.59,3.87,3.07,5.62,4.79.71.69,1.24,1.89,1.27,2.88.14,3.89.09,7.78.05,11.67-.03,2.93-2.79,4.53-5.54,3.4-9.11-3.73-18.25-7.38-27.37-11.09-5.11-2.08-10.19-4.21-15.43-6.39v9.77c0,3.23.29,6.49-.09,9.67-.34,2.85,1.28,4.29,2.97,5.9,2.14,2.04,4.36,4,6.36,6.18.67.73,1.02,1.99,1.03,3.02.1,5.68.08,11.37.03,17.05-.03,3.27-2.87,4.95-5.73,3.33-5.47-3.09-10.87-6.29-16.3-9.44-.9-.52-1.91-.92-2.66-1.61-2.25-2.07-4.15-1.02-6.3.26-6.24,3.72-12.54,7.33-18.86,10.9-2.42,1.37-4.97-.02-5.02-2.81-.11-6.24-.05-12.49-.03-18.74,0-2.32,2.03-3.26,3.37-4.63,2.14-2.18,4.4-4.25,6.57-6.4.21-.21.32-.62.32-.94.01-6.96,0-13.93,0-20.89,0-.09-.07-.19-.2-.51Zm37.66,45.67c0-3.36.05-6.27-.04-9.19-.02-.66-.35-1.47-.82-1.94-2.7-2.71-5.53-5.29-8.21-8.02-.64-.65-1.23-1.7-1.24-2.57-.08-9.93-.05-19.87-.05-29.8,0-2.08,2.36-3.78,4.27-3.02,2.61,1.04,5.21,2.1,7.81,3.15,7.99,3.2,15.98,6.39,23.96,9.61,4.01,1.61,7.99,3.27,12.11,4.95,0-1.7.02-3.24-.01-4.77,0-.32-.08-.76-.3-.95-1.25-1.1-2.54-2.15-3.82-3.2-3.37-2.78-6.76-5.55-10.12-8.34-2.09-1.73-4.11-3.56-6.26-5.21-1.76-1.36-3.25-2.73-2.82-5.23.1-.6.02-1.23.01-1.84,0-3.07.02-6.15,0-9.22-.01-1.59-.78-2.27-2.45-2.46-1.43-.16-2.15.72-2.17,2.39-.01.77.03,1.54-.02,2.3-.11,1.55-.75,3-2.23,3.4-1.1.3-2.75.24-3.58-.4-4.4-3.41-8.63-7.05-12.9-10.63-1-.84-1.49-1.89-1.5-3.28-.08-8.32-.22-16.64-.38-24.97-.06-3.22-.73-6.33-1.93-9.32-1.72-4.31-5-6.3-9.53-5.61-2.72.42-4.26,2.49-5.35,4.76-2.12,4.41-2.72,9.14-2.64,14.01.1,6.86.03,13.72,0,20.58,0,1.45-.45,2.75-1.66,3.73-1.96,1.58-3.86,3.23-5.79,4.84-2.4,2-4.71,4.13-7.27,5.89-.88.61-2.48.63-3.58.32-1.28-.36-1.93-1.63-1.89-3.09.02-.77.03-1.54,0-2.3-.08-1.75-1.07-2.76-2.57-2.67-1.52.09-2.05.77-2.06,2.72-.01,3.58.02,7.17-.02,10.75-.01,1.46-.14,2.96-1.35,3.98-2.65,2.23-5.37,4.37-8.04,6.57-4.16,3.42-8.31,6.84-12.43,10.3-.69.58-1.59,1.3-1.72,2.07-.27,1.52-.08,3.13-.08,4.81,4.57-1.82,9.01-3.57,13.43-5.36,9.83-3.98,19.66-7.98,29.49-11.97,3.1-1.26,5.54.33,5.55,3.7.02,9.17.03,18.33-.02,27.5,0,1.01-.15,2.3-.76,2.97-2.27,2.48-4.79,4.73-7.18,7.1-.85.84-2.2,1.72-2.29,2.67-.29,3.27-.11,6.58-.11,10.07.59-.31.94-.48,1.27-.67,5.6-3.24,11.2-6.48,16.79-9.72,1.38-.8,2.77-.78,4.13,0,4.34,2.48,8.66,4.97,12.99,7.47,1.7.98,3.39,1.96,5.4,3.13Z"/>
    <path class="cls-1" d="m112.1,101.51c-.43,2.66-.85,5.24-1.28,7.94,6.34,2.8,12.78,5.63,19.2,8.47,3.61,1.6,4.62,2.43,4.67,6.84.06,6.07.02,12.14.02,18.29h-9.9v-16.49c-5.89-2.62-11.71-5.21-17.2-7.65-2.67,3.54-5.03,7.11-7.84,10.28-3.01,3.39-6.72,6.05-10.69,8.27-4.86,2.72-10.04,4.61-15.54,5.33-10.39,1.37-20.17-.54-29.21-5.98-7.06-4.25-12.54-10.01-16.48-17.23-.38-.7-.68-.85-1.41-.52-5.02,2.26-10.05,4.49-15.09,6.7-1,.44-1.38,1.03-1.36,2.19.08,5.02.04,10.05.04,15.13H.05c0-4.41,0-8.75,0-13.1,0-1.97.13-3.96-.03-5.92-.29-3.6,1.77-5,4.25-6.1,4.16-1.85,8.34-3.65,12.51-5.48,2.07-.91,4.14-1.79,6.18-2.76.35-.17.8-.75.75-1.07-.34-2.13-.76-4.25-1.24-6.36-.08-.37-.45-.8-.8-.96-6.12-2.8-12.26-5.57-18.39-8.34-2.15-.97-3.28-2.54-3.26-5.01.07-6.48.02-12.97.02-19.54h9.97v7.4c0,2.54.06,5.09-.03,7.63-.04,1.23.28,1.87,1.5,2.37,3.41,1.4,6.74,3.01,10.1,4.52.22.1.49.09.82.15v-26.34c-5.38-2.39-10.77-4.75-16.12-7.19-1.67-.76-3.32-1.65-4.84-2.69-1.08-.74-1.44-1.99-1.43-3.37.04-6.59.02-13.18.02-19.87h9.97v4.56c0,3.64.03,7.27-.02,10.91-.01.95.26,1.37,1.21,1.76,3.82,1.59,7.58,3.34,11.36,5.02.18.08.4.08.64.13,3.46-8.84,10.66-10.6,19.11-9.94.64-6.65-1.26-13.49,2.47-19.57-2.74-2.25-5.46-4.45-8.14-6.71-1.19-1-1.75-2.27-1.72-3.9.08-4.04.03-8.08.03-12.2h9.97c0,2.59.07,5.17-.02,7.74-.05,1.51.09,2.7,1.58,3.62,1.59.98,2.94,2.34,4.48,3.42.38.26,1.18.31,1.59.09,3.69-1.97,7.66-2.56,11.77-2.47,3.66.08,7.35-.02,10.98.39,2.12.24,4.19,1.24,6.21,2.06,1.03.41,1.78.37,2.62-.32,1.44-1.2,2.95-2.33,4.41-3.51.81-.66,1.37-1.37,1.32-2.59-.12-2.79-.04-5.58-.04-8.43h9.67c0,4.59.11,9.12-.09,13.64-.04.96-1.02,2.05-1.84,2.78-2.21,1.94-4.57,3.73-6.88,5.56-.76.6-.84,1.16-.36,2.06,1.11,2.07,1.71,4.3,1.69,6.68-.04,3.81,0,7.62,0,11.66,8.68-.5,15.94,1.18,19.36,10.04,3.6-1.58,7.02-3.09,10.44-4.6.6-.26,1.16-.64,1.78-.79.92-.22,1.17-.69,1.17-1.61-.04-5.13-.02-10.27-.02-15.49h9.91c.02.43.06.88.06,1.33,0,5.3-.02,10.59,0,15.89.04,6.35-1.29,6.29-5.79,8.47-4.13,2-8.32,4-12.67,5.44-3.56,1.18-4.22,3.22-4.08,6.62.28,6.69.08,13.4.08,20.09v1.67c3.51-1.57,6.81-3.28,10.28-4.51,1.98-.7,2.27-1.76,2.23-3.56-.11-4.66-.04-9.32-.04-14.06h9.97c0,3.18,0,6.33,0,9.48,0,2.6,0,5.19,0,7.79,0,6.5-1.17,6.16-5.81,8.45-4.17,2.06-8.51,3.78-12.78,5.64-1.33.58-2.67,1.15-4.02,1.73Zm-79.62-28.14c0,8.75-.04,17.36.03,25.97.01,1.87.3,3.75.61,5.59,1.03,6.25,3.85,11.7,7.99,16.4,5.23,5.94,11.8,9.7,19.62,11.27,1.6.32,1.68-.25,1.67-1.47-.02-18.85-.01-37.7-.01-56.55,0-.4-.05-.79-.07-1.22h-29.83Zm39.92,59.55c.43-.16.7-.32.98-.36,6.19-.94,11.63-3.64,16.33-7.62,8.4-7.11,12.4-16.4,12.55-27.34.11-7.58.02-15.16.02-22.74,0-.49,0-.99,0-1.42h-29.89v59.48Zm29.89-69.62c0-1.34,0-2.62,0-3.91.02-3.92-2.12-6-5.96-6-11.22,0-22.44,0-33.66,0-8.42,0-16.83,0-25.25,0-2.3,0-4.79,1.94-4.92,3.96-.12,1.95-.03,3.92-.03,5.94h69.81Zm-19.95-19.93c0-3.22.08-6.28-.04-9.34-.06-1.45-.24-2.99-.8-4.31-1.84-4.3-5.38-6.16-9.92-6.24-3.12-.06-6.23-.09-9.35.01-3.49.12-6.38,1.47-8.29,4.54-.97,1.57-1.58,3.23-1.54,5.14.07,3.4.02,6.8.02,10.2h29.92Z"/>
    <g>
      <path class="cls-1" d="m441.1,91.77c-.95,1.13-1.67,2.54-3.3,2.87-1.29.27-2.59.48-3.86.79-4.52,1.08-7.9,3.71-10.32,7.63-1.74,2.82-2.67,5.93-2.79,9.2-.09,2.61.51,5.19,1.6,7.59,1.06,2.34.29,4.22-.75,5.32-1.29,1.38-3.56,1.68-5.48.87-7.36-3.11-15.45-1.41-20.74,4.77-2.27,2.65-3.64,5.77-4.05,9.27-.42,3.56-3.94,5.63-6.72,3.93-.77-.47-1.45-1.18-2.02-1.91-4.32-5.57-10.19-7.55-16.91-6.76-4.9.57-8.74,3.36-11.58,7.43-.91,1.3-3.11,2.16-4.61,1.79-1.44-.36-3.17-2.24-3.32-3.73-.47-4.57-2.17-8.53-5.65-11.62-2.76-2.45-5.95-3.87-9.65-4.46-3.8-.61-7.28.26-10.74,1.5-1.84.66-3.21.04-4.45-1.26-1.26-1.31-1.5-2.86-.92-4.48.97-2.68,1.89-5.38,1.72-8.26-.26-4.37-1.65-8.27-4.71-11.58-3.16-3.42-7.07-5.11-11.54-5.79-1.88-.29-3.13-1.55-3.64-3.2-.47-1.5-.28-3.16,1.07-4.35,2.2-1.93,4.39-3.84,5.89-6.43,3.54-6.09,3.02-15.06-2.17-20.19-1.19-1.18-2.48-2.26-3.7-3.41-1.33-1.25-1.57-2.87-1.04-4.46.58-1.76,1.91-2.93,3.85-3.11,7.02-.63,13.04-5.42,15.15-12.25,1.31-4.21,1.2-8.42-.6-12.5-.96-2.19-.56-4.35.93-5.7,1.49-1.35,3.14-1.39,4.82-.7,5.92,2.39,11.6,2.17,17.04-1.33,4.4-2.83,7.19-6.8,8.01-11.99C346.3,2.8,347.24.94,349.62,0,350.28,0,350.94,0,351.59,0c.85.55,1.94.92,2.51,1.68,4.18,5.64,9.53,8.52,16.71,7.67,4.85-.57,8.56-2.99,11.73-6.53.94-1.05,2.14-1.88,3.22-2.81.66,0,1.32,0,1.98,0,2.21.79,3.45,2.29,3.7,4.67.13,1.25.43,2.52.84,3.71,2.09,6.02,6.45,9.66,12.48,11.25,3.06.81,6.2.73,9.27-.31,1.41-.48,2.88-1.23,4.29-1.18,3.83.14,5.53,3.22,4.09,6.59-1.39,3.27-2.05,6.7-1.32,10.19,1.53,7.33,6.55,12.82,13.86,14.46,2.6.58,5.26.85,6.15,3.98v2.26c-1.3,1.25-2.64,2.47-3.89,3.76-4.24,4.39-6.4,9.46-5.45,15.72.68,4.48,2.87,8.03,6.27,10.79,1.31,1.06,2.46,2.06,3.08,3.61v2.26ZM352.83,13.44c-2.57,5.33-6.34,9.4-11.36,12.25-5,2.84-10.42,3.86-16.15,3.34,1.31,9.88-3.46,21.75-15.46,27.54,3.44,4.69,5.06,9.94,5.05,15.76,0,5.85-1.93,11.02-5.17,15.78,12.88,6.19,16.83,18.6,15.6,27.36,12.4-.5,21.84,4.33,27.62,15.5,10.61-6.72,21.13-6.42,31.67.27,2.42-5.31,6.14-9.39,11.09-12.27,4.99-2.91,10.47-3.89,16.12-3.46-.42-12.52,4.54-21.8,15.64-27.54-6.89-10.59-6.65-21.06.17-31.47-11.02-5.8-16.22-14.93-15.83-27.44-12.42.77-21.52-4.52-27.42-15.55-10.45,6.75-20.93,6.86-31.57-.09Z"/>
      <path class="cls-1" d="m367.27,117.53c-12.01-.34-23-5.17-31.76-14.68-7.51-8.15-11.54-17.88-11.86-29.04-.4-13.87,4.62-25.52,14.68-34.94,8.15-7.62,18.05-11.5,29.12-11.7,13.89-.25,25.77,4.78,35.13,15.21,7.56,8.42,11.34,18.47,11.33,29.66-.02,12.48-4.38,23.42-13.45,32.28-8.97,8.77-19.74,13.06-33.19,13.2Zm-34.62-45.29c-.01,10.22,3.7,18.97,11,26.03,7.3,7.06,16.15,10.59,26.41,10.14,10.12-.44,18.61-4.51,25.46-11.9,6.32-6.82,9.41-15.1,9.36-24.28-.06-9.98-3.64-18.72-10.92-25.79-7.3-7.09-16.15-10.41-26.16-10.24-19.05.32-35.21,15.89-35.15,36.04Z"/>
    </g>
  </g>
</svg>