<?xml version="1.0" encoding="UTF-8"?>
<svg id="Layer_2" data-name="Layer 2" xmlns="http://www.w3.org/2000/svg" viewBox="0 0 109.63 179">
  <defs>
    <style>
      .cls-1 {
        fill: none;
        stroke: #fff;
        stroke-linejoin: round;
        stroke-width: 8px;
      }
    </style>
  </defs>
  <g id="Options">
    <path class="cls-1" d="m105.63,98.76v40.24h-39.63l.85,15.2c6.8,1.82,9.46,5.53,9.46,9.8,0,6.08-9.4,11-21,11s-21-4.92-21-11c0-4.33,2.77-8.07,9.72-9.87l.56-15.13H4v-40.24l10.46-.44c1.5,4.53,4.17,6.54,7.22,6.54,4.69,0,8.5-7.16,8.5-16s-3.81-16-8.5-16c-2.78,0-5.26,2.52-6.81,6.41,0,0,3.78.73-10.87.35v-37.62h39.3l.43-16.69c-3.89-1.55-6.41-8.02-6.41-10.81,0-4.69,9.16-10.5,18-10.5s16,5.81,16,10.5c0,3.04-3.01,9.71-7.54,11.22l-.05,16.28h41.9v37.62l-14.88-.34c-1.8-6.94-5.54-11.72-9.87-11.72-6.08,0-11,9.4-11,21s4.92,21,11,21c4.28,0,7.98-4.66,9.8-11.46l14.95.65Z"/>
  </g>
</svg>