<?xml version="1.0" encoding="UTF-8"?>
<svg id="Layer_2" data-name="Layer 2" xmlns="http://www.w3.org/2000/svg" viewBox="0 0 97.63 177">
  <defs>
    <style>
      .cls-1 {
        fill: none;
        stroke: #fff;
        stroke-linejoin: round;
        stroke-width: 8px;
      }
    </style>
  </defs>
  <g id="Options">
    <path class="cls-1" d="m58.73,40h34.9v97h-30.63l-.15,15.2c6.8,1.82,8.46,5.53,8.46,9.8,0,6.08-9.4,11-21,11s-21-4.92-21-11c0-4.33.77-8.07,7.72-9.87l-.44-15.13H4v-36.24l14.88.09c1.8,6.94,5.54,7.72,9.87,7.72,6.08,0,11-9.4,11-21s-4.92-21-11-21c-4.28,0-7.98.66-9.8,7.46l-14.95-.4v-33.62h34.3l.43-15.69c-3.89-1.55-4.41-9.02-4.41-11.81,0-4.69,7.16-8.5,16-8.5s16,3.81,16,8.5c0,3.04-3.01,10.71-7.54,12.22l-.05,15.28Z"/>
  </g>
</svg>