<?xml version="1.0" encoding="UTF-8"?>
<svg id="Layer_2" data-name="Layer 2" xmlns="http://www.w3.org/2000/svg" viewBox="0 0 136.61 141">
  <defs>
    <style>
      .cls-1 {
        fill: none;
        stroke: #fff;
        stroke-linejoin: round;
        stroke-width: 8px;
      }
    </style>
  </defs>
  <g id="Options">
    <path class="cls-1" d="m41.85,12c-4.53,1.5-7.54,9.17-7.54,12.22,0,4.69,7.16,8.5,16,8.5s16-3.81,16-8.5c0-2.78-2.52-10.26-6.41-11.81l1.83-8.41h34.9v37.62l17.87-.03c1.83-4.61,4.76-7.59,8.05-7.59,5.55,0,10.06,6.47,10.06,16.93s-4.5,18.93-10.06,18.93c-3.6,0-6.76-3.56-8.54-8.92l-17.39-.18v40.24h-35.63l-1.15,15.2c6.8,1.82,11.46,5.53,11.46,9.8,0,6.08-9.4,11-21,11s-21-4.92-21-11c0-4.33,4.77-8.07,11.72-9.87l-1.44-15.13H4v-33.24l9.88-.83c1.8,5.71,5.54,9.64,9.87,9.64,6.08,0,11-7.74,11-17.28s-4.92-17.28-11-17.28c-4.28,0-7.98,3.83-9.8,9.43l-9.95.19V4h34.3l3.56,8Z"/>
  </g>
</svg>