<?xml version="1.0" encoding="UTF-8"?>
<svg id="Layer_2" data-name="Layer 2" xmlns="http://www.w3.org/2000/svg" viewBox="0 0 177 136.61">
  <defs>
    <style>
      .cls-1 {
        fill: none;
        stroke: #fff;
        stroke-linejoin: round;
        stroke-width: 8px;
      }
    </style>
  </defs>
  <g id="Options">
    <path class="cls-1" d="m137,61.73v34.9s-37.62,0-37.62,0l2.03,17.87c4.61,1.83,7.59,4.76,7.59,8.05,0,5.55-8.47,10.06-18.93,10.06s-18.93-4.5-18.93-10.06c0-3.6,3.56-6.76,8.92-8.54l.18-17.39h-40.24s0-35.63,0-35.63l-15.2-1.15c-1.82,6.8-5.53,11.46-9.8,11.46-6.08,0-11-9.4-11-21s4.92-21,11-21c4.33,0,8.07,4.77,9.87,11.72l15.13-1.44V4s40.24,0,40.24,0l-.09,14.88c-6.94,1.8-11.72,5.54-11.72,9.87,0,6.08,9.4,11,21,11s21-4.92,21-11c0-4.28-4.66-7.98-11.46-9.8l.4-14.95h37.62s0,34.3,0,34.3l15.69,2.43c1.55-3.89,9.02-6.41,11.81-6.41,4.69,0,8.5,7.16,8.5,16s-3.81,16-8.5,16c-3.04,0-10.71-3.01-12.22-7.54l-15.28,2.95Z"/>
  </g>
</svg>