<?xml version="1.0" encoding="UTF-8"?>
<svg id="Layer_2" data-name="Layer 2" xmlns="http://www.w3.org/2000/svg" viewBox="0 0 1924 924">
  <defs>
    <style>
      .cls-1 {
        fill: #fff;
      }
    </style>
  </defs>
  <g id="Export_Q" data-name="Export Q">
    <rect width="1924" height="924"/>
    <g>
      <path class="cls-1" d="m176.38,120.49l-14.54,50.18h-7.34l-11.66-40.39-12.1,40.39-7.27.07-14.04-50.26h6.98l10.94,42.55,12.1-42.55h7.34l11.52,42.41,11.02-42.41h7.06Z"/>
      <path class="cls-1" d="m211.23,132.41c2.4,1.27,4.28,3.18,5.65,5.72,1.37,2.54,2.05,5.64,2.05,9.29v23.26h-6.48v-22.32c0-3.94-.98-6.95-2.95-9.04-1.97-2.09-4.66-3.13-8.06-3.13s-6.2,1.08-8.24,3.24c-2.04,2.16-3.06,5.3-3.06,9.43v21.82h-6.55v-53.28h6.55v19.44c1.3-2.02,3.08-3.58,5.36-4.68,2.28-1.1,4.83-1.66,7.67-1.66,2.98,0,5.66.64,8.06,1.91Z"/>
      <path class="cls-1" d="m229.88,123.52c-.86-.86-1.3-1.92-1.3-3.17s.43-2.3,1.3-3.17c.86-.86,1.92-1.3,3.17-1.3s2.22.43,3.06,1.3c.84.86,1.26,1.92,1.26,3.17s-.42,2.3-1.26,3.17c-.84.86-1.86,1.3-3.06,1.3s-2.3-.43-3.17-1.3Zm6.34,7.7v39.46h-6.55v-39.46h6.55Z"/>
      <path class="cls-1" d="m247.37,140.18c1.63-3.05,3.9-5.41,6.8-7.09,2.9-1.68,6.23-2.52,9.97-2.52,4.85,0,8.84,1.18,11.99,3.53,3.14,2.35,5.22,5.62,6.23,9.79h-7.06c-.67-2.4-1.98-4.29-3.92-5.69-1.94-1.39-4.36-2.09-7.24-2.09-3.74,0-6.77,1.28-9.07,3.85-2.3,2.57-3.46,6.2-3.46,10.91s1.15,8.42,3.46,11.02c2.3,2.59,5.33,3.89,9.07,3.89,2.88,0,5.28-.67,7.2-2.02,1.92-1.34,3.24-3.26,3.96-5.76h7.06c-1.06,4.03-3.17,7.26-6.34,9.68-3.17,2.42-7.13,3.64-11.88,3.64-3.74,0-7.07-.84-9.97-2.52-2.9-1.68-5.17-4.06-6.8-7.13-1.63-3.07-2.45-6.67-2.45-10.8s.82-7.64,2.45-10.69Z"/>
      <path class="cls-1" d="m318.72,132.41c2.4,1.27,4.28,3.18,5.65,5.72,1.37,2.54,2.05,5.64,2.05,9.29v23.26h-6.48v-22.32c0-3.94-.98-6.95-2.95-9.04-1.97-2.09-4.66-3.13-8.06-3.13s-6.2,1.08-8.24,3.24c-2.04,2.16-3.06,5.3-3.06,9.43v21.82h-6.55v-53.28h6.55v19.44c1.3-2.02,3.08-3.58,5.36-4.68,2.28-1.1,4.84-1.66,7.67-1.66,2.98,0,5.66.64,8.06,1.91Z"/>
      <path class="cls-1" d="m368.73,132.84c2.57-1.51,5.56-2.27,8.96-2.27s6.68.84,9.54,2.52c2.86,1.68,5.1,4.04,6.73,7.09,1.63,3.05,2.45,6.59,2.45,10.62s-.82,7.54-2.45,10.66c-1.63,3.12-3.88,5.54-6.73,7.27-2.86,1.73-6.04,2.59-9.54,2.59s-6.32-.76-8.89-2.27c-2.57-1.51-4.53-3.4-5.87-5.65v25.99h-6.55v-58.18h6.55v7.27c1.3-2.26,3.23-4.14,5.8-5.65Zm19.19,10.19c-1.2-2.21-2.82-3.89-4.86-5.04-2.04-1.15-4.28-1.73-6.73-1.73s-4.62.59-6.66,1.76c-2.04,1.18-3.67,2.88-4.9,5.11-1.22,2.23-1.84,4.81-1.84,7.74s.61,5.58,1.84,7.81c1.22,2.23,2.86,3.94,4.9,5.11,2.04,1.18,4.26,1.76,6.66,1.76s4.69-.59,6.73-1.76c2.04-1.18,3.66-2.88,4.86-5.11,1.2-2.23,1.8-4.86,1.8-7.88s-.6-5.57-1.8-7.78Z"/>
      <path class="cls-1" d="m440.04,131.22v39.46h-6.55v-5.83c-1.25,2.02-2.99,3.59-5.22,4.72-2.23,1.13-4.69,1.69-7.38,1.69-3.07,0-5.83-.64-8.28-1.91-2.45-1.27-4.38-3.18-5.8-5.72-1.42-2.54-2.12-5.64-2.12-9.29v-23.11h6.48v22.25c0,3.89.98,6.88,2.95,8.96,1.97,2.09,4.66,3.13,8.06,3.13s6.26-1.08,8.28-3.24c2.02-2.16,3.02-5.3,3.02-9.43v-21.67h6.55Z"/>
      <path class="cls-1" d="m456.03,165.28h19.37v5.4h-26.86v-5.4l19.15-28.73h-19.01v-5.33h26.57v5.33l-19.22,28.73Z"/>
      <path class="cls-1" d="m488.79,165.28h19.37v5.4h-26.86v-5.4l19.15-28.73h-19.01v-5.33h26.57v5.33l-19.22,28.73Z"/>
      <path class="cls-1" d="m523.2,117.4v53.28h-6.55v-53.28h6.55Z"/>
      <path class="cls-1" d="m570.14,153.4h-31.54c.24,3.89,1.57,6.92,4,9.11,2.42,2.18,5.36,3.28,8.82,3.28,2.83,0,5.2-.66,7.09-1.98,1.9-1.32,3.23-3.08,4-5.29h7.06c-1.06,3.79-3.17,6.88-6.34,9.25s-7.1,3.56-11.81,3.56c-3.74,0-7.09-.84-10.04-2.52-2.95-1.68-5.27-4.07-6.95-7.16-1.68-3.1-2.52-6.68-2.52-10.76s.82-7.66,2.45-10.73c1.63-3.07,3.92-5.44,6.88-7.09,2.95-1.66,6.35-2.48,10.19-2.48s7.06.82,9.94,2.45c2.88,1.63,5.1,3.88,6.66,6.73,1.56,2.86,2.34,6.08,2.34,9.68,0,1.25-.07,2.57-.22,3.96Zm-8.21-11.77c-1.11-1.8-2.6-3.17-4.5-4.1-1.9-.94-4-1.4-6.3-1.4-3.31,0-6.13,1.06-8.46,3.17-2.33,2.11-3.66,5.04-4,8.78h24.91c0-2.5-.55-4.64-1.66-6.44Z"/>
      <path class="cls-1" d="m610.57,132.84c2.57-1.51,5.56-2.27,8.96-2.27s6.68.84,9.54,2.52c2.85,1.68,5.1,4.04,6.73,7.09,1.63,3.05,2.45,6.59,2.45,10.62s-.82,7.54-2.45,10.66c-1.63,3.12-3.88,5.54-6.73,7.27-2.86,1.73-6.04,2.59-9.54,2.59s-6.32-.76-8.89-2.27c-2.57-1.51-4.52-3.4-5.87-5.65v25.99h-6.55v-58.18h6.55v7.27c1.3-2.26,3.23-4.14,5.8-5.65Zm19.19,10.19c-1.2-2.21-2.82-3.89-4.86-5.04-2.04-1.15-4.28-1.73-6.73-1.73s-4.62.59-6.66,1.76c-2.04,1.18-3.67,2.88-4.9,5.11-1.22,2.23-1.84,4.81-1.84,7.74s.61,5.58,1.84,7.81c1.22,2.23,2.86,3.94,4.9,5.11,2.04,1.18,4.26,1.76,6.66,1.76s4.69-.59,6.73-1.76c2.04-1.18,3.66-2.88,4.86-5.11,1.2-2.23,1.8-4.86,1.8-7.88s-.6-5.57-1.8-7.78Z"/>
      <path class="cls-1" d="m647.11,123.52c-.86-.86-1.3-1.92-1.3-3.17s.43-2.3,1.3-3.17c.86-.86,1.92-1.3,3.17-1.3s2.22.43,3.06,1.3c.84.86,1.26,1.92,1.26,3.17s-.42,2.3-1.26,3.17c-.84.86-1.86,1.3-3.06,1.3s-2.3-.43-3.17-1.3Zm6.34,7.7v39.46h-6.55v-39.46h6.55Z"/>
      <path class="cls-1" d="m700.39,153.4h-31.54c.24,3.89,1.57,6.92,4,9.11,2.42,2.18,5.36,3.28,8.82,3.28,2.83,0,5.2-.66,7.09-1.98,1.9-1.32,3.23-3.08,4-5.29h7.06c-1.06,3.79-3.17,6.88-6.34,9.25s-7.1,3.56-11.81,3.56c-3.74,0-7.09-.84-10.04-2.52-2.95-1.68-5.27-4.07-6.95-7.16-1.68-3.1-2.52-6.68-2.52-10.76s.82-7.66,2.45-10.73c1.63-3.07,3.92-5.44,6.88-7.09,2.95-1.66,6.35-2.48,10.19-2.48s7.06.82,9.94,2.45c2.88,1.63,5.1,3.88,6.66,6.73,1.56,2.86,2.34,6.08,2.34,9.68,0,1.25-.07,2.57-.22,3.96Zm-8.21-11.77c-1.1-1.8-2.6-3.17-4.5-4.1-1.9-.94-4-1.4-6.3-1.4-3.31,0-6.13,1.06-8.46,3.17-2.33,2.11-3.66,5.04-4,8.78h24.91c0-2.5-.55-4.64-1.66-6.44Z"/>
      <path class="cls-1" d="m709.25,140.18c1.63-3.05,3.9-5.41,6.8-7.09,2.9-1.68,6.23-2.52,9.97-2.52,4.85,0,8.84,1.18,11.99,3.53,3.14,2.35,5.22,5.62,6.23,9.79h-7.06c-.67-2.4-1.98-4.29-3.92-5.69-1.94-1.39-4.36-2.09-7.24-2.09-3.74,0-6.77,1.28-9.07,3.85-2.3,2.57-3.46,6.2-3.46,10.91s1.15,8.42,3.46,11.02c2.3,2.59,5.33,3.89,9.07,3.89,2.88,0,5.28-.67,7.2-2.02,1.92-1.34,3.24-3.26,3.96-5.76h7.06c-1.06,4.03-3.17,7.26-6.34,9.68-3.17,2.42-7.13,3.64-11.88,3.64-3.74,0-7.07-.84-9.97-2.52-2.9-1.68-5.17-4.06-6.8-7.13-1.63-3.07-2.45-6.67-2.45-10.8s.82-7.64,2.45-10.69Z"/>
      <path class="cls-1" d="m788.73,153.4h-31.54c.24,3.89,1.57,6.92,4,9.11,2.42,2.18,5.36,3.28,8.82,3.28,2.83,0,5.2-.66,7.09-1.98,1.9-1.32,3.23-3.08,4-5.29h7.06c-1.06,3.79-3.17,6.88-6.34,9.25s-7.1,3.56-11.81,3.56c-3.74,0-7.09-.84-10.04-2.52-2.95-1.68-5.27-4.07-6.95-7.16-1.68-3.1-2.52-6.68-2.52-10.76s.82-7.66,2.45-10.73c1.63-3.07,3.92-5.44,6.88-7.09,2.95-1.66,6.35-2.48,10.19-2.48s7.06.82,9.94,2.45c2.88,1.63,5.1,3.88,6.66,6.73,1.56,2.86,2.34,6.08,2.34,9.68,0,1.25-.07,2.57-.22,3.96Zm-8.21-11.77c-1.1-1.8-2.6-3.17-4.5-4.1-1.9-.94-4-1.4-6.3-1.4-3.31,0-6.13,1.06-8.46,3.17-2.33,2.11-3.66,5.04-4,8.78h24.91c0-2.5-.55-4.64-1.66-6.44Z"/>
      <path class="cls-1" d="m832.87,136.62h-8.28v34.06h-6.55v-34.06h-5.11v-5.4h5.11v-2.81c0-4.42,1.14-7.64,3.42-9.68,2.28-2.04,5.94-3.06,10.98-3.06v5.47c-2.88,0-4.91.56-6.08,1.69-1.18,1.13-1.76,2.99-1.76,5.58v2.81h8.28v5.4Z"/>
      <path class="cls-1" d="m840.72,123.52c-.86-.86-1.3-1.92-1.3-3.17s.43-2.3,1.3-3.17c.86-.86,1.92-1.3,3.17-1.3s2.22.43,3.06,1.3c.84.86,1.26,1.92,1.26,3.17s-.42,2.3-1.26,3.17c-.84.86-1.86,1.3-3.06,1.3s-2.3-.43-3.17-1.3Zm6.34,7.7v39.46h-6.55v-39.46h6.55Z"/>
      <path class="cls-1" d="m866.2,136.62v23.26c0,1.92.41,3.28,1.22,4.07.82.79,2.23,1.19,4.25,1.19h4.82v5.54h-5.9c-3.65,0-6.38-.84-8.21-2.52-1.82-1.68-2.74-4.44-2.74-8.28v-23.26h-5.11v-5.4h5.11v-9.94h6.55v9.94h10.3v5.4h-10.3Z"/>
      <path class="cls-1" d="m890.25,169.78c-2.4-1.03-4.3-2.47-5.69-4.32-1.39-1.85-2.16-3.97-2.3-6.37h6.77c.19,1.97,1.12,3.58,2.77,4.82,1.66,1.25,3.83,1.87,6.52,1.87,2.5,0,4.46-.55,5.9-1.66,1.44-1.1,2.16-2.5,2.16-4.18s-.77-3.01-2.3-3.85c-1.54-.84-3.91-1.67-7.13-2.48-2.93-.77-5.32-1.55-7.16-2.34-1.85-.79-3.43-1.97-4.75-3.53-1.32-1.56-1.98-3.61-1.98-6.16,0-2.02.6-3.86,1.8-5.54,1.2-1.68,2.9-3.01,5.11-4,2.21-.98,4.73-1.48,7.56-1.48,4.37,0,7.9,1.1,10.58,3.31,2.69,2.21,4.13,5.23,4.32,9.07h-6.55c-.14-2.06-.97-3.72-2.48-4.97-1.51-1.25-3.54-1.87-6.08-1.87-2.35,0-4.22.5-5.62,1.51-1.39,1.01-2.09,2.33-2.09,3.96,0,1.3.42,2.36,1.26,3.2.84.84,1.9,1.51,3.17,2.02,1.27.5,3.04,1.07,5.29,1.69,2.83.77,5.14,1.52,6.91,2.27,1.77.75,3.3,1.86,4.57,3.35,1.27,1.49,1.93,3.43,1.98,5.83,0,2.16-.6,4.1-1.8,5.83-1.2,1.73-2.89,3.08-5.08,4.07-2.18.98-4.69,1.48-7.52,1.48-3.02,0-5.74-.52-8.14-1.55Z"/>
      <path class="cls-1" d="m946.34,123.88c2.93,2.69,4.39,6.29,4.39,10.8,0,5.04-1.56,8.77-4.68,11.2-3.12,2.42-7.34,3.64-12.67,3.64l-.22,6.84h-5.69l-.29-11.38h2.09c4.75,0,8.47-.72,11.16-2.16,2.69-1.44,4.03-4.15,4.03-8.14,0-2.88-.86-5.16-2.59-6.84-1.73-1.68-4.06-2.52-6.98-2.52s-5.32.8-7.02,2.41c-1.7,1.61-2.56,3.81-2.56,6.59h-6.19c0-2.88.65-5.41,1.94-7.6,1.3-2.18,3.13-3.88,5.51-5.08,2.38-1.2,5.12-1.8,8.24-1.8,4.75,0,8.59,1.34,11.52,4.03Zm-19.22,45.94c-.86-.86-1.3-1.92-1.3-3.17s.43-2.3,1.3-3.17,1.92-1.3,3.17-1.3,2.22.43,3.06,1.3c.84.86,1.26,1.92,1.26,3.17s-.42,2.3-1.26,3.17c-.84.86-1.86,1.3-3.06,1.3s-2.3-.43-3.17-1.3Z"/>
    </g>
    <g>
      <path class="cls-1" d="m1145.23,230.81c-12.5,0-21.93-5.61-21.93-13.06,0-4.35,3.3-8.22,8.94-10.62l.13-12.31h-37.21c-1.66,0-3-1.34-3-3v-32.85l-10.04-.76c-2.48,7.03-6.93,11.29-11.96,11.29-7.98,0-14-10.32-14-24s6.02-24,14-24c5.09,0,9.57,4.34,12.03,11.5l9.97-.95v-32.87c0-1.66,1.34-3,3-3h40.24c.8,0,1.56.32,2.13.89.56.57.88,1.33.87,2.13l-.09,14.88c0,1.36-.93,2.54-2.25,2.89-5.57,1.44-9.47,4.31-9.47,6.97,0,3.78,7.7,8,18,8s18-4.22,18-8c0-2.61-3.8-5.45-9.24-6.9-1.34-.36-2.26-1.59-2.22-2.98l.41-14.95c.04-1.62,1.37-2.92,3-2.92h37.62c1.66,0,3,1.34,3,3v31.73l11.2,1.74c3.32-4.06,10.4-6.15,13.3-6.15,6.56,0,11.5,8.17,11.5,19s-4.94,19-11.5,19c-3.59,0-10.63-2.67-13.82-7.17l-10.68,2.06v32.42c0,1.66-1.34,3-3,3h-34.26l1.46,12.83c4.98,2.43,7.8,6.04,7.8,10.1,0,7.44-9.43,13.06-21.93,13.06Zm-47.07-41.98h37.24c.8,0,1.57.32,2.13.89.56.57.88,1.34.87,2.14l-.18,17.39c-.01,1.28-.84,2.41-2.06,2.82-4.1,1.36-6.86,3.65-6.86,5.69,0,3.33,6.81,7.06,15.93,7.06s15.93-3.73,15.93-7.06c0-1.82-2.24-3.89-5.7-5.27-1.03-.41-1.75-1.35-1.87-2.45l-2.03-17.87c-.1-.85.17-1.7.74-2.34.57-.64,1.38-1,2.24-1h34.62v-31.9c0-1.44,1.02-2.67,2.43-2.95l15.29-2.95c1.48-.29,2.94.57,3.42,2,.94,2.83,7.01,5.48,9.37,5.48,2.24,0,5.5-5.06,5.5-13s-3.26-13-5.5-13c-2.21,0-8.14,2.32-9.02,4.52-.52,1.3-1.87,2.07-3.25,1.85l-15.69-2.43c-1.46-.23-2.54-1.48-2.54-2.96v-31.3h-31.7l-.26,9.75c7.09,2.47,11.4,6.95,11.4,12,0,7.98-10.32,14-24,14s-24-6.02-24-14c0-5.14,4.44-9.66,11.73-12.11l.06-9.64h-34.22v32.59c0,1.55-1.18,2.84-2.72,2.99l-15.13,1.44c-1.47.14-2.82-.81-3.19-2.23-1.44-5.57-4.31-9.47-6.97-9.47-3.78,0-8,7.7-8,18s4.22,18,8,18c2.61,0,5.45-3.8,6.9-9.24.37-1.39,1.68-2.32,3.12-2.22l15.2,1.15c1.56.12,2.77,1.42,2.77,2.99v32.63Z"/>
      <path class="cls-1" d="m1098.16,260h-6v-19.91c0-.77.3-1.51.83-2.07l2.77-2.9c.6-.63,1.44-.98,2.33-.92.87.05,1.68.47,2.22,1.17,1.31,1.7,2.97,2.64,4.69,2.64,3.79,0,7-4.58,7-10s-3.21-10-7-10c-1.9,0-3.75,1.16-5.09,3.19-.39.6-.99,1.03-1.67,1.23l-2.25.65c-.91.26-1.88.08-2.63-.49-.75-.57-1.2-1.45-1.2-2.4v-25.37h-31.97l-.02,7.82c6.83,2.84,10.84,7.54,10.84,12.85,0,8.69-10.98,15.5-25,15.5s-25-6.81-25-15.5c0-5.94,5.2-11.19,13.43-13.8l-.02-6.88h-26.68v-6h29.68c1.65,0,3,1.34,3,2.99l.03,12.16c0,1.39-.95,2.6-2.3,2.92-6.56,1.58-11.14,5.11-11.14,8.6,0,4.49,7.8,9.5,19,9.5s19-5.01,19-9.5c0-3.03-3.45-6.14-8.79-7.93-1.23-.41-2.05-1.56-2.05-2.85l.03-12.9c0-1.65,1.35-2.99,3-2.99h37.97c1.66,0,3,1.34,3,3v22.55c2.02-1.54,4.38-2.37,6.84-2.37,7.17,0,13,7.18,13,16s-5.83,16-13,16c-2.47,0-4.82-.82-6.84-2.36v18.36Z"/>
      <path class="cls-1" d="m1096.16,101h-37.97c-1.65,0-3-1.34-3-2.99l-.03-12.9c0-1.29.82-2.44,2.05-2.85,5.34-1.79,8.79-4.9,8.79-7.93,0-4.49-7.8-9.5-19-9.5s-19,5.01-19,9.5c0,3.49,4.58,7.02,11.14,8.6,1.35.32,2.3,1.54,2.3,2.92l-.03,12.16c0,1.65-1.35,2.99-3,2.99h-29.68v-6h26.68l.02-6.88c-8.24-2.6-13.43-7.86-13.43-13.8,0-8.69,10.98-15.5,25-15.5s25,6.81,25,15.5c0,5.31-4.01,10.01-10.84,12.85l.02,7.82h31.97v-25.37c0-.94.44-1.83,1.2-2.4.75-.57,1.73-.75,2.63-.49l2.25.65c.69.2,1.28.63,1.67,1.23,1.34,2.03,3.19,3.19,5.09,3.19,3.79,0,7-4.58,7-10s-3.21-10-7-10c-1.72,0-3.39.94-4.69,2.64-.53.69-1.34,1.12-2.22,1.17-.89.05-1.73-.29-2.33-.92l-2.77-2.9c-.53-.56-.83-1.3-.83-2.07v-17.91h6v16.36c2.03-1.54,4.37-2.36,6.84-2.36,7.17,0,13,7.18,13,16s-5.83,16-13,16c-2.46,0-4.82-.83-6.84-2.37v22.55c0,1.66-1.34,3-3,3Z"/>
      <path class="cls-1" d="m1195.57,260h-6v-18.36c-2.03,1.54-4.37,2.36-6.84,2.36-7.17,0-13-7.18-13-16s5.83-16,13-16c2.46,0,4.82.83,6.84,2.37v-22.55c0-1.66,1.34-3,3-3h37.97c1.65,0,3,1.34,3,2.99l.03,12.9c0,1.29-.82,2.44-2.05,2.85-5.34,1.79-8.79,4.9-8.79,7.93,0,4.49,7.8,9.5,19,9.5s19-5.01,19-9.5c0-3.49-4.58-7.02-11.14-8.6-1.35-.32-2.3-1.54-2.3-2.92l.03-12.16c0-1.65,1.35-2.99,3-2.99h29.68v6h-26.68l-.02,6.88c8.24,2.6,13.43,7.86,13.43,13.8,0,8.69-10.98,15.5-25,15.5s-25-6.81-25-15.5c0-5.31,4.01-10.01,10.84-12.85l-.02-7.82h-31.98v25.37c0,.94-.44,1.83-1.2,2.4-.75.57-1.73.75-2.63.49l-2.25-.65c-.69-.2-1.28-.63-1.67-1.23-1.34-2.03-3.19-3.19-5.09-3.19-3.79,0-7,4.58-7,10s3.21,10,7,10c1.72,0,3.39-.94,4.69-2.64.53-.69,1.34-1.12,2.22-1.17.89-.05,1.73.29,2.33.92l2.77,2.9c.53.56.83,1.3.83,2.07v19.91Z"/>
      <path class="cls-1" d="m1238.45,122.55c-8.82,0-16-5.83-16-13,0-2.46.83-4.82,2.37-6.84h-31.55c-1.66,0-3-1.34-3-3v-28.97c0-1.65,1.34-3,2.99-3l12.9-.03h0c1.29,0,2.43.82,2.84,2.05,1.54,4.59,3.66,4.79,7.93,4.79,5.95,0,9.5-5.61,9.5-15s-3.55-15-9.5-15c-4.47,0-7.16,1.14-8.6,7.14-.32,1.35-1.53,2.3-2.92,2.3h0l-12.16-.03c-1.65,0-2.99-1.35-2.99-3v-18.68h6v15.68l6.91.02c2.93-8.4,9.17-9.43,13.76-9.43,7.15,0,15.5,5.5,15.5,21s-8.35,21-15.5,21c-3.65,0-9.54,0-12.8-6.84l-7.88.02v22.98h34.37c.94,0,1.83.44,2.4,1.2.57.75.75,1.73.49,2.63l-.65,2.25c-.2.69-.63,1.28-1.23,1.67-2.03,1.34-3.19,3.19-3.19,5.09,0,3.79,4.58,7,10,7s10-3.21,10-7c0-1.72-.94-3.39-2.64-4.69-.69-.53-1.12-1.34-1.17-2.22-.05-.87.29-1.73.92-2.33l2.9-2.77c.56-.53,1.3-.83,2.07-.83h27.91v6h-26.36c1.54,2.03,2.36,4.37,2.36,6.84,0,7.17-7.18,13-16,13Z"/>
    </g>
    <path class="cls-1" d="m1192.16,156.92v34.9s-37.62,0-37.62,0l2.03,17.87c4.61,1.83,7.59,4.76,7.59,8.05,0,5.55-8.47,10.06-18.93,10.06s-18.93-4.5-18.93-10.06c0-3.6,3.56-6.76,8.92-8.54l.18-17.39h-40.24s0-35.63,0-35.63l-15.2-1.15c-1.82,6.8-5.53,11.46-9.8,11.46-6.08,0-11-9.4-11-21s4.92-21,11-21c4.33,0,8.07,4.77,9.87,11.72l15.13-1.44v-35.59s40.24,0,40.24,0l-.09,14.88c-6.94,1.8-11.72,5.54-11.72,9.87,0,6.08,9.4,11,21,11s21-4.92,21-11c0-4.28-4.66-7.98-11.46-9.8l.4-14.95h37.62s0,34.3,0,34.3l15.69,2.43c1.55-3.89,9.02-6.41,11.81-6.41,4.69,0,8.5,7.16,8.5,16s-3.81,16-8.5,16c-3.04,0-10.71-3.01-12.22-7.54l-15.28,2.95Z"/>
  </g>
</svg>