<?xml version="1.0" encoding="UTF-8"?>
<svg id="Layer_2" data-name="Layer 2" xmlns="http://www.w3.org/2000/svg" viewBox="0 0 1924 924">
  <defs>
    <style>
      .cls-1, .cls-2 {
        fill: #fff;
      }

      .cls-3 {
        fill: none;
        stroke: #fff;
        stroke-linejoin: round;
        stroke-width: 6px;
      }

      .cls-2 {
        font-family: Poppins-Regular, Poppins;
        font-size: 72px;
      }
    </style>
  </defs>
  <g id="Export_Q" data-name="Export Q">
    <rect width="1924" height="924"/>
    <text class="cls-2" transform="translate(99.76 170.68)"><tspan x="0" y="0">Which puzzle piece fits?</tspan></text>
    <g>
      <path class="cls-3" d="m1184.16,156.92v34.9s-37.62,0-37.62,0l2.03,17.87c4.61,1.83,7.59,4.76,7.59,8.05,0,5.55-8.47,10.06-18.93,10.06s-18.93-4.5-18.93-10.06c0-3.6,3.56-6.76,8.92-8.54l.18-17.39h-40.24s0-35.63,0-35.63l-15.2-1.15c-1.82,6.8-5.53,11.46-9.8,11.46-6.08,0-11-9.4-11-21s4.92-21,11-21c4.33,0,8.07,4.77,9.87,11.72l15.13-1.44v-35.59s40.24,0,40.24,0l-.09,14.88c-6.94,1.8-11.72,5.54-11.72,9.87,0,6.08,9.4,11,21,11s21-4.92,21-11c0-4.28-4.66-7.98-11.46-9.8l.4-14.95h37.62s0,34.3,0,34.3l15.69,2.43c1.55-3.89,9.02-6.41,11.81-6.41,4.69,0,8.5,7.16,8.5,16s-3.81,16-8.5,16c-3.04,0-10.71-3.01-12.22-7.54l-15.28,2.95Z"/>
      <path class="cls-3" d="m999.73,191.82h29.68l.03,12.16c-7.9,1.9-13.44,6.34-13.44,11.52,0,6.9,9.85,12.5,22,12.5s22-5.6,22-12.5c0-4.59-4.35-8.6-10.84-10.78l.03-12.9h37.97v28.37l2.25-.65c1.83-2.78,4.56-4.54,7.59-4.54,5.52,0,10,5.82,10,13s-4.48,13-10,13c-2.76,0-5.26-1.46-7.07-3.81l-2.77,2.9v19.91"/>
      <path class="cls-3" d="m1000.73,98h29.68s.03-12.16.03-12.16c-7.9-1.9-13.44-6.34-13.44-11.52,0-6.9,9.85-12.5,22-12.5s22,5.6,22,12.5c0,4.59-4.35,8.6-10.84,10.78l.03,12.9h37.97s0-28.37,0-28.37l2.25.65c1.83,2.78,4.56,4.54,7.59,4.54,5.52,0,10-5.82,10-13,0-7.18-4.48-13-10-13-2.76,0-5.26,1.46-7.07,3.81l-2.77-2.9v-17.91"/>
      <path class="cls-3" d="m1272,191.82h-29.68s-.03,12.16-.03,12.16c7.9,1.9,13.44,6.34,13.44,11.52,0,6.9-9.85,12.5-22,12.5s-22-5.6-22-12.5c0-4.59,4.35-8.6,10.84-10.78l-.03-12.9h-37.97s0,28.37,0,28.37l-2.25-.65c-1.83-2.78-4.56-4.54-7.59-4.54-5.52,0-10,5.82-10,13,0,7.18,4.48,13,10,13,2.76,0,5.26-1.46,7.07-3.81l2.77,2.9v19.91"/>
      <path class="cls-3" d="m1185.28,32.28v18.68s12.16.03,12.16.03c1.9-7.9,6.34-9.44,11.52-9.44,6.9,0,12.5,5.85,12.5,18s-5.6,18-12.5,18c-4.59,0-8.6-.35-10.78-6.84l-12.9.03v28.97s37.37,0,37.37,0l-.65,2.25c-2.78,1.83-4.54,4.56-4.54,7.59,0,5.52,5.82,10,13,10,7.18,0,13-4.48,13-10,0-2.76-1.46-5.26-3.81-7.07l2.9-2.77h27.91"/>
    </g>
    <path class="cls-1" d="m1184.16,156.92v34.9s-37.62,0-37.62,0l2.03,17.87c4.61,1.83,7.59,4.76,7.59,8.05,0,5.55-8.47,10.06-18.93,10.06s-18.93-4.5-18.93-10.06c0-3.6,3.56-6.76,8.92-8.54l.18-17.39h-40.24s0-35.63,0-35.63l-15.2-1.15c-1.82,6.8-5.53,11.46-9.8,11.46-6.08,0-11-9.4-11-21s4.92-21,11-21c4.33,0,8.07,4.77,9.87,11.72l15.13-1.44v-35.59s40.24,0,40.24,0l-.09,14.88c-6.94,1.8-11.72,5.54-11.72,9.87,0,6.08,9.4,11,21,11s21-4.92,21-11c0-4.28-4.66-7.98-11.46-9.8l.4-14.95h37.62s0,34.3,0,34.3l15.69,2.43c1.55-3.89,9.02-6.41,11.81-6.41,4.69,0,8.5,7.16,8.5,16s-3.81,16-8.5,16c-3.04,0-10.71-3.01-12.22-7.54l-15.28,2.95Z"/>
  </g>
</svg>