<?xml version="1.0" encoding="UTF-8"?>
<svg id="Layer_2" data-name="Layer 2" xmlns="http://www.w3.org/2000/svg" viewBox="0 0 1924 924">
  <defs>
    <style>
      .cls-1 {
        fill: #fff;
      }
    </style>
  </defs>
  <g id="Export_Q" data-name="Export Q">
    <rect width="1924" height="924"/>
    <g>
      <g>
        <path class="cls-1" d="M1470.23,257.81c-12.5,0-21.93-5.61-21.93-13.06,0-4.35,3.3-8.22,8.94-10.62l.13-12.31h-37.21c-1.66,0-3-1.34-3-3v-32.85l-10.04-.76c-2.48,7.03-6.93,11.29-11.96,11.29-7.98,0-14-10.32-14-24s6.02-24,14-24c5.09,0,9.57,4.34,12.03,11.5l9.97-.95v-32.87c0-1.66,1.34-3,3-3h40.24c.8,0,1.56.32,2.13.89.56.57.88,1.33.87,2.13l-.09,14.88c0,1.36-.93,2.54-2.25,2.89-5.57,1.44-9.47,4.31-9.47,6.97,0,3.78,7.7,8,18,8s18-4.22,18-8c0-2.61-3.8-5.45-9.24-6.9-1.34-.36-2.26-1.59-2.22-2.98l.41-14.95c.04-1.62,1.37-2.92,3-2.92h37.62c1.66,0,3,1.34,3,3v31.73l11.2,1.74c3.32-4.06,10.4-6.15,13.3-6.15,6.56,0,11.5,8.17,11.5,19s-4.94,19-11.5,19c-3.59,0-10.63-2.67-13.82-7.17l-10.68,2.06v32.42c0,1.66-1.34,3-3,3h-34.26l1.46,12.83c4.98,2.43,7.8,6.04,7.8,10.1,0,7.44-9.43,13.06-21.93,13.06ZM1423.16,215.82h37.24c.8,0,1.57.32,2.13.89.56.57.88,1.34.87,2.14l-.18,17.39c-.01,1.28-.84,2.41-2.06,2.82-4.1,1.36-6.86,3.65-6.86,5.69,0,3.33,6.81,7.06,15.93,7.06s15.93-3.73,15.93-7.06c0-1.82-2.24-3.89-5.7-5.27-1.03-.41-1.75-1.35-1.87-2.45l-2.03-17.87c-.1-.85.17-1.7.74-2.34.57-.64,1.38-1,2.24-1h34.62v-31.9c0-1.44,1.02-2.67,2.43-2.95l15.29-2.95c1.48-.29,2.94.57,3.42,2,.94,2.83,7.01,5.48,9.37,5.48,2.24,0,5.5-5.06,5.5-13s-3.26-13-5.5-13c-2.21,0-8.14,2.32-9.02,4.52-.52,1.3-1.87,2.07-3.25,1.85l-15.69-2.43c-1.46-.23-2.54-1.48-2.54-2.96v-31.3h-31.7l-.26,9.75c7.09,2.47,11.4,6.95,11.4,12,0,7.98-10.32,14-24,14s-24-6.02-24-14c0-5.14,4.44-9.66,11.73-12.11l.06-9.64h-34.22v32.59c0,1.55-1.18,2.84-2.72,2.99l-15.13,1.44c-1.47.14-2.82-.81-3.19-2.23-1.44-5.57-4.31-9.47-6.97-9.47-3.78,0-8,7.7-8,18s4.22,18,8,18c2.61,0,5.45-3.8,6.9-9.24.37-1.39,1.68-2.32,3.12-2.22l15.2,1.15c1.56.12,2.77,1.42,2.77,2.99v32.63Z"/>
        <path class="cls-1" d="M1423.16,287h-6v-19.91c0-.77.3-1.51.83-2.07l2.77-2.9c.6-.63,1.44-.98,2.33-.92.87.05,1.68.47,2.22,1.17,1.31,1.7,2.97,2.64,4.69,2.64,3.79,0,7-4.58,7-10s-3.21-10-7-10c-1.9,0-3.75,1.16-5.09,3.19-.39.6-.99,1.03-1.67,1.23l-2.25.65c-.91.26-1.88.08-2.63-.49-.75-.57-1.2-1.45-1.2-2.4v-25.37h-31.97l-.02,7.82c6.83,2.84,10.84,7.54,10.84,12.85,0,8.69-10.98,15.5-25,15.5s-25-6.81-25-15.5c0-5.94,5.2-11.19,13.43-13.8l-.02-6.88h-26.68v-6h29.68c1.65,0,3,1.34,3,2.99l.03,12.16c0,1.39-.95,2.6-2.3,2.92-6.56,1.58-11.14,5.11-11.14,8.6,0,4.49,7.8,9.5,19,9.5s19-5.01,19-9.5c0-3.03-3.45-6.14-8.79-7.93-1.23-.41-2.05-1.56-2.05-2.85l.03-12.9c0-1.65,1.35-2.99,3-2.99h37.97c1.66,0,3,1.34,3,3v22.55c2.02-1.54,4.38-2.37,6.84-2.37,7.17,0,13,7.18,13,16s-5.83,16-13,16c-2.47,0-4.82-.82-6.84-2.36v18.36Z"/>
        <path class="cls-1" d="M1421.16,128h-37.97c-1.65,0-3-1.34-3-2.99l-.03-12.9c0-1.29.82-2.44,2.05-2.85,5.34-1.79,8.79-4.9,8.79-7.93,0-4.49-7.8-9.5-19-9.5s-19,5.01-19,9.5c0,3.49,4.58,7.02,11.14,8.6,1.35.32,2.3,1.54,2.3,2.92l-.03,12.16c0,1.65-1.35,2.99-3,2.99h-29.68v-6h26.68l.02-6.88c-8.24-2.6-13.43-7.86-13.43-13.8,0-8.69,10.98-15.5,25-15.5s25,6.81,25,15.5c0,5.31-4.01,10.01-10.84,12.85l.02,7.82h31.97v-25.37c0-.94.44-1.83,1.2-2.4.75-.57,1.73-.75,2.63-.49l2.25.65c.69.2,1.28.63,1.67,1.23,1.34,2.03,3.19,3.19,5.09,3.19,3.79,0,7-4.58,7-10s-3.21-10-7-10c-1.72,0-3.39.94-4.69,2.64-.53.69-1.34,1.12-2.22,1.17-.89.05-1.73-.29-2.33-.92l-2.77-2.9c-.53-.56-.83-1.3-.83-2.07v-17.91h6v16.36c2.03-1.54,4.37-2.36,6.84-2.36,7.17,0,13,7.18,13,16s-5.83,16-13,16c-2.46,0-4.82-.83-6.84-2.37v22.55c0,1.66-1.34,3-3,3Z"/>
        <path class="cls-1" d="M1520.57,287h-6v-18.36c-2.03,1.54-4.37,2.36-6.84,2.36-7.17,0-13-7.18-13-16s5.83-16,13-16c2.46,0,4.82.83,6.84,2.37v-22.55c0-1.66,1.34-3,3-3h37.97c1.65,0,3,1.34,3,2.99l.03,12.9c0,1.29-.82,2.44-2.05,2.85-5.34,1.79-8.79,4.9-8.79,7.93,0,4.49,7.8,9.5,19,9.5s19-5.01,19-9.5c0-3.49-4.58-7.02-11.14-8.6-1.35-.32-2.3-1.54-2.3-2.92l.03-12.16c0-1.65,1.35-2.99,3-2.99h29.68v6h-26.68l-.02,6.88c8.24,2.6,13.43,7.86,13.43,13.8,0,8.69-10.98,15.5-25,15.5s-25-6.81-25-15.5c0-5.31,4.01-10.01,10.84-12.85l-.02-7.82h-31.98v25.37c0,.94-.44,1.83-1.2,2.4-.75.57-1.73.75-2.63.49l-2.25-.65c-.69-.2-1.28-.63-1.67-1.23-1.34-2.03-3.19-3.19-5.09-3.19-3.79,0-7,4.58-7,10s3.21,10,7,10c1.72,0,3.39-.94,4.69-2.64.53-.69,1.34-1.12,2.22-1.17.89-.05,1.73.29,2.33.92l2.77,2.9c.53.56.83,1.3.83,2.07v19.91Z"/>
        <path class="cls-1" d="M1563.45,149.55c-8.82,0-16-5.83-16-13,0-2.46.83-4.82,2.37-6.84h-31.55c-1.66,0-3-1.34-3-3v-28.97c0-1.65,1.34-3,2.99-3l12.9-.03h0c1.29,0,2.43.82,2.84,2.05,1.54,4.59,3.66,4.79,7.93,4.79,5.95,0,9.5-5.61,9.5-15s-3.55-15-9.5-15c-4.47,0-7.16,1.14-8.6,7.14-.32,1.35-1.53,2.3-2.92,2.3h0l-12.16-.03c-1.65,0-2.99-1.35-2.99-3v-18.68h6v15.68l6.91.02c2.93-8.4,9.17-9.43,13.76-9.43,7.15,0,15.5,5.5,15.5,21s-8.35,21-15.5,21c-3.65,0-9.54,0-12.8-6.84l-7.88.02v22.98h34.37c.94,0,1.83.44,2.4,1.2.57.75.75,1.73.49,2.63l-.65,2.25c-.2.69-.63,1.28-1.23,1.67-2.03,1.34-3.19,3.19-3.19,5.09,0,3.79,4.58,7,10,7s10-3.21,10-7c0-1.72-.94-3.39-2.64-4.69-.69-.53-1.12-1.34-1.17-2.22-.05-.87.29-1.73.92-2.33l2.9-2.77c.56-.53,1.3-.83,2.07-.83h27.91v6h-26.36c1.54,2.03,2.36,4.37,2.36,6.84,0,7.17-7.18,13-16,13Z"/>
      </g>
      <path class="cls-1" d="M1517.16,183.92v34.9s-37.62,0-37.62,0l2.03,17.87c4.61,1.83,7.59,4.76,7.59,8.05,0,5.55-8.47,10.06-18.93,10.06s-18.93-4.5-18.93-10.06c0-3.6,3.56-6.76,8.92-8.54l.18-17.39h-40.24s0-35.63,0-35.63l-15.2-1.15c-1.82,6.8-5.53,11.46-9.8,11.46-6.08,0-11-9.4-11-21s4.92-21,11-21c4.33,0,8.07,4.77,9.87,11.72l15.13-1.44v-35.59s40.24,0,40.24,0l-.09,14.88c-6.94,1.8-11.72,5.54-11.72,9.87,0,6.08,9.4,11,21,11s21-4.92,21-11c0-4.28-4.66-7.98-11.46-9.8l.4-14.95h37.62s0,34.3,0,34.3l15.69,2.43c1.55-3.89,9.02-6.41,11.81-6.41,4.69,0,8.5,7.16,8.5,16s-3.81,16-8.5,16c-3.04,0-10.71-3.01-12.22-7.54l-15.28,2.95Z"/>
    </g>
    <g>
      <path class="cls-1" d="M177.9,122.37l-14.42,48.65h-9.03l-10.22-36.82-10.85,36.82-8.96.07-13.79-48.72h8.47l10.08,39.62,10.92-39.62h8.96l10.15,39.41,10.15-39.41h8.54Z"/>
      <path class="cls-1" d="M212.3,133.71c2.31,1.26,4.13,3.13,5.46,5.6,1.33,2.47,1.99,5.46,1.99,8.96v22.75h-7.91v-21.56c0-3.45-.86-6.1-2.59-7.94-1.73-1.84-4.08-2.77-7.07-2.77s-5.35.92-7.1,2.77c-1.75,1.84-2.62,4.49-2.62,7.94v21.56h-7.98v-51.8h7.98v17.71c1.35-1.63,3.07-2.89,5.15-3.78,2.08-.89,4.35-1.33,6.83-1.33,2.94,0,5.56.63,7.88,1.89Z"/>
      <path class="cls-1" d="M230.33,125.87c-.98-.98-1.47-2.19-1.47-3.64s.49-2.66,1.47-3.64,2.19-1.47,3.64-1.47,2.59.49,3.57,1.47,1.47,2.19,1.47,3.64-.49,2.66-1.47,3.64-2.17,1.47-3.57,1.47-2.66-.49-3.64-1.47ZM237.89,132.45v38.57h-7.98v-38.57h7.98Z"/>
      <path class="cls-1" d="M248.14,141.24c1.61-3.01,3.84-5.33,6.69-6.97,2.85-1.63,6.11-2.45,9.8-2.45,4.67,0,8.53,1.11,11.58,3.32,3.06,2.22,5.12,5.38,6.19,9.49h-8.61c-.7-1.91-1.82-3.41-3.36-4.48-1.54-1.07-3.48-1.61-5.81-1.61-3.27,0-5.87,1.16-7.81,3.47-1.94,2.31-2.91,5.54-2.91,9.69s.97,7.4,2.91,9.73c1.94,2.33,4.54,3.5,7.81,3.5,4.62,0,7.68-2.03,9.17-6.09h8.61c-1.12,3.92-3.22,7.03-6.3,9.34-3.08,2.31-6.91,3.46-11.48,3.46-3.69,0-6.95-.83-9.8-2.48-2.85-1.66-5.07-3.99-6.69-7-1.61-3.01-2.42-6.5-2.42-10.47s.81-7.45,2.42-10.46Z"/>
      <path class="cls-1" d="M318.21,133.71c2.31,1.26,4.13,3.13,5.46,5.6,1.33,2.47,1.99,5.46,1.99,8.96v22.75h-7.91v-21.56c0-3.45-.86-6.1-2.59-7.94-1.73-1.84-4.08-2.77-7.07-2.77s-5.35.92-7.1,2.77c-1.75,1.84-2.62,4.49-2.62,7.94v21.56h-7.98v-51.8h7.98v17.71c1.35-1.63,3.07-2.89,5.15-3.78,2.08-.89,4.35-1.33,6.83-1.33,2.94,0,5.56.63,7.88,1.89Z"/>
      <path class="cls-1" d="M367.52,133.64c2.33-1.21,4.97-1.82,7.91-1.82,3.36,0,6.43.83,9.21,2.48,2.78,1.66,4.96,3.98,6.54,6.97,1.59,2.99,2.38,6.42,2.38,10.29s-.79,7.34-2.38,10.4c-1.59,3.06-3.77,5.44-6.54,7.14-2.78,1.7-5.85,2.55-9.21,2.55-2.94,0-5.55-.59-7.84-1.78-2.29-1.19-4.15-2.67-5.6-4.45v23.94h-7.98v-56.91h7.98v5.67c1.35-1.77,3.2-3.27,5.53-4.48ZM383.8,144.67c-1.1-1.94-2.54-3.41-4.34-4.41-1.8-1-3.72-1.51-5.77-1.51s-3.91.51-5.71,1.54c-1.8,1.03-3.24,2.52-4.34,4.48-1.1,1.96-1.65,4.27-1.65,6.93s.55,4.98,1.65,6.97c1.1,1.98,2.54,3.49,4.34,4.51,1.8,1.03,3.7,1.54,5.71,1.54s3.98-.52,5.77-1.57c1.8-1.05,3.24-2.58,4.34-4.58,1.1-2.01,1.65-4.34,1.65-7s-.55-4.96-1.65-6.9Z"/>
      <path class="cls-1" d="M436.4,132.45v38.57h-7.98v-4.55c-1.26,1.59-2.91,2.83-4.94,3.75-2.03.91-4.19,1.36-6.48,1.36-3.03,0-5.75-.63-8.16-1.89-2.4-1.26-4.29-3.13-5.67-5.6-1.38-2.47-2.06-5.46-2.06-8.96v-22.68h7.91v21.49c0,3.45.86,6.1,2.59,7.95,1.73,1.84,4.08,2.76,7.07,2.76s5.35-.92,7.1-2.76c1.75-1.84,2.62-4.49,2.62-7.95v-21.49h7.98Z"/>
      <path class="cls-1" d="M453.97,164.51h17.5v6.51h-26.74v-6.51l17.57-25.55h-17.57v-6.51h26.74v6.51l-17.5,25.55Z"/>
      <path class="cls-1" d="M486.94,164.51h17.5v6.51h-26.74v-6.51l17.57-25.55h-17.57v-6.51h26.74v6.51l-17.5,25.55Z"/>
      <path class="cls-1" d="M520.82,119.22v51.8h-7.98v-51.8h7.98Z"/>
      <path class="cls-1" d="M566.39,154.71h-29.47c.23,3.08,1.38,5.55,3.43,7.42,2.05,1.87,4.57,2.8,7.56,2.8,4.29,0,7.33-1.8,9.1-5.39h8.61c-1.17,3.55-3.28,6.45-6.33,8.72-3.06,2.26-6.85,3.39-11.38,3.39-3.69,0-6.99-.83-9.9-2.48-2.92-1.66-5.2-3.99-6.86-7-1.66-3.01-2.49-6.5-2.49-10.47s.81-7.45,2.42-10.46c1.61-3.01,3.87-5.33,6.79-6.97,2.92-1.63,6.27-2.45,10.04-2.45s6.88.79,9.73,2.38c2.85,1.59,5.06,3.82,6.65,6.69,1.59,2.87,2.38,6.17,2.38,9.91,0,1.45-.09,2.75-.28,3.92ZM558.34,148.27c-.05-2.94-1.1-5.3-3.15-7.07-2.05-1.77-4.6-2.66-7.63-2.66-2.75,0-5.11.88-7.07,2.62s-3.13,4.12-3.5,7.1h21.35Z"/>
      <path class="cls-1" d="M606.22,133.64c2.33-1.21,4.97-1.82,7.91-1.82,3.36,0,6.43.83,9.21,2.48,2.78,1.66,4.96,3.98,6.54,6.97,1.59,2.99,2.38,6.42,2.38,10.29s-.79,7.34-2.38,10.4c-1.59,3.06-3.77,5.44-6.54,7.14-2.78,1.7-5.85,2.55-9.21,2.55-2.94,0-5.55-.59-7.84-1.78-2.29-1.19-4.15-2.67-5.6-4.45v23.94h-7.98v-56.91h7.98v5.67c1.35-1.77,3.2-3.27,5.53-4.48ZM622.5,144.67c-1.1-1.94-2.54-3.41-4.34-4.41-1.8-1-3.72-1.51-5.77-1.51s-3.91.51-5.71,1.54c-1.8,1.03-3.24,2.52-4.34,4.48-1.1,1.96-1.65,4.27-1.65,6.93s.55,4.98,1.65,6.97c1.1,1.98,2.54,3.49,4.34,4.51,1.8,1.03,3.7,1.54,5.71,1.54s3.98-.52,5.77-1.57c1.8-1.05,3.24-2.58,4.34-4.58,1.1-2.01,1.65-4.34,1.65-7s-.55-4.96-1.65-6.9Z"/>
      <path class="cls-1" d="M640.59,125.87c-.98-.98-1.47-2.19-1.47-3.64s.49-2.66,1.47-3.64,2.19-1.47,3.64-1.47,2.59.49,3.57,1.47,1.47,2.19,1.47,3.64-.49,2.66-1.47,3.64-2.17,1.47-3.57,1.47-2.66-.49-3.64-1.47ZM648.15,132.45v38.57h-7.98v-38.57h7.98Z"/>
      <path class="cls-1" d="M693.72,154.71h-29.47c.23,3.08,1.38,5.55,3.43,7.42,2.05,1.87,4.57,2.8,7.56,2.8,4.29,0,7.33-1.8,9.1-5.39h8.61c-1.17,3.55-3.28,6.45-6.33,8.72-3.06,2.26-6.85,3.39-11.38,3.39-3.69,0-6.99-.83-9.9-2.48-2.92-1.66-5.2-3.99-6.86-7-1.66-3.01-2.49-6.5-2.49-10.47s.81-7.45,2.42-10.46c1.61-3.01,3.87-5.33,6.79-6.97,2.92-1.63,6.27-2.45,10.04-2.45s6.88.79,9.73,2.38c2.85,1.59,5.06,3.82,6.65,6.69,1.59,2.87,2.38,6.17,2.38,9.91,0,1.45-.09,2.75-.28,3.92ZM685.67,148.27c-.05-2.94-1.1-5.3-3.15-7.07-2.05-1.77-4.6-2.66-7.63-2.66-2.75,0-5.11.88-7.07,2.62s-3.13,4.12-3.5,7.1h21.35Z"/>
      <path class="cls-1" d="M701.59,141.24c1.61-3.01,3.84-5.33,6.69-6.97,2.85-1.63,6.11-2.45,9.8-2.45,4.67,0,8.53,1.11,11.58,3.32,3.06,2.22,5.12,5.38,6.19,9.49h-8.61c-.7-1.91-1.82-3.41-3.36-4.48-1.54-1.07-3.48-1.61-5.81-1.61-3.27,0-5.87,1.16-7.81,3.47-1.94,2.31-2.9,5.54-2.9,9.69s.97,7.4,2.9,9.73c1.94,2.33,4.54,3.5,7.81,3.5,4.62,0,7.68-2.03,9.17-6.09h8.61c-1.12,3.92-3.22,7.03-6.3,9.34s-6.91,3.46-11.48,3.46c-3.69,0-6.95-.83-9.8-2.48-2.85-1.66-5.08-3.99-6.69-7-1.61-3.01-2.42-6.5-2.42-10.47s.81-7.45,2.42-10.46Z"/>
      <path class="cls-1" d="M778.91,154.71h-29.47c.23,3.08,1.38,5.55,3.43,7.42,2.05,1.87,4.57,2.8,7.56,2.8,4.29,0,7.33-1.8,9.1-5.39h8.61c-1.17,3.55-3.28,6.45-6.33,8.72-3.06,2.26-6.85,3.39-11.38,3.39-3.69,0-6.99-.83-9.91-2.48-2.92-1.66-5.2-3.99-6.86-7-1.66-3.01-2.49-6.5-2.49-10.47s.8-7.45,2.42-10.46,3.87-5.33,6.79-6.97c2.92-1.63,6.26-2.45,10.04-2.45s6.88.79,9.73,2.38c2.85,1.59,5.06,3.82,6.65,6.69,1.59,2.87,2.38,6.17,2.38,9.91,0,1.45-.09,2.75-.28,3.92ZM770.86,148.27c-.05-2.94-1.1-5.3-3.15-7.07-2.05-1.77-4.6-2.66-7.63-2.66-2.75,0-5.11.88-7.07,2.62s-3.13,4.12-3.5,7.1h21.35Z"/>
      <path class="cls-1" d="M821.4,138.96h-7.14v32.06h-8.05v-32.06h-4.55v-6.51h4.55v-2.73c0-4.43,1.18-7.67,3.53-9.7,2.36-2.03,6.06-3.04,11.1-3.04v6.65c-2.43,0-4.13.45-5.11,1.36-.98.91-1.47,2.48-1.47,4.72v2.73h7.14v6.51Z"/>
      <path class="cls-1" d="M828.88,125.87c-.98-.98-1.47-2.19-1.47-3.64s.49-2.66,1.47-3.64c.98-.98,2.19-1.47,3.64-1.47s2.59.49,3.57,1.47c.98.98,1.47,2.19,1.47,3.64s-.49,2.66-1.47,3.64c-.98.98-2.17,1.47-3.57,1.47s-2.66-.49-3.64-1.47ZM836.45,132.45v38.57h-7.98v-38.57h7.98Z"/>
      <path class="cls-1" d="M856.25,138.96v21.35c0,1.45.34,2.48,1.02,3.11.68.63,1.83.95,3.46.95h4.9v6.65h-6.3c-3.59,0-6.35-.84-8.26-2.52-1.91-1.68-2.87-4.41-2.87-8.19v-21.35h-4.55v-6.51h4.55v-9.59h8.05v9.59h9.38v6.51h-9.38Z"/>
      <path class="cls-1" d="M878.83,170.01c-2.4-1.1-4.3-2.59-5.71-4.48-1.4-1.89-2.15-4-2.24-6.33h8.26c.14,1.63.92,3,2.34,4.09,1.42,1.1,3.21,1.65,5.36,1.65s3.98-.43,5.21-1.29c1.24-.86,1.85-1.97,1.85-3.32,0-1.45-.69-2.52-2.06-3.22-1.38-.7-3.56-1.47-6.54-2.31-2.89-.79-5.25-1.56-7.07-2.31-1.82-.75-3.39-1.89-4.72-3.43s-2-3.57-2-6.09c0-2.05.61-3.93,1.82-5.64,1.21-1.7,2.95-3.04,5.22-4.02,2.26-.98,4.86-1.47,7.8-1.47,4.39,0,7.92,1.11,10.6,3.32,2.68,2.22,4.12,5.24,4.31,9.06h-7.98c-.14-1.73-.84-3.1-2.1-4.13-1.26-1.03-2.96-1.54-5.11-1.54s-3.71.4-4.83,1.19c-1.12.79-1.68,1.84-1.68,3.15,0,1.03.37,1.89,1.12,2.59.75.7,1.66,1.25,2.73,1.65,1.07.4,2.66.9,4.76,1.51,2.8.75,5.1,1.5,6.89,2.27,1.8.77,3.35,1.9,4.66,3.4,1.31,1.49,1.98,3.48,2.03,5.95,0,2.19-.61,4.15-1.82,5.88-1.21,1.73-2.93,3.08-5.15,4.06-2.22.98-4.82,1.47-7.8,1.47s-5.75-.55-8.16-1.64Z"/>
      <path class="cls-1" d="M928.98,125.87c-.98-.98-1.47-2.19-1.47-3.64s.49-2.66,1.47-3.64c.98-.98,2.19-1.47,3.64-1.47s2.59.49,3.57,1.47c.98.98,1.47,2.19,1.47,3.64s-.49,2.66-1.47,3.64c-.98.98-2.17,1.47-3.57,1.47s-2.66-.49-3.64-1.47ZM936.54,132.45v38.57h-7.98v-38.57h7.98Z"/>
      <path class="cls-1" d="M974.66,133.71c2.4,1.26,4.28,3.13,5.63,5.6,1.35,2.47,2.03,5.46,2.03,8.96v22.75h-7.91v-21.56c0-3.45-.86-6.1-2.59-7.94-1.73-1.84-4.08-2.77-7.07-2.77s-5.35.92-7.1,2.77c-1.75,1.84-2.62,4.49-2.62,7.94v21.56h-7.98v-38.57h7.98v4.41c1.31-1.59,2.97-2.82,5-3.71,2.03-.89,4.19-1.33,6.47-1.33,3.03,0,5.75.63,8.16,1.89Z"/>
      <path class="cls-1" d="M1001.78,138.96v21.35c0,1.45.34,2.48,1.02,3.11.68.63,1.83.95,3.46.95h4.9v6.65h-6.3c-3.59,0-6.35-.84-8.26-2.52-1.91-1.68-2.87-4.41-2.87-8.19v-21.35h-4.55v-6.51h4.55v-9.59h8.05v9.59h9.38v6.51h-9.38Z"/>
      <path class="cls-1" d="M1025.37,169.17c-2.94-1.66-5.25-3.99-6.93-7-1.68-3.01-2.52-6.5-2.52-10.47s.86-7.4,2.59-10.43c1.73-3.03,4.08-5.37,7.07-7,2.99-1.63,6.32-2.45,10.01-2.45s7.02.82,10.01,2.45c2.99,1.63,5.34,3.97,7.07,7,1.73,3.03,2.59,6.51,2.59,10.43s-.89,7.4-2.66,10.43c-1.77,3.03-4.19,5.38-7.25,7.03-3.06,1.66-6.43,2.48-10.11,2.48s-6.93-.83-9.87-2.48ZM1041.02,163.25c1.8-.98,3.25-2.45,4.38-4.41s1.68-4.34,1.68-7.14-.54-5.17-1.61-7.1c-1.07-1.94-2.5-3.4-4.27-4.38s-3.69-1.47-5.74-1.47-3.96.49-5.71,1.47-3.14,2.44-4.17,4.38c-1.03,1.94-1.54,4.3-1.54,7.1,0,4.15,1.06,7.36,3.18,9.62,2.12,2.26,4.79,3.4,8.02,3.4,2.05,0,3.98-.49,5.77-1.47Z"/>
      <path class="cls-1" d="M1090.68,138.96v21.35c0,1.45.34,2.48,1.02,3.11.68.63,1.83.95,3.46.95h4.9v6.65h-6.3c-3.59,0-6.35-.84-8.26-2.52-1.91-1.68-2.87-4.41-2.87-8.19v-21.35h-4.55v-6.51h4.55v-9.59h8.05v9.59h9.38v6.51h-9.38Z"/>
      <path class="cls-1" d="M1135.24,133.71c2.31,1.26,4.13,3.13,5.46,5.6,1.33,2.47,2,5.46,2,8.96v22.75h-7.91v-21.56c0-3.45-.86-6.1-2.59-7.94-1.73-1.84-4.08-2.77-7.07-2.77s-5.35.92-7.1,2.77c-1.75,1.84-2.62,4.49-2.62,7.94v21.56h-7.98v-51.8h7.98v17.71c1.35-1.63,3.07-2.89,5.14-3.78,2.08-.89,4.35-1.33,6.83-1.33,2.94,0,5.56.63,7.88,1.89Z"/>
      <path class="cls-1" d="M1187.91,154.71h-29.47c.23,3.08,1.38,5.55,3.43,7.42,2.05,1.87,4.57,2.8,7.56,2.8,4.29,0,7.33-1.8,9.1-5.39h8.61c-1.17,3.55-3.28,6.45-6.33,8.72-3.06,2.26-6.85,3.39-11.38,3.39-3.69,0-6.99-.83-9.91-2.48-2.92-1.66-5.2-3.99-6.86-7-1.66-3.01-2.49-6.5-2.49-10.47s.8-7.45,2.42-10.46,3.87-5.33,6.79-6.97c2.92-1.63,6.26-2.45,10.04-2.45s6.88.79,9.73,2.38c2.85,1.59,5.06,3.82,6.65,6.69,1.59,2.87,2.38,6.17,2.38,9.91,0,1.45-.09,2.75-.28,3.92ZM1179.86,148.27c-.05-2.94-1.1-5.3-3.15-7.07-2.05-1.77-4.6-2.66-7.63-2.66-2.75,0-5.11.88-7.07,2.62s-3.13,4.12-3.5,7.1h21.35Z"/>
      <path class="cls-1" d="M166.35,216.45l-11.97,38.57h-8.4l-7.77-28.49-7.77,28.49h-8.4l-12.04-38.57h8.12l8.05,31.01,8.19-31.01h8.33l7.84,30.87,7.98-30.87h7.84Z"/>
      <path class="cls-1" d="M200.12,217.71c2.31,1.26,4.13,3.13,5.46,5.6,1.33,2.47,1.99,5.46,1.99,8.96v22.75h-7.91v-21.56c0-3.45-.86-6.1-2.59-7.94-1.73-1.84-4.08-2.77-7.07-2.77s-5.35.92-7.1,2.77c-1.75,1.84-2.62,4.49-2.62,7.94v21.56h-7.98v-51.8h7.98v17.71c1.35-1.63,3.07-2.89,5.15-3.78,2.08-.89,4.35-1.33,6.83-1.33,2.94,0,5.56.63,7.88,1.89Z"/>
      <path class="cls-1" d="M218.15,209.87c-.98-.98-1.47-2.19-1.47-3.64s.49-2.66,1.47-3.64,2.19-1.47,3.64-1.47,2.59.49,3.57,1.47,1.47,2.19,1.47,3.64-.49,2.66-1.47,3.64-2.17,1.47-3.57,1.47-2.66-.49-3.64-1.47ZM225.71,216.45v38.57h-7.98v-38.57h7.98Z"/>
      <path class="cls-1" d="M245.52,222.96v21.35c0,1.45.34,2.48,1.02,3.11.68.63,1.83.95,3.46.95h4.9v6.65h-6.3c-3.59,0-6.35-.84-8.26-2.52-1.91-1.68-2.87-4.41-2.87-8.19v-21.35h-4.55v-6.51h4.55v-9.59h8.05v9.59h9.38v6.51h-9.38Z"/>
      <path class="cls-1" d="M297.32,238.71h-29.47c.23,3.08,1.38,5.55,3.43,7.42,2.05,1.87,4.57,2.8,7.56,2.8,4.29,0,7.33-1.8,9.1-5.39h8.61c-1.17,3.55-3.28,6.45-6.33,8.72-3.06,2.26-6.85,3.39-11.38,3.39-3.69,0-6.99-.83-9.9-2.48-2.92-1.66-5.2-3.99-6.86-7-1.66-3.01-2.49-6.5-2.49-10.47s.81-7.45,2.42-10.46c1.61-3.01,3.87-5.33,6.79-6.97,2.92-1.63,6.27-2.45,10.04-2.45s6.88.79,9.73,2.38c2.85,1.59,5.06,3.82,6.65,6.69,1.59,2.87,2.38,6.17,2.38,9.91,0,1.45-.09,2.75-.28,3.92ZM289.27,232.27c-.05-2.94-1.1-5.3-3.15-7.07-2.05-1.77-4.6-2.66-7.63-2.66-2.75,0-5.11.88-7.07,2.62s-3.13,4.12-3.5,7.1h21.35Z"/>
      <path class="cls-1" d="M329.48,254.01c-2.4-1.1-4.31-2.59-5.71-4.48-1.4-1.89-2.15-4-2.24-6.33h8.26c.14,1.63.92,3,2.34,4.09,1.42,1.1,3.21,1.65,5.35,1.65s3.98-.43,5.22-1.29c1.24-.86,1.85-1.97,1.85-3.32,0-1.45-.69-2.52-2.06-3.22-1.38-.7-3.56-1.47-6.55-2.31-2.89-.79-5.25-1.56-7.07-2.31-1.82-.75-3.4-1.89-4.73-3.43s-2-3.57-2-6.09c0-2.05.61-3.93,1.82-5.64,1.21-1.7,2.95-3.04,5.21-4.02,2.26-.98,4.87-1.47,7.81-1.47,4.39,0,7.92,1.11,10.6,3.32,2.68,2.22,4.12,5.24,4.3,9.06h-7.98c-.14-1.73-.84-3.1-2.1-4.13-1.26-1.03-2.96-1.54-5.11-1.54s-3.71.4-4.83,1.19c-1.12.79-1.68,1.84-1.68,3.15,0,1.03.37,1.89,1.12,2.59.75.7,1.66,1.25,2.73,1.65,1.07.4,2.66.9,4.76,1.51,2.8.75,5.1,1.5,6.9,2.27,1.8.77,3.35,1.9,4.66,3.4,1.31,1.49,1.98,3.48,2.03,5.95,0,2.19-.61,4.15-1.82,5.88-1.21,1.73-2.93,3.08-5.15,4.06-2.22.98-4.82,1.47-7.81,1.47s-5.75-.55-8.15-1.64Z"/>
      <path class="cls-1" d="M374.52,217.64c2.33-1.21,4.97-1.82,7.91-1.82,3.36,0,6.43.83,9.21,2.48,2.78,1.66,4.96,3.98,6.54,6.97,1.59,2.99,2.38,6.42,2.38,10.29s-.79,7.34-2.38,10.4c-1.59,3.06-3.77,5.44-6.54,7.14-2.78,1.7-5.85,2.55-9.21,2.55-2.94,0-5.55-.59-7.84-1.78-2.29-1.19-4.15-2.67-5.6-4.45v23.94h-7.98v-56.91h7.98v5.67c1.35-1.77,3.2-3.27,5.53-4.48ZM390.8,228.67c-1.1-1.94-2.54-3.41-4.34-4.41-1.8-1-3.72-1.51-5.77-1.51s-3.91.51-5.71,1.54c-1.8,1.03-3.24,2.52-4.34,4.48-1.1,1.96-1.65,4.27-1.65,6.93s.55,4.98,1.65,6.97c1.1,1.98,2.54,3.49,4.34,4.51,1.8,1.03,3.7,1.54,5.71,1.54s3.98-.52,5.77-1.57c1.8-1.05,3.24-2.58,4.34-4.58,1.1-2.01,1.65-4.34,1.65-7s-.55-4.96-1.65-6.9Z"/>
      <path class="cls-1" d="M408.23,225.27c1.61-2.99,3.8-5.31,6.58-6.97,2.78-1.66,5.85-2.48,9.21-2.48,3.03,0,5.68.59,7.94,1.78,2.26,1.19,4.07,2.67,5.43,4.45v-5.6h8.05v38.57h-8.05v-5.74c-1.35,1.82-3.2,3.34-5.53,4.55-2.33,1.21-4.99,1.82-7.98,1.82-3.31,0-6.35-.85-9.1-2.55-2.75-1.7-4.93-4.08-6.54-7.14-1.61-3.06-2.42-6.52-2.42-10.4s.81-7.3,2.42-10.29ZM435.74,228.77c-1.1-1.96-2.53-3.45-4.31-4.48-1.77-1.03-3.69-1.54-5.74-1.54s-3.97.5-5.74,1.51c-1.77,1-3.21,2.47-4.31,4.41-1.1,1.94-1.65,4.23-1.65,6.9s.55,4.99,1.65,7c1.1,2.01,2.54,3.53,4.34,4.58,1.8,1.05,3.7,1.57,5.71,1.57s3.97-.51,5.74-1.54c1.77-1.03,3.21-2.53,4.31-4.51,1.1-1.98,1.65-4.3,1.65-6.97s-.55-4.97-1.65-6.93Z"/>
      <path class="cls-1" d="M455.69,225.24c1.61-3.01,3.84-5.33,6.69-6.97,2.85-1.63,6.11-2.45,9.8-2.45,4.67,0,8.53,1.11,11.58,3.32,3.06,2.22,5.12,5.38,6.19,9.49h-8.61c-.7-1.91-1.82-3.41-3.36-4.48-1.54-1.07-3.48-1.61-5.81-1.61-3.27,0-5.87,1.16-7.81,3.47-1.94,2.31-2.91,5.54-2.91,9.69s.97,7.4,2.91,9.73c1.94,2.33,4.54,3.5,7.81,3.5,4.62,0,7.68-2.03,9.17-6.09h8.61c-1.12,3.92-3.22,7.03-6.3,9.34-3.08,2.31-6.91,3.46-11.48,3.46-3.69,0-6.95-.83-9.8-2.48-2.85-1.66-5.07-3.99-6.69-7-1.61-3.01-2.42-6.5-2.42-10.47s.81-7.45,2.42-10.46Z"/>
      <path class="cls-1" d="M533,238.71h-29.47c.23,3.08,1.38,5.55,3.43,7.42,2.05,1.87,4.57,2.8,7.56,2.8,4.29,0,7.33-1.8,9.1-5.39h8.61c-1.17,3.55-3.28,6.45-6.33,8.72-3.06,2.26-6.85,3.39-11.38,3.39-3.69,0-6.99-.83-9.9-2.48-2.92-1.66-5.2-3.99-6.86-7-1.66-3.01-2.49-6.5-2.49-10.47s.81-7.45,2.42-10.46c1.61-3.01,3.87-5.33,6.79-6.97,2.92-1.63,6.27-2.45,10.04-2.45s6.88.79,9.73,2.38c2.85,1.59,5.06,3.82,6.65,6.69,1.59,2.87,2.38,6.17,2.38,9.91,0,1.45-.09,2.75-.28,3.92ZM524.95,232.27c-.05-2.94-1.1-5.3-3.15-7.07-2.05-1.77-4.6-2.66-7.63-2.66-2.75,0-5.11.88-7.07,2.62s-3.13,4.12-3.5,7.1h21.35Z"/>
      <path class="cls-1" d="M565.66,209.59c2.87,2.61,4.3,6.18,4.3,10.71s-1.49,8.26-4.48,10.64c-2.99,2.38-6.95,3.57-11.9,3.57l-.28,5.53h-6.93l-.35-10.99h2.31c4.53,0,7.99-.61,10.4-1.82,2.4-1.21,3.6-3.52,3.6-6.93,0-2.47-.71-4.41-2.13-5.81-1.42-1.4-3.4-2.1-5.92-2.1s-4.5.68-5.95,2.03c-1.45,1.35-2.17,3.24-2.17,5.67h-7.49c0-2.8.63-5.3,1.89-7.49,1.26-2.19,3.07-3.9,5.43-5.11,2.36-1.21,5.1-1.82,8.22-1.82,4.76,0,8.58,1.31,11.45,3.92ZM546.09,254.04c-.98-.98-1.47-2.19-1.47-3.64s.49-2.66,1.47-3.64,2.19-1.47,3.64-1.47,2.59.49,3.57,1.47,1.47,2.19,1.47,3.64-.49,2.66-1.47,3.64-2.17,1.47-3.57,1.47-2.66-.49-3.64-1.47Z"/>
    </g>
  </g>
</svg>