<?xml version="1.0" encoding="UTF-8"?>
<svg id="Layer_2" data-name="Layer 2" xmlns="http://www.w3.org/2000/svg" viewBox="0 0 307.7 86.47">
  <defs>
    <style>
      .cls-1 {
        fill: #fff;
      }
    </style>
  </defs>
  <g id="Options">
    <path class="cls-1" d="m92.66,69.4v-14.02c0-2.36-1.97-4.24-4.32-4.13-1.88.09-3.74.17-5.6.25-.28.01-.57.01-.85.04-5.42.45-10.85.86-16.26,1.38-8.21.79-16.16,2.78-23.92,5.49-8.83,3.09-17.24,7.11-24.57,12.98-4.1,3.28-7.96,6.89-11.64,10.64-1.19,1.21-2.27,2.55-3.34,3.96-.81,1.06-2.5.18-2.08-1.08,0-.02.01-.04.02-.05,3.15-9.51,7.21-18.58,13.02-26.79,4.35-6.16,9.49-11.56,15.36-16.31,8.4-6.82,17.93-11.4,28.24-14.34,4.66-1.33,9.49-2.16,14.3-2.89,3.99-.61,8.04-.77,12.08-1.07,1.87-.14,3.74-.24,5.66-.33,2.2-.11,3.93-1.93,3.93-4.13V6.18c0-5.1,5.83-7.99,9.89-4.92,14.12,10.69,28.09,21.28,42.14,31.92,2.66,2.02,2.67,6.02.01,8.04l-.02.02c-6.9,5.24-13.8,10.48-20.7,15.71-6.24,4.72-12.48,9.42-18.74,14.12-1.05.79-2.37,1.77-3.76,2.79-3.66,2.69-8.83.08-8.83-4.46Z"/>
    <path class="cls-1" d="m215.04,69.4v-14.02c0-2.36,1.97-4.24,4.32-4.13,1.88.09,3.74.17,5.6.25.28.01.57.01.85.04,5.42.45,10.85.86,16.26,1.38,8.21.79,16.16,2.78,23.92,5.49,8.83,3.09,17.24,7.11,24.57,12.98,4.1,3.28,7.96,6.89,11.64,10.64,1.19,1.21,2.27,2.55,3.34,3.96.81,1.06,2.5.18,2.08-1.08,0-.02-.01-.04-.02-.05-3.15-9.51-7.21-18.58-13.02-26.79-4.35-6.16-9.49-11.56-15.36-16.31-8.4-6.82-17.93-11.4-28.24-14.34-4.66-1.33-9.49-2.16-14.3-2.89-3.99-.61-8.04-.77-12.08-1.07-1.87-.14-3.74-.24-5.66-.33-2.2-.11-3.93-1.93-3.93-4.13V6.18c0-5.1-5.83-7.99-9.89-4.92-14.12,10.69-28.09,21.28-42.14,31.92-2.66,2.02-2.67,6.02-.01,8.04l.02.02c6.9,5.24,13.8,10.48,20.7,15.71,6.24,4.72,12.48,9.42,18.74,14.12,1.05.79,2.37,1.77,3.76,2.79,3.66,2.69,8.83.08,8.83-4.46Z"/>
  </g>
</svg>