<?xml version="1.0" encoding="UTF-8"?>
<svg id="Layer_2" data-name="Layer 2" xmlns="http://www.w3.org/2000/svg" viewBox="0 0 197.58 189.6">
  <defs>
    <style>
      .cls-1 {
        fill: #fff;
      }

      .cls-2 {
        fill: #ccc;
      }
    </style>
  </defs>
  <g id="Options">
    <g>
      <path class="cls-1" d="m124.4,32.53c1.19.51,2.34,1.11,3.57,1.51,4.59,1.51,8.95,3.52,13.19,5.82,4.7,2.55,9.13,5.5,13.18,8.99,3.48,3.01,6.65,6.31,9.4,10.01,4.99,6.73,8.44,14.15,10.14,22.36,1.17,5.63,1.73,11.32,1.23,17.07-.29,3.36-.72,6.7-1.1,10.05-.14,1.21-.31,2.42-.49,3.76,7.91,1.81,15.87,3.63,24.07,5.51-16.6,13.91-33.01,27.66-49.51,41.48-8.83-19.59-17.63-39.11-26.51-58.82,8.09,1.85,15.95,3.65,23.97,5.49.33-1.42.69-2.75.92-4.11.24-1.38.3-2.79.51-4.18,1.11-7.47,1.25-14.94.18-22.44-.85-5.92-2.5-11.55-5.2-16.89-3.29-6.49-7.84-11.95-13.62-16.34-3.07-2.33-6.42-4.24-10.03-5.63-.69-.27-.82-.56-.64-1.18.38-1.24.73-2.5,1.1-3.74,1.89.43,3.77.86,5.66,1.3Zm5.56,74.64c1.41,3.19,2.82,6.38,4.24,9.56,2.16,4.84,4.32,9.68,6.5,14.52,2.41,5.36,4.83,10.71,7.25,16.06.62,1.36,1.26,2.71,1.91,4.09,12.45-10.43,24.78-20.77,37.33-31.29l-19.27-4.41c.39-2.26.78-4.33,1.1-6.42.41-2.71.92-5.42,1.12-8.14.24-3.28.43-6.6.25-9.88-.38-7.26-1.97-14.25-5.21-20.83-2.26-4.6-5.05-8.81-8.46-12.62-4.55-5.08-9.93-9.14-15.74-12.66-1.1-.67-2.28-1.2-3.7-1.94,1.76,2.17,3.46,3.93,4.75,5.95,1.92,3,3.73,6.1,5.27,9.3,2.77,5.74,4.16,11.9,4.86,18.2.62,5.54.74,11.1.01,16.64-.48,3.66-1.03,7.3-1.55,10.96-.03.19-.07.38-.11.57-.4,2.18-.79,4.36-1.2,6.63-6.58-1.51-12.95-2.96-19.32-4.42l-.18-.03c.05.06.09.12.14.18Z"/>
      <path class="cls-1" d="m123.65,162.62c-.99.83-2.05,1.59-2.96,2.5-3.41,3.42-7.18,6.4-11.14,9.15-4.4,3.05-9.02,5.67-13.97,7.71-4.26,1.75-8.63,3.1-13.18,3.88-8.26,1.42-16.44,1.15-24.53-1.03-5.55-1.5-10.88-3.56-15.79-6.6-2.86-1.77-5.66-3.66-8.47-5.51-1.02-.67-2.01-1.37-3.14-2.13-5.18,6.24-10.39,12.53-15.76,19-4.94-21.09-9.81-41.94-14.72-62.89,21.47.95,42.86,1.89,64.46,2.84-5.3,6.39-10.44,12.59-15.7,18.93,1.12.93,2.15,1.86,3.25,2.67,1.13.83,2.36,1.53,3.5,2.34,6.17,4.36,12.78,7.85,19.95,10.28,5.66,1.91,11.44,2.98,17.42,2.97,7.28-.01,14.2-1.61,20.73-4.8,3.47-1.69,6.68-3.82,9.55-6.42.55-.5.87-.49,1.34-.03.94.9,1.9,1.78,2.85,2.67-1.24,1.49-2.47,2.98-3.71,4.47Zm-69.14-28.67c-3.48-.18-6.96-.36-10.44-.53-5.3-.25-10.59-.5-15.89-.74-5.87-.26-11.73-.52-17.6-.76-1.49-.06-2.98-.1-4.51-.14,3.7,15.81,7.37,31.48,11.11,47.43,4.33-5.22,8.5-10.25,12.62-15.21,1.84,1.37,3.52,2.65,5.24,3.87,2.23,1.59,4.42,3.26,6.76,4.67,2.82,1.7,5.7,3.36,8.71,4.68,6.65,2.93,13.61,4.66,20.95,4.74,5.12.06,10.14-.54,15.07-1.87,6.59-1.77,12.63-4.75,18.39-8.35,1.09-.68,2.1-1.49,3.4-2.43-2.73.59-5.07,1.32-7.45,1.56-3.54.36-7.12.58-10.68.52-6.37-.11-12.5-1.65-18.44-3.86-5.22-1.94-10.24-4.34-14.86-7.49-3.05-2.07-6.06-4.21-9.08-6.32-.16-.11-.31-.23-.46-.35-1.77-1.33-3.53-2.67-5.37-4.06,4.31-5.2,8.48-10.23,12.66-15.26l.1-.15c-.07.01-.15.03-.22.04Z"/>
      <path class="cls-1" d="m15.18,109.06c-.28-1.26-.46-2.55-.85-3.78-1.45-4.61-2.36-9.32-2.96-14.11-.67-5.31-.86-10.62-.38-15.95.41-4.58,1.24-9.08,2.65-13.48,2.56-7.98,6.58-15.11,12.25-21.27,3.89-4.23,8.19-8.01,13.15-10.95,2.9-1.72,5.86-3.32,8.8-4.97,1.06-.59,2.15-1.15,3.34-1.79L41.62,0c20.98,5.37,41.72,10.69,62.57,16.03-10.77,18.6-21.49,37.13-32.32,55.84-3.21-7.65-6.34-15.08-9.52-22.67-1.35.57-2.64,1.04-3.87,1.64-1.26.61-2.44,1.39-3.69,2.03-6.72,3.46-12.87,7.7-18.34,12.94-4.31,4.14-7.93,8.77-10.69,14.08-3.35,6.46-5.14,13.33-5.33,20.6-.1,3.86.3,7.69,1.27,11.43.19.71.03.99-.59,1.2-1.23.42-2.45.86-3.68,1.29-.75-1.78-1.5-3.57-2.25-5.35Zm57.39-48.05c1.77-3,3.54-6.01,5.3-9.02,2.67-4.58,5.34-9.16,8-13.75,2.95-5.08,5.88-10.17,8.82-15.25.75-1.29,1.46-2.6,2.21-3.93-15.73-4.03-31.32-8.02-47.19-12.08,2.63,6.25,5.16,12.27,7.66,18.22-2.06,1-3.97,1.9-5.85,2.85-2.44,1.24-4.93,2.41-7.27,3.84-2.81,1.72-5.61,3.5-8.18,5.56-5.67,4.55-10.43,9.91-13.89,16.38-2.42,4.51-4.21,9.24-5.31,14.23-1.47,6.66-1.63,13.4-1.1,20.16.1,1.28.35,2.56.58,4.14.74-2.69,1.17-5.1,2.06-7.33,1.31-3.31,2.78-6.58,4.48-9.71,3.04-5.6,7.24-10.32,11.95-14.57,4.14-3.73,8.58-7.07,13.51-9.72,3.25-1.75,6.53-3.42,9.8-5.13.17-.09.35-.16.52-.25,2-.95,4-1.9,6.08-2.89,2.62,6.23,5.15,12.25,7.68,18.28l.08.16c.02-.07.04-.14.06-.22Z"/>
      <path class="cls-2" d="m1.96,128.48c.07.13.07.25-.01.38-.14-.11-.28-.23-.42-.34l.43-.04Z"/>
    </g>
  </g>
</svg>