<?xml version="1.0" encoding="UTF-8"?>
<svg id="Layer_2" data-name="Layer 2" xmlns="http://www.w3.org/2000/svg" viewBox="0 0 241.09 96.36">
  <defs>
    <style>
      .cls-1 {
        fill: #fff;
      }
    </style>
  </defs>
  <g id="Options">
    <path class="cls-1" d="m118.09,6.05c-.23,1.27-.56,2.53-.68,3.81-.44,4.81-1.44,9.51-2.73,14.15-1.44,5.15-3.32,10.12-5.83,14.85-2.16,4.07-4.66,7.89-7.67,11.4-5.45,6.37-11.91,11.38-19.53,14.87-5.23,2.39-10.65,4.21-16.37,5-3.34.46-6.69.79-10.04,1.17-1.21.14-2.43.23-3.78.36,0,8.11,0,16.28,0,24.69C34.21,83.27,17.15,70.34,0,57.35c17.13-12.98,34.19-25.91,51.43-38.97,0,8.3,0,16.36,0,24.59,1.46,0,2.84.06,4.21-.02,1.4-.08,2.79-.33,4.19-.44,7.53-.58,14.85-2.11,21.92-4.83,5.58-2.14,10.71-5.01,15.3-8.84,5.6-4.66,9.9-10.3,12.89-16.93,1.59-3.52,2.7-7.21,3.25-11.04.1-.73.36-.93,1.01-.88,1.3.09,2.6.16,3.89.24,0,1.94,0,3.87,0,5.81ZM46.58,28.12c-2.79,2.09-5.59,4.17-8.37,6.26-4.24,3.19-8.47,6.37-12.7,9.57-4.68,3.54-9.36,7.09-14.04,10.65-1.19.9-2.36,1.83-3.56,2.77,12.95,9.81,25.77,19.52,38.83,29.41,0-6.78,0-13.31,0-19.77,2.29-.13,4.4-.21,6.5-.36,2.73-.2,5.48-.31,8.19-.73,3.26-.5,6.53-1.06,9.69-1.96,6.99-1.99,13.45-5.1,19.15-9.72,3.98-3.23,7.46-6.89,10.41-11.06,3.94-5.57,6.69-11.72,8.83-18.16.4-1.22.66-2.49,1.07-4.04-1.72,2.2-3.06,4.25-4.74,5.96-2.49,2.54-5.11,4.99-7.89,7.21-4.97,3.98-10.67,6.71-16.66,8.8-5.26,1.84-10.65,3.19-16.22,3.73-3.67.35-7.35.63-11.02.94-.19.02-.38.02-.58.02-2.21.1-4.42.2-6.73.31,0-6.75,0-13.29,0-19.82v-.18c-.06.06-.11.12-.16.18Z"/>
    <path class="cls-1" d="m123,90.31c.23-1.27.56-2.53.68-3.81.44-4.81,1.44-9.51,2.73-14.15,1.44-5.15,3.32-10.12,5.83-14.85,2.16-4.07,4.66-7.89,7.67-11.4,5.45-6.37,11.91-11.38,19.53-14.87,5.23-2.39,10.65-4.21,16.37-5,3.34-.46,6.69-.79,10.04-1.17,1.21-.14,2.43-.23,3.78-.36,0-8.11,0-16.28,0-24.69,17.26,13.08,34.33,26.01,51.48,39.01-17.13,12.98-34.19,25.91-51.43,38.97,0-8.3,0-16.36,0-24.59-1.46,0-2.84-.06-4.21.02-1.4.08-2.79.33-4.19.44-7.53.58-14.85,2.11-21.92,4.83-5.58,2.14-10.71,5.01-15.3,8.84-5.6,4.66-9.9,10.3-12.89,16.93-1.59,3.52-2.7,7.21-3.25,11.04-.1.73-.36.93-1.01.88-1.3-.09-2.6-.16-3.89-.24,0-1.94,0-3.87,0-5.81Zm71.52-22.07c2.79-2.09,5.59-4.17,8.37-6.26,4.24-3.19,8.47-6.37,12.7-9.57,4.68-3.54,9.36-7.09,14.04-10.65,1.19-.9,2.36-1.83,3.56-2.77-12.95-9.81-25.77-19.52-38.83-29.41,0,6.78,0,13.31,0,19.77-2.29.13-4.4.21-6.5.36-2.73.2-5.48.31-8.19.73-3.26.5-6.53,1.06-9.69,1.96-6.99,1.99-13.45,5.1-19.15,9.72-3.98,3.23-7.46,6.89-10.41,11.06-3.94,5.57-6.69,11.72-8.83,18.16-.4,1.22-.66,2.49-1.07,4.04,1.72-2.2,3.06-4.25,4.74-5.96,2.49-2.54,5.11-4.99,7.89-7.21,4.97-3.98,10.67-6.71,16.66-8.8,5.26-1.84,10.65-3.19,16.22-3.73,3.67-.35,7.35-.63,11.02-.94.19-.02.38-.02.58-.02,2.21-.1,4.42-.2,6.73-.31,0,6.75,0,13.29,0,19.82v.18c.06-.06.11-.12.16-.18Z"/>
  </g>
</svg>