<?xml version="1.0" encoding="UTF-8"?>
<svg id="Layer_2" data-name="Layer 2" xmlns="http://www.w3.org/2000/svg" viewBox="0 0 134.53 242.42">
  <defs>
    <style>
      .cls-1 {
        fill: #fff;
      }
    </style>
  </defs>
  <g id="Options">
    <path class="cls-1" d="m10.68,242.36c-1.69.09-3.39.04-5.09.01-3.23-.05-5.56-1.81-5.57-4.27-.03-4.98,0-9.96-.02-14.94-.01-2.6,2.72-4.64,5.8-4.4,1.78.14,1.82,0,2.35-1.94,1.69-6.07,3.39-12.14,5.08-18.21,1.79-6.41,3.69-12.8,5.32-19.23.58-2.28,3.63-3.91,6.49-3.9,28.05.05,56.09.08,84.14-.02,4.42-.01,6.59,2.1,7.3,4.79,1.03,3.91,2.18,7.79,3.26,11.69.9,3.22,1.78,6.45,2.66,9.67,1.51,5.46,3,10.93,4.56,16.38.07.25.77.46,1.22.56,1.33.32,2.75.45,4,.88,1.65.58,2.3,1.78,2.31,3.12.03,5.45.03,10.89.02,16.34,0,1.8-2.44,3.42-5.27,3.47-2.45.04-4.9-.02-7.35.03l-16.1.02H30.09l-19.42-.06Zm56.87-23.59c14.47,0,28.93,0,43.4,0,.52,0,1.04.02,1.55-.01,2.08-.13,3.64-1.81,3.18-3.32-.54-1.76-.99-3.53-1.48-5.29-1.06-3.9-2.11-7.81-3.18-11.71-1.09-3.93-2.26-7.85-3.29-11.79-.66-2.53-1.69-3.3-4.89-3.3-23.84,0-47.68,0-71.53,0-2.18,0-3.49.79-3.92,2.35-1.7,5.99-3.39,11.98-5.09,17.97-1.03,3.62-2.09,7.24-3.08,10.87-.19.67-.35,1.42-.16,2.07.4,1.42,2,2.17,4.26,2.17,14.75,0,29.5,0,44.24,0Zm-.14,7.86s-35.54,0-53.3,0c-2.29,0-3.68,1.02-3.68,2.78,0,.61.07,1.22-.01,1.83-.29,2.23,1.25,3.29,4.32,3.28,35.06-.02,70.13-.01,105.19-.01.42,0,.86.05,1.27-.02,1.85-.28,2.6-.38,2.87-1.91.25-1.43.16-2.92-.02-4.37-.11-.88-1.63-1.57-2.9-1.57-17.91,0-35.82,0-53.73,0Z"/>
    <path class="cls-1" d="m69.39,0c1.1.26,2.21.49,3.3.8,12.78,3.68,18.36,18.3,11.34,29.61-.24.38-.63.7-.64,1.32,1.25.18,2.53.3,3.78.56,8.99,1.82,15.68,9.64,15.79,18.82.14,10.87.13,21.75,0,32.63-.1,9.08-5.81,16.39-14.53,18.87-1.22.35-1.34.94-1.34,1.96.02,13.88.02,27.76.01,41.64,0,7.97-4.91,12.86-12.89,12.86-4.76,0-9.53.01-14.29,0-7.4-.02-12.51-5.09-12.52-12.5-.03-13.98-.03-27.97.02-41.95,0-1.25-.33-1.74-1.58-2.1-8.33-2.36-14.22-9.94-14.31-18.6-.11-10.93-.12-21.86,0-32.78.11-9.95,8.15-18.34,18.1-19.18.51-.04,1.01-.12,1.72-.21-1.63-2.51-2.88-5.01-3.5-7.81-2.36-10.8,5.05-21.77,16-23.6.4-.07.84-.02,1.17-.33,1.45,0,2.9,0,4.35,0Zm9.88,103.32c0-14.08,0-28.17,0-42.25,0-.62-.01-1.25.05-1.86.25-2.44,2.61-3.99,4.96-3.3,1.86.55,2.82,1.97,2.82,4.29,0,11.03.02,22.06-.02,33.09,0,1.35.34,1.51,1.46.91,4.38-2.35,6.59-6.03,6.62-10.95.05-10.1.02-20.19.02-30.29,0-8.08-4.39-12.75-12.43-13.21-4.55-.26-7.83-4.02-7.52-8.56.13-1.9,1.11-3.39,2.08-4.94,2.69-4.34,2.68-8.77-.12-13-2.86-4.32-7.13-5.98-12.14-5.07-4.9.89-8.11,3.97-9.36,8.85-.94,3.69-.07,7.03,2.13,10.12,1.86,2.61,2.15,5.48.63,8.35-1.45,2.74-3.83,4.12-6.93,4.25-7.28.29-12.03,5.12-12.1,12.41-.05,5.07,0,10.15,0,15.22,0,5.28,0,10.56,0,15.84,0,4.82,2.11,8.44,6.31,10.82,1.56.88,1.67.8,1.67-.95,0-10.77,0-21.54,0-32.31,0-.78,0-1.55.24-2.31.53-1.63,2.06-2.76,3.74-2.76,1.69,0,3.2,1.14,3.73,2.78.26.81.24,1.63.24,2.46,0,22.06,0,44.11,0,66.17,0,6.52-.01,13.05,0,19.57,0,2.89,1.5,4.37,4.39,4.46.57.02,1.15-.06,1.71.02,1.48.22,1.92-.32,1.91-1.85-.06-13.46-.04-26.92-.03-40.39,0-.77,0-1.56.14-2.32.32-1.84,1.85-3.1,3.7-3.14,2.48-.06,4.06,1.72,4.06,4.61,0,13.62,0,27.23,0,40.85q0,2.21,2.23,2.21c.1,0,.21,0,.31,0,4.2,0,5.5-1.28,5.5-5.44,0-14.14,0-28.27,0-42.41Z"/>
  </g>
</svg>