<?xml version="1.0" encoding="UTF-8"?>
<svg id="Layer_2" data-name="Layer 2" xmlns="http://www.w3.org/2000/svg" viewBox="0 0 108.43 289.09">
  <defs>
    <style>
      .cls-1 {
        fill: #fff;
      }
    </style>
  </defs>
  <g id="Options">
    <g>
      <path class="cls-1" d="m8.81,208.97c-1.45-.83-2.66-1.51-3.86-2.21-2.32-1.35-3.07-3.79-1.84-5.92,1.19-2.06,3.66-2.66,5.94-1.41,1.26.69,2.5,1.41,3.96,2.24-.12-2.54-.26-4.87-.34-7.2-.07-2.14,1.04-3.79,2.88-4.36,2.42-.75,4.97.7,5.34,3.22.3,2.03.33,4.1.45,6.15.12,2.05.25,4.11.3,6.16.02.76.31,1.17.96,1.53,3.96,2.23,7.91,4.49,11.85,6.77.58.34,1.06.41,1.69.06,2.08-1.13,4.31-1.39,6.61-.89,1.07.23,1.73-.02,2.09-1.15.76-2.38,2.26-4.23,4.44-5.47.58-.33.76-.71.75-1.35-.03-4.6-.03-9.19,0-13.79,0-.74-.31-1.09-.85-1.45-3.29-2.17-6.57-4.34-9.83-6.55-1.52-1.03-2.2-2.5-1.86-4.31.33-1.74,1.45-2.86,3.18-3.31,1.27-.33,2.42.02,3.49.73,1.88,1.25,3.76,2.5,5.86,3.9,0-1.63,0-3.01,0-4.39.02-2.67,1.78-4.56,4.21-4.56,2.44,0,4.17,1.89,4.19,4.58.01,1.36,0,2.71,0,4.05.47.22.69-.14.96-.31,1.72-1.12,3.4-2.31,5.15-3.4,2.05-1.28,4.5-.76,5.79,1.16,1.29,1.93.86,4.42-1.13,5.79-3.24,2.23-6.53,4.4-9.83,6.55-.71.46-.96.96-.95,1.8.04,4.47.03,8.93.01,13.4,0,.7.11,1.2.8,1.61,2.01,1.18,3.32,2.97,3.94,5.2.33,1.17.96,1.53,2.13,1.27,2.4-.52,4.71-.22,6.84,1.02.63.37,1.08.28,1.67-.06,3.97-2.3,7.95-4.59,11.96-6.83.75-.42,1.02-.9,1.05-1.75.15-3.72.34-7.43.58-11.15.2-3.07,2.43-4.91,5.14-4.32,2.03.44,3.32,2.1,3.25,4.32-.07,2.36-.22,4.72-.35,7.32,1.36-.77,2.56-1.45,3.76-2.13,2.43-1.37,4.94-.83,6.16,1.31,1.23,2.16.44,4.57-1.98,5.98-1.16.68-2.32,1.34-3.71,2.14,2.19,1.1,4.16,2.11,6.14,3.08,1.34.66,2.28,1.63,2.53,3.14.27,1.64-.19,3.05-1.53,4.08-1.42,1.09-2.98,1.18-4.57.4-3.45-1.71-6.89-3.42-10.32-5.18-.72-.37-1.28-.42-2.03.02-3.85,2.26-7.72,4.46-11.62,6.64-.81.45-1.19.93-1.18,1.92.03,2.18-.75,4.14-2.18,5.77-.89,1.01-.99,1.75-.04,2.81,1.51,1.68,2.26,3.73,2.24,6.01,0,.75.22,1.18.89,1.56,4.04,2.27,8.07,4.56,12.08,6.9.63.36,1.08.3,1.67,0,3.51-1.78,7.03-3.55,10.56-5.28,1.54-.76,3.07-.65,4.46.39,1.35,1.01,1.84,2.41,1.58,4.06-.23,1.51-1.14,2.5-2.49,3.16-1.99.98-3.96,1.99-6.18,3.11,1.39.8,2.58,1.48,3.76,2.18,2.39,1.41,3.15,3.85,1.88,6-1.24,2.08-3.7,2.6-6.07,1.28-1.21-.68-2.41-1.36-3.81-2.15.13,2.61.29,5,.34,7.39.06,2.99-2.59,5.01-5.39,4.18-1.79-.53-2.87-2.05-3.01-4.32-.22-3.63-.44-7.25-.56-10.88-.03-1.01-.36-1.56-1.24-2.05-3.94-2.19-7.84-4.43-11.74-6.69-.62-.36-1.1-.46-1.78-.07-2.09,1.21-4.37,1.51-6.72,1-1.23-.27-1.87.1-2.22,1.33-.63,2.23-1.97,3.99-3.98,5.18-.56.34-.75.72-.75,1.37.03,4.6.04,9.19,0,13.79,0,.78.32,1.17.9,1.56,3.29,2.17,6.57,4.35,9.82,6.56,1.52,1.03,2.17,2.52,1.8,4.33-.35,1.74-1.48,2.84-3.22,3.27-1.27.31-2.42-.06-3.48-.77-1.85-1.24-3.7-2.47-5.82-3.88,0,1.77.03,3.31,0,4.84-.05,1.88-1.19,3.35-2.96,3.91-1.63.52-3.4-.01-4.49-1.36-.65-.81-.95-1.75-.95-2.8,0-1.4-.02-2.8-.03-4.2,0-.04-.03-.07-.13-.27-1.49.99-2.96,1.97-4.44,2.95-.55.36-1.08.75-1.65,1.08-2.01,1.15-4.44.58-5.66-1.31-1.26-1.95-.8-4.4,1.21-5.78,3.1-2.13,6.23-4.23,9.4-6.25,1-.64,1.36-1.34,1.34-2.52-.07-4.33-.05-8.67-.01-13,0-.7-.19-1.11-.81-1.46-2.1-1.19-3.57-2.96-4.32-5.25-.39-1.18-.99-1.6-2.24-1.32-2.25.5-4.44.22-6.49-.87-.61-.32-1.08-.36-1.69,0-3.97,2.3-7.96,4.59-11.96,6.83-.68.38-.86.85-.89,1.57-.17,3.76-.35,7.52-.59,11.28-.18,2.84-2.19,4.67-4.67,4.36-2.25-.28-3.77-2-3.72-4.32.05-2.19.21-4.37.32-6.56,0-.21-.02-.41-.04-.79-1.36.76-2.59,1.47-3.84,2.16-2.34,1.29-4.84.68-6.02-1.44-1.19-2.14-.41-4.54,1.93-5.9,1.17-.68,2.35-1.34,3.51-2-.03-.53-.46-.55-.74-.69-1.79-.92-3.61-1.78-5.39-2.71-2.14-1.12-2.95-3.52-1.95-5.59,1.01-2.11,3.47-2.99,5.69-1.92,3.54,1.71,7.06,3.48,10.56,5.27.65.33,1.14.35,1.78-.03,3.78-2.2,7.57-4.37,11.39-6.51.74-.41,1.05-.85,1.04-1.73-.04-2.41.79-4.56,2.39-6.36.75-.84.83-1.49.04-2.37-1.67-1.86-2.49-4.1-2.44-6.61.02-.73-.27-1.09-.86-1.43-3.89-2.19-7.76-4.4-11.62-6.64-.61-.36-1.06-.34-1.67-.02-3.39,1.73-6.79,3.42-10.2,5.1-2.52,1.25-4.97.56-6.08-1.66-1.11-2.22-.17-4.58,2.34-5.85,1.9-.97,3.82-1.92,6.01-3.02Zm58.07,30.2c.91.12,1.46-.08,1.75-.72.34-.75-.06-1.32-.53-1.89-3.23-3.93-3.23-8.67,0-12.59.5-.61.91-1.22.47-2-.46-.81-1.22-.71-1.98-.57-5.17.95-9.61-1.61-11.25-6.52-.21-.64-.34-1.33-1.21-1.3-.76.03-1.12.56-1.39,1.21-2.2,5.39-5.76,7.45-11.44,6.56-.89-.14-1.35.2-1.79.91-.46.74,0,1.14.37,1.61,3.33,4.12,3.33,8.67,0,12.8-.37.46-.83.87-.38,1.61.44.71.9,1.05,1.79.91,5.67-.9,9.25,1.16,11.44,6.55.26.65.62,1.19,1.39,1.21.87.03.99-.66,1.21-1.3,1.24-3.61,3.73-5.85,7.47-6.62,1.43-.29,2.88-.18,4.07.14Z"/>
      <path class="cls-1" d="m35.45,193.26c1.4.1,2.67.7,3.46,2.06.77,1.32,1.53,2.65,2.22,4.02,1.04,2.09.32,4.46-1.63,5.57-2.01,1.14-4.46.5-5.7-1.55-.81-1.35-1.61-2.71-2.27-4.14-1.3-2.79.75-5.96,3.92-5.96Z"/>
      <path class="cls-1" d="m71.05,205.47c-2.98,0-5.07-3.08-3.85-5.83.71-1.59,1.59-3.12,2.55-4.58,1.19-1.82,3.58-2.3,5.47-1.24,1.81,1.01,2.68,3.3,1.8,5.21-.75,1.62-1.66,3.18-2.61,4.69-.75,1.19-1.98,1.67-3.36,1.74Z"/>
      <path class="cls-1" d="m41.62,259.3c0,.72-.2,1.39-.54,2.01-.69,1.27-1.36,2.54-2.11,3.78-1.25,2.08-3.63,2.75-5.67,1.64-2.01-1.1-2.76-3.52-1.67-5.66.71-1.4,1.47-2.79,2.31-4.11,1.05-1.65,3.01-2.28,4.83-1.67,1.68.56,2.86,2.22,2.84,4.01Z"/>
      <path class="cls-1" d="m77.34,262.87c.02,1.93-1.14,3.57-2.84,4.14-1.77.6-3.74.03-4.75-1.55-.94-1.47-1.81-3-2.55-4.58-.86-1.83-.16-3.98,1.49-5.1,1.65-1.11,4-1,5.28.51,1.47,1.74,2.49,3.79,3.29,5.92.09.24.07.52.08.65Z"/>
      <path class="cls-1" d="m18.49,234.46c-.79,0-1.58.05-2.36,0-2.21-.15-3.91-1.98-3.92-4.17,0-2.19,1.68-4.07,3.89-4.19,1.61-.09,3.24-.09,4.85,0,2.21.13,3.88,2.03,3.85,4.22-.03,2.19-1.73,4-3.95,4.14-.78.05-1.57,0-2.36,0Z"/>
      <path class="cls-1" d="m89.92,234.45c-.79,0-1.58.05-2.36,0-2.21-.16-3.9-2-3.9-4.19,0-2.19,1.7-4.05,3.91-4.17,1.57-.08,3.15-.08,4.72,0,2.28.11,4,2.01,3.96,4.25-.04,2.19-1.75,3.98-3.98,4.12-.78.05-1.57,0-2.36,0Z"/>
    </g>
    <path class="cls-1" d="m55.85,0c1.1.26,2.21.49,3.3.8,12.78,3.68,18.36,18.3,11.34,29.61-.24.38-.63.7-.64,1.32,1.25.18,2.53.3,3.78.56,8.99,1.82,15.68,9.64,15.79,18.82.14,10.87.13,21.75,0,32.63-.1,9.08-5.81,16.39-14.53,18.87-1.22.35-1.34.94-1.34,1.96.02,13.88.02,27.76.01,41.64,0,7.97-4.91,12.86-12.89,12.86-4.76,0-9.53.01-14.29,0-7.4-.02-12.51-5.09-12.52-12.5-.03-13.98-.03-27.97.02-41.95,0-1.25-.33-1.74-1.58-2.1-8.33-2.36-14.22-9.94-14.31-18.6-.11-10.93-.12-21.86,0-32.78.11-9.95,8.15-18.34,18.1-19.18.51-.04,1.01-.12,1.72-.21-1.63-2.51-2.88-5.01-3.5-7.81C31.97,13.13,39.38,2.16,50.33.33c.4-.07.84-.02,1.17-.33,1.45,0,2.9,0,4.35,0Zm9.88,103.32c0-14.08,0-28.17,0-42.25,0-.62-.01-1.25.05-1.86.25-2.44,2.61-3.99,4.96-3.3,1.86.55,2.82,1.97,2.82,4.29,0,11.03.02,22.06-.02,33.09,0,1.35.34,1.51,1.46.91,4.38-2.35,6.59-6.03,6.62-10.95.05-10.1.02-20.19.02-30.29,0-8.08-4.39-12.75-12.43-13.21-4.55-.26-7.83-4.02-7.52-8.56.13-1.9,1.11-3.39,2.08-4.94,2.69-4.34,2.68-8.77-.12-13-2.86-4.32-7.13-5.98-12.14-5.07-4.9.89-8.11,3.97-9.36,8.85-.94,3.69-.07,7.03,2.13,10.12,1.86,2.61,2.15,5.48.63,8.35-1.45,2.74-3.83,4.12-6.93,4.25-7.28.29-12.03,5.12-12.1,12.41-.05,5.07,0,10.15,0,15.22,0,5.28,0,10.56,0,15.84,0,4.82,2.11,8.44,6.31,10.82,1.56.88,1.67.8,1.67-.95,0-10.77,0-21.54,0-32.31,0-.78,0-1.55.24-2.31.53-1.63,2.06-2.76,3.74-2.76,1.69,0,3.2,1.14,3.73,2.78.26.81.24,1.63.24,2.46,0,22.06,0,44.11,0,66.17,0,6.52-.01,13.05,0,19.57,0,2.89,1.5,4.37,4.39,4.46.57.02,1.15-.06,1.71.02,1.48.22,1.92-.32,1.91-1.85-.06-13.46-.04-26.92-.03-40.39,0-.77,0-1.56.14-2.32.32-1.84,1.85-3.1,3.7-3.14,2.48-.06,4.06,1.72,4.06,4.61,0,13.62,0,27.23,0,40.85q0,2.21,2.23,2.21c.1,0,.21,0,.31,0,4.2,0,5.5-1.28,5.5-5.44,0-14.14,0-28.27,0-42.41Z"/>
  </g>
</svg>