<?xml version="1.0" encoding="UTF-8"?>
<svg id="Layer_2" data-name="Layer 2" xmlns="http://www.w3.org/2000/svg" viewBox="0 0 107.85 275.66">
  <defs>
    <style>
      .cls-1 {
        fill: #fff;
      }
    </style>
  </defs>
  <g id="Options">
    <path class="cls-1" d="m76.2,190.59c2.02.33,3.98.64,6.03.97,2.12-4.81,4.27-9.7,6.43-14.57,1.21-2.74,1.85-3.51,5.19-3.55,4.61-.05,9.21-.01,13.88-.01v7.51h-12.51c-1.99,4.47-3.96,8.89-5.81,13.05,2.69,2.03,5.39,3.82,7.8,5.95,2.57,2.28,4.59,5.1,6.28,8.11,2.06,3.68,3.5,7.62,4.05,11.8,1.04,7.89-.41,15.3-4.54,22.16-3.23,5.36-7.59,9.52-13.07,12.51-.53.29-.64.51-.39,1.07,1.71,3.81,3.41,7.62,5.08,11.45.33.76.78,1.05,1.66,1.03,3.81-.06,7.62-.03,11.48-.03v7.57c-3.34,0-6.64,0-9.94,0-1.5,0-3-.1-4.49.02-2.73.22-3.8-1.35-4.63-3.22-1.4-3.16-2.77-6.33-4.16-9.49-.69-1.57-1.36-3.14-2.09-4.69-.13-.27-.57-.6-.81-.57-1.62.25-3.23.58-4.83.94-.28.06-.61.34-.73.61-2.13,4.64-4.22,9.3-6.33,13.95-.74,1.63-1.93,2.49-3.8,2.47-4.92-.05-9.84-.02-14.83-.02v-7.57h5.61c1.93,0,3.86-.05,5.79.02.93.03,1.42-.22,1.8-1.14,1.07-2.59,2.28-5.11,3.43-7.67.08-.17.07-.37.11-.62h-19.99c-1.81,4.08-3.6,8.17-5.46,12.23-.58,1.27-1.25,2.52-2.04,3.67-.56.82-1.51,1.09-2.56,1.09-5-.03-10-.01-15.08-.01v-7.57h3.46c2.76,0,5.52-.02,8.28.01.72,0,1.04-.2,1.34-.92,1.21-2.9,2.53-5.75,3.81-8.62.06-.14.06-.3.1-.49-6.71-2.63-8.04-8.09-7.54-14.5-5.05-.48-10.24.96-14.85-1.88-1.71,2.08-3.38,4.14-5.09,6.18-.76.9-1.72,1.33-2.96,1.31-3.07-.06-6.13-.02-9.26-.02v-7.57c1.96,0,3.92-.05,5.88.02,1.15.04,2.05-.07,2.74-1.2.74-1.21,1.77-2.23,2.59-3.4.2-.29.23-.89.07-1.2-1.5-2.8-1.94-5.81-1.87-8.93.06-2.78-.02-5.58.3-8.33.18-1.61.94-3.18,1.56-4.71.31-.78.28-1.35-.25-1.99-.91-1.09-1.77-2.24-2.66-3.34-.5-.62-1.04-1.04-1.96-1-2.11.09-4.23.03-6.4.03v-7.34c3.48,0,6.92-.08,10.35.07.73.03,1.56.77,2.11,1.4,1.48,1.68,2.83,3.47,4.22,5.22.46.58.88.64,1.56.27,1.57-.84,3.26-1.3,5.07-1.28,2.89.03,5.78,0,8.85,0-.38-6.59.89-12.1,7.62-14.69-1.2-2.73-2.34-5.33-3.49-7.92-.2-.45-.49-.88-.6-1.35-.17-.69-.52-.89-1.22-.89-3.9.03-7.79.02-11.75.02v-7.52c.33-.02.67-.05,1.01-.05,4.02,0,8.04.02,12.06,0,4.82-.03,4.77.98,6.43,4.39,1.52,3.14,3.04,6.31,4.13,9.61.89,2.7,2.44,3.21,5.03,3.1,5.08-.21,10.17-.06,15.25-.06h1.27c-1.19-2.67-2.49-5.17-3.43-7.8-.53-1.5-1.34-1.72-2.7-1.69-3.54.08-7.08.03-10.67.03v-7.57c2.41,0,4.8,0,7.19,0,1.97,0,3.94,0,5.91,0,4.93,0,4.68.89,6.41,4.41,1.56,3.17,2.86,6.46,4.28,9.7.44,1.01.87,2.02,1.32,3.05Zm-21.35,60.42c6.64,0,13.18.03,19.71-.02,1.42-.01,2.84-.23,4.25-.46,4.74-.78,8.88-2.92,12.44-6.06,4.5-3.97,7.36-8.95,8.55-14.89.24-1.21-.19-1.27-1.11-1.27-14.3.01-28.61,0-42.91.01-.3,0-.6.03-.92.05v22.64Zm45.19-30.29c-.12-.32-.24-.53-.27-.75-.71-4.7-2.76-8.82-5.78-12.39-5.4-6.37-12.45-9.41-20.75-9.53-5.75-.08-11.51-.02-17.26-.02-.38,0-.75,0-1.08,0v22.68h45.14Zm-52.83-22.68c-1.02,0-1.99,0-2.96,0-2.97-.02-4.55,1.61-4.55,4.52,0,8.52,0,17.03,0,25.55,0,6.39,0,12.77,0,19.16,0,1.75,1.48,3.64,3.01,3.73,1.48.09,2.97.02,4.51.02v-52.98Zm-15.12,15.14c-2.44,0-4.77-.06-7.09.03-1.1.04-2.27.18-3.27.61-3.26,1.4-4.67,4.08-4.74,7.53-.04,2.36-.07,4.73,0,7.09.09,2.65,1.12,4.85,3.45,6.29,1.19.74,2.45,1.2,3.9,1.17,2.58-.05,5.16-.01,7.74-.01v-22.71Z"/>
    <path class="cls-1" d="m56.06,0c1.1.26,2.21.49,3.3.8,12.78,3.68,18.36,18.3,11.34,29.61-.24.38-.63.7-.64,1.32,1.25.18,2.53.3,3.78.56,8.99,1.82,15.68,9.64,15.79,18.82.14,10.87.13,21.75,0,32.63-.1,9.08-5.81,16.39-14.53,18.87-1.22.35-1.34.94-1.34,1.96.02,13.88.02,27.76.01,41.64,0,7.97-4.91,12.86-12.89,12.86-4.76,0-9.53.01-14.29,0-7.4-.02-12.51-5.09-12.52-12.5-.03-13.98-.03-27.97.02-41.95,0-1.25-.33-1.74-1.58-2.1-8.33-2.36-14.22-9.94-14.31-18.6-.11-10.93-.12-21.86,0-32.78.11-9.95,8.15-18.34,18.1-19.18.51-.04,1.01-.12,1.72-.21-1.63-2.51-2.88-5.01-3.5-7.81-2.36-10.8,5.05-21.77,16-23.6.4-.07.84-.02,1.17-.33,1.45,0,2.9,0,4.35,0Zm9.88,103.32c0-14.08,0-28.17,0-42.25,0-.62-.01-1.25.05-1.86.25-2.44,2.61-3.99,4.96-3.3,1.86.55,2.82,1.97,2.82,4.29,0,11.03.02,22.06-.02,33.09,0,1.35.34,1.51,1.46.91,4.38-2.35,6.59-6.03,6.62-10.95.05-10.1.02-20.19.02-30.29,0-8.08-4.39-12.75-12.43-13.21-4.55-.26-7.83-4.02-7.52-8.56.13-1.9,1.11-3.39,2.08-4.94,2.69-4.34,2.68-8.77-.12-13-2.86-4.32-7.13-5.98-12.14-5.07-4.9.89-8.11,3.97-9.36,8.85-.94,3.69-.07,7.03,2.13,10.12,1.86,2.61,2.15,5.48.63,8.35-1.45,2.74-3.83,4.12-6.93,4.25-7.28.29-12.03,5.12-12.1,12.41-.05,5.07,0,10.15,0,15.22,0,5.28,0,10.56,0,15.84,0,4.82,2.11,8.44,6.31,10.82,1.56.88,1.67.8,1.67-.95,0-10.77,0-21.54,0-32.31,0-.78,0-1.55.24-2.31.53-1.63,2.06-2.76,3.74-2.76,1.69,0,3.2,1.14,3.73,2.78.26.81.24,1.63.24,2.46,0,22.06,0,44.11,0,66.17,0,6.52-.01,13.05,0,19.57,0,2.89,1.5,4.37,4.39,4.46.57.02,1.15-.06,1.71.02,1.48.22,1.92-.32,1.91-1.85-.06-13.46-.04-26.92-.03-40.39,0-.77,0-1.56.14-2.32.32-1.84,1.85-3.1,3.7-3.14,2.48-.06,4.06,1.72,4.06,4.61,0,13.62,0,27.23,0,40.85q0,2.21,2.23,2.21c.1,0,.21,0,.31,0,4.2,0,5.5-1.28,5.5-5.44,0-14.14,0-28.27,0-42.41Z"/>
  </g>
</svg>