<?xml version="1.0" encoding="UTF-8"?>
<svg id="Layer_2" data-name="Layer 2" xmlns="http://www.w3.org/2000/svg" viewBox="0 0 109.4 231.81">
  <defs>
    <style>
      .cls-1 {
        fill: #fff;
      }
    </style>
  </defs>
  <g id="Options">
    <path class="cls-1" d="m0,191.18c.86-1.1,1.24-2.44,1.86-3.66.63-1.23,1.23-2.49,1.76-3.77.32-.77.68-1.06,1.58-.92,4.57.7,9.17,1.23,13.78,1.61,12.24,1.02,24.41.9,36.25-2.9,5.38-1.73,10.52-3.95,14.88-7.69,1.93-1.65,3.59-3.56,5.15-5.55,1.34-1.71,2.6-3.49,4.02-5.12,1.86-2.14,2.75-4.63,2.92-7.4.13-2.19.56-4.4.01-6.59-.15-.62.18-.69.65-.8,4.32-1.04,8.64-2.07,12.95-3.16.9-.23,1.14-.06,1.2.88.21,3.3.46,6.6,1.48,9.79.48,1.51,1.18,2.88,2.19,4.11,3.61,4.39,6.45,9.2,7.83,14.77,1.96,7.88.56,15.32-3.12,22.41-3.64,7-8.88,12.69-14.87,17.72-6.66,5.59-13.79,10.42-22.06,13.36-7.99,2.84-16.18,4.2-24.65,3.27-7.51-.83-14.27-3.45-19.91-8.64-.46-.42-.66-.84-.63-1.47.11-2.7.22-5.41.22-8.11,0-.86.58-.83,1.09-1.04-.32-.41-.81-.41-1.22-.55-6.04-2.03-11.6-4.87-16.19-9.39-2.82-2.78-4.99-6.01-6.63-9.61-.14-.31-.16-.7-.51-.89v-.64Zm49.24,34.39c2.48-.12,4.92-.34,7.34-.75,9.21-1.57,17.55-5.14,25.03-10.76,6.5-4.89,12.49-10.25,16.86-17.21,2.75-4.38,4.57-9.09,4.7-14.32.16-6.73-2.38-12.53-6.54-17.62-2.72-3.34-4.38-7.03-5.01-11.24-.12-.8-.35-1.04-1.21-.78-.81.25-.68.6-.46,1.16,1.5,3.88,2.09,7.81.82,11.89-.57,1.83-1.01,3.7-1.47,5.56-1.38,5.57-3.35,10.85-6.92,15.46-6.06,7.82-13.67,13.75-22.27,18.47-9.18,5.04-18.97,8.53-29,11.43-1.61.47-1.59.47-1.62,2.12,0,.51.14.85.55,1.16,1.13.87,2.32,1.65,3.59,2.3,4.92,2.51,10.2,3.19,15.61,3.13Zm34.6-58.2c-.35.43-.63.79-.92,1.15-2.65,3.35-5.15,6.82-8.36,9.68-4.79,4.27-10.5,6.88-16.49,8.92-9.16,3.12-18.65,4.12-28.27,4.06-7.09-.04-14.14-.67-21.16-1.6-.28-.04-.57-.16-.84,0-.54.32-.96,2.19-.64,2.79,1.88,3.49,4.58,6.24,7.83,8.46,6.25,4.26,13.28,6.35,20.67,7.5,1.21.19,2.3.02,3.42-.41,2.15-.83,4.35-1.56,6.49-2.43,9.53-3.85,18.41-8.73,26.04-15.76,6.58-6.07,10.91-13.31,12.24-22.33Z"/>
    <path class="cls-1" d="m47.83,0c1.1.26,2.21.49,3.3.8,12.78,3.68,18.36,18.3,11.34,29.61-.24.38-.63.7-.64,1.32,1.25.18,2.53.3,3.78.56,8.99,1.82,15.68,9.64,15.79,18.82.14,10.87.13,21.75,0,32.63-.1,9.08-5.81,16.39-14.53,18.87-1.22.35-1.34.94-1.34,1.96.02,13.88.02,27.76.01,41.64,0,7.97-4.91,12.86-12.89,12.86-4.76,0-9.53.01-14.29,0-7.4-.02-12.51-5.09-12.52-12.5-.03-13.98-.03-27.97.02-41.95,0-1.25-.33-1.74-1.58-2.1-8.33-2.36-14.22-9.94-14.31-18.6-.11-10.93-.12-21.86,0-32.78.11-9.95,8.15-18.34,18.1-19.18.51-.04,1.01-.12,1.72-.21-1.63-2.51-2.88-5.01-3.5-7.81C23.95,13.13,31.36,2.16,42.31.33c.4-.07.84-.02,1.17-.33,1.45,0,2.9,0,4.35,0Zm9.88,103.32c0-14.08,0-28.17,0-42.25,0-.62-.01-1.25.05-1.86.25-2.44,2.61-3.99,4.96-3.3,1.86.55,2.82,1.97,2.82,4.29,0,11.03.02,22.06-.02,33.09,0,1.35.34,1.51,1.46.91,4.38-2.35,6.59-6.03,6.62-10.95.05-10.1.02-20.19.02-30.29,0-8.08-4.39-12.75-12.43-13.21-4.55-.26-7.83-4.02-7.52-8.56.13-1.9,1.11-3.39,2.08-4.94,2.69-4.34,2.68-8.77-.12-13-2.86-4.32-7.13-5.98-12.14-5.07-4.9.89-8.11,3.97-9.36,8.85-.94,3.69-.07,7.03,2.13,10.12,1.86,2.61,2.15,5.48.63,8.35-1.45,2.74-3.83,4.12-6.93,4.25-7.28.29-12.03,5.12-12.1,12.41-.05,5.07,0,10.15,0,15.22,0,5.28,0,10.56,0,15.84,0,4.82,2.11,8.44,6.31,10.82,1.56.88,1.67.8,1.67-.95,0-10.77,0-21.54,0-32.31,0-.78,0-1.55.24-2.31.53-1.63,2.06-2.76,3.74-2.76,1.69,0,3.2,1.14,3.73,2.78.26.81.24,1.63.24,2.46,0,22.06,0,44.11,0,66.17,0,6.52-.01,13.05,0,19.57,0,2.89,1.5,4.37,4.39,4.46.57.02,1.15-.06,1.71.02,1.48.22,1.92-.32,1.91-1.85-.06-13.46-.04-26.92-.03-40.39,0-.77,0-1.56.14-2.32.32-1.84,1.85-3.1,3.7-3.14,2.48-.06,4.06,1.72,4.06,4.61,0,13.62,0,27.23,0,40.85q0,2.21,2.23,2.21c.1,0,.21,0,.31,0,4.2,0,5.5-1.28,5.5-5.44,0-14.14,0-28.27,0-42.41Z"/>
  </g>
</svg>