<?xml version="1.0" encoding="UTF-8"?>
<svg id="Layer_2" data-name="Layer 2" xmlns="http://www.w3.org/2000/svg" viewBox="0 0 127.67 147.32">
  <defs>
    <style>
      .cls-1 {
        fill: #fff;
      }
    </style>
  </defs>
  <g id="Options">
    <path class="cls-1" d="m57.66,36.71c0-.81,0-1.5,0-2.19,0-7.69-.02-15.39.01-23.08.01-2.87,1.55-5.03,4.07-5.92,2.52-.89,5.33-.12,6.96,1.91,1.06,1.32,1.4,2.86,1.35,4.53.61.12.8-.4,1.1-.67C79.21,3.93,88.71.17,99.62,0c3.96-.06,6.53,2.64,6.46,6.7-.15,8.59-2.75,16.38-7.63,23.43-.28.41-.56.82-.88,1.28,1.89.57,3.72,1.04,5.49,1.67,14.58,5.22,24.48,18.89,24.6,34.28.13,16.54-2.36,32.65-8.75,48.01-3.82,9.19-8.89,17.59-16.6,24.1-6.47,5.46-13.84,8.45-22.47,7.69-3.18-.28-6.24-1.08-9.11-2.46-4.51-2.17-8.94-2.09-13.52-.09-11.83,5.16-22.49,2.74-32.08-5.39-7.62-6.46-12.56-14.83-16.36-23.92C3.61,102.94,1.11,89.97.29,76.64c-.34-5.52-.6-11.03.59-16.52,5.28-24.16,32.8-36.61,54.36-24.55.73.41,1.42.9,2.42,1.14ZM12.4,72.07c.17,3.76.4,7.53.86,11.27,1.35,10.99,3.96,21.63,8.84,31.62,2.94,6.01,6.55,11.56,11.93,15.72,5.6,4.33,11.71,5.68,18.34,2.56,7.54-3.55,15.05-3.4,22.6-.14,1.76.76,3.53,1.44,5.45,1.68,5.6.68,10.24-1.46,14.36-4.99,4.94-4.24,8.38-9.6,11.11-15.43,6.95-14.85,9.56-30.62,9.4-46.89-.1-9.98-6.82-19.21-16.22-22.63-7.17-2.61-14.15-2.02-20.81,1.63-3.52,1.93-7.17,3.37-11.18,3.81-6.43.72-12.28-.89-17.93-3.96-13.31-7.21-29.71-1.15-35.17,12.83-1.63,4.18-1.77,8.52-1.58,12.92Zm58.62-36.94c12.29-2.91,20.35-13.64,21.58-21.73-9.8,1.95-19.41,11.05-21.58,21.73Z"/>
  </g>
</svg>