<?xml version="1.0" encoding="UTF-8"?>
<svg id="Layer_2" data-name="Layer 2" xmlns="http://www.w3.org/2000/svg" viewBox="0 0 148.67 160.13">
  <defs>
    <style>
      .cls-1 {
        fill: #fff;
      }
    </style>
  </defs>
  <g id="Options">
    <path class="cls-1" d="m54.63,97.22c-1.54.55-3.12,1.05-4.64,1.68-11.08,4.54-22.15,9.12-33.23,13.66-3.68,1.51-7.39,2.96-11.08,4.46-2.69,1.09-5.6-.68-5.63-3.57-.06-4.82-.08-9.64.04-14.46.02-.91.56-2.04,1.24-2.65,3.06-2.75,6.24-5.37,9.4-8.01,2.4-2,4.85-3.95,7.27-5.94,2.6-2.13,5.22-4.22,7.75-6.43.52-.45.9-1.33.92-2.03.12-4,.2-8.01.13-12.02-.06-3.33,2.45-7.31,6.25-8.76,5.28-2.02,11.23-.27,14.02,4.99,2.52-2.07,5.03-4.09,7.48-6.17.27-.23.31-.82.31-1.24,0-7.2-.08-14.4-.04-21.6.04-6.47,1.02-12.8,3.81-18.69,2.3-4.88,5.68-8.89,11.28-9.96,5.32-1.02,10.46-.66,14.88,3.23,4.48,3.95,6.55,9.11,7.67,14.72,1.93,9.69,1.44,19.54,1.23,29.32-.07,3.41,1.15,5.5,3.67,7.29,1.29.92,2.52,1.95,3.77,2.92,1.15-1.2,2.18-2.55,3.48-3.56,3.63-2.82,7.63-2.63,11.54-.77,3.99,1.9,5.69,5.42,5.79,9.71.08,3.54-.04,7.09.06,10.63.02.71.44,1.62.98,2.08,5.9,5.05,11.85,10.04,17.79,15.04,2.14,1.8,4.39,3.48,6.37,5.44.8.79,1.4,2.15,1.44,3.27.16,4.41.1,8.83.06,13.24-.04,3.33-3.17,5.14-6.29,3.86-10.33-4.23-20.71-8.37-31.05-12.58-5.79-2.36-11.56-4.78-17.5-7.24v11.09c0,3.66.33,7.36-.1,10.97-.38,3.23,1.45,4.87,3.37,6.69,2.43,2.31,4.95,4.54,7.21,7.01.76.82,1.15,2.26,1.17,3.43.11,6.45.09,12.9.04,19.34-.03,3.71-3.25,5.61-6.5,3.77-6.2-3.5-12.33-7.13-18.49-10.71-1.02-.59-2.17-1.04-3.02-1.82-2.55-2.35-4.71-1.16-7.14.3-7.07,4.22-14.23,8.31-21.4,12.37-2.75,1.55-5.64-.02-5.69-3.19-.12-7.08-.05-14.17-.03-21.26,0-2.64,2.31-3.7,3.83-5.25,2.43-2.48,4.99-4.82,7.46-7.26.24-.24.36-.7.36-1.06.02-7.9,0-15.8,0-23.7,0-.11-.08-.21-.22-.58Zm42.72,51.8c0-3.81.06-7.12-.04-10.42-.02-.75-.4-1.67-.93-2.2-3.07-3.07-6.27-6-9.31-9.1-.73-.74-1.4-1.93-1.41-2.92-.1-11.27-.06-22.54-.05-33.81,0-2.36,2.67-4.29,4.84-3.42,2.96,1.18,5.91,2.38,8.86,3.57,9.06,3.63,18.12,7.25,27.18,10.9,4.54,1.83,9.07,3.71,13.73,5.62,0-1.93.02-3.67-.02-5.41,0-.37-.09-.86-.34-1.08-1.41-1.25-2.88-2.43-4.34-3.63-3.83-3.16-7.66-6.3-11.48-9.46-2.37-1.97-4.67-4.04-7.1-5.92-1.99-1.54-3.68-3.1-3.2-5.94.11-.68.02-1.39.02-2.09,0-3.49.02-6.97-.01-10.46-.02-1.81-.89-2.58-2.78-2.79-1.62-.18-2.43.82-2.47,2.71-.01.87.04,1.75-.02,2.61-.12,1.75-.85,3.4-2.53,3.86-1.25.34-3.12.27-4.06-.46-4.99-3.87-9.79-7.99-14.64-12.05-1.14-.95-1.69-2.15-1.7-3.72-.09-9.44-.25-18.88-.43-28.32-.07-3.65-.83-7.18-2.19-10.57-1.96-4.88-5.67-7.15-10.81-6.36-3.09.47-4.83,2.82-6.07,5.4-2.41,5.01-3.08,10.36-3,15.89.12,7.78.03,15.57,0,23.35,0,1.65-.51,3.12-1.88,4.23-2.22,1.79-4.38,3.67-6.57,5.49-2.72,2.27-5.34,4.68-8.25,6.69-.99.69-2.81.71-4.06.36-1.45-.41-2.19-1.85-2.14-3.5.03-.87.03-1.74,0-2.61-.1-1.99-1.21-3.13-2.92-3.03-1.72.1-2.32.87-2.33,3.08-.01,4.07.02,8.13-.02,12.2-.02,1.65-.15,3.36-1.53,4.52-3.01,2.52-6.09,4.96-9.12,7.45-4.71,3.88-9.43,7.76-14.1,11.69-.78.66-1.8,1.47-1.95,2.35-.31,1.73-.09,3.55-.09,5.46,5.18-2.07,10.22-4.05,15.24-6.08,11.15-4.51,22.3-9.05,33.45-13.58,3.52-1.43,6.28.38,6.29,4.2.03,10.4.04,20.8-.03,31.19,0,1.15-.17,2.61-.86,3.37-2.58,2.81-5.43,5.36-8.14,8.05-.96.95-2.5,1.95-2.6,3.03-.32,3.71-.12,7.46-.12,11.42.66-.35,1.06-.54,1.44-.76,6.35-3.67,12.7-7.35,19.05-11.03,1.57-.91,3.14-.89,4.69,0,4.92,2.81,9.83,5.64,14.74,8.47,1.92,1.11,3.84,2.22,6.13,3.55Z"/>
  </g>
</svg>