<?xml version="1.0" encoding="UTF-8"?>
<svg id="Layer_2" data-name="Layer 2" xmlns="http://www.w3.org/2000/svg" viewBox="0 0 148.97 171.27">
  <defs>
    <style>
      .cls-1 {
        fill: #fff;
      }
    </style>
  </defs>
  <g id="Options">
    <path class="cls-1" d="m126.98,124.16c4.57,2.12,8.65,4,12.71,5.91,8.57,4.03,11.5,12.11,7.52,20.76-1.81,3.94-3.6,7.9-5.51,11.8-3.78,7.76-12.02,10.72-19.86,7.1-14.8-6.84-29.57-13.72-44.32-20.66-1.8-.85-3.29-1.09-5.11-.06-2.11,1.19-4.4,2.09-6.64,3.05-.96.41-1.32,1-1.46,2.05-1.07,8.44-9.03,12.49-16.41,8.23-1.64-.94-2.79-.88-4.36-.13-5.22,2.49-10.5,4.86-15.77,7.26-8.77,3.99-16.81,1.04-20.91-7.66-1.82-3.86-3.64-7.72-5.38-11.61-3.58-7.99-.54-16.17,7.4-19.92,4.26-2.01,8.57-3.93,13.05-5.98-1.85-1.3-3.86-1.76-5.71-2.5-8.76-3.5-12.24-11.98-8.36-20.55,1.73-3.82,3.5-7.61,5.28-11.4,3.87-8.25,11.06-11.25,19.66-8.23.26.09.54.14.95.25-.51-3.21-1.23-6.26-1.43-9.33-2.03-30.58,12.04-51.91,38.26-66.17,5.04-2.74,10.36-4.81,15.95-6.13,4.44-1.05,7.09,1.37,6.29,5.8-1.77,9.74.35,18.77,4.96,27.34,3.33,6.19,7.47,11.87,11.11,17.86,3.87,6.38,7.07,12.99,7.29,20.66.08,2.83-.13,5.64-.89,8.38-.32,1.14-.15,1.4,1.12,1.29,8.57-.75,13.29,2.03,16.89,9.8,1.63,3.52,3.29,7.04,4.9,10.57,3.81,8.33.82,16.49-7.47,20.45-1.08.52-2.17,1.03-3.75,1.77Zm-85.96-57.03c.09,5.29,1,11.12,3.14,16.75.86,2.26,2.04,3.93,4.5,4.7,2.17.68,4.2,1.79,6.29,2.7,3.41,1.49,3.33,1.47,3.86-2.14,1.18-8.04,4.59-14.8,11.64-19.3,4.51-2.87,7.58-1.43,8.4,3.82,1.12,7.18,4.49,13.18,9.49,18.36.93.97,1.69,1.2,2.95.58,3.07-1.52,6.22-2.86,9.34-4.28.69-.32,1.39-.62,1.83-1.31,3.11-4.94,5.21-10.15,4.59-16.15-.56-5.46-3.01-10.18-5.81-14.74-2.71-4.41-5.6-8.72-8.35-13.1-5.89-9.38-9.92-19.37-9.74-30.68.03-1.75-.77-1.39-1.82-.97-6.11,2.45-11.79,5.67-17.05,9.64-15.1,11.38-22.97,26.47-23.27,46.12Zm89.74,41.24c.08-.75-.37-1.71-.82-2.69-1.74-3.73-3.46-7.46-5.21-11.18-1.92-4.09-4.65-5.12-8.73-3.25-34.34,15.7-68.69,31.41-103.02,47.13-3.8,1.74-4.85,4.61-3.11,8.42,1.74,3.81,3.52,7.6,5.31,11.39,1.85,3.91,4.64,4.94,8.59,3.15,6.1-2.77,12.26-5.43,18.26-8.41,3.51-1.74,6.53-2.34,9.43.98.72.83,1.91,1.49,3.09.82,1.11-.63.86-1.85.77-2.9-.35-4.07.17-4.99,3.9-6.7,9.69-4.43,19.39-8.86,29.08-13.29,12.74-5.82,25.47-11.65,38.22-17.45,2.47-1.12,4.23-2.7,4.24-6.01Zm-45.01,34.6c13.75,6.39,26.98,12.58,40.26,18.68,3.05,1.4,5.96.24,7.45-2.82,1.94-3.97,3.77-7.99,5.61-12,1.74-3.8.72-6.67-3.05-8.45-6.13-2.89-12.3-5.69-18.42-8.6-1.17-.55-2.09-.47-3.21.07-3.36,1.61-6.78,3.12-10.17,4.67-6.01,2.75-12.02,5.5-18.48,8.46Zm-22.1-37.79c-.27-.22-.37-.34-.49-.39-11.36-4.96-22.7-9.95-34.08-14.84-2.97-1.28-5.86-.09-7.28,2.84-2.02,4.17-3.98,8.38-5.87,12.62-1.51,3.38-.23,6.39,3.24,7.78,4.23,1.7,8.52,3.26,12.73,5.01,1.42.59,2.57.43,3.89-.18,7.38-3.43,14.79-6.78,22.19-10.17,1.85-.85,3.69-1.73,5.67-2.66Zm17.21-7.84c-4.33-4.79-7.39-9.96-9.55-16.02-2.46,3.27-3.3,6.71-3.74,10.26-.59,4.85-.5,4.94,4.02,6.92.77.34,1.55.65,2.29,1.02.74.36,1.43.39,2.18.03,1.5-.72,3.03-1.4,4.78-2.21Z"/>
  </g>
</svg>