<?xml version="1.0" encoding="UTF-8"?>
<svg id="Layer_2" data-name="Layer 2" xmlns="http://www.w3.org/2000/svg" viewBox="0 0 343.93 104.41">
  <defs>
    <style>
      .cls-1 {
        fill: none;
        stroke: #fff;
        stroke-linejoin: round;
        stroke-width: 10px;
      }
    </style>
  </defs>
  <g id="Options">
    <g>
      <path class="cls-1" d="m103.01,49.88c13.36-1.19,18,1.33,32.61-.58,7.2-.94,14.75-2.01,15.72-5.82.79-3.11-3.02-7.14-6.41-9.32-12.44-8-26.18,3.93-36.11-3.49-4.16-3.11-7.25-9.34-5.82-13.98,3.3-10.76,30.34-11.37,49.5-11.65,24.51-.35,35.62,2.34,55.91,4.08,57.19,4.9,93.76-5.87,97.26,5.24,1.03,3.27-.62,9-4.08,11.65-4.95,3.79-11.63-.27-16.31,4.08-1.83,1.7-4,5.29-2.91,7.57,3.16,6.6,29.42-6.74,48.34,4.66,2.27,1.37,7.55,4.65,8.15,9.9.56,4.87-3.19,8.93-4.66,10.48-8.44,8.9-19.29,6.44-33.2,10.48-13.61,3.96-17.33,10.43-27.95,16.89-13.95,8.48-25.5,8.27-65.23,8.74-63.09.74-78.08,1.8-105.99-3.49-36.1-6.84-39.62-14.04-40.18-17.47-1.38-8.39,10.91-18.65,20.22-23.19,7.22-3.52,13.7-4.1,21.13-4.76Z"/>
      <path class="cls-1" d="m56.42,46.38c.4-4.11-7.48-7.9-11.65-9.9-10.61-5.1-28.18-8.27-36.11.58-2.26,2.52-4.64,7.04-3.25,10.73,2.06,5.46,11.3,6.31,17.03,6.84,14.48,1.34,33.38-2.09,33.98-8.26Z"/>
    </g>
  </g>
</svg>