<?xml version="1.0" encoding="UTF-8"?>
<svg id="Layer_2" data-name="Layer 2" xmlns="http://www.w3.org/2000/svg" viewBox="0 0 158.06 185.54">
  <defs>
    <style>
      .cls-1 {
        fill: #fff;
      }
    </style>
  </defs>
  <g id="Options">
    <g>
      <path class="cls-1" d="m145.51,82.13c1.98-.14,3.99-.06,5.98-.02,3.8.07,6.53,2.8,6.55,6.6.03,7.7-.01,15.39.02,23.09.02,4.02-3.19,7.18-6.81,6.8-2.1-.22-2.13,0-2.77,3-1.98,9.38-3.98,18.76-5.97,28.14-2.11,9.91-4.33,19.79-6.26,29.73-.68,3.52-4.26,6.04-7.63,6.03-32.95-.08-65.91-.12-98.86.03-5.19.02-7.74-3.25-8.57-7.4-1.21-6.04-2.56-12.05-3.83-18.07-1.05-4.98-2.09-9.97-3.13-14.95-1.77-8.44-3.52-16.89-5.36-25.32-.08-.38-.9-.7-1.43-.87-1.56-.49-3.23-.69-4.7-1.37-1.94-.9-2.7-2.75-2.71-4.82C0,104.32,0,95.9,0,87.49c0-2.79,2.87-5.29,6.19-5.36,2.88-.07,5.76.04,8.64-.05l18.91-.03h88.96l22.81.1Zm-66.82,36.46c-17,0-33.99,0-50.99,0-.61,0-1.22-.03-1.83.02-2.44.19-4.27,2.8-3.73,5.14.63,2.71,1.17,5.45,1.73,8.18,1.25,6.03,2.47,12.07,3.74,18.09,1.28,6.08,2.66,12.13,3.87,18.23.78,3.91,1.98,5.1,5.75,5.1,28.01,0,56.02,0,84.04,0,2.56,0,4.09-1.22,4.61-3.63,1.99-9.26,3.98-18.52,5.98-27.78,1.21-5.6,2.45-11.19,3.62-16.8.22-1.04.41-2.19.19-3.2-.47-2.2-2.35-3.35-5.01-3.35-17.33,0-34.66,0-51.98,0Zm.17-12.14h0c20.88,0,41.75,0,62.63.01,2.7,0,4.32-1.58,4.33-4.29,0-.94-.08-1.89.01-2.82.34-3.45-1.46-5.08-5.07-5.07-41.2.04-82.4.02-123.59.02-.5,0-1.01-.07-1.49.02-2.17.44-3.06.59-3.37,2.95-.29,2.22-.19,4.52.02,6.76.13,1.37,1.92,2.42,3.41,2.42,21.04,0,42.08,0,63.13,0Z"/>
      <path class="cls-1" d="m100.95,126.54c1.06.16,2.95.33,4.78.73,1.83.4,2.88,2.21,2.54,4.44-.43,2.86-1.06,5.7-1.55,8.55-.51,2.92-.95,5.85-1.43,8.77-.56,3.39-1.07,6.78-1.71,10.16-.25,1.34-2.36,2.73-3.8,2.54-1.74-.23-3.49-.53-5.18-1-2.34-.65-3.15-2.42-2.69-4.84.67-3.54,1.16-7.11,1.75-10.67.63-3.76,1.29-7.51,1.94-11.27.25-1.43.47-2.86.72-4.29.44-2.56,1.13-3.13,4.62-3.13Z"/>
      <path class="cls-1" d="m57.41,126.46c2.86.09,4.01,1.29,4.37,4.11.47,3.63,1.13,7.24,1.74,10.85.61,3.66,1.28,7.32,1.88,10.98.27,1.65.55,3.31.64,4.98.09,1.57-1.4,3.11-2.96,3.39-1.63.3-3.25.63-4.87.97-1.53.32-3.72-1.16-4.07-2.98-.54-2.74-.89-5.52-1.36-8.27-.62-3.61-1.29-7.2-1.9-10.81-.5-2.93-1.01-5.86-1.39-8.81-.25-1.95,1.42-3.55,4.05-3.99,1.28-.21,2.59-.29,3.88-.44Z"/>
    </g>
    <path class="cls-1" d="m75.55,16.83c0-.37,0-.69,0-1,0-3.53,0-7.06,0-10.58,0-1.32.71-2.31,1.86-2.71,1.15-.41,2.44-.05,3.19.87.49.6.64,1.31.62,2.08.28.06.36-.18.5-.31C85.43,1.8,89.79.08,94.79,0c1.82-.03,2.99,1.21,2.96,3.07-.07,3.94-1.26,7.51-3.5,10.74-.13.19-.26.38-.4.59.86.26,1.71.48,2.52.77,6.69,2.39,11.23,8.66,11.28,15.72.06,7.58-1.08,14.97-4.01,22.01-1.75,4.22-4.08,8.06-7.61,11.05-2.97,2.51-6.35,3.88-10.3,3.53-1.46-.13-2.86-.5-4.18-1.13-2.07-1-4.1-.96-6.2-.04-5.42,2.37-10.31,1.26-14.71-2.47-3.49-2.96-5.76-6.8-7.5-10.97-2.37-5.67-3.51-11.62-3.89-17.73-.16-2.53-.28-5.06.27-7.57,2.42-11.08,15.04-16.79,24.93-11.26.33.19.65.41,1.11.52Zm-20.75,16.22c.08,1.73.18,3.45.39,5.17.62,5.04,1.82,9.92,4.06,14.5,1.35,2.76,3.01,5.3,5.47,7.21,2.57,1.98,5.37,2.6,8.41,1.17,3.46-1.63,6.9-1.56,10.36-.06.81.35,1.62.66,2.5.77,2.57.31,4.7-.67,6.58-2.29,2.27-1.94,3.84-4.4,5.09-7.08,3.19-6.81,4.38-14.04,4.31-21.5-.04-4.58-3.13-8.81-7.44-10.38-3.29-1.2-6.49-.93-9.54.75-1.62.88-3.29,1.54-5.13,1.75-2.95.33-5.63-.41-8.22-1.81-6.1-3.31-13.62-.53-16.13,5.88-.75,1.92-.81,3.91-.72,5.93Zm26.88-16.94c5.63-1.34,9.33-6.26,9.89-9.96-4.49.9-8.9,5.07-9.89,9.96Z"/>
  </g>
</svg>