<?xml version="1.0" encoding="UTF-8"?>
<svg id="Layer_2" data-name="Layer 2" xmlns="http://www.w3.org/2000/svg" viewBox="0 0 225.89 172.6">
  <defs>
    <style>
      .cls-1 {
        fill: #fff;
      }
    </style>
  </defs>
  <g id="Options">
    <g>
      <path class="cls-1" d="m88.9,172.6c-10.57-.14-21.2-2.65-31.35-7.38-10.87-5.06-19.13-12.89-24.4-23.59-3.99-8.11-5.35-16.85-4.36-25.9.29-2.61.72-5.19,1.36-7.73.19-.76.03-1.23-.62-1.71-6.56-4.89-12.64-10.34-18.15-16.38-3.81-4.18-7.28-8.68-10.3-13.48-1.43-2.29-1.42-3.92-.12-5.64,2.08-2.74,5.75-2.71,7.53.23,3.69,6.09,8.47,11.28,13.4,16.35,3.39,3.49,7.26,6.47,10.88,9.71.83.74,1.07.25,1.42-.46,4.68-9.61,11.52-17.37,20.85-22.57,10.94-6.1,22.41-6.62,34.07-1.88,4.98,2.03,9.33,5.11,13.61,8.27,8.16,6.04,16.57,11.71,25.39,16.74,13.95,7.95,28.5,14.53,44.01,18.86,3.58,1,7.2,1.81,10.91,2.25,3.29.39,4.97,2.51,4.54,5.5-.16,1.12-.78,1.93-1.54,2.69-4.43,4.44-9.2,8.5-14.24,12.21-7.79,5.74-15.63,11.41-24.08,16.18-10.15,5.73-20.73,10.48-31.94,13.68-8.55,2.44-17.28,3.99-26.85,4.05Zm14.22-46.9c.18.32.4.34.6.37,3.35.47,6.71.82,10.08,1.08,6.5.51,13.01.59,19.53.51,2.88-.04,4.9,2,4.95,4.82.05,2.68-1.81,4.55-4.75,4.64-2.58.08-5.16.05-7.74.03-6.3-.05-12.6-.27-18.85-1.11-2.89-.39-5.81-.48-8.68-1.02-.76-.14-1.31-.19-.84.97,1.52,3.71,2.92,7.47,4.36,11.21.55,1.42,1.22,2.8,1.62,4.26.93,3.34-1.59,6.32-4.91,5.86-2.07-.29-3.4-1.54-4.16-3.47-2.67-6.75-5.45-13.46-7.85-20.31-.28-.79-.67-1.23-1.53-1.44-7.34-1.84-14.58-3.98-21.61-6.78-.68-.27-1.61-1.01-2.06-.57-.58.58.21,1.47.47,2.19,1.4,3.8,3.06,7.5,4.28,11.37.59,1.88-.03,3.51-1.48,4.8-1.38,1.23-2.93,1.31-4.61.64-1.68-.68-2.47-2.08-3.12-3.64-2.78-6.71-5.46-13.45-7.93-20.28-.36-1.01-.95-1.69-1.94-2.19-2.53-1.27-5.06-2.54-7.43-4.1-.8-.53-.92-.22-1.07.56-.75,3.81-.85,7.62-.49,11.48.77,8.22,4.05,15.29,9.65,21.29,7.58,8.12,17.17,12.58,27.87,14.77,10.46,2.14,20.93,1.68,31.34-.62,7.96-1.76,15.5-4.7,22.94-7.92,7.07-3.06,13.66-7.04,20.22-11.05,7.36-4.51,14.36-9.54,21.09-14.95.39-.31,1.09-.59,1-1.05-.11-.57-.9-.49-1.39-.63-3.4-1.01-6.86-1.83-10.21-2.98-16.44-5.67-31.9-13.39-46.62-22.62-7.53-4.72-14.62-10.06-21.9-15.12-4.66-3.24-9.84-5.21-15.51-5.77-9.15-.91-16.96,2.27-23.79,8.1-4.97,4.24-8.34,9.72-11.21,15.52-.32.64-.12,1,.43,1.35,2.95,1.9,6,3.63,9.04,5.37.55.31.99.19,1.52-.11,2.69-1.5,5.41-2.97,8.12-4.43,2.68-1.44,5.32-2.96,8.05-4.28,3.37-1.63,6.79.66,6.73,4.39-.03,1.77-.92,2.99-2.38,3.92-3.49,2.23-7.24,3.99-10.91,6.08.31.16.52.29.75.38,6.68,2.88,13.69,4.81,20.56,7.12,3.11,1.04,5.87,1.06,8.44-1.18.47-.41,1.09-.64,1.65-.94,3.99-2.21,7.96-4.46,11.98-6.62,2.73-1.47,5.54-.61,6.79,1.97,1.13,2.33.43,4.86-1.81,6.14-2.41,1.38-4.87,2.67-7.3,4Z"/>
      <path class="cls-1" d="m201.32,19.67c3.76-3.1,7.25-6.34,10.34-10,2.12-2.52,4.29-5,6.01-7.84,1.06-1.75,3.77-2.28,5.69-1.33,1.99.98,2.98,3.3,2.34,5.48-.35,1.2-1.02,2.23-1.73,3.23-5.06,7.11-10.86,13.51-17.95,18.66-1.04.76-1.39,1.48-1.12,2.83,2.14,10.73.05,20.59-6.51,29.39-2.58,3.45-5.91,6.17-9.54,8.46-9.08,5.72-19.06,8.01-29.72,7.69-10.13-.31-19.61-3.19-28.86-7.1-12.6-5.32-23.57-13.16-34.08-21.73-1.6-1.3-3.03-2.82-4.52-4.26-1.22-1.18-1.95-2.57-1.44-4.33.55-1.91,1.79-3.14,3.75-3.56,2.02-.43,4.09-.68,6.09-1.19,8.8-2.21,17.16-5.57,25.27-9.63,10.25-5.14,19.64-11.58,28.83-18.37C159.12,2.41,164.72.21,170.96.02c8.17-.26,15.22,2.57,21.34,7.9,3.45,3.01,6.03,6.72,8.35,10.62.21.36.43.72.68,1.13Zm-96.23,22.78c.49.42.8.7,1.13.95,5.39,4.02,10.82,7.97,16.69,11.27,10.63,5.97,21.61,10.98,34.01,11.93,9.08.7,17.69-.66,25.6-5.42,5.67-3.42,10.09-7.9,12.18-14.36,1.21-3.72,1.45-7.53,1.11-11.4-.03-.39.1-1.28-.78-.83-2.3,1.19-4.86,2.18-5.2,5.31,0,.08-.04.17-.06.24-1.63,4.39-3.2,8.81-5.18,13.06-.87,1.88-2.63,2.66-4.61,2.52-1.9-.13-3.1-1.39-3.77-3.14-.41-1.08-.33-2.16.04-3.22.56-1.59,1.16-3.17,1.71-4.76.19-.54.76-1.2.33-1.61-.39-.38-1.09.15-1.62.34-3.54,1.26-7.12,2.39-10.79,3.23-1.22.28-1.89.89-2.26,2.06-1.38,4.3-3.29,8.41-4.86,12.64-.19.51-.42,1.03-.73,1.47-1.18,1.71-2.8,2.57-4.9,2.21-1.87-.31-2.86-1.62-3.47-3.32-.48-1.32-.03-2.5.42-3.68.95-2.53,1.93-5.04,2.95-7.55.37-.92,0-1.03-.77-.89-6.51,1.22-13.11,1.26-19.7,1.44-1.27.03-2.54.02-3.79-.23-2-.4-3.71-2.23-3.92-4.17-.21-1.91,1.02-3.86,2.96-4.73,1.04-.47,2.12-.52,3.23-.48,4.27.16,8.54,0,12.8-.28.8-.05,1.63.01,2.53-.41-.7-.46-1.28-.79-1.81-1.2-1.72-1.3-2.27-3.61-1.4-5.71.79-1.9,2.73-3.04,4.79-2.78,1.11.14,2.08.66,3.04,1.2,3.2,1.8,6.42,3.58,9.59,5.43.95.55,1.87.66,2.9.36,2.72-.78,5.46-1.49,8.16-2.3,1.76-.53,3.52-1.09,5.32-2.11-1.78-.93-3.41-1.8-5.05-2.65-.92-.48-1.71-1.08-2.2-2.02-.92-1.77-.6-4.26.73-5.69,1.35-1.44,3.41-1.82,5.37-.83,3.65,1.85,7.27,3.77,10.88,5.71.72.39,1.31.44,2,.02,1.26-.78,2.53-1.54,3.82-2.25.71-.39.78-.76.42-1.5-1.88-3.82-4.54-6.97-7.74-9.76-7.4-6.45-16.44-6.05-23.49-2.17-3.01,1.66-5.7,3.78-8.46,5.81-9.87,7.26-20.38,13.42-31.67,18.22-5.32,2.27-10.73,4.3-16.49,6.03Z"/>
    </g>
  </g>
</svg>