<?xml version="1.0" encoding="UTF-8"?>
<svg id="Layer_2" data-name="Layer 2" xmlns="http://www.w3.org/2000/svg" viewBox="0 0 148.32 148">
  <defs>
    <style>
      .cls-1 {
        fill: #fff;
      }
    </style>
  </defs>
  <g id="Options">
    <g>
      <path class="cls-1" d="m102.45,104.03c.08,12.58.05,25.16.04,37.73,0,3.22-1.6,5.4-4.4,6.09-1.95.48-3.59-.22-5.16-1.32-12.67-8.89-25.35-17.76-38.03-26.64-5.05-3.54-10.13-7.04-15.14-10.63-1.18-.85-2.35-1.16-3.77-1.15-6.05.06-12.1.03-18.15.02C7.37,108.12.02,100.79.01,90.34c-.01-10.92-.02-21.83,0-32.75.02-10.36,7.36-17.73,17.68-17.76,6.23-.02,12.46-.03,18.69.02,1.19,0,2.14-.29,3.11-.98C57.16,26.47,74.85,14.1,92.53,1.71c1.54-1.08,3.11-1.99,5.09-1.64,3.07.54,4.87,2.84,4.87,6.26,0,13.65,0,27.29,0,40.94,0,13.65,0,27.29,0,40.94l-.05,15.82Zm-11.47,27.29V16.72c-.43.27-.69.41-.93.58-14.48,10.13-28.94,20.27-43.44,30.37-.93.65-1.09,1.36-1.09,2.37.02,15.96.03,31.92-.01,47.87,0,1.22.41,1.9,1.39,2.58,5.47,3.76,10.89,7.6,16.33,11.4,9.18,6.42,18.36,12.85,27.75,19.42Zm-56.79-57.25c0-7.11-.03-14.23.03-21.34.01-1.26-.34-1.59-1.58-1.57-5.1.07-10.2,0-15.3.04-3.55.02-5.95,2.38-5.96,5.9-.03,11.27-.03,22.53,0,33.8,0,3.5,2.43,5.88,5.97,5.9,5.1.03,10.2-.03,15.3.04,1.25.02,1.59-.33,1.58-1.58-.06-7.06-.03-14.11-.03-21.17Z"/>
      <path class="cls-1" d="m148.32,74.33c-.25,13.64-4.92,25.54-14.39,35.49-2.33,2.45-6.39,2.71-8.66.58-2.27-2.13-2.11-5.59.38-8.26,15.14-16.27,15.2-39.21.14-55.59-2.42-2.63-2.45-6.01-.08-8.27,2.37-2.26,5.8-2.11,8.24.46,9.46,9.95,14.14,21.85,14.37,35.59Z"/>
      <path class="cls-1" d="m124.98,75.54c-.15,8.47-3.05,15.86-8.94,22.04-1.45,1.52-3.97,1.68-5.38.36-1.41-1.32-1.31-3.47.23-5.13,9.4-10.11,9.44-24.35.09-34.53-1.5-1.63-1.52-3.73-.05-5.13,1.47-1.41,3.6-1.31,5.12.28,5.88,6.18,8.78,13.57,8.92,22.1Z"/>
    </g>
  </g>
</svg>