<?xml version="1.0" encoding="UTF-8"?>
<svg id="Layer_2" data-name="Layer 2" xmlns="http://www.w3.org/2000/svg" viewBox="0 0 189.46 204.06">
  <defs>
    <style>
      .cls-1 {
        fill: #fff;
      }
    </style>
  </defs>
  <g id="Options">
    <path class="cls-1" d="m69.61,123.9c-1.96.71-3.97,1.34-5.91,2.14-14.12,5.79-28.23,11.62-42.34,17.41-4.69,1.93-9.42,3.77-14.11,5.68-3.43,1.39-7.13-.87-7.18-4.55-.08-6.14-.1-12.29.06-18.43.03-1.15.72-2.6,1.58-3.37,3.9-3.51,7.95-6.85,11.98-10.2,3.06-2.55,6.18-5.04,9.26-7.57,3.31-2.71,6.66-5.38,9.88-8.2.66-.58,1.15-1.7,1.17-2.58.16-5.1.26-10.21.16-15.31-.08-4.24,3.12-9.31,7.97-11.16,6.73-2.57,14.31-.34,17.86,6.36,3.21-2.63,6.41-5.21,9.53-7.87.34-.29.39-1.04.39-1.58,0-9.18-.1-18.35-.05-27.53.05-8.25,1.3-16.31,4.85-23.82,2.94-6.22,7.24-11.32,14.37-12.69,6.78-1.3,13.33-.84,18.96,4.12,5.72,5.04,8.35,11.61,9.77,18.75,2.46,12.35,1.83,24.89,1.57,37.36-.09,4.34,1.47,7,4.68,9.29,1.65,1.18,3.21,2.48,4.81,3.73,1.47-1.52,2.78-3.25,4.43-4.53,4.62-3.59,9.72-3.36,14.7-.98,5.09,2.42,7.25,6.9,7.38,12.38.11,4.51-.05,9.03.08,13.54.03.91.56,2.06,1.25,2.65,7.51,6.44,15.1,12.79,22.67,19.17,2.72,2.29,5.59,4.44,8.12,6.93,1.02,1,1.79,2.73,1.84,4.17.21,5.62.13,11.25.07,16.87-.04,4.24-4.03,6.55-8.01,4.92-13.17-5.39-26.39-10.66-39.57-16.03-7.38-3-14.73-6.09-22.3-9.23v14.13c0,4.66.42,9.38-.12,13.98-.49,4.12,1.85,6.2,4.3,8.53,3.1,2.95,6.31,5.79,9.19,8.93.96,1.05,1.47,2.88,1.49,4.37.14,8.21.12,16.43.05,24.65-.04,4.73-4.15,7.15-8.29,4.81-7.9-4.47-15.71-9.09-23.56-13.65-1.3-.75-2.77-1.33-3.84-2.32-3.25-2.99-6-1.47-9.1.38-9.01,5.38-18.13,10.59-27.27,15.76-3.5,1.98-7.18-.03-7.25-4.06-.16-9.03-.07-18.06-.04-27.09.01-3.36,2.94-4.72,4.88-6.69,3.09-3.15,6.35-6.15,9.5-9.25.31-.3.46-.9.46-1.36.02-10.07,0-20.13,0-30.2,0-.13-.1-.27-.29-.74Zm54.45,66.02c0-4.85.07-9.07-.05-13.28-.03-.96-.51-2.13-1.18-2.81-3.91-3.91-8-7.65-11.87-11.59-.93-.94-1.78-2.46-1.79-3.72-.12-14.36-.08-28.72-.07-43.08,0-3.01,3.41-5.47,6.17-4.36,3.77,1.51,7.53,3.04,11.3,4.55,11.55,4.63,23.1,9.24,34.64,13.89,5.79,2.33,11.56,4.72,17.5,7.16,0-2.46.02-4.68-.02-6.9,0-.47-.12-1.1-.43-1.37-1.8-1.59-3.67-3.1-5.53-4.63-4.88-4.02-9.77-8.03-14.63-12.06-3.02-2.5-5.94-5.14-9.05-7.54-2.54-1.96-4.69-3.95-4.08-7.57.15-.86.02-1.77.02-2.66,0-4.44.03-8.88-.01-13.32-.02-2.3-1.13-3.28-3.55-3.56-2.07-.24-3.1,1.04-3.14,3.45-.02,1.11.05,2.22-.03,3.33-.15,2.23-1.08,4.33-3.22,4.92-1.59.43-3.97.35-5.17-.58-6.37-4.93-12.48-10.19-18.65-15.36-1.45-1.21-2.15-2.73-2.17-4.74-.12-12.03-.32-24.06-.54-36.09-.08-4.66-1.06-9.15-2.79-13.47-2.49-6.22-7.23-9.11-13.77-8.1-3.93.6-6.15,3.6-7.74,6.89-3.07,6.38-3.92,13.21-3.82,20.26.15,9.92.04,19.84-.01,29.76-.01,2.1-.64,3.97-2.4,5.39-2.83,2.28-5.58,4.67-8.37,7-3.47,2.89-6.81,5.96-10.51,8.52-1.27.88-3.58.91-5.17.46-1.85-.52-2.79-2.36-2.73-4.46.03-1.11.04-2.22,0-3.33-.12-2.54-1.54-3.99-3.72-3.86-2.19.13-2.96,1.11-2.97,3.93-.02,5.18.03,10.36-.02,15.55-.02,2.11-.2,4.29-1.95,5.76-3.83,3.22-7.76,6.32-11.62,9.5-6.01,4.94-12.01,9.89-17.97,14.9-1,.84-2.29,1.88-2.49,2.99-.39,2.2-.12,4.53-.12,6.96,6.61-2.63,13.03-5.16,19.42-7.75,14.21-5.75,28.42-11.53,42.62-17.3,4.49-1.82,8.01.48,8.02,5.35.04,13.25.05,26.5-.03,39.75,0,1.46-.21,3.33-1.1,4.3-3.29,3.58-6.92,6.84-10.38,10.26-1.22,1.21-3.19,2.49-3.31,3.86-.41,4.73-.16,9.51-.16,14.56.85-.45,1.35-.69,1.84-.97,8.09-4.68,16.19-9.37,24.28-14.06,2-1.16,4-1.13,5.98,0,6.27,3.58,12.52,7.19,18.78,10.79,2.45,1.41,4.9,2.83,7.81,4.52Z"/>
  </g>
</svg>