<?xml version="1.0" encoding="UTF-8"?>
<svg id="Layer_2" data-name="Layer 2" xmlns="http://www.w3.org/2000/svg" viewBox="0 0 95.62 127">
  <defs>
    <style>
      .cls-1 {
        fill: #fff;
      }
    </style>
  </defs>
  <g id="Options">
    <g>
      <path class="cls-1" d="m48.34,0c.13.09.25.22.39.27,6.6,2.37,10.1,7.31,11.61,13.93.1.45.2.91.31,1.46,2.46-1.16,4.88-2.16,7.48-2.69,4.65-.96,9.22-.44,13.78.61.7.16.79.63.88,1.21,1.14,7.47-.73,13.99-6.05,19.45-.2.21-.37.44-.57.68.47.44,1.06.44,1.57.59,10.04,3.01,16.56,11,17.62,21.37,1.04,10.1-1.28,19.52-5.55,28.55-6.22,13.14-15.41,23.99-26.18,33.6-1.65,1.48-4.23,3.36-6.86,5.16-5.72,3.93-13.33,3.76-18.81-.5-11.74-9.14-21.69-20.03-29.31-33.15-4.51-7.76-7.62-16.04-8.45-25.06-.43-4.69-.28-9.36,1.12-13.91,2.56-8.32,8.2-13.5,16.41-16.06.52-.16,1.04-.3,1.55-.45,0-.5-.33-.68-.55-.91-5.29-5.51-6.99-12.09-5.86-19.53.11-.74.49-.95,1.14-1.11,7.01-1.73,13.83-1.51,20.36,1.85.18.09.38.14.63.24.44-2.05.91-4.03,1.76-5.9,2.02-4.43,5.22-7.6,9.82-9.3.25-.09.62-.04.74-.4.34,0,.68,0,1.02,0ZM7.43,61.03c-.04,5.82,1.14,11.21,3.26,16.36,6.03,14.66,15.37,27.25,26.99,37.57,5.32,4.72,13.35,4.68,18.5-.23,8.59-8.18,21.01-21.08,25.98-30.63,4.06-7.8,6.57-16.05,6.02-24.99-.36-5.69-2.22-10.74-7.19-13.98-5.19-3.38-11-4.68-17.07-3.31-9.81,2.22-19.59,2.96-29.44.54-3.9-.96-7.76-1.3-11.73-.5-7.35,1.48-12.67,5.19-14.62,12.8-.55,2.16-.71,4.36-.69,6.38Zm40.34-24.45c4.07.03,8.04-.67,12-1.49,2.73-.56,5.55-.84,7.9-2.64,1.53-1.17,3-2.38,4.24-3.86,1.88-2.25,3.27-4.75,3.82-7.68.17-.9-.12-1.11-.94-1.11-1.58,0-3.15.07-4.7.4-3.88.82-7.57,2.04-10.3,5.15-.44.5-.73.22-1.05-.04-1.5-1.24-3.18-2.12-5.07-2.57-.71-.17-.64-.52-.53-1.11.81-4.28.08-8.3-2.72-11.65-2.36-2.83-2.8-2.84-5.17,0-2.8,3.36-3.53,7.37-2.74,11.65.11.57.21.95-.51,1.13-1.93.47-3.65,1.37-5.17,2.64-.4.34-.65.29-1.04-.11-4.17-4.25-9.47-5.4-15.16-5.45-.67,0-.82.24-.74.93.66,5.67,6.66,12.41,12.24,13.59,5.16,1.1,10.31,2.27,15.62,2.23Z"/>
      <path class="cls-1" d="m41.42,100.16c-.23,2.45-1.58,4.61-3.44,6.51-.32.33-.56.25-.84-.05-1.82-1.93-3.28-4.04-3.36-6.8-.06-2.12,1.67-3.75,3.84-3.73,2.17.02,3.85,1.7,3.8,4.07Z"/>
      <path class="cls-1" d="m63.66,100.16c-.19,2.44-1.58,4.62-3.46,6.56-.27.28-.5.24-.75-.03-1.86-1.95-3.35-4.1-3.43-6.91-.06-2.05,1.64-3.65,3.77-3.68,2.17-.03,3.88,1.61,3.88,4.06Z"/>
      <path class="cls-1" d="m21.58,59.39c-.18,2.28-1.55,4.37-3.34,6.26-.36.38-.62.29-.94-.04-1.71-1.79-3-3.79-3.31-6.31-.27-2.23,1.36-4.07,3.64-4.14,2.33-.07,4.03,1.56,3.96,4.23Z"/>
      <path class="cls-1" d="m59.83,56.17c2.35,0,4.05,1.77,3.81,4.1-.26,2.57-1.61,4.6-3.37,6.41-.38.39-.64.24-.95-.08-1.66-1.71-2.91-3.66-3.27-6.06-.36-2.44,1.33-4.36,3.77-4.37Z"/>
      <path class="cls-1" d="m79.68,57.2c2.35.02,3.99,1.83,3.74,4.16-.27,2.54-1.61,4.51-3.3,6.31-.32.34-.58.41-.93.03-1.72-1.83-3.11-3.83-3.33-6.43-.2-2.33,1.47-4.1,3.83-4.08Z"/>
      <path class="cls-1" d="m51.92,79.75c-.21,2.33-1.57,4.48-3.43,6.37-.34.35-.58.19-.85-.08-1.79-1.84-3.15-3.92-3.35-6.54-.17-2.19,1.51-3.89,3.75-3.92,2.27-.03,3.93,1.58,3.88,4.17Z"/>
      <path class="cls-1" d="m67.86,76.6c2.47-.02,4.14,1.87,3.82,4.31-.32,2.43-1.6,4.34-3.22,6.08-.34.36-.62.51-1.04.07-1.71-1.84-3.11-3.84-3.3-6.43-.17-2.3,1.44-4.01,3.74-4.03Z"/>
      <path class="cls-1" d="m32.27,80.78c-.19,2.31-1.55,4.45-3.41,6.36-.32.33-.57.24-.85-.05-1.8-1.83-3.14-3.91-3.38-6.54-.19-2.17,1.5-3.9,3.73-3.95,2.26-.04,3.94,1.57,3.91,4.18Z"/>
      <path class="cls-1" d="m33.77,60.29c0-2.5,1.6-4.08,3.73-4.11,2.14-.03,3.93,1.5,3.9,3.51-.04,2.85-1.51,5.06-3.43,7.02-.33.34-.58.22-.85-.06-1.84-1.91-3.2-4.06-3.36-6.37Z"/>
    </g>
  </g>
</svg>