<?xml version="1.0" encoding="UTF-8"?>
<svg id="Layer_2" data-name="Layer 2" xmlns="http://www.w3.org/2000/svg" viewBox="0 0 115.88 133.71">
  <defs>
    <style>
      .cls-1 {
        fill: #fff;
      }
    </style>
  </defs>
  <g id="Options">
    <path class="cls-1" d="m52.33,33.32c0-.74,0-1.36,0-1.99,0-6.98-.01-13.97.01-20.95,0-2.6,1.4-4.57,3.69-5.37,2.28-.8,4.84-.11,6.31,1.73.96,1.2,1.27,2.6,1.23,4.11.55.11.72-.36.99-.61C71.89,3.56,80.52.16,90.41,0c3.59-.06,5.93,2.4,5.86,6.08-.14,7.79-2.49,14.87-6.93,21.26-.26.37-.51.75-.8,1.16,1.71.52,3.38.94,4.99,1.52,13.23,4.74,22.22,17.15,22.33,31.11.12,15.01-2.15,29.63-7.94,43.57-3.47,8.35-8.07,15.96-15.07,21.87-5.88,4.96-12.56,7.67-20.4,6.98-2.89-.25-5.67-.98-8.27-2.23-4.1-1.97-8.11-1.9-12.27-.08-10.73,4.68-20.41,2.49-29.12-4.89-6.92-5.86-11.4-13.46-14.85-21.71C3.27,93.43,1.01,81.66.26,69.56c-.31-5.01-.55-10.01.54-14.99,4.79-21.93,29.77-33.23,49.34-22.28.66.37,1.29.82,2.19,1.03ZM11.26,65.42c.15,3.42.36,6.83.78,10.23,1.22,9.98,3.6,19.63,8.03,28.7,2.67,5.46,5.95,10.49,10.83,14.27,5.08,3.93,10.63,5.15,16.65,2.32,6.84-3.22,13.66-3.09,20.51-.12,1.59.69,3.21,1.31,4.95,1.52,5.08.62,9.29-1.33,13.03-4.53,4.48-3.85,7.61-8.72,10.08-14,6.31-13.48,8.67-27.79,8.53-42.56-.09-9.06-6.19-17.44-14.72-20.54-6.5-2.37-12.84-1.83-18.89,1.48-3.2,1.75-6.5,3.06-10.15,3.46-5.84.65-11.15-.81-16.27-3.59-12.08-6.55-26.97-1.04-31.92,11.64-1.48,3.8-1.61,7.74-1.43,11.73Zm53.21-33.53c11.15-2.64,18.47-12.38,19.58-19.72-8.89,1.77-17.61,10.03-19.58,19.72Z"/>
  </g>
</svg>