<?xml version="1.0" encoding="UTF-8"?>
<svg id="Layer_2" data-name="Layer 2" xmlns="http://www.w3.org/2000/svg" viewBox="0 0 84.99 148.5">
  <defs>
    <style>
      .cls-1 {
        fill: #fff;
      }
    </style>
  </defs>
  <g id="Options">
    <path class="cls-1" d="m39.08,148.5c-3.03-.56-6.11-.82-9.07-1.75-15.5-4.9-25.91-14.74-29.34-30.95-1.74-8.21.01-16.11,4.09-23.37,4.67-8.3,9.37-16.57,13.09-25.35,3.36-7.93,6.15-16.05,8.43-24.35,1.61-5.89,5.27-9.9,11.01-11.96.83-.3.99-.69.94-1.46-.25-3.64-1.28-6.86-4.64-8.84-.58-.34-.52-.66-.24-1.15,1.12-1.92,2.23-3.85,3.29-5.8.36-.66.69-.62,1.24-.27,1.34.87,2.63,1.81,3.74,2.97.33.34.58.63.98.03,4.77-7.17,12.04-10.5,19.93-12.79,5.63-1.63,11.41-2.52,17.19-3.42.97-.15.96.17.75.9-1.98,7.02-3.9,14.06-7.19,20.63-3.17,6.32-7.35,11.7-13.99,14.75-.87.4-1.78.74-2.68,1.11,2.66,4.78,3.47,10.15,5.17,15.21,4.42,13.1,10.15,25.58,17.29,37.42,2.85,4.73,4.91,9.74,5.6,15.26,1.33,10.6-1.71,19.91-8.51,28-7.57,8.99-17.42,13.71-29.02,14.94-.38.04-.78,0-1.11.26h-6.97Zm2.71-8.29c9.79-.11,17.81-2.91,24.57-8.89,6.2-5.49,9.96-12.25,10.25-20.7.2-5.85-1.59-11.12-4.57-16.08-9.36-15.58-16.51-32.11-21.3-49.65-1.15-4.22-4.22-6.61-8.26-6.58-4.01.04-6.91,2.37-8.08,6.6-3.3,11.9-7.56,23.43-13.01,34.52-2.9,5.91-6.35,11.5-9.45,17.3-5.62,10.52-4.46,21.54,3.17,30.7,7.13,8.56,16.44,12.55,26.69,12.77ZM68.87,10.48c-5.2,1.2-9.99,2.58-14.23,5.43-4.54,3.06-6.97,7.38-7.69,12.73-.1.72-.39,1.52.96,1.52,5.36,0,9.94-1.75,13.57-5.77,3.54-3.92,5.51-8.68,7.38-13.91Z"/>
  </g>
</svg>