<?xml version="1.0" encoding="UTF-8"?>
<svg id="Layer_2" data-name="Layer 2" xmlns="http://www.w3.org/2000/svg" viewBox="0 0 135.41 107.3">
  <defs>
    <style>
      .cls-1 {
        fill: #fff;
      }
    </style>
  </defs>
  <g id="Options">
    <path class="cls-1" d="m0,57c1.06-1.36,1.54-3.02,2.31-4.54.78-1.53,1.52-3.08,2.18-4.66.39-.95.84-1.31,1.95-1.14,5.66.86,11.35,1.52,17.06,2,15.15,1.26,30.21,1.12,44.88-3.59,6.66-2.14,13.03-4.89,18.41-9.52,2.38-2.05,4.44-4.41,6.37-6.87,1.66-2.12,3.22-4.31,4.98-6.34,2.31-2.65,3.41-5.73,3.61-9.16.16-2.72.69-5.44.02-8.16-.19-.77.23-.85.8-.99,5.35-1.28,10.7-2.56,16.03-3.92,1.12-.28,1.41-.07,1.48,1.08.26,4.09.58,8.17,1.83,12.11.59,1.87,1.46,3.57,2.71,5.09,4.47,5.43,7.98,11.39,9.7,18.28,2.42,9.76.7,18.96-3.87,27.74-4.51,8.67-11,15.7-18.41,21.93-8.24,6.92-17.07,12.9-27.31,16.54-9.89,3.51-20.03,5.2-30.51,4.05-9.29-1.02-17.67-4.27-24.65-10.69-.57-.52-.82-1.04-.78-1.82.14-3.35.27-6.7.27-10.04,0-1.06.72-1.02,1.35-1.29-.4-.51-1.01-.51-1.51-.68-7.47-2.51-14.36-6.03-20.04-11.62-3.5-3.44-6.18-7.44-8.21-11.89-.17-.38-.19-.87-.63-1.1v-.79Zm60.95,42.56c3.06-.15,6.09-.42,9.09-.93,11.4-1.94,21.72-6.36,30.98-13.32,8.05-6.05,15.46-12.69,20.87-21.3,3.4-5.42,5.66-11.25,5.82-17.72.2-8.33-2.95-15.51-8.09-21.82-3.37-4.13-5.42-8.71-6.2-13.91-.15-.99-.43-1.29-1.5-.97-1,.3-.84.75-.57,1.43,1.85,4.8,2.58,9.67,1.01,14.72-.7,2.27-1.26,4.58-1.83,6.89-1.7,6.89-4.15,13.44-8.56,19.13-7.5,9.68-16.92,17.01-27.57,22.87-11.36,6.24-23.49,10.56-35.9,14.15-2,.58-1.97.58-2,2.63-.01.64.17,1.05.68,1.44,1.4,1.07,2.87,2.04,4.44,2.84,6.09,3.11,12.63,3.94,19.33,3.87ZM103.77,27.52c-.43.53-.78.98-1.14,1.42-3.28,4.14-6.37,8.44-10.35,11.98-5.93,5.29-13,8.51-20.41,11.04-11.34,3.86-23.08,5.09-34.99,5.02-8.78-.05-17.5-.83-26.19-1.99-.35-.05-.71-.2-1.03,0-.67.4-1.19,2.71-.79,3.45,2.33,4.32,5.67,7.72,9.69,10.47,7.73,5.27,16.44,7.86,25.58,9.28,1.5.23,2.85.02,4.23-.51,2.67-1.03,5.38-1.93,8.03-3,11.79-4.76,22.79-10.81,32.23-19.51,8.14-7.51,13.5-16.48,15.15-27.64Z"/>
  </g>
</svg>