<?xml version="1.0" encoding="UTF-8"?>
<svg id="Layer_2" data-name="Layer 2" xmlns="http://www.w3.org/2000/svg" viewBox="0 0 1924 924">
  <defs>
    <style>
      .cls-1 {
        fill: #fff;
      }
    </style>
  </defs>
  <g id="Export_Q" data-name="Export Q">
    <rect width="1924" height="924"/>
    <g>
      <path class="cls-1" d="m172.38,122.49l-14.54,50.18h-7.34l-11.66-40.39-12.1,40.39-7.27.07-14.04-50.26h6.98l10.94,42.55,12.1-42.55h7.34l11.52,42.41,11.02-42.41h7.06Z"/>
      <path class="cls-1" d="m207.23,134.41c2.4,1.27,4.28,3.18,5.65,5.72,1.37,2.54,2.05,5.64,2.05,9.29v23.26h-6.48v-22.32c0-3.94-.98-6.95-2.95-9.04-1.97-2.09-4.66-3.13-8.06-3.13s-6.2,1.08-8.24,3.24c-2.04,2.16-3.06,5.3-3.06,9.43v21.82h-6.55v-53.28h6.55v19.44c1.3-2.02,3.08-3.58,5.36-4.68,2.28-1.1,4.83-1.66,7.67-1.66,2.98,0,5.66.64,8.06,1.91Z"/>
      <path class="cls-1" d="m225.88,125.52c-.86-.86-1.3-1.92-1.3-3.17s.43-2.3,1.3-3.17c.86-.86,1.92-1.3,3.17-1.3s2.22.43,3.06,1.3c.84.86,1.26,1.92,1.26,3.17s-.42,2.3-1.26,3.17c-.84.86-1.86,1.3-3.06,1.3s-2.3-.43-3.17-1.3Zm6.34,7.7v39.46h-6.55v-39.46h6.55Z"/>
      <path class="cls-1" d="m243.37,142.18c1.63-3.05,3.9-5.41,6.8-7.09,2.9-1.68,6.23-2.52,9.97-2.52,4.85,0,8.84,1.18,11.99,3.53,3.14,2.35,5.22,5.62,6.23,9.79h-7.06c-.67-2.4-1.98-4.29-3.92-5.69-1.94-1.39-4.36-2.09-7.24-2.09-3.74,0-6.77,1.28-9.07,3.85-2.3,2.57-3.46,6.2-3.46,10.91s1.15,8.42,3.46,11.02c2.3,2.59,5.33,3.89,9.07,3.89,2.88,0,5.28-.67,7.2-2.02,1.92-1.34,3.24-3.26,3.96-5.76h7.06c-1.06,4.03-3.17,7.26-6.34,9.68-3.17,2.42-7.13,3.64-11.88,3.64-3.74,0-7.07-.84-9.97-2.52-2.9-1.68-5.17-4.06-6.8-7.13-1.63-3.07-2.45-6.67-2.45-10.8s.82-7.64,2.45-10.69Z"/>
      <path class="cls-1" d="m314.72,134.41c2.4,1.27,4.28,3.18,5.65,5.72,1.37,2.54,2.05,5.64,2.05,9.29v23.26h-6.48v-22.32c0-3.94-.98-6.95-2.95-9.04-1.97-2.09-4.66-3.13-8.06-3.13s-6.2,1.08-8.24,3.24-3.06,5.3-3.06,9.43v21.82h-6.55v-53.28h6.55v19.44c1.3-2.02,3.08-3.58,5.36-4.68,2.28-1.1,4.84-1.66,7.67-1.66,2.98,0,5.66.64,8.06,1.91Z"/>
      <path class="cls-1" d="m358.21,171.78c-2.4-1.03-4.3-2.47-5.69-4.32-1.39-1.85-2.16-3.97-2.3-6.37h6.77c.19,1.97,1.12,3.58,2.77,4.82,1.66,1.25,3.83,1.87,6.52,1.87,2.5,0,4.46-.55,5.9-1.66,1.44-1.1,2.16-2.5,2.16-4.18s-.77-3.01-2.3-3.85c-1.54-.84-3.91-1.67-7.13-2.48-2.93-.77-5.32-1.55-7.16-2.34s-3.43-1.97-4.75-3.53c-1.32-1.56-1.98-3.61-1.98-6.16,0-2.02.6-3.86,1.8-5.54,1.2-1.68,2.9-3.01,5.11-4,2.21-.98,4.73-1.48,7.56-1.48,4.37,0,7.9,1.1,10.58,3.31,2.69,2.21,4.13,5.23,4.32,9.07h-6.55c-.14-2.06-.97-3.72-2.48-4.97-1.51-1.25-3.54-1.87-6.08-1.87-2.35,0-4.22.5-5.62,1.51-1.39,1.01-2.09,2.33-2.09,3.96,0,1.3.42,2.36,1.26,3.2.84.84,1.9,1.51,3.17,2.02,1.27.5,3.04,1.07,5.29,1.69,2.83.77,5.14,1.52,6.91,2.27,1.78.75,3.3,1.86,4.57,3.35,1.27,1.49,1.93,3.43,1.98,5.83,0,2.16-.6,4.1-1.8,5.83-1.2,1.73-2.89,3.08-5.08,4.07-2.18.98-4.69,1.48-7.52,1.48-3.02,0-5.74-.52-8.14-1.55Z"/>
      <path class="cls-1" d="m417.61,134.41c2.4,1.27,4.28,3.18,5.65,5.72,1.37,2.54,2.05,5.64,2.05,9.29v23.26h-6.48v-22.32c0-3.94-.98-6.95-2.95-9.04-1.97-2.09-4.66-3.13-8.06-3.13s-6.2,1.08-8.24,3.24-3.06,5.3-3.06,9.43v21.82h-6.55v-53.28h6.55v19.44c1.3-2.02,3.08-3.58,5.36-4.68,2.28-1.1,4.84-1.66,7.67-1.66,2.98,0,5.66.64,8.06,1.91Z"/>
      <path class="cls-1" d="m436.04,142.18c1.63-3.05,3.88-5.41,6.73-7.09,2.86-1.68,6.04-2.52,9.54-2.52s6.46.74,9,2.23c2.54,1.49,4.44,3.36,5.69,5.62v-7.2h6.62v39.46h-6.62v-7.34c-1.3,2.3-3.23,4.21-5.8,5.72-2.57,1.51-5.56,2.27-8.96,2.27s-6.67-.86-9.5-2.59c-2.83-1.73-5.06-4.15-6.7-7.27-1.63-3.12-2.45-6.67-2.45-10.66s.82-7.57,2.45-10.62Zm29.16,2.92c-1.2-2.21-2.82-3.9-4.86-5.08-2.04-1.18-4.28-1.76-6.73-1.76s-4.68.58-6.7,1.73c-2.02,1.15-3.62,2.83-4.82,5.04-1.2,2.21-1.8,4.8-1.8,7.78s.6,5.65,1.8,7.88c1.2,2.23,2.81,3.94,4.82,5.11,2.02,1.18,4.25,1.76,6.7,1.76s4.69-.59,6.73-1.76c2.04-1.18,3.66-2.88,4.86-5.11,1.2-2.23,1.8-4.84,1.8-7.81s-.6-5.57-1.8-7.78Z"/>
      <path class="cls-1" d="m497.06,134.84c2.57-1.51,5.55-2.27,8.96-2.27s6.68.84,9.54,2.52c2.85,1.68,5.1,4.04,6.73,7.09,1.63,3.05,2.45,6.59,2.45,10.62s-.82,7.54-2.45,10.66c-1.63,3.12-3.88,5.54-6.73,7.27-2.86,1.73-6.04,2.59-9.54,2.59s-6.33-.76-8.89-2.27c-2.57-1.51-4.52-3.4-5.87-5.65v25.99h-6.55v-58.18h6.55v7.27c1.3-2.26,3.23-4.14,5.8-5.65Zm19.19,10.19c-1.2-2.21-2.82-3.89-4.86-5.04s-4.28-1.73-6.73-1.73-4.62.59-6.66,1.76c-2.04,1.18-3.67,2.88-4.9,5.11-1.22,2.23-1.84,4.81-1.84,7.74s.61,5.58,1.84,7.81c1.22,2.23,2.86,3.94,4.9,5.11,2.04,1.18,4.26,1.76,6.66,1.76s4.69-.59,6.73-1.76c2.04-1.18,3.66-2.88,4.86-5.11,1.2-2.23,1.8-4.86,1.8-7.88s-.6-5.57-1.8-7.78Z"/>
      <path class="cls-1" d="m569.17,155.4h-31.54c.24,3.89,1.57,6.92,4,9.11,2.42,2.18,5.36,3.28,8.82,3.28,2.83,0,5.2-.66,7.09-1.98,1.9-1.32,3.23-3.08,4-5.29h7.06c-1.06,3.79-3.17,6.88-6.34,9.25s-7.1,3.56-11.81,3.56c-3.74,0-7.09-.84-10.04-2.52-2.95-1.68-5.27-4.07-6.95-7.16-1.68-3.1-2.52-6.68-2.52-10.76s.82-7.66,2.45-10.73c1.63-3.07,3.92-5.44,6.88-7.09,2.95-1.66,6.35-2.48,10.19-2.48s7.06.82,9.94,2.45c2.88,1.63,5.1,3.88,6.66,6.73,1.56,2.86,2.34,6.08,2.34,9.68,0,1.25-.07,2.57-.22,3.96Zm-8.21-11.77c-1.11-1.8-2.6-3.17-4.5-4.1-1.9-.94-4-1.4-6.3-1.4-3.31,0-6.13,1.06-8.46,3.17-2.33,2.11-3.66,5.04-4,8.78h24.91c0-2.5-.55-4.64-1.66-6.44Z"/>
      <path class="cls-1" d="m597.25,142.18c1.63-3.05,3.9-5.41,6.8-7.09,2.9-1.68,6.23-2.52,9.97-2.52,4.85,0,8.84,1.18,11.99,3.53,3.14,2.35,5.22,5.62,6.23,9.79h-7.06c-.67-2.4-1.98-4.29-3.92-5.69-1.94-1.39-4.36-2.09-7.24-2.09-3.74,0-6.77,1.28-9.07,3.85-2.3,2.57-3.46,6.2-3.46,10.91s1.15,8.42,3.46,11.02c2.3,2.59,5.33,3.89,9.07,3.89,2.88,0,5.28-.67,7.2-2.02,1.92-1.34,3.24-3.26,3.96-5.76h7.06c-1.06,4.03-3.17,7.26-6.34,9.68-3.17,2.42-7.13,3.64-11.88,3.64-3.74,0-7.07-.84-9.97-2.52-2.91-1.68-5.17-4.06-6.8-7.13-1.63-3.07-2.45-6.67-2.45-10.8s.82-7.64,2.45-10.69Z"/>
      <path class="cls-1" d="m648.12,170.8c-3-1.68-5.35-4.07-7.06-7.16-1.71-3.1-2.56-6.68-2.56-10.76s.88-7.6,2.63-10.69c1.75-3.1,4.14-5.47,7.16-7.13,3.02-1.66,6.41-2.48,10.15-2.48s7.13.83,10.15,2.48c3.02,1.66,5.41,4.02,7.16,7.09,1.75,3.07,2.63,6.65,2.63,10.73s-.9,7.67-2.7,10.76c-1.8,3.1-4.24,5.48-7.31,7.16-3.07,1.68-6.48,2.52-10.22,2.52s-7.04-.84-10.04-2.52Zm16.67-4.9c2.06-1.1,3.73-2.76,5-4.97,1.27-2.21,1.91-4.9,1.91-8.06s-.62-5.86-1.87-8.06c-1.25-2.21-2.88-3.85-4.9-4.93s-4.2-1.62-6.55-1.62-4.6.54-6.59,1.62c-1.99,1.08-3.59,2.72-4.79,4.93-1.2,2.21-1.8,4.9-1.8,8.06s.59,5.93,1.76,8.14c1.18,2.21,2.75,3.85,4.72,4.93,1.97,1.08,4.13,1.62,6.48,1.62s4.56-.55,6.62-1.66Z"/>
      <path class="cls-1" d="m742.69,134.41c2.4,1.27,4.3,3.18,5.69,5.72,1.39,2.54,2.09,5.64,2.09,9.29v23.26h-6.48v-22.32c0-3.94-.97-6.95-2.92-9.04-1.94-2.09-4.57-3.13-7.88-3.13s-6.12,1.09-8.14,3.28c-2.02,2.18-3.02,5.34-3.02,9.47v21.74h-6.48v-22.32c0-3.94-.97-6.95-2.92-9.04s-4.57-3.13-7.88-3.13-6.12,1.09-8.14,3.28c-2.02,2.18-3.02,5.34-3.02,9.47v21.74h-6.55v-39.46h6.55v5.69c1.3-2.06,3.04-3.65,5.22-4.75,2.18-1.1,4.6-1.66,7.24-1.66,3.31,0,6.24.74,8.78,2.23,2.54,1.49,4.44,3.67,5.69,6.55,1.1-2.78,2.93-4.94,5.47-6.48,2.54-1.54,5.38-2.3,8.5-2.3s5.81.64,8.21,1.91Z"/>
      <path class="cls-1" d="m796.98,155.4h-31.54c.24,3.89,1.57,6.92,4,9.11,2.42,2.18,5.36,3.28,8.82,3.28,2.83,0,5.2-.66,7.09-1.98,1.9-1.32,3.23-3.08,4-5.29h7.06c-1.06,3.79-3.17,6.88-6.34,9.25s-7.11,3.56-11.81,3.56c-3.74,0-7.09-.84-10.04-2.52-2.95-1.68-5.27-4.07-6.95-7.16-1.68-3.1-2.52-6.68-2.52-10.76s.82-7.66,2.45-10.73c1.63-3.07,3.92-5.44,6.88-7.09,2.95-1.66,6.35-2.48,10.19-2.48s7.06.82,9.94,2.45c2.88,1.63,5.1,3.88,6.66,6.73,1.56,2.86,2.34,6.08,2.34,9.68,0,1.25-.07,2.57-.22,3.96Zm-8.21-11.77c-1.1-1.8-2.6-3.17-4.5-4.1-1.9-.94-4-1.4-6.3-1.4-3.31,0-6.13,1.06-8.46,3.17-2.33,2.11-3.66,5.04-4,8.78h24.91c0-2.5-.55-4.64-1.66-6.44Z"/>
      <path class="cls-1" d="m811.66,171.78c-2.4-1.03-4.3-2.47-5.69-4.32-1.39-1.85-2.16-3.97-2.3-6.37h6.77c.19,1.97,1.12,3.58,2.77,4.82,1.66,1.25,3.83,1.87,6.52,1.87,2.5,0,4.46-.55,5.9-1.66,1.44-1.1,2.16-2.5,2.16-4.18s-.77-3.01-2.3-3.85c-1.54-.84-3.91-1.67-7.13-2.48-2.93-.77-5.32-1.55-7.16-2.34s-3.43-1.97-4.75-3.53c-1.32-1.56-1.98-3.61-1.98-6.16,0-2.02.6-3.86,1.8-5.54,1.2-1.68,2.9-3.01,5.11-4,2.21-.98,4.73-1.48,7.56-1.48,4.37,0,7.9,1.1,10.58,3.31,2.69,2.21,4.13,5.23,4.32,9.07h-6.55c-.14-2.06-.97-3.72-2.48-4.97-1.51-1.25-3.54-1.87-6.08-1.87-2.35,0-4.22.5-5.62,1.51-1.39,1.01-2.09,2.33-2.09,3.96,0,1.3.42,2.36,1.26,3.2.84.84,1.9,1.51,3.17,2.02,1.27.5,3.04,1.07,5.29,1.69,2.83.77,5.14,1.52,6.91,2.27,1.78.75,3.3,1.86,4.57,3.35,1.27,1.49,1.93,3.43,1.98,5.83,0,2.16-.6,4.1-1.8,5.83-1.2,1.73-2.89,3.08-5.08,4.07-2.18.98-4.69,1.48-7.52,1.48-3.02,0-5.74-.52-8.14-1.55Z"/>
      <path class="cls-1" d="m893.53,136.86c2.98,2.9,4.46,7.09,4.46,12.56v23.26h-6.48v-22.32c0-3.94-.98-6.95-2.95-9.04-1.97-2.09-4.66-3.13-8.06-3.13s-6.2,1.08-8.24,3.24-3.06,5.3-3.06,9.43v21.82h-6.55v-39.46h6.55v5.62c1.3-2.02,3.06-3.58,5.29-4.68,2.23-1.1,4.69-1.66,7.38-1.66,4.8,0,8.69,1.45,11.66,4.36Z"/>
      <path class="cls-1" d="m944.5,155.4h-31.54c.24,3.89,1.57,6.92,4,9.11,2.42,2.18,5.36,3.28,8.82,3.28,2.83,0,5.2-.66,7.09-1.98,1.9-1.32,3.23-3.08,4-5.29h7.06c-1.06,3.79-3.17,6.88-6.34,9.25s-7.1,3.56-11.81,3.56c-3.74,0-7.09-.84-10.04-2.52-2.95-1.68-5.27-4.07-6.95-7.16-1.68-3.1-2.52-6.68-2.52-10.76s.82-7.66,2.45-10.73c1.63-3.07,3.92-5.44,6.88-7.09,2.95-1.66,6.35-2.48,10.19-2.48s7.06.82,9.94,2.45c2.88,1.63,5.1,3.88,6.66,6.73,1.56,2.86,2.34,6.08,2.34,9.68,0,1.25-.07,2.57-.22,3.96Zm-8.21-11.77c-1.11-1.8-2.61-3.17-4.5-4.1-1.9-.94-4-1.4-6.3-1.4-3.31,0-6.13,1.06-8.46,3.17-2.33,2.11-3.66,5.04-4,8.78h24.91c0-2.5-.55-4.64-1.66-6.44Z"/>
      <path class="cls-1" d="m973.95,172.68l-9.36-14.69-9,14.69h-6.84l12.74-19.58-12.74-19.87h7.42l9.36,14.62,8.93-14.62h6.84l-12.67,19.51,12.74,19.94h-7.42Z"/>
      <path class="cls-1" d="m995.84,138.62v23.26c0,1.92.41,3.28,1.22,4.07.82.79,2.23,1.19,4.25,1.19h4.82v5.54h-5.9c-3.65,0-6.38-.84-8.21-2.52-1.83-1.68-2.74-4.44-2.74-8.28v-23.26h-5.11v-5.4h5.11v-9.94h6.55v9.94h10.3v5.4h-10.3Z"/>
      <path class="cls-1" d="m1038.39,125.88c2.93,2.69,4.39,6.29,4.39,10.8,0,5.04-1.56,8.77-4.68,11.2-3.12,2.42-7.34,3.64-12.67,3.64l-.22,6.84h-5.69l-.29-11.38h2.09c4.75,0,8.47-.72,11.16-2.16,2.69-1.44,4.03-4.15,4.03-8.14,0-2.88-.86-5.16-2.59-6.84-1.73-1.68-4.06-2.52-6.98-2.52s-5.32.8-7.02,2.41c-1.71,1.61-2.56,3.81-2.56,6.59h-6.19c0-2.88.65-5.41,1.94-7.6,1.3-2.18,3.13-3.88,5.51-5.08,2.38-1.2,5.12-1.8,8.24-1.8,4.75,0,8.59,1.34,11.52,4.03Zm-19.22,45.94c-.86-.86-1.3-1.92-1.3-3.17s.43-2.3,1.3-3.17c.86-.86,1.92-1.3,3.17-1.3s2.22.43,3.06,1.3c.84.86,1.26,1.92,1.26,3.17s-.42,2.3-1.26,3.17c-.84.86-1.86,1.3-3.06,1.3s-2.3-.43-3.17-1.3Z"/>
    </g>
    <rect class="cls-1" x="1668.97" y="187" width="107.03" height="10"/>
    <path class="cls-1" d="m1141.44,120.33c0-.48,0-.88,0-1.29,0-4.52,0-9.04,0-13.56,0-1.69.91-2.96,2.39-3.48,1.48-.52,3.13-.07,4.09,1.12.62.77.82,1.68.79,2.66.36.07.47-.23.64-.39,4.74-4.32,10.32-6.53,16.73-6.63,2.33-.04,3.84,1.55,3.79,3.94-.09,5.05-1.61,9.62-4.48,13.77-.17.24-.33.48-.51.75,1.11.33,2.19.61,3.23.98,8.57,3.07,14.39,11.1,14.46,20.14.08,9.72-1.39,19.18-5.14,28.21-2.25,5.4-5.22,10.33-9.76,14.16-3.8,3.21-8.13,4.97-13.2,4.52-1.87-.17-3.67-.63-5.36-1.45-2.65-1.28-5.25-1.23-7.94-.05-6.95,3.03-13.21,1.61-18.85-3.17-4.48-3.8-7.38-8.71-9.61-14.05-3.04-7.27-4.5-14.89-4.99-22.72-.2-3.24-.35-6.48.35-9.7,3.1-14.2,19.27-21.51,31.94-14.42.43.24.84.53,1.42.67Zm-26.59,20.78c.1,2.21.23,4.42.5,6.62.79,6.46,2.33,12.71,5.2,18.58,1.73,3.53,3.85,6.79,7.01,9.23,3.29,2.54,6.88,3.34,10.78,1.5,4.43-2.09,8.84-2,13.28-.08,1.03.45,2.08.85,3.2.99,3.29.4,6.02-.86,8.43-2.93,2.9-2.49,4.93-5.64,6.53-9.07,4.08-8.73,5.61-17.99,5.52-27.55-.06-5.87-4.01-11.29-9.53-13.3-4.21-1.53-8.31-1.19-12.23.96-2.07,1.13-4.21,1.98-6.57,2.24-3.78.42-7.22-.53-10.53-2.32-7.82-4.24-17.46-.67-20.66,7.54-.96,2.46-1.04,5.01-.93,7.59Zm34.44-21.71c7.22-1.71,11.96-8.02,12.68-12.76-5.76,1.15-11.4,6.49-12.68,12.76Z"/>
    <path class="cls-1" d="m1204,144.75c.86-1.1,1.24-2.44,1.86-3.66.63-1.23,1.23-2.49,1.76-3.77.32-.77.68-1.06,1.58-.92,4.57.7,9.17,1.23,13.78,1.61,12.24,1.02,24.41.9,36.25-2.9,5.38-1.73,10.52-3.95,14.88-7.69,1.93-1.65,3.59-3.56,5.15-5.55,1.34-1.71,2.6-3.49,4.02-5.12,1.86-2.14,2.75-4.63,2.92-7.4.13-2.19.56-4.4.01-6.59-.15-.62.18-.69.65-.8,4.32-1.04,8.64-2.07,12.95-3.16.9-.23,1.14-.06,1.2.88.21,3.3.46,6.6,1.48,9.79.48,1.51,1.18,2.88,2.19,4.11,3.61,4.39,6.45,9.2,7.83,14.77,1.96,7.88.56,15.32-3.12,22.41-3.64,7-8.88,12.69-14.87,17.72-6.66,5.59-13.79,10.42-22.06,13.36-7.99,2.84-16.18,4.2-24.65,3.27-7.51-.83-14.27-3.45-19.91-8.64-.46-.42-.66-.84-.63-1.47.11-2.7.22-5.41.22-8.11,0-.86.58-.83,1.09-1.04-.32-.41-.81-.41-1.22-.55-6.04-2.03-11.6-4.87-16.19-9.39-2.82-2.78-4.99-6.01-6.63-9.61-.14-.31-.16-.7-.51-.89v-.64Zm49.24,34.39c2.48-.12,4.92-.34,7.34-.75,9.21-1.57,17.55-5.14,25.03-10.76,6.5-4.89,12.49-10.25,16.86-17.21,2.75-4.38,4.57-9.09,4.7-14.32.16-6.73-2.38-12.53-6.54-17.62-2.72-3.34-4.38-7.03-5.01-11.24-.12-.8-.35-1.04-1.21-.78-.81.25-.68.6-.46,1.16,1.5,3.88,2.09,7.81.82,11.89-.57,1.83-1.01,3.7-1.47,5.56-1.38,5.57-3.35,10.85-6.92,15.46-6.06,7.82-13.67,13.75-22.27,18.47-9.18,5.04-18.97,8.53-29,11.43-1.61.47-1.59.47-1.62,2.12,0,.51.14.85.55,1.16,1.13.87,2.32,1.65,3.59,2.3,4.92,2.51,10.2,3.19,15.61,3.13Zm34.6-58.2c-.35.43-.63.79-.92,1.15-2.65,3.35-5.15,6.82-8.36,9.68-4.79,4.27-10.5,6.88-16.49,8.92-9.16,3.12-18.65,4.12-28.27,4.06-7.09-.04-14.14-.67-21.16-1.6-.28-.04-.57-.16-.84,0-.54.32-.96,2.19-.64,2.79,1.88,3.49,4.58,6.24,7.83,8.46,6.25,4.26,13.28,6.35,20.67,7.5,1.21.19,2.3.02,3.42-.41,2.15-.83,4.35-1.56,6.49-2.43,9.53-3.85,18.41-8.73,26.04-15.76,6.58-6.07,10.91-13.31,12.24-22.33Z"/>
    <path class="cls-1" d="m1474.44,120.33c0-.48,0-.88,0-1.29,0-4.52,0-9.04,0-13.56,0-1.69.91-2.96,2.39-3.48,1.48-.52,3.13-.07,4.09,1.12.62.77.82,1.68.79,2.66.36.07.47-.23.64-.39,4.74-4.32,10.32-6.53,16.73-6.63,2.33-.04,3.84,1.55,3.79,3.94-.09,5.05-1.61,9.62-4.48,13.77-.17.24-.33.48-.51.75,1.11.33,2.19.61,3.23.98,8.57,3.07,14.39,11.1,14.46,20.14.08,9.72-1.39,19.18-5.14,28.21-2.25,5.4-5.22,10.33-9.76,14.16-3.8,3.21-8.13,4.97-13.2,4.52-1.87-.17-3.67-.63-5.36-1.45-2.65-1.28-5.25-1.23-7.94-.05-6.95,3.03-13.21,1.61-18.85-3.17-4.48-3.8-7.38-8.71-9.61-14.05-3.04-7.27-4.5-14.89-4.99-22.72-.2-3.24-.35-6.48.35-9.7,3.1-14.2,19.27-21.51,31.94-14.42.43.24.84.53,1.42.67Zm-26.59,20.78c.1,2.21.23,4.42.5,6.62.79,6.46,2.33,12.71,5.2,18.58,1.73,3.53,3.85,6.79,7.01,9.23,3.29,2.54,6.88,3.34,10.78,1.5,4.43-2.09,8.84-2,13.28-.08,1.03.45,2.08.85,3.2.99,3.29.4,6.02-.86,8.43-2.93,2.9-2.49,4.93-5.64,6.53-9.07,4.08-8.73,5.61-17.99,5.52-27.55-.06-5.87-4.01-11.29-9.53-13.3-4.21-1.53-8.31-1.19-12.23.96-2.07,1.13-4.21,1.98-6.57,2.24-3.78.42-7.22-.53-10.53-2.32-7.82-4.24-17.46-.67-20.66,7.54-.96,2.46-1.04,5.01-.93,7.59Zm34.44-21.71c7.22-1.71,11.96-8.02,12.68-12.76-5.76,1.15-11.4,6.49-12.68,12.76Z"/>
    <path class="cls-1" d="m1537,144.75c.86-1.1,1.24-2.44,1.86-3.66.63-1.23,1.23-2.49,1.76-3.77.32-.77.68-1.06,1.58-.92,4.57.7,9.17,1.23,13.78,1.61,12.24,1.02,24.41.9,36.25-2.9,5.38-1.73,10.52-3.95,14.88-7.69,1.93-1.65,3.59-3.56,5.15-5.55,1.34-1.71,2.6-3.49,4.02-5.12,1.86-2.14,2.75-4.63,2.92-7.4.13-2.19.56-4.4.01-6.59-.15-.62.18-.69.65-.8,4.32-1.04,8.64-2.07,12.95-3.16.9-.23,1.14-.06,1.2.88.21,3.3.46,6.6,1.48,9.79.48,1.51,1.18,2.88,2.19,4.11,3.61,4.39,6.45,9.2,7.83,14.77,1.96,7.88.56,15.32-3.12,22.41-3.64,7-8.88,12.69-14.87,17.72-6.66,5.59-13.79,10.42-22.06,13.36-7.99,2.84-16.18,4.2-24.65,3.27-7.51-.83-14.27-3.45-19.91-8.64-.46-.42-.66-.84-.63-1.47.11-2.7.22-5.41.22-8.11,0-.86.58-.83,1.09-1.04-.32-.41-.81-.41-1.22-.55-6.04-2.03-11.6-4.87-16.19-9.39-2.82-2.78-4.99-6.01-6.63-9.61-.14-.31-.16-.7-.51-.89v-.64Zm49.24,34.39c2.48-.12,4.92-.34,7.34-.75,9.21-1.57,17.55-5.14,25.03-10.76,6.5-4.89,12.49-10.25,16.86-17.21,2.75-4.38,4.57-9.09,4.7-14.32.16-6.73-2.38-12.53-6.54-17.62-2.72-3.34-4.38-7.03-5.01-11.24-.12-.8-.35-1.04-1.21-.78-.81.25-.68.6-.46,1.16,1.5,3.88,2.09,7.81.82,11.89-.57,1.83-1.01,3.7-1.47,5.56-1.38,5.57-3.35,10.85-6.92,15.46-6.06,7.82-13.67,13.75-22.27,18.47-9.18,5.04-18.97,8.53-29,11.43-1.61.47-1.59.47-1.62,2.12,0,.51.14.85.55,1.16,1.13.87,2.32,1.65,3.59,2.3,4.92,2.51,10.2,3.19,15.61,3.13Zm34.6-58.2c-.35.43-.63.79-.92,1.15-2.65,3.35-5.15,6.82-8.36,9.68-4.79,4.27-10.5,6.88-16.49,8.92-9.16,3.12-18.65,4.12-28.27,4.06-7.09-.04-14.14-.67-21.16-1.6-.28-.04-.57-.16-.84,0-.54.32-.96,2.19-.64,2.79,1.88,3.49,4.58,6.24,7.83,8.46,6.25,4.26,13.28,6.35,20.67,7.5,1.21.19,2.3.02,3.42-.41,2.15-.83,4.35-1.56,6.49-2.43,9.53-3.85,18.41-8.73,26.04-15.76,6.58-6.07,10.91-13.31,12.24-22.33Z"/>
    <g>
      <path class="cls-1" d="m1379.13,90c.1.07.2.18.31.22,5.29,1.89,8.09,5.86,9.3,11.15.08.36.16.73.25,1.17,1.97-.93,3.91-1.73,5.99-2.16,3.73-.77,7.39-.36,11.04.49.56.13.64.5.71.97.91,5.98-.58,11.21-4.85,15.58-.16.17-.3.36-.45.55.38.35.85.35,1.26.47,8.04,2.41,13.26,8.81,14.12,17.11.83,8.09-1.03,15.64-4.45,22.87-4.98,10.52-12.34,19.22-20.97,26.91-1.33,1.18-3.39,2.69-5.49,4.13-4.58,3.15-10.68,3.01-15.06-.4-9.41-7.32-17.37-16.04-23.48-26.55-3.61-6.22-6.1-12.85-6.77-20.07-.35-3.76-.22-7.49.89-11.14,2.05-6.66,6.57-10.81,13.14-12.86.42-.13.84-.24,1.24-.36,0-.4-.27-.54-.44-.73-4.24-4.41-5.6-9.68-4.7-15.64.09-.59.4-.76.92-.89,5.61-1.39,11.07-1.21,16.31,1.48.14.07.3.12.51.19.36-1.64.73-3.23,1.41-4.73,1.62-3.55,4.18-6.08,7.86-7.45.2-.08.5-.03.59-.32.27,0,.55,0,.82,0Zm-32.77,48.88c-.03,4.66.91,8.98,2.61,13.1,4.83,11.74,12.31,21.82,21.62,30.09,4.26,3.78,10.69,3.75,14.82-.19,6.88-6.55,16.83-16.88,20.8-24.53,3.25-6.25,5.27-12.86,4.82-20.02-.29-4.56-1.78-8.6-5.76-11.2-4.15-2.71-8.81-3.75-13.67-2.65-7.86,1.78-15.69,2.37-23.58.43-3.12-.77-6.21-1.04-9.4-.4-5.89,1.18-10.15,4.16-11.71,10.25-.44,1.73-.57,3.49-.55,5.11Zm32.31-19.58c3.26.02,6.44-.54,9.61-1.19,2.19-.45,4.45-.67,6.33-2.11,1.22-.94,2.41-1.91,3.39-3.09,1.5-1.8,2.62-3.8,3.06-6.15.14-.72-.1-.89-.75-.89-1.27,0-2.53.06-3.76.32-3.11.65-6.06,1.64-8.25,4.12-.35.4-.59.18-.84-.03-1.2-.99-2.55-1.7-4.06-2.06-.56-.14-.52-.42-.43-.89.65-3.42.06-6.64-2.18-9.33-1.89-2.27-2.25-2.27-4.14,0-2.25,2.69-2.83,5.9-2.19,9.33.08.46.17.76-.41.91-1.54.38-2.92,1.1-4.14,2.12-.32.27-.52.23-.83-.09-3.34-3.4-7.58-4.33-12.14-4.37-.54,0-.66.19-.6.74.53,4.54,5.34,9.94,9.8,10.89,4.13.88,8.25,1.81,12.51,1.79Z"/>
      <path class="cls-1" d="m1373.59,170.22c-.18,1.96-1.27,3.69-2.75,5.22-.26.26-.45.2-.67-.04-1.46-1.54-2.63-3.23-2.69-5.45-.05-1.7,1.34-3.01,3.08-2.99,1.74.02,3.08,1.36,3.04,3.26Z"/>
      <path class="cls-1" d="m1391.4,170.22c-.15,1.96-1.27,3.7-2.78,5.25-.22.22-.4.19-.6-.02-1.49-1.56-2.68-3.28-2.75-5.53-.05-1.64,1.31-2.92,3.02-2.95,1.74-.03,3.11,1.29,3.1,3.25Z"/>
      <path class="cls-1" d="m1357.7,137.56c-.14,1.82-1.24,3.5-2.68,5.01-.29.3-.5.23-.76-.03-1.37-1.43-2.41-3.04-2.65-5.05-.22-1.78,1.09-3.26,2.91-3.32,1.87-.06,3.23,1.25,3.17,3.39Z"/>
      <path class="cls-1" d="m1388.33,134.99c1.88,0,3.24,1.42,3.05,3.28-.21,2.06-1.29,3.68-2.7,5.13-.31.31-.52.19-.76-.06-1.33-1.37-2.33-2.93-2.62-4.85-.29-1.96,1.07-3.5,3.02-3.5Z"/>
      <path class="cls-1" d="m1404.23,135.82c1.89.02,3.2,1.47,3,3.33-.22,2.03-1.29,3.62-2.65,5.06-.26.27-.46.33-.75.02-1.38-1.47-2.49-3.07-2.67-5.15-.16-1.87,1.18-3.28,3.07-3.26Z"/>
      <path class="cls-1" d="m1382,153.87c-.17,1.87-1.26,3.59-2.75,5.1-.27.28-.47.15-.68-.07-1.43-1.47-2.52-3.14-2.68-5.24-.14-1.75,1.21-3.12,3-3.14,1.82-.02,3.15,1.27,3.11,3.34Z"/>
      <path class="cls-1" d="m1394.77,151.35c1.98-.02,3.32,1.5,3.06,3.46-.26,1.94-1.28,3.48-2.58,4.87-.27.29-.5.41-.83.06-1.37-1.47-2.49-3.07-2.64-5.15-.14-1.85,1.15-3.21,2.99-3.23Z"/>
      <path class="cls-1" d="m1366.26,154.7c-.15,1.85-1.25,3.57-2.73,5.09-.26.27-.46.19-.68-.04-1.44-1.47-2.52-3.14-2.7-5.23-.15-1.74,1.2-3.13,2.98-3.16,1.81-.03,3.16,1.25,3.13,3.35Z"/>
      <path class="cls-1" d="m1367.47,138.28c0-2,1.28-3.27,2.99-3.29,1.72-.03,3.15,1.2,3.13,2.81-.03,2.28-1.21,4.05-2.75,5.62-.26.27-.46.18-.68-.05-1.48-1.53-2.56-3.25-2.69-5.1Z"/>
    </g>
  </g>
</svg>