<?xml version="1.0" encoding="UTF-8"?>
<svg id="Layer_2" data-name="Layer 2" xmlns="http://www.w3.org/2000/svg" viewBox="0 0 1924 924">
  <defs>
    <style>
      .cls-1, .cls-2 {
        fill: #fff;
      }

      .cls-3 {
        fill: none;
        stroke: #fff;
        stroke-linejoin: round;
        stroke-width: 10px;
      }

      .cls-2 {
        font-family: Poppins-Regular, Poppins;
        font-size: 72px;
      }
    </style>
  </defs>
  <g id="Export_Q" data-name="Export Q">
    <rect width="1924" height="924"/>
    <text class="cls-2" transform="translate(103.76 172.68)"><tspan x="0" y="0">Which shape comes next?</tspan></text>
    <line class="cls-3" x1="1668.97" y1="192" x2="1776" y2="192"/>
    <path class="cls-1" d="m1141.44,120.33c0-.48,0-.88,0-1.29,0-4.52,0-9.04,0-13.56,0-1.69.91-2.96,2.39-3.48,1.48-.52,3.13-.07,4.09,1.12.62.77.82,1.68.79,2.66.36.07.47-.23.64-.39,4.74-4.32,10.32-6.53,16.73-6.63,2.33-.04,3.84,1.55,3.79,3.94-.09,5.05-1.61,9.62-4.48,13.77-.17.24-.33.48-.51.75,1.11.33,2.19.61,3.23.98,8.57,3.07,14.39,11.1,14.46,20.14.08,9.72-1.39,19.18-5.14,28.21-2.25,5.4-5.22,10.33-9.76,14.16-3.8,3.21-8.13,4.97-13.2,4.52-1.87-.17-3.67-.63-5.36-1.45-2.65-1.28-5.25-1.23-7.94-.05-6.95,3.03-13.21,1.61-18.85-3.17-4.48-3.8-7.38-8.71-9.61-14.05-3.04-7.27-4.5-14.89-4.99-22.72-.2-3.24-.35-6.48.35-9.7,3.1-14.2,19.27-21.51,31.94-14.42.43.24.84.53,1.42.67Zm-26.59,20.78c.1,2.21.23,4.42.5,6.62.79,6.46,2.33,12.71,5.2,18.58,1.73,3.53,3.85,6.79,7.01,9.23,3.29,2.54,6.88,3.34,10.78,1.5,4.43-2.09,8.84-2,13.28-.08,1.03.45,2.08.85,3.2.99,3.29.4,6.02-.86,8.43-2.93,2.9-2.49,4.93-5.64,6.53-9.07,4.08-8.73,5.61-17.99,5.52-27.55-.06-5.87-4.01-11.29-9.53-13.3-4.21-1.53-8.31-1.19-12.23.96-2.07,1.13-4.21,1.98-6.57,2.24-3.78.42-7.22-.53-10.53-2.32-7.82-4.24-17.46-.67-20.66,7.54-.96,2.46-1.04,5.01-.93,7.59Zm34.44-21.71c7.22-1.71,11.96-8.02,12.68-12.76-5.76,1.15-11.4,6.49-12.68,12.76Z"/>
    <path class="cls-1" d="m1204,144.75c.86-1.1,1.24-2.44,1.86-3.66.63-1.23,1.23-2.49,1.76-3.77.32-.77.68-1.06,1.58-.92,4.57.7,9.17,1.23,13.78,1.61,12.24,1.02,24.41.9,36.25-2.9,5.38-1.73,10.52-3.95,14.88-7.69,1.93-1.65,3.59-3.56,5.15-5.55,1.34-1.71,2.6-3.49,4.02-5.12,1.86-2.14,2.75-4.63,2.92-7.4.13-2.19.56-4.4.01-6.59-.15-.62.18-.69.65-.8,4.32-1.04,8.64-2.07,12.95-3.16.9-.23,1.14-.06,1.2.88.21,3.3.46,6.6,1.48,9.79.48,1.51,1.18,2.88,2.19,4.11,3.61,4.39,6.45,9.2,7.83,14.77,1.96,7.88.56,15.32-3.12,22.41-3.64,7-8.88,12.69-14.87,17.72-6.66,5.59-13.79,10.42-22.06,13.36-7.99,2.84-16.18,4.2-24.65,3.27-7.51-.83-14.27-3.45-19.91-8.64-.46-.42-.66-.84-.63-1.47.11-2.7.22-5.41.22-8.11,0-.86.58-.83,1.09-1.04-.32-.41-.81-.41-1.22-.55-6.04-2.03-11.6-4.87-16.19-9.39-2.82-2.78-4.99-6.01-6.63-9.61-.14-.31-.16-.7-.51-.89v-.64Zm49.24,34.39c2.48-.12,4.92-.34,7.34-.75,9.21-1.57,17.55-5.14,25.03-10.76,6.5-4.89,12.49-10.25,16.86-17.21,2.75-4.38,4.57-9.09,4.7-14.32.16-6.73-2.38-12.53-6.54-17.62-2.72-3.34-4.38-7.03-5.01-11.24-.12-.8-.35-1.04-1.21-.78-.81.25-.68.6-.46,1.16,1.5,3.88,2.09,7.81.82,11.89-.57,1.83-1.01,3.7-1.47,5.56-1.38,5.57-3.35,10.85-6.92,15.46-6.06,7.82-13.67,13.75-22.27,18.47-9.18,5.04-18.97,8.53-29,11.43-1.61.47-1.59.47-1.62,2.12,0,.51.14.85.55,1.16,1.13.87,2.32,1.65,3.59,2.3,4.92,2.51,10.2,3.19,15.61,3.13Zm34.6-58.2c-.35.43-.63.79-.92,1.15-2.65,3.35-5.15,6.82-8.36,9.68-4.79,4.27-10.5,6.88-16.49,8.92-9.16,3.12-18.65,4.12-28.27,4.06-7.09-.04-14.14-.67-21.16-1.6-.28-.04-.57-.16-.84,0-.54.32-.96,2.19-.64,2.79,1.88,3.49,4.58,6.24,7.83,8.46,6.25,4.26,13.28,6.35,20.67,7.5,1.21.19,2.3.02,3.42-.41,2.15-.83,4.35-1.56,6.49-2.43,9.53-3.85,18.41-8.73,26.04-15.76,6.58-6.07,10.91-13.31,12.24-22.33Z"/>
    <path class="cls-1" d="m1474.44,120.33c0-.48,0-.88,0-1.29,0-4.52,0-9.04,0-13.56,0-1.69.91-2.96,2.39-3.48,1.48-.52,3.13-.07,4.09,1.12.62.77.82,1.68.79,2.66.36.07.47-.23.64-.39,4.74-4.32,10.32-6.53,16.73-6.63,2.33-.04,3.84,1.55,3.79,3.94-.09,5.05-1.61,9.62-4.48,13.77-.17.24-.33.48-.51.75,1.11.33,2.19.61,3.23.98,8.57,3.07,14.39,11.1,14.46,20.14.08,9.72-1.39,19.18-5.14,28.21-2.25,5.4-5.22,10.33-9.76,14.16-3.8,3.21-8.13,4.97-13.2,4.52-1.87-.17-3.67-.63-5.36-1.45-2.65-1.28-5.25-1.23-7.94-.05-6.95,3.03-13.21,1.61-18.85-3.17-4.48-3.8-7.38-8.71-9.61-14.05-3.04-7.27-4.5-14.89-4.99-22.72-.2-3.24-.35-6.48.35-9.7,3.1-14.2,19.27-21.51,31.94-14.42.43.24.84.53,1.42.67Zm-26.59,20.78c.1,2.21.23,4.42.5,6.62.79,6.46,2.33,12.71,5.2,18.58,1.73,3.53,3.85,6.79,7.01,9.23,3.29,2.54,6.88,3.34,10.78,1.5,4.43-2.09,8.84-2,13.28-.08,1.03.45,2.08.85,3.2.99,3.29.4,6.02-.86,8.43-2.93,2.9-2.49,4.93-5.64,6.53-9.07,4.08-8.73,5.61-17.99,5.52-27.55-.06-5.87-4.01-11.29-9.53-13.3-4.21-1.53-8.31-1.19-12.23.96-2.07,1.13-4.21,1.98-6.57,2.24-3.78.42-7.22-.53-10.53-2.32-7.82-4.24-17.46-.67-20.66,7.54-.96,2.46-1.04,5.01-.93,7.59Zm34.44-21.71c7.22-1.71,11.96-8.02,12.68-12.76-5.76,1.15-11.4,6.49-12.68,12.76Z"/>
    <path class="cls-1" d="m1537,144.75c.86-1.1,1.24-2.44,1.86-3.66.63-1.23,1.23-2.49,1.76-3.77.32-.77.68-1.06,1.58-.92,4.57.7,9.17,1.23,13.78,1.61,12.24,1.02,24.41.9,36.25-2.9,5.38-1.73,10.52-3.95,14.88-7.69,1.93-1.65,3.59-3.56,5.15-5.55,1.34-1.71,2.6-3.49,4.02-5.12,1.86-2.14,2.75-4.63,2.92-7.4.13-2.19.56-4.4.01-6.59-.15-.62.18-.69.65-.8,4.32-1.04,8.64-2.07,12.95-3.16.9-.23,1.14-.06,1.2.88.21,3.3.46,6.6,1.48,9.79.48,1.51,1.18,2.88,2.19,4.11,3.61,4.39,6.45,9.2,7.83,14.77,1.96,7.88.56,15.32-3.12,22.41-3.64,7-8.88,12.69-14.87,17.72-6.66,5.59-13.79,10.42-22.06,13.36-7.99,2.84-16.18,4.2-24.65,3.27-7.51-.83-14.27-3.45-19.91-8.64-.46-.42-.66-.84-.63-1.47.11-2.7.22-5.41.22-8.11,0-.86.58-.83,1.09-1.04-.32-.41-.81-.41-1.22-.55-6.04-2.03-11.6-4.87-16.19-9.39-2.82-2.78-4.99-6.01-6.63-9.61-.14-.31-.16-.7-.51-.89v-.64Zm49.24,34.39c2.48-.12,4.92-.34,7.34-.75,9.21-1.57,17.55-5.14,25.03-10.76,6.5-4.89,12.49-10.25,16.86-17.21,2.75-4.38,4.57-9.09,4.7-14.32.16-6.73-2.38-12.53-6.54-17.62-2.72-3.34-4.38-7.03-5.01-11.24-.12-.8-.35-1.04-1.21-.78-.81.25-.68.6-.46,1.16,1.5,3.88,2.09,7.81.82,11.89-.57,1.83-1.01,3.7-1.47,5.56-1.38,5.57-3.35,10.85-6.92,15.46-6.06,7.82-13.67,13.75-22.27,18.47-9.18,5.04-18.97,8.53-29,11.43-1.61.47-1.59.47-1.62,2.12,0,.51.14.85.55,1.16,1.13.87,2.32,1.65,3.59,2.3,4.92,2.51,10.2,3.19,15.61,3.13Zm34.6-58.2c-.35.43-.63.79-.92,1.15-2.65,3.35-5.15,6.82-8.36,9.68-4.79,4.27-10.5,6.88-16.49,8.92-9.16,3.12-18.65,4.12-28.27,4.06-7.09-.04-14.14-.67-21.16-1.6-.28-.04-.57-.16-.84,0-.54.32-.96,2.19-.64,2.79,1.88,3.49,4.58,6.24,7.83,8.46,6.25,4.26,13.28,6.35,20.67,7.5,1.21.19,2.3.02,3.42-.41,2.15-.83,4.35-1.56,6.49-2.43,9.53-3.85,18.41-8.73,26.04-15.76,6.58-6.07,10.91-13.31,12.24-22.33Z"/>
    <g>
      <path class="cls-1" d="m1379.13,90c.1.07.2.18.31.22,5.29,1.89,8.09,5.86,9.3,11.15.08.36.16.73.25,1.17,1.97-.93,3.91-1.73,5.99-2.16,3.73-.77,7.39-.36,11.04.49.56.13.64.5.71.97.91,5.98-.58,11.21-4.85,15.58-.16.17-.3.36-.45.55.38.35.85.35,1.26.47,8.04,2.41,13.26,8.81,14.12,17.11.83,8.09-1.03,15.64-4.45,22.87-4.98,10.52-12.34,19.22-20.97,26.91-1.33,1.18-3.39,2.69-5.49,4.13-4.58,3.15-10.68,3.01-15.06-.4-9.41-7.32-17.37-16.04-23.48-26.55-3.61-6.22-6.1-12.85-6.77-20.07-.35-3.76-.22-7.49.89-11.14,2.05-6.66,6.57-10.81,13.14-12.86.42-.13.84-.24,1.24-.36,0-.4-.27-.54-.44-.73-4.24-4.41-5.6-9.68-4.7-15.64.09-.59.4-.76.92-.89,5.61-1.39,11.07-1.21,16.31,1.48.14.07.3.12.51.19.36-1.64.73-3.23,1.41-4.73,1.62-3.55,4.18-6.08,7.86-7.45.2-.08.5-.03.59-.32.27,0,.55,0,.82,0Zm-32.77,48.88c-.03,4.66.91,8.98,2.61,13.1,4.83,11.74,12.31,21.82,21.62,30.09,4.26,3.78,10.69,3.75,14.82-.19,6.88-6.55,16.83-16.88,20.8-24.53,3.25-6.25,5.27-12.86,4.82-20.02-.29-4.56-1.78-8.6-5.76-11.2-4.15-2.71-8.81-3.75-13.67-2.65-7.86,1.78-15.69,2.37-23.58.43-3.12-.77-6.21-1.04-9.4-.4-5.89,1.18-10.15,4.16-11.71,10.25-.44,1.73-.57,3.49-.55,5.11Zm32.31-19.58c3.26.02,6.44-.54,9.61-1.19,2.19-.45,4.45-.67,6.33-2.11,1.22-.94,2.41-1.91,3.39-3.09,1.5-1.8,2.62-3.8,3.06-6.15.14-.72-.1-.89-.75-.89-1.27,0-2.53.06-3.76.32-3.11.65-6.06,1.64-8.25,4.12-.35.4-.59.18-.84-.03-1.2-.99-2.55-1.7-4.06-2.06-.56-.14-.52-.42-.43-.89.65-3.42.06-6.64-2.18-9.33-1.89-2.27-2.25-2.27-4.14,0-2.25,2.69-2.83,5.9-2.19,9.33.08.46.17.76-.41.91-1.54.38-2.92,1.1-4.14,2.12-.32.27-.52.23-.83-.09-3.34-3.4-7.58-4.33-12.14-4.37-.54,0-.66.19-.6.74.53,4.54,5.34,9.94,9.8,10.89,4.13.88,8.25,1.81,12.51,1.79Z"/>
      <path class="cls-1" d="m1373.59,170.22c-.18,1.96-1.27,3.69-2.75,5.22-.26.26-.45.2-.67-.04-1.46-1.54-2.63-3.23-2.69-5.45-.05-1.7,1.34-3.01,3.08-2.99,1.74.02,3.08,1.36,3.04,3.26Z"/>
      <path class="cls-1" d="m1391.4,170.22c-.15,1.96-1.27,3.7-2.78,5.25-.22.22-.4.19-.6-.02-1.49-1.56-2.68-3.28-2.75-5.53-.05-1.64,1.31-2.92,3.02-2.95,1.74-.03,3.11,1.29,3.1,3.25Z"/>
      <path class="cls-1" d="m1357.7,137.56c-.14,1.82-1.24,3.5-2.68,5.01-.29.3-.5.23-.76-.03-1.37-1.43-2.41-3.04-2.65-5.05-.22-1.78,1.09-3.26,2.91-3.32,1.87-.06,3.23,1.25,3.17,3.39Z"/>
      <path class="cls-1" d="m1388.33,134.99c1.88,0,3.24,1.42,3.05,3.28-.21,2.06-1.29,3.68-2.7,5.13-.31.31-.52.19-.76-.06-1.33-1.37-2.33-2.93-2.62-4.85-.29-1.96,1.07-3.5,3.02-3.5Z"/>
      <path class="cls-1" d="m1404.23,135.82c1.89.02,3.2,1.47,3,3.33-.22,2.03-1.29,3.62-2.65,5.06-.26.27-.46.33-.75.02-1.38-1.47-2.49-3.07-2.67-5.15-.16-1.87,1.18-3.28,3.07-3.26Z"/>
      <path class="cls-1" d="m1382,153.87c-.17,1.87-1.26,3.59-2.75,5.1-.27.28-.47.15-.68-.07-1.43-1.47-2.52-3.14-2.68-5.24-.14-1.75,1.21-3.12,3-3.14,1.82-.02,3.15,1.27,3.11,3.34Z"/>
      <path class="cls-1" d="m1394.77,151.35c1.98-.02,3.32,1.5,3.06,3.46-.26,1.94-1.28,3.48-2.58,4.87-.27.29-.5.41-.83.06-1.37-1.47-2.49-3.07-2.64-5.15-.14-1.85,1.15-3.21,2.99-3.23Z"/>
      <path class="cls-1" d="m1366.26,154.7c-.15,1.85-1.25,3.57-2.73,5.09-.26.27-.46.19-.68-.04-1.44-1.47-2.52-3.14-2.7-5.23-.15-1.74,1.2-3.13,2.98-3.16,1.81-.03,3.16,1.25,3.13,3.35Z"/>
      <path class="cls-1" d="m1367.47,138.28c0-2,1.28-3.27,2.99-3.29,1.72-.03,3.15,1.2,3.13,2.81-.03,2.28-1.21,4.05-2.75,5.62-.26.27-.46.18-.68-.05-1.48-1.53-2.56-3.25-2.69-5.1Z"/>
    </g>
  </g>
</svg>